<svg xmlns="http://www.w3.org/2000/svg" xmlns:xlink="http://www.w3.org/1999/xlink" width="500" zoomAndPan="magnify" viewBox="0 0 375 374.999991" height="500" preserveAspectRatio="xMidYMid meet" version="1.0"><defs><clipPath id="f80c11e4f3"><path d="M 18.75 51 L 314 51 L 314 345.683594 L 18.75 345.683594 Z M 18.75 51 " clip-rule="nonzero"/></clipPath></defs><path fill="#2e4417" d="M 83.703125 178.203125 C 84.0625 174.023438 85.8125 170.320312 88.382812 166.949219 C 97.425781 155.066406 117.699219 149.617188 131.886719 158.382812 C 140.238281 163.550781 146.941406 170.195312 152.515625 178.058594 C 157.148438 184.589844 161.332031 191.441406 165.839844 198.339844 C 168.984375 193.875 172.15625 189.292969 175.410156 184.761719 C 203.351562 145.871094 234.03125 109.363281 269.617188 77.179688 C 291.445312 57.4375 316.496094 42.773438 343.445312 31.175781 C 348.105469 29.167969 351.984375 29.953125 355.984375 33.984375 C 354.15625 35.691406 352.335938 37.378906 350.527344 39.085938 C 326.992188 61.300781 303.964844 84.03125 283.058594 108.75 C 271.09375 122.886719 260.003906 137.761719 248.589844 152.363281 C 225.609375 181.765625 208.414062 214.839844 188.878906 246.4375 C 181.339844 258.632812 173.871094 270.878906 166.320312 283.070312 C 163.320312 287.914062 159.371094 287.847656 156.359375 282.898438 C 146.59375 266.824219 138.886719 249.75 131.609375 232.445312 C 125.53125 217.996094 118.707031 203.90625 110.035156 190.777344 C 105.746094 184.285156 100.691406 178.945312 92.382812 178.238281 C 89.578125 178.003906 86.726562 178.203125 83.703125 178.203125 Z M 83.703125 178.203125 " fill-opacity="1" fill-rule="nonzero"/><g clip-path="url(#f80c11e4f3)"><path fill="#2e4417" d="M 295.046875 127.898438 L 272.152344 150.785156 C 278.765625 165.378906 282.433594 181.578125 282.433594 198.640625 C 282.433594 262.898438 230.335938 314.976562 166.050781 314.976562 C 101.769531 314.976562 49.667969 262.898438 49.667969 198.640625 C 49.667969 134.382812 101.769531 82.304688 166.050781 82.304688 C 182.125 82.304688 197.421875 85.5625 211.335938 91.445312 L 234.398438 68.394531 C 213.980469 57.660156 190.71875 51.589844 166.050781 51.589844 C 84.804688 51.589844 18.945312 117.425781 18.945312 198.640625 C 18.945312 279.851562 84.804688 345.683594 166.050781 345.683594 C 247.296875 345.683594 313.160156 279.847656 313.160156 198.632812 C 313.160156 173 306.59375 148.882812 295.046875 127.898438 Z M 295.046875 127.898438 " fill-opacity="1" fill-rule="nonzero"/></g></svg>