<svg xmlns="http://www.w3.org/2000/svg" xmlns:xlink="http://www.w3.org/1999/xlink" width="130" zoomAndPan="magnify" viewBox="0 0 97.5 44.999999" height="60" preserveAspectRatio="xMidYMid meet" version="1.0"><defs><g/><clipPath id="27dafafcbd"><path d="M 18 2.363281 L 23 2.363281 L 23 20 L 18 20 Z M 18 2.363281 " clip-rule="nonzero"/></clipPath><clipPath id="cb4feadd89"><path d="M 18 2.363281 L 23 2.363281 L 23 12 L 18 12 Z M 18 2.363281 " clip-rule="nonzero"/></clipPath><clipPath id="e898e98a8e"><path d="M 22 2.363281 L 26 2.363281 L 26 19 L 22 19 Z M 22 2.363281 " clip-rule="nonzero"/></clipPath><clipPath id="ad63c7fb72"><path d="M 0.0859375 13.921875 L 9.285156 13.921875 L 9.285156 17.046875 L 0.0859375 17.046875 Z M 0.0859375 13.921875 " clip-rule="nonzero"/></clipPath><clipPath id="9a4b26883d"><path d="M 0.0859375 13.921875 L 9.207031 13.921875 L 9.207031 16.5 L 0.0859375 16.5 Z M 0.0859375 13.921875 " clip-rule="nonzero"/></clipPath><clipPath id="f81943076a"><path d="M 0.0859375 13.921875 L 7.640625 13.921875 L 7.640625 17.125 L 0.0859375 17.125 Z M 0.0859375 13.921875 " clip-rule="nonzero"/></clipPath><clipPath id="173fa55710"><path d="M 0.0820312 16 L 17 16 L 17 22 L 0.0820312 22 Z M 0.0820312 16 " clip-rule="nonzero"/></clipPath><clipPath id="0c94d86f30"><path d="M 0.0820312 17 L 14 17 L 14 22 L 0.0820312 22 Z M 0.0820312 17 " clip-rule="nonzero"/></clipPath><clipPath id="c763628a81"><path d="M 0.0820312 16 L 10 16 L 10 22 L 0.0820312 22 Z M 0.0820312 16 " clip-rule="nonzero"/></clipPath><clipPath id="5f010a60e6"><path d="M 10.226562 17.359375 L 34.191406 17.359375 L 34.191406 35.519531 L 10.226562 35.519531 Z M 10.226562 17.359375 " clip-rule="nonzero"/></clipPath><clipPath id="5b9d3dc9ab"><path d="M 14 17 L 34.191406 17 L 34.191406 25 L 14 25 Z M 14 17 " clip-rule="nonzero"/></clipPath><clipPath id="ef24c6517a"><path d="M 10.226562 23.527344 L 12.890625 23.527344 L 12.890625 35.519531 L 10.226562 35.519531 Z M 10.226562 23.527344 " clip-rule="nonzero"/></clipPath><clipPath id="a5a259680a"><path d="M 22 2.363281 L 26 2.363281 L 26 18 L 22 18 Z M 22 2.363281 " clip-rule="nonzero"/></clipPath><clipPath id="50cc81cdc0"><path d="M 22 2.363281 L 26 2.363281 L 26 11 L 22 11 Z M 22 2.363281 " clip-rule="nonzero"/></clipPath><clipPath id="01f8945e72"><path d="M 10.695312 19 L 27.847656 19 L 27.847656 35.519531 L 10.695312 35.519531 Z M 10.695312 19 " clip-rule="nonzero"/></clipPath><clipPath id="d2e1f51af8"><path d="M 0.0859375 13.921875 L 7.796875 13.921875 L 7.796875 15.71875 L 0.0859375 15.71875 Z M 0.0859375 13.921875 " clip-rule="nonzero"/></clipPath></defs><g fill="#32620e" fill-opacity="1"><g transform="translate(43.132589, 26.181581)"><g><path d="M 2.890625 5.609375 L 2.890625 -10.390625 C 2.890625 -10.929688 2.769531 -11.3125 2.53125 -11.53125 C 2.300781 -11.757812 1.972656 -11.875 1.546875 -11.875 L 0.46875 -11.875 L 0.46875 -13.8125 L 2.140625 -13.8125 C 2.953125 -13.8125 3.628906 -13.570312 4.171875 -13.09375 C 4.722656 -12.613281 5 -11.796875 5 -10.640625 L 5 5.609375 Z M 2.890625 5.609375 "/></g></g></g><g fill="#32620e" fill-opacity="1"><g transform="translate(48.80511, 26.181581)"><g><path d="M 7.40625 0 L 7.40625 -11.875 L 0.234375 -11.875 L 0.234375 -13.8125 L 11.625 -13.8125 L 11.625 -11.875 L 9.5 -11.875 L 9.5 0 Z M 7.40625 0 "/></g></g></g><g fill="#32620e" fill-opacity="1"><g transform="translate(59.823721, 26.181581)"><g><path d="M 0.578125 0 L 0.578125 -1.9375 L 4.359375 -1.9375 L 1.609375 -13.8125 L 3.71875 -13.8125 L 6.390625 -2.046875 C 7.734375 -2.296875 8.773438 -2.910156 9.515625 -3.890625 C 10.253906 -4.878906 10.707031 -6.34375 10.875 -8.28125 L 11.390625 -13.8125 L 13.5 -13.8125 L 12.984375 -8.28125 C 12.921875 -7.582031 12.8125 -6.851562 12.65625 -6.09375 C 12.5 -5.332031 12.25 -4.585938 11.90625 -3.859375 C 11.5625 -3.140625 11.085938 -2.488281 10.484375 -1.90625 C 9.890625 -1.320312 9.128906 -0.859375 8.203125 -0.515625 C 7.273438 -0.171875 6.144531 0 4.8125 0 Z M 0.578125 0 "/></g></g></g><g fill="#32620e" fill-opacity="1"><g transform="translate(72.826691, 26.181581)"><g/></g></g><g fill="#32620e" fill-opacity="1"><g transform="translate(76.72497, 26.181581)"><g><path d="M 1.75 -4.96875 L 1.75 -13.8125 L 3.859375 -13.8125 L 3.859375 -7.078125 L 2.796875 -4.96875 Z M 1.75 -4.96875 "/></g></g></g><g fill="#32620e" fill-opacity="1"><g transform="translate(81.020114, 26.181581)"><g><path d="M 0.703125 0 L 0.703125 -1.9375 L 5.296875 -1.9375 L 5.296875 -10.390625 C 5.296875 -10.929688 5.179688 -11.3125 4.953125 -11.53125 C 4.734375 -11.757812 4.394531 -11.875 3.9375 -11.875 L 1.46875 -11.875 L 1.46875 -13.8125 L 4.546875 -13.8125 C 5.378906 -13.8125 6.0625 -13.570312 6.59375 -13.09375 C 7.132812 -12.613281 7.40625 -11.796875 7.40625 -10.640625 L 7.40625 0 Z M 0.703125 0 "/></g></g></g><g fill="#32620e" fill-opacity="1"><g transform="translate(89.097214, 26.181581)"><g><path d="M 0.34375 0.234375 L 0.34375 -2 C 0.957031 -2.21875 1.507812 -2.492188 2 -2.828125 C 2.5 -3.171875 2.9375 -3.554688 3.3125 -3.984375 C 4.320312 -5.171875 4.828125 -6.503906 4.828125 -7.984375 L 4.828125 -10.390625 C 4.828125 -10.929688 4.710938 -11.3125 4.484375 -11.53125 C 4.265625 -11.757812 3.929688 -11.875 3.484375 -11.875 L 1.234375 -11.875 L 1.234375 -13.8125 L 4.078125 -13.8125 C 4.910156 -13.8125 5.585938 -13.570312 6.109375 -13.09375 C 6.640625 -12.613281 6.90625 -11.796875 6.90625 -10.640625 L 6.90625 -4.171875 L 7.40625 0 L 5.671875 0 L 5.015625 -3.828125 L 4.921875 -3.828125 C 4.503906 -3.066406 4.019531 -2.414062 3.46875 -1.875 C 2.925781 -1.34375 2.382812 -0.90625 1.84375 -0.5625 C 1.300781 -0.21875 0.800781 0.046875 0.34375 0.234375 Z M 0.34375 0.234375 "/></g></g></g><path fill="#3985dd" d="M 22.675781 19.023438 C 22.675781 19.023438 24.679688 18.367188 27.140625 15.226562 C 28.746094 13.390625 29.371094 12.390625 29.230469 12.253906 C 27.875 12.566406 25.371094 13.832031 23.652344 16.75 C 22.542969 18.636719 22.675781 19.023438 22.675781 19.023438 " fill-opacity="1" fill-rule="nonzero"/><path fill="#deeaee" d="M 24.265625 15.820312 C 24.445312 15.574219 24.632812 15.339844 24.824219 15.117188 C 24.597656 15.378906 24.417969 15.605469 24.265625 15.820312 M 25.441406 14.472656 C 26.402344 13.539062 27.410156 12.933594 28.246094 12.582031 C 26.753906 13.199219 25.816406 14.097656 25.441406 14.472656 " fill-opacity="1" fill-rule="nonzero"/><path fill="#79acdd" d="M 23 18.367188 C 23.398438 18.007812 24.566406 17.078125 25.59375 16.210938 C 26.390625 15.542969 27.78125 14.019531 28.050781 13.675781 C 28.140625 13.558594 29.097656 12.351562 28.929688 12.332031 C 28.691406 12.410156 28.460938 12.492188 28.246094 12.582031 C 27.410156 12.933594 26.402344 13.539062 25.441406 14.472656 C 25.394531 14.519531 25.355469 14.554688 25.324219 14.585938 C 25.132812 14.777344 24.96875 14.957031 24.824219 15.117188 C 24.632812 15.339844 24.445312 15.574219 24.265625 15.820312 C 24.101562 16.046875 23.964844 16.257812 23.824219 16.480469 C 23.820312 16.484375 23.816406 16.492188 23.8125 16.496094 C 23.792969 16.546875 23.773438 16.597656 23.753906 16.648438 C 23.746094 16.675781 23.734375 16.699219 23.71875 16.730469 C 23.816406 16.617188 23.921875 16.507812 24.03125 16.410156 C 24.246094 16.214844 24.460938 16.023438 24.667969 15.8125 C 24.859375 15.613281 24.984375 15.457031 25.203125 15.289062 C 25.214844 15.28125 25.226562 15.277344 25.234375 15.277344 C 25.253906 15.277344 25.261719 15.300781 25.234375 15.351562 C 25.089844 15.589844 24.839844 15.773438 24.648438 15.96875 C 24.421875 16.199219 24.226562 16.429688 23.992188 16.648438 C 23.808594 16.824219 23.628906 17.121094 23.484375 17.308594 C 23.449219 17.390625 23.429688 17.433594 23.40625 17.484375 C 23.382812 17.535156 23.363281 17.582031 23.339844 17.632812 C 23.4375 17.542969 23.492188 17.488281 23.585938 17.390625 C 23.878906 17.085938 24.164062 16.78125 24.472656 16.492188 C 24.792969 16.195312 25.101562 15.890625 25.433594 15.605469 C 25.742188 15.335938 26.0625 15.078125 26.4375 14.925781 C 26.441406 14.921875 26.449219 14.921875 26.453125 14.921875 C 26.492188 14.921875 26.515625 14.988281 26.472656 15.007812 C 25.703125 15.402344 25.121094 16.1875 24.480469 16.773438 C 24.050781 17.167969 23.625 17.695312 23.148438 18.058594 C 23.144531 18.058594 23.144531 18.058594 23.144531 18.058594 C 23.121094 18.113281 23.105469 18.152344 23.085938 18.1875 C 23.054688 18.253906 23.027344 18.3125 23 18.367188 " fill-opacity="1" fill-rule="nonzero"/><g clip-path="url(#27dafafcbd)"><path fill="#dc5004" d="M 22 8.808594 C 22 8.808594 20.714844 6.398438 20.136719 4.738281 C 19.558594 3.078125 18.9375 2.757812 18.9375 2.757812 C 18.9375 2.757812 20.210938 9.433594 20.371094 10.488281 C 20.507812 11.390625 20.507812 11.390625 20.574219 12.050781 C 20.632812 12.652344 20.414062 13.507812 20.925781 14.738281 C 21.492188 16.097656 21.875 17.53125 22.074219 19.003906 C 22.085938 19.074219 22.09375 19.148438 22.105469 19.222656 L 22.640625 19.222656 C 22.640625 19.222656 22.785156 12.511719 22.457031 9.738281 L 22 8.808594 " fill-opacity="1" fill-rule="nonzero"/></g><g clip-path="url(#cb4feadd89)"><path fill="#d43f35" d="M 22.152344 9.117188 L 22.152344 11.617188 C 22.152344 11.617188 20.910156 8.421875 20.664062 7.421875 C 20.414062 6.417969 19.773438 4.917969 19.6875 4.417969 C 19.601562 3.917969 19.238281 3.078125 18.9375 2.757812 C 18.9375 2.757812 19.371094 3.203125 19.894531 4.117188 C 20.375 5.515625 21.171875 7.40625 22.152344 9.117188 " fill-opacity="1" fill-rule="nonzero"/></g><path fill="#dc5004" d="M 20.070312 19.335938 C 20.070312 19.335938 19.558594 14.089844 18.730469 12.742188 C 17.628906 10.945312 11.894531 6.804688 11.253906 6.304688 C 10.738281 5.90625 9.722656 5.101562 9.332031 4.792969 C 9.304688 4.769531 9.269531 4.808594 9.292969 4.835938 C 9.808594 5.578125 11.703125 8.214844 14.101562 9.875 C 15.253906 10.988281 15.960938 11.648438 16.390625 12.628906 C 16.625 13.160156 16.746094 14.082031 16.96875 14.558594 C 17.632812 15.992188 19.6875 19.449219 19.6875 19.449219 L 20.070312 19.335938 " fill-opacity="1" fill-rule="nonzero"/><path fill="#d22c38" d="M 16.1875 18.367188 C 16.1875 18.367188 14.570312 18.085938 13.820312 19.449219 C 13.070312 20.8125 11.703125 22.289062 10.261719 22.539062 C 9.183594 22.726562 7.679688 22.863281 7.015625 23.175781 C 6.53125 23.40625 6.371094 23.855469 5.386719 24.449219 C 5.191406 24.570312 4.871094 24.605469 4.609375 24.671875 C 4.535156 24.691406 4.5 24.585938 4.566406 24.546875 L 4.574219 24.542969 C 5.105469 24.253906 5.578125 23.863281 5.96875 23.382812 C 6.472656 22.761719 6.941406 22.542969 7.269531 22.382812 C 8.101562 21.976562 8.277344 20.949219 8.597656 20.359375 C 8.917969 19.765625 9.777344 18.0625 11.082031 17.855469 C 12.386719 17.652344 16.1875 18.367188 16.1875 18.367188 " fill-opacity="1" fill-rule="nonzero"/><g clip-path="url(#e898e98a8e)"><path fill="#ffd008" d="M 22.769531 18.828125 C 22.769531 18.828125 26.367188 12.082031 24.800781 7.851562 C 23.773438 2.871094 22.769531 2.394531 22.769531 2.394531 C 22.769531 2.394531 23.046875 5.078125 22.339844 7.898438 C 21.632812 10.71875 22.75 16.089844 22.597656 18.839844 L 22.769531 18.828125 " fill-opacity="1" fill-rule="nonzero"/></g><path fill="#ba0e01" d="M 15.425781 17.476562 C 15.425781 17.476562 9.648438 16.058594 9.027344 15.445312 C 8.40625 14.832031 7.960938 13.558594 6.566406 12.921875 C 5.066406 12.242188 3.523438 12.117188 2.820312 11.855469 C 3.03125 11.648438 3.542969 11.464844 5.226562 11.738281 C 6.851562 12.003906 7.335938 12.355469 9.925781 13.492188 C 11.039062 13.980469 15.425781 17.476562 15.425781 17.476562 " fill-opacity="1" fill-rule="nonzero"/><path fill="#ff7133" d="M 19.550781 19.222656 C 20.070312 19.941406 18.679688 19.378906 18.679688 19.378906 C 18.679688 19.378906 16.988281 14.960938 16.65625 13.507812 C 16.324219 12.058594 15.628906 11.359375 14.863281 10.617188 C 14.101562 9.875 11.5 7.972656 10.359375 6.257812 C 9.371094 4.996094 9.292969 4.835938 9.292969 4.835938 C 9.292969 4.835938 12.261719 7.707031 13.730469 8.875 C 15.136719 9.988281 16.640625 11.707031 17.6875 13.757812 C 18.9375 16.195312 19.03125 18.5 19.550781 19.222656 " fill-opacity="1" fill-rule="nonzero"/><g clip-path="url(#ad63c7fb72)"><path fill="#f44c20" d="M 9.285156 15.945312 C 9.285156 15.945312 8.019531 15.582031 6.285156 15.46875 C 4.550781 15.355469 3.160156 14.945312 2.820312 14.765625 C 2.476562 14.582031 0.933594 13.992188 0.101562 13.945312 C 0.101562 13.945312 1.75 14.671875 2.285156 15.171875 C 2.820312 15.675781 3.140625 16.675781 5.128906 16.992188 C 7.121094 17.3125 9.285156 15.945312 9.285156 15.945312 " fill-opacity="1" fill-rule="nonzero"/></g><g clip-path="url(#9a4b26883d)"><path fill="#ff7133" d="M 0.101562 13.945312 C 0.25 13.945312 1.046875 14.125 1.421875 14.152344 C 1.792969 14.179688 2.820312 14.765625 3.871094 15.105469 C 4.925781 15.445312 7.617188 15.492188 7.617188 15.492188 L 8.578125 15.832031 L 9.207031 16.402344 C 9.207031 16.402344 8.867188 16.332031 8.371094 16.226562 C 8.25 16.222656 8.132812 16.210938 8.011719 16.210938 C 7.871094 16.207031 7.734375 16.214844 7.59375 16.226562 C 7.324219 16.246094 7.054688 16.292969 6.785156 16.335938 C 6.277344 16.421875 5.761719 16.5 5.246094 16.46875 C 4.972656 16.453125 4.675781 16.410156 4.429688 16.273438 C 4.414062 16.265625 4.421875 16.238281 4.441406 16.242188 C 4.683594 16.324219 4.921875 16.386719 5.175781 16.410156 C 5.421875 16.433594 5.671875 16.417969 5.921875 16.390625 C 6.050781 16.378906 6.179688 16.351562 6.308594 16.332031 C 6.4375 16.308594 6.566406 16.285156 6.699219 16.261719 C 6.96875 16.210938 7.238281 16.164062 7.511719 16.136719 C 7.621094 16.128906 7.734375 16.121094 7.84375 16.117188 C 7.757812 16.101562 7.667969 16.082031 7.578125 16.066406 C 7.496094 16.070312 7.414062 16.082031 7.332031 16.089844 C 6.992188 16.136719 6.65625 16.191406 6.3125 16.191406 C 5.972656 16.195312 5.628906 16.160156 5.296875 16.089844 C 4.953125 16.019531 4.617188 15.925781 4.28125 15.824219 C 3.90625 15.707031 3.527344 15.589844 3.160156 15.4375 C 3.144531 15.429688 3.152344 15.394531 3.171875 15.402344 C 3.507812 15.5 3.835938 15.628906 4.171875 15.738281 C 4.507812 15.84375 4.84375 15.929688 5.1875 15.992188 C 5.527344 16.054688 5.875 16.09375 6.21875 16.097656 C 6.394531 16.097656 6.566406 16.089844 6.738281 16.070312 C 6.910156 16.050781 7.078125 16.023438 7.246094 16 L 7.253906 16 C 6.609375 15.867188 5.921875 15.730469 5.410156 15.640625 C 4.082031 15.402344 3.332031 15.492188 2.285156 14.71875 C 1.902344 14.4375 -0.0507812 13.945312 0.101562 13.945312 " fill-opacity="1" fill-rule="nonzero"/></g><g clip-path="url(#f81943076a)"><path fill="#dc5004" d="M 7.617188 16.710938 C 7.617188 16.710938 5.71875 17.429688 4.53125 16.863281 C 3.34375 16.300781 3.222656 16.425781 2.449219 15.351562 C 2.449219 15.351562 1.804688 14.679688 0.101562 13.945312 C 0.101562 13.945312 2.191406 14.789062 3.132812 15.640625 C 4.074219 16.492188 4.792969 16.683594 5.773438 16.644531 C 6.757812 16.605469 7.617188 16.710938 7.617188 16.710938 " fill-opacity="1" fill-rule="nonzero"/></g><g clip-path="url(#173fa55710)"><path fill="#d22c38" d="M 16.1875 18.367188 C 16.1875 18.367188 12.292969 17.417969 8.898438 18.3125 C 5.824219 19.121094 6.011719 18.722656 4.691406 19.628906 C 3.375 20.539062 2.4375 21.128906 1.75 21.382812 C 1.128906 21.609375 1.128906 21.609375 0.722656 21.539062 C 0.3125 21.472656 1.769531 21.515625 3.226562 19.335938 C 4.679688 17.152344 5.410156 16.195312 8.449219 16.195312 C 11.488281 16.195312 16.1875 18.367188 16.1875 18.367188 " fill-opacity="1" fill-rule="nonzero"/></g><path fill="#037c7e" d="M 15.664062 18.285156 C 15.664062 18.285156 14.285156 18.355469 13.625 19.78125 C 12.796875 21.578125 11.46875 21.992188 11.035156 22.292969 C 10.601562 22.59375 12.644531 20.882812 13.09375 19.589844 C 13.632812 18.035156 9.605469 18.785156 9.125 19.449219 C 9.125 19.449219 9.835938 18.269531 10.640625 17.910156 C 11.445312 17.550781 15.664062 18.285156 15.664062 18.285156 " fill-opacity="1" fill-rule="nonzero"/><g clip-path="url(#0c94d86f30)"><path fill="#8e0300" d="M 13.894531 17.820312 C 13.894531 17.820312 6.589844 17.925781 5.277344 19.222656 C 3.960938 20.515625 1.25 21.898438 0.722656 21.539062 C 0.722656 21.539062 1.71875 21.449219 3.515625 20.019531 C 4.789062 19.003906 6.199219 17.988281 7.757812 17.636719 C 10.371094 17.046875 12.414062 17.03125 12.796875 17.082031 C 13.339844 17.152344 13.894531 17.820312 13.894531 17.820312 " fill-opacity="1" fill-rule="nonzero"/></g><path fill="#84395e" d="M 17.824219 19.78125 C 17.824219 19.78125 17.929688 19.234375 17.308594 18.886719 C 16.6875 18.542969 11.046875 17.175781 10.296875 16.847656 C 9.121094 16.339844 7.269531 15.421875 6.714844 15.082031 C 6.15625 14.742188 1.871094 13.285156 1.421875 13.332031 C 1.890625 13.210938 3.75 13.417969 6.480469 14.285156 C 9.132812 15.132812 11.101562 16.363281 12.558594 16.679688 C 14.015625 16.992188 17.953125 18.199219 18.507812 18.628906 C 19.066406 19.0625 19.152344 19.449219 19.152344 19.449219 L 17.824219 19.78125 " fill-opacity="1" fill-rule="nonzero"/><path fill="#006363" d="M 15.457031 18.332031 C 15.457031 18.332031 12.191406 17.480469 8.777344 18.363281 C 6.816406 18.871094 5.746094 19.050781 5.152344 19.328125 C 5.402344 18.972656 6.882812 18.03125 11.066406 17.644531 C 15.25 17.253906 15.457031 18.332031 15.457031 18.332031 " fill-opacity="1" fill-rule="nonzero"/><path fill="#b7302c" d="M 20.027344 19.105469 L 19.265625 19.289062 C 19.265625 19.289062 18.800781 14.339844 18.246094 13.316406 C 16.777344 10.617188 10.539062 5.746094 10.539062 5.746094 C 10.539062 5.746094 15.664062 9.050781 18.371094 12.253906 C 19.316406 13.371094 19.152344 13.910156 19.503906 15.351562 C 19.859375 16.789062 20.027344 19.105469 20.027344 19.105469 " fill-opacity="1" fill-rule="nonzero"/><path fill="#51ad97" d="M 12.332031 6.128906 C 12.808594 6.582031 14.253906 8.285156 14.433594 12.285156 C 14.433594 12.316406 14.402344 12.34375 14.375 12.332031 L 12.5 11.617188 C 12.476562 11.609375 12.464844 11.582031 12.476562 11.554688 C 12.621094 11.214844 13.484375 8.949219 12.265625 6.179688 C 12.246094 6.136719 12.296875 6.09375 12.332031 6.128906 " fill-opacity="1" fill-rule="nonzero"/><g clip-path="url(#c763628a81)"><path fill="#e23b50" d="M 9.484375 16.527344 L 8.769531 16.230469 C 8.742188 16.242188 5.804688 15.945312 4.53125 17.574219 C 3.433594 18.859375 2.167969 20.925781 0.652344 21.515625 C 1.421875 21.402344 2.121094 20.863281 4.101562 18.65625 C 6.132812 16.398438 9.484375 16.527344 9.484375 16.527344 " fill-opacity="1" fill-rule="nonzero"/></g><path fill="#d36c71" d="M 9.285156 10.769531 C 9.285156 10.769531 7.742188 9.71875 6.574219 7.808594 C 6.574219 7.808594 6.316406 7.761719 6.78125 8.589844 C 7.246094 9.417969 7.574219 10.578125 7.554688 10.878906 C 7.535156 11.179688 9.285156 10.769531 9.285156 10.769531 " fill-opacity="1" fill-rule="nonzero"/><path fill="#e9d000" d="M 19.5625 19.449219 C 19.5625 19.449219 17.144531 13.582031 15.238281 12.242188 C 13.335938 10.898438 10.25 10.972656 9.433594 10.855469 C 8.507812 10.71875 7.265625 10.394531 6.742188 10.140625 C 6.109375 9.839844 5.515625 9.554688 5.15625 9.390625 C 5.113281 9.371094 5.082031 9.429688 5.117188 9.460938 C 5.710938 10.003906 7.496094 11.636719 7.832031 12.011719 C 8.238281 12.46875 9.429688 14.46875 10.171875 15.128906 C 10.914062 15.789062 12.050781 16.652344 13.398438 16.902344 C 14.746094 17.152344 18.664062 18.699219 19.027344 19.449219 C 19.390625 20.199219 19.5625 19.449219 19.5625 19.449219 " fill-opacity="1" fill-rule="nonzero"/><path fill="#97cbf7" d="M 22.875 18.410156 C 23.097656 17.929688 23.558594 17.25 23.894531 16.851562 C 24.0625 16.65625 24.25 16.480469 24.460938 16.332031 C 24.679688 16.175781 24.925781 16.050781 25.089844 15.820312 C 25.25 15.601562 25.339844 15.332031 25.511719 15.121094 C 25.679688 14.917969 25.917969 14.8125 26.15625 14.738281 C 26.398438 14.660156 26.660156 14.617188 26.886719 14.496094 C 27.117188 14.371094 27.308594 14.183594 27.472656 13.976562 C 27.644531 13.765625 27.792969 13.535156 27.949219 13.3125 C 28.039062 13.191406 28.109375 13.054688 28.191406 12.929688 C 28.261719 12.816406 28.351562 12.71875 28.445312 12.625 C 28.519531 12.558594 28.621094 12.679688 28.542969 12.746094 C 28.460938 12.816406 28.386719 12.898438 28.308594 12.976562 C 28.210938 13.070312 28.097656 13.171875 28.015625 13.285156 C 27.875 13.476562 27.757812 13.6875 27.617188 13.882812 C 27.332031 14.285156 26.996094 14.582031 26.542969 14.738281 C 26.296875 14.824219 26.039062 14.882812 25.816406 15.03125 C 25.570312 15.195312 25.449219 15.464844 25.300781 15.71875 C 25.179688 15.933594 25.039062 16.105469 24.84375 16.25 C 24.628906 16.410156 24.410156 16.554688 24.21875 16.75 C 23.804688 17.171875 23.523438 17.859375 23.0625 18.566406 C 22.996094 18.667969 22.503906 19.199219 22.875 18.410156 " fill-opacity="1" fill-rule="nonzero"/><path fill="#f69a1d" d="M 17.300781 17.410156 C 16.972656 17.097656 16.628906 16.796875 16.289062 16.550781 C 13.164062 15.542969 11.375 14.914062 9.839844 13.121094 C 9.058594 12.214844 7.996094 11.070312 7.140625 10.660156 C 7.128906 10.65625 7.117188 10.652344 7.105469 10.652344 C 7.039062 10.652344 6.996094 10.75 7.058594 10.804688 C 7.878906 11.484375 8.546875 12.414062 8.820312 12.824219 C 9.078125 13.195312 10.273438 14.835938 11.785156 15.472656 C 12.921875 15.949219 15.382812 16.464844 17.300781 17.410156 M 15.425781 17.316406 C 15.1875 17.222656 14.941406 17.128906 14.679688 17.039062 C 14.679688 17.039062 14.679688 17.039062 14.675781 17.039062 C 14.929688 17.132812 15.179688 17.226562 15.425781 17.316406 M 17.738281 17.238281 C 17.546875 17.089844 17.332031 16.945312 17.089844 16.808594 C 17.316406 16.953125 17.53125 17.09375 17.738281 17.238281 " fill-opacity="1" fill-rule="nonzero"/><path fill="#6b2e4e" d="M 17.769531 19.695312 L 18.722656 19.542969 C 18.722656 19.542969 17.925781 18.996094 17.089844 18.488281 C 15.832031 17.734375 12.734375 17.238281 11.785156 16.953125 C 10.835938 16.671875 8.183594 15.847656 7.414062 15.46875 C 7.414062 15.46875 9.554688 16.8125 12.007812 17.382812 C 13.808594 17.804688 18.230469 18.9375 17.769531 19.695312 " fill-opacity="1" fill-rule="nonzero"/><path fill="#ffde3b" d="M 8.472656 10.644531 C 8.472656 10.644531 11.160156 10.984375 11.785156 11.046875 C 12.40625 11.109375 13.839844 11.757812 14.433594 12.285156 C 15.023438 12.816406 15.453125 13.496094 15.042969 13.855469 C 14.632812 14.210938 11.386719 12.402344 10.941406 12.242188 C 10.492188 12.082031 8.65625 11.351562 8.421875 11.148438 C 8.191406 10.945312 7.316406 10.414062 7.894531 10.527344 C 8.472656 10.644531 8.472656 10.644531 8.472656 10.644531 " fill-opacity="1" fill-rule="nonzero"/><path fill="#79c662" d="M 11.785156 15.472656 C 12.921875 15.949219 15.382812 16.464844 17.300781 17.410156 C 16.773438 16.910156 16.199219 16.433594 15.691406 16.175781 C 14.292969 15.464844 12.378906 13.582031 11.238281 13.191406 C 10.097656 12.796875 12.125 13.007812 14.421875 14.949219 C 16.179688 16.433594 17.605469 16.933594 18.671875 18.003906 C 18.613281 17.878906 18.480469 17.777344 18.398438 17.679688 C 18.292969 17.550781 18.195312 17.414062 18.089844 17.28125 C 17.898438 17.03125 17.707031 16.78125 17.523438 16.523438 C 17.136719 15.976562 16.703125 15.511719 16.148438 15.164062 C 15.628906 14.839844 15.035156 14.6875 14.515625 14.371094 C 13.996094 14.054688 13.527344 13.65625 13.003906 13.347656 C 12.40625 13 11.855469 12.605469 11.199219 12.398438 C 11.140625 12.378906 11.132812 12.320312 11.191406 12.335938 C 11.824219 12.5 12.398438 12.824219 12.980469 13.136719 C 13.5625 13.445312 14.066406 13.878906 14.632812 14.210938 C 14.917969 14.382812 15.230469 14.496094 15.53125 14.640625 C 15.816406 14.777344 16.09375 14.929688 16.355469 15.109375 C 16.886719 15.46875 17.292969 15.929688 17.664062 16.464844 C 17.886719 16.785156 18.09375 17.128906 18.382812 17.394531 C 18.410156 17.421875 18.445312 17.449219 18.480469 17.476562 C 18.128906 16.757812 17.695312 15.980469 17.265625 15.472656 C 16.273438 14.300781 14.160156 12.988281 13.527344 12.644531 C 12.621094 12.152344 8.492188 11.355469 9.292969 11.414062 C 10.089844 11.476562 11.875 11.742188 13.375 12.3125 C 14.777344 12.84375 16.96875 14.539062 17.703125 15.328125 C 18.4375 16.117188 19.550781 19.199219 19.550781 19.199219 L 19.265625 19.269531 C 19.265625 19.269531 19.257812 19.25 19.246094 19.21875 L 18.9375 19.3125 C 18.9375 19.3125 17.492188 18.007812 14.679688 17.039062 C 12.726562 16.527344 12.175781 16.285156 11.65625 15.964844 C 11.410156 15.816406 11.160156 15.671875 10.910156 15.535156 C 10.519531 15.324219 9.386719 14.210938 8.769531 12.75 C 8.769531 12.75 10.074219 14.753906 11.785156 15.472656 " fill-opacity="1" fill-rule="nonzero"/><g clip-path="url(#5f010a60e6)"><path fill="#568700" d="M 12.945312 23.289062 C 13.253906 22.546875 13.75 22.1875 13.777344 22.140625 C 15.144531 19.679688 18.035156 19.476562 20.941406 18.984375 C 23.445312 18.519531 30.972656 19.308594 34.21875 17.386719 C 34.226562 17.382812 34.234375 17.382812 34.242188 17.386719 C 34.25 17.394531 34.257812 17.398438 34.261719 17.40625 C 34.273438 17.417969 34.273438 17.4375 34.257812 17.449219 C 34.03125 17.632812 33.5625 17.929688 32.316406 18.53125 C 30.089844 19.609375 26.378906 20.667969 26.378906 20.667969 C 24.609375 21.027344 20.648438 23.105469 17.957031 23.84375 C 17.316406 24.015625 16.65625 24.085938 15.996094 24.054688 C 14.828125 24 14.339844 24.09375 13.585938 25.019531 C 12.464844 26.398438 10.929688 35.523438 10.929688 35.523438 L 10.296875 34.21875 C 10.296875 34.21875 11.5 27.074219 12.945312 23.289062 " fill-opacity="1" fill-rule="nonzero"/></g><g clip-path="url(#5b9d3dc9ab)"><path fill="#74cd81" d="M 34.257812 17.449219 C 32.113281 19.023438 21.957031 21.558594 19.324219 21.449219 C 16.691406 21.339844 14.769531 23.0625 14.433594 24.277344 C 14.433594 24.277344 14.695312 24.03125 16.386719 24.0625 C 17.039062 24.054688 17.433594 23.984375 17.933594 23.847656 C 20.328125 23.199219 23.5 21.671875 24.554688 21.261719 C 24.644531 21.226562 24.734375 21.199219 24.828125 21.171875 C 26.296875 20.765625 31.757812 19.199219 34.257812 17.449219 " fill-opacity="1" fill-rule="nonzero"/></g><path fill="#be5661" d="M 23.792969 18.808594 C 23.792969 18.808594 18.933594 19.546875 17.640625 20.070312 C 17.03125 20.316406 14.996094 20.804688 13.765625 22.230469 C 13.75 22.25 13.722656 22.230469 13.734375 22.207031 C 14.023438 21.695312 15.050781 20.132812 17.070312 19.738281 C 17.132812 19.726562 17.191406 19.714844 17.25 19.695312 C 20.332031 18.75 23.792969 18.808594 23.792969 18.808594 " fill-opacity="1" fill-rule="nonzero"/><g clip-path="url(#ef24c6517a)"><path fill="#037c7e" d="M 12.84375 23.566406 C 12.777344 24.046875 12.683594 25.5625 12.679688 27.265625 C 12.679688 27.265625 11.308594 32.5 10.929688 35.523438 L 10.296875 34.21875 C 11.429688 27.753906 12.464844 24.75 12.726562 23.890625 C 12.734375 23.871094 12.847656 23.546875 12.84375 23.566406 " fill-opacity="1" fill-rule="nonzero"/></g><path fill="#ccc034" d="M 31.246094 18.71875 C 31.246094 18.71875 25.355469 20.421875 24.796875 20.566406 C 24.449219 20.65625 22.921875 21.03125 21.679688 21.296875 C 20.898438 21.46875 20.101562 21.542969 19.300781 21.542969 C 16.167969 21.550781 14.660156 23.425781 14.433594 24.277344 C 14.433594 24.277344 13.960938 24.558594 13.566406 25.050781 C 13.53125 25.09375 13.5 25.140625 13.46875 25.1875 C 13.179688 25.675781 13.511719 23.433594 15.277344 21.984375 C 16.617188 20.878906 20.734375 20.390625 24.394531 19.851562 C 28.046875 19.3125 31.246094 18.71875 31.246094 18.71875 " fill-opacity="1" fill-rule="nonzero"/><path fill="#cbdab0" d="M 15.4375 24.078125 C 15.5625 24.070312 15.730469 24.066406 15.945312 24.058594 C 15.753906 24.0625 15.585938 24.070312 15.4375 24.078125 M 16.316406 24.066406 C 16.5 24.066406 16.683594 24.0625 16.882812 24.042969 C 16.734375 24.054688 16.574219 24.058594 16.394531 24.0625 C 16.363281 24.0625 16.332031 24.0625 16.296875 24.0625 C 16.230469 24.0625 16.164062 24.0625 16.09375 24.058594 C 16.054688 24.058594 16.015625 24.058594 15.976562 24.058594 C 16 24.058594 16.019531 24.0625 16.042969 24.0625 C 16.132812 24.066406 16.222656 24.066406 16.316406 24.066406 M 18.007812 23.828125 C 18.511719 23.695312 19.136719 23.488281 19.960938 23.179688 C 19.292969 23.429688 18.625 23.65625 18.007812 23.828125 M 20.890625 22.816406 C 20.929688 22.800781 20.972656 22.785156 21.015625 22.769531 C 23.253906 21.867188 24.019531 21.449219 24.773438 21.1875 C 24.742188 21.195312 24.710938 21.207031 24.679688 21.21875 C 24.519531 21.28125 24.351562 21.347656 24.179688 21.417969 C 23.433594 21.730469 22.207031 22.289062 20.890625 22.816406 " fill-opacity="1" fill-rule="nonzero"/><path fill="#568700" d="M 16.296875 24.0625 C 16.332031 24.0625 16.363281 24.0625 16.394531 24.0625 C 16.390625 24.0625 16.390625 24.0625 16.386719 24.0625 C 16.289062 24.058594 16.199219 24.058594 16.109375 24.058594 C 16.105469 24.058594 16.101562 24.058594 16.09375 24.058594 C 16.164062 24.0625 16.230469 24.0625 16.296875 24.0625 M 24.179688 21.417969 C 24.351562 21.347656 24.519531 21.28125 24.679688 21.21875 C 24.636719 21.230469 24.597656 21.246094 24.554688 21.261719 C 24.449219 21.304688 24.324219 21.355469 24.179688 21.417969 " fill-opacity="1" fill-rule="nonzero"/><path fill="#6bb759" d="M 15.042969 24.113281 C 15.042969 24.113281 15.082031 24.097656 15.4375 24.078125 C 15.585938 24.070312 15.753906 24.0625 15.945312 24.058594 C 15.953125 24.058594 15.957031 24.058594 15.964844 24.058594 C 15.964844 24.058594 15.96875 24.058594 15.96875 24.058594 C 15.972656 24.058594 15.976562 24.058594 15.976562 24.058594 C 16.015625 24.058594 16.054688 24.058594 16.09375 24.058594 C 16.101562 24.058594 16.105469 24.058594 16.109375 24.058594 C 16.199219 24.058594 16.289062 24.058594 16.386719 24.0625 C 16.390625 24.0625 16.390625 24.0625 16.394531 24.0625 C 16.574219 24.058594 16.734375 24.054688 16.882812 24.042969 C 17.199219 24.011719 17.554688 23.949219 18.007812 23.828125 C 18.625 23.65625 19.292969 23.429688 19.960938 23.179688 C 20.246094 23.070312 20.554688 22.953125 20.890625 22.816406 C 22.207031 22.289062 23.433594 21.730469 24.179688 21.417969 C 24.324219 21.355469 24.449219 21.304688 24.554688 21.261719 C 24.597656 21.246094 24.636719 21.230469 24.679688 21.21875 C 24.710938 21.207031 24.742188 21.195312 24.773438 21.1875 C 24.898438 21.144531 25.023438 21.105469 25.152344 21.070312 C 25.351562 21.015625 25.589844 20.949219 25.816406 20.886719 C 26.273438 20.765625 26.390625 20.6875 26.1875 20.6875 C 25.753906 20.6875 23.855469 21.042969 20.632812 22.109375 C 15.636719 22.722656 15.042969 24.109375 15.042969 24.113281 " fill-opacity="1" fill-rule="nonzero"/><path fill="#d43f35" d="M 22.597656 18.839844 L 22.054688 18.859375 C 22.054688 18.859375 21.644531 17.023438 21.246094 15.96875 C 20.847656 14.914062 20.628906 14.148438 20.605469 13.507812 C 20.578125 12.695312 20.449219 10.394531 20.191406 9.449219 C 20.191406 9.449219 20.621094 10.148438 21.394531 14.015625 C 22.167969 17.878906 22.769531 17.476562 22.769531 17.476562 L 22.597656 18.839844 " fill-opacity="1" fill-rule="nonzero"/><path fill="#ffde3b" d="M 23.800781 13.710938 C 23.820312 13.507812 23.894531 13.304688 23.957031 13.113281 C 24.082031 12.738281 24.210938 12.371094 24.277344 11.980469 C 24.34375 11.609375 24.363281 11.230469 24.355469 10.851562 C 24.347656 10.417969 24.300781 9.984375 24.238281 9.558594 C 24.167969 9.089844 24.050781 8.628906 23.992188 8.15625 C 23.9375 7.738281 24.542969 7.582031 24.671875 7.988281 C 24.808594 8.421875 24.886719 8.875 24.960938 9.324219 C 25.027344 9.707031 25.078125 10.09375 25.101562 10.484375 C 25.152344 11.277344 25.097656 12.089844 24.855469 12.84375 C 24.785156 13.0625 24.703125 13.277344 24.636719 13.496094 C 24.609375 13.578125 24.589844 13.664062 24.566406 13.75 C 24.523438 13.914062 24.484375 14.140625 24.335938 14.242188 C 24.203125 14.328125 24.023438 14.3125 23.90625 14.199219 C 23.769531 14.066406 23.785156 13.886719 23.800781 13.710938 " fill-opacity="1" fill-rule="nonzero"/><g clip-path="url(#a5a259680a)"><path fill="#ffb666" d="M 22.339844 8.066406 C 22.894531 6.042969 22.730469 2.394531 22.730469 2.394531 C 22.730469 2.394531 23.609375 3.226562 24.253906 5.78125 C 25.410156 9.671875 25.160156 10.617188 25.160156 10.617188 C 25.160156 10.617188 24.972656 9.140625 24.597656 8.464844 C 24.609375 8.667969 24.617188 8.867188 24.613281 9.070312 C 24.609375 9.496094 24.585938 9.921875 24.535156 10.34375 C 24.484375 10.765625 24.414062 11.1875 24.335938 11.601562 C 24.296875 11.804688 24.253906 12.003906 24.210938 12.203125 C 24.164062 12.402344 24.128906 12.652344 24.011719 12.816406 C 23.953125 12.898438 23.851562 12.851562 23.84375 12.757812 C 23.832031 12.574219 23.914062 12.371094 23.960938 12.191406 C 24.007812 11.996094 24.054688 11.796875 24.09375 11.597656 C 24.175781 11.171875 24.226562 10.75 24.257812 10.316406 C 24.285156 9.894531 24.300781 9.472656 24.296875 9.050781 C 24.292969 8.847656 24.289062 8.644531 24.285156 8.441406 C 24.28125 8.351562 24.269531 8.246094 24.269531 8.140625 C 24.195312 8.125 24.121094 8.140625 24.039062 8.199219 C 24.039062 8.242188 24.039062 8.28125 24.039062 8.320312 C 24.046875 8.542969 24.042969 8.765625 24.035156 8.988281 C 24.027344 9.210938 24.019531 9.429688 24.007812 9.652344 C 23.996094 9.867188 24.003906 10.101562 23.929688 10.304688 C 23.90625 10.359375 23.816406 10.355469 23.800781 10.292969 C 23.757812 10.113281 23.789062 9.921875 23.796875 9.734375 C 23.808594 9.503906 23.8125 9.269531 23.816406 9.035156 C 23.820312 8.839844 23.820312 8.644531 23.820312 8.449219 C 22.890625 9.894531 22.667969 15.511719 22.769531 17.039062 C 22.871094 18.605469 21.785156 10.089844 22.339844 8.066406 " fill-opacity="1" fill-rule="nonzero"/></g><path fill="#79c662" d="M 22.671875 7.707031 C 22.675781 7.496094 22.667969 16.320312 22.667969 16.667969 C 22.664062 16.859375 22.769531 16.820312 22.789062 16.652344 C 22.828125 16.304688 23.429688 11.738281 23.613281 10.644531 C 23.621094 10.59375 23.691406 10.605469 23.6875 10.65625 C 23.6875 10.65625 23.144531 17.128906 23.160156 17.253906 C 23.171875 17.34375 23.210938 17.304688 23.246094 17.230469 C 23.300781 17.109375 24.722656 11.742188 24.722656 11.742188 C 24.742188 11.695312 24.773438 11.703125 24.769531 11.75 L 24.121094 15.707031 C 24.070312 16.03125 23.039062 18.492188 22.769531 18.828125 C 22.671875 18.839844 22.597656 18.839844 22.597656 18.839844 C 22.597656 18.839844 22.492188 15.945312 22.3125 13.976562 C 22.148438 12.210938 22.667969 7.957031 22.671875 7.707031 " fill-opacity="1" fill-rule="nonzero"/><g clip-path="url(#50cc81cdc0)"><path fill="#e58882" d="M 25.195312 10.421875 C 25.207031 10.273438 25.203125 10.085938 25.1875 9.882812 C 25.195312 10.058594 25.199219 10.238281 25.195312 10.421875 M 22.152344 9.117188 C 22.1875 8.675781 22.25 8.265625 22.339844 7.898438 C 22.453125 7.449219 22.542969 7.003906 22.609375 6.570312 C 22.617188 6.511719 22.621094 6.449219 22.628906 6.386719 C 22.476562 7.578125 22.152344 8.242188 22.152344 9.117188 M 24.433594 6.242188 C 24.257812 5.519531 24.074219 4.929688 23.898438 4.445312 C 24.070312 4.925781 24.25 5.515625 24.433594 6.242188 M 22.695312 5.558594 C 22.773438 4.3125 22.753906 3.128906 22.738281 2.636719 C 22.746094 3.144531 22.753906 4.3125 22.699219 5.535156 C 22.699219 5.542969 22.699219 5.550781 22.695312 5.558594 M 22.773438 2.441406 C 22.769531 2.410156 22.769531 2.394531 22.769531 2.394531 C 22.769531 2.394531 22.769531 2.394531 22.773438 2.394531 C 22.746094 2.375 22.734375 2.363281 22.734375 2.363281 C 22.734375 2.363281 22.734375 2.375 22.734375 2.398438 C 22.742188 2.40625 22.753906 2.417969 22.773438 2.441406 " fill-opacity="1" fill-rule="nonzero"/><path fill="#e47624" d="M 25.160156 10.617188 C 25.179688 10.5625 25.1875 10.496094 25.195312 10.421875 C 25.199219 10.238281 25.195312 10.058594 25.1875 9.882812 C 25.132812 9.242188 24.960938 8.429688 24.855469 8.050781 C 25.308594 10.0625 25.160156 10.617188 25.160156 10.617188 M 22.152344 9.117188 C 22.152344 9.117188 22.179688 8.960938 22.230469 8.710938 C 22.257812 8.457031 22.292969 8.238281 22.339844 8.066406 C 22.460938 7.625 22.546875 7.109375 22.609375 6.570312 C 22.542969 7.003906 22.453125 7.449219 22.339844 7.898438 C 22.25 8.265625 22.1875 8.675781 22.152344 9.117188 M 24.648438 7.203125 C 24.578125 6.859375 24.507812 6.539062 24.433594 6.242188 C 24.25 5.515625 24.070312 4.925781 23.898438 4.445312 C 23.378906 3.011719 22.90625 2.515625 22.773438 2.394531 C 22.769531 2.394531 22.769531 2.394531 22.769531 2.394531 C 22.769531 2.394531 22.769531 2.410156 22.773438 2.441406 C 22.957031 2.644531 23.695312 3.566406 24.253906 5.78125 C 24.410156 6.308594 24.539062 6.777344 24.648438 7.203125 " fill-opacity="1" fill-rule="nonzero"/><path fill="#e46c48" d="M 25.160156 10.617188 C 25.160156 10.617188 25.308594 10.0625 24.855469 8.050781 C 24.835938 7.988281 24.820312 7.9375 24.808594 7.902344 C 24.777344 7.816406 24.753906 7.726562 24.734375 7.636719 C 24.707031 7.488281 24.679688 7.34375 24.648438 7.203125 C 24.539062 6.777344 24.410156 6.308594 24.253906 5.78125 C 23.695312 3.566406 22.957031 2.644531 22.773438 2.441406 C 22.753906 2.417969 22.742188 2.40625 22.734375 2.398438 C 22.734375 2.441406 22.738281 2.523438 22.738281 2.636719 C 22.753906 3.128906 22.773438 4.3125 22.695312 5.558594 C 22.683594 5.863281 22.660156 6.136719 22.628906 6.386719 C 22.621094 6.449219 22.617188 6.511719 22.609375 6.570312 C 22.546875 7.109375 22.460938 7.625 22.339844 8.066406 C 22.292969 8.238281 22.257812 8.457031 22.230469 8.710938 C 22.386719 7.953125 22.746094 6.328125 23.117188 5.507812 C 23.175781 5.378906 23.1875 5.226562 23.152344 5.089844 C 23.109375 4.933594 23.054688 4.742188 23.03125 4.628906 C 23.023438 4.601562 23.046875 4.585938 23.066406 4.585938 C 23.082031 4.585938 23.097656 4.59375 23.105469 4.605469 C 23.15625 4.714844 23.226562 4.929688 23.269531 5.0625 C 23.285156 5.105469 23.320312 5.132812 23.363281 5.132812 C 23.363281 5.132812 23.367188 5.132812 23.371094 5.132812 C 23.375 5.132812 23.378906 5.132812 23.382812 5.132812 C 23.414062 5.132812 23.449219 5.152344 23.46875 5.191406 C 23.546875 5.367188 23.617188 5.546875 23.675781 5.730469 C 23.738281 5.917969 23.789062 6.113281 23.832031 6.308594 C 23.855469 6.414062 23.871094 6.519531 23.886719 6.628906 C 23.894531 6.6875 23.902344 6.746094 23.910156 6.804688 C 23.917969 6.855469 23.921875 6.90625 23.9375 6.953125 C 23.941406 6.964844 23.953125 6.972656 23.964844 6.972656 C 23.976562 6.972656 23.992188 6.964844 23.992188 6.945312 C 23.996094 6.882812 23.984375 6.820312 23.976562 6.761719 C 23.96875 6.707031 23.957031 6.652344 23.949219 6.597656 C 23.929688 6.488281 23.90625 6.378906 23.882812 6.269531 C 23.800781 5.878906 23.679688 5.5 23.511719 5.140625 C 23.484375 5.074219 23.449219 5.011719 23.417969 4.949219 C 23.308594 4.703125 23.191406 4.460938 23.121094 4.195312 C 23.117188 4.183594 23.125 4.175781 23.132812 4.175781 C 23.140625 4.175781 23.144531 4.179688 23.148438 4.1875 C 23.238281 4.449219 23.375 4.691406 23.496094 4.941406 C 23.511719 4.976562 23.539062 5.007812 23.574219 5.023438 C 23.601562 5.035156 23.625 5.054688 23.648438 5.085938 C 23.675781 5.117188 23.78125 5.3125 23.804688 5.367188 C 23.929688 5.640625 24.027344 5.929688 24.113281 6.21875 C 24.199219 6.507812 24.273438 6.804688 24.328125 7.105469 C 24.355469 7.253906 24.378906 7.40625 24.398438 7.558594 C 24.414062 7.710938 24.421875 7.867188 24.445312 8.019531 C 24.449219 8.03125 24.460938 8.039062 24.46875 8.039062 C 24.480469 8.039062 24.496094 8.03125 24.496094 8.015625 C 24.496094 7.847656 24.46875 7.675781 24.445312 7.507812 C 24.417969 7.339844 24.390625 7.167969 24.355469 7 C 24.296875 6.703125 24.222656 6.410156 24.132812 6.121094 C 24.070312 5.933594 24.003906 5.75 23.933594 5.566406 C 23.855469 5.289062 23.757812 5.03125 23.628906 4.769531 C 23.496094 4.507812 23.351562 4.226562 23.359375 3.921875 C 23.359375 3.898438 23.375 3.886719 23.390625 3.886719 C 23.40625 3.886719 23.417969 3.898438 23.421875 3.917969 C 23.441406 4.226562 23.605469 4.503906 23.734375 4.769531 C 23.875 5.050781 23.976562 5.335938 24.054688 5.644531 C 24.136719 5.96875 24.855469 8.050781 25.160156 10.617188 " fill-opacity="1" fill-rule="nonzero"/></g><path fill="#22894c" d="M 15.128906 23.980469 C 15.425781 23.566406 16.226562 23.214844 16.410156 23.121094 C 16.835938 22.90625 17.289062 22.808594 17.753906 22.753906 C 18.316406 22.6875 18.855469 22.578125 19.402344 22.414062 C 19.902344 22.265625 20.410156 22.089844 20.929688 22.042969 C 20.960938 22.042969 20.964844 22.09375 20.933594 22.097656 C 20.433594 22.1875 19.953125 22.335938 19.46875 22.5 C 19.007812 22.660156 18.546875 22.816406 18.0625 22.878906 C 17.589844 22.941406 17.125 22.996094 16.679688 23.183594 C 16.480469 23.265625 16.292969 23.363281 16.109375 23.480469 C 16.015625 23.542969 15.921875 23.609375 15.828125 23.679688 C 15.753906 23.738281 15.683594 23.800781 15.609375 23.867188 C 15.6875 23.851562 15.761719 23.835938 15.835938 23.824219 C 16.113281 23.578125 16.433594 23.410156 16.789062 23.335938 C 17.253906 23.242188 17.734375 23.324219 18.199219 23.257812 C 18.703125 23.1875 19.183594 22.945312 19.65625 22.761719 C 20.136719 22.574219 20.617188 22.386719 21.09375 22.1875 C 21.65625 21.949219 22.214844 21.707031 22.789062 21.5 C 22.816406 21.492188 22.832031 21.539062 22.804688 21.550781 C 21.871094 21.996094 20.898438 22.347656 19.957031 22.773438 C 19.507812 22.972656 19.054688 23.199219 18.589844 23.34375 C 18.128906 23.488281 17.660156 23.449219 17.191406 23.488281 C 16.828125 23.515625 16.480469 23.613281 16.160156 23.78125 C 16.351562 23.757812 16.539062 23.746094 16.710938 23.746094 C 17.503906 23.746094 19.71875 23.398438 21.292969 22.402344 C 22.863281 21.40625 29.773438 19.609375 29.113281 19.828125 C 28.453125 20.046875 22.847656 21.960938 22.207031 22.277344 C 21.570312 22.59375 18.648438 24.183594 16.804688 24.113281 C 14.960938 24.046875 14.285156 24.375 14.285156 24.375 C 14.546875 24.164062 14.753906 24.046875 15.128906 23.980469 " fill-opacity="1" fill-rule="nonzero"/><path fill="#22894c" d="M 13.277344 25.558594 C 13.277344 25.558594 12.910156 23.3125 15.234375 21.746094 C 17.558594 20.175781 25.261719 19.492188 26.285156 19.359375 C 27.308594 19.222656 28.742188 19.023438 28.742188 19.023438 C 28.742188 19.023438 20.671875 20.425781 19.578125 20.8125 C 18.488281 21.199219 15.234375 21.417969 13.722656 24.027344 C 13.722656 24.027344 13.460938 24.519531 13.46875 25.1875 L 13.277344 25.558594 " fill-opacity="1" fill-rule="nonzero"/><path fill="#b7302c" d="M 22.054688 18.859375 L 22.597656 18.839844 C 22.597656 18.839844 22.332031 10.117188 22.152344 9.117188 C 21.96875 8.117188 22.054688 18.859375 22.054688 18.859375 " fill-opacity="1" fill-rule="nonzero"/><path fill="#70b8ab" d="M 13.527344 11.324219 C 13.519531 10.890625 13.472656 8.992188 13 7.484375 C 12.714844 6.640625 12.410156 6.226562 12.34375 6.144531 C 12.339844 6.136719 12.335938 6.132812 12.332031 6.128906 C 13.464844 8.253906 13.226562 10.710938 13.160156 11.230469 C 13.28125 11.257812 13.402344 11.289062 13.527344 11.324219 " fill-opacity="1" fill-rule="nonzero"/><path fill="#3985dd" d="M 14.167969 11.617188 L 13.527344 11.414062 C 13.527344 11.414062 13.539062 7.613281 12.332031 6.128906 C 12.332031 6.128906 13.921875 7.664062 14.167969 11.617188 " fill-opacity="1" fill-rule="nonzero"/><path fill="#dc5004" d="M 19.550781 19.222656 C 19.550781 19.222656 18.488281 15.816406 16.398438 13.3125 C 14.679688 11.105469 12.527344 11.140625 11.785156 11.046875 C 11.042969 10.957031 8.335938 10.636719 7.296875 10.21875 C 6.257812 9.804688 5.15625 9.390625 5.15625 9.390625 C 5.15625 9.390625 7.042969 10.574219 8.011719 10.785156 C 8.984375 10.996094 11.707031 11.347656 12.84375 11.75 C 13.976562 12.148438 15.460938 12.726562 16.945312 14.757812 C 18.429688 16.789062 19.550781 19.222656 19.550781 19.222656 " fill-opacity="1" fill-rule="nonzero"/><path fill="#8e0300" d="M 12.417969 16.644531 C 12.417969 16.644531 9.726562 16.046875 9.027344 15.445312 C 8.328125 14.847656 7.996094 13.640625 7.027344 13.179688 C 6.0625 12.714844 4.160156 12.105469 2.820312 11.855469 C 2.820312 11.855469 6.101562 12.269531 7.441406 13.058594 C 8.785156 13.847656 8.769531 14.789062 9.613281 15.351562 C 10.160156 15.714844 12.417969 16.644531 12.417969 16.644531 " fill-opacity="1" fill-rule="nonzero"/><path fill="#b7302c" d="M 4.609375 24.671875 C 5.332031 24.675781 6.503906 23.566406 7.015625 23.175781 C 7.464844 23.039062 7.621094 22.960938 8.417969 22.824219 C 9.621094 22.613281 11.261719 22.382812 11.925781 21.777344 C 11.925781 21.777344 12.84375 21.355469 13.480469 20.074219 C 14.121094 18.789062 12.558594 18.394531 11.785156 18.515625 C 11.011719 18.636719 9.527344 18.742188 9.207031 19.289062 C 8.597656 20.359375 11.859375 18.5625 12.417969 19.589844 C 12.929688 20.539062 11.90625 21.414062 10.359375 21.988281 C 8.8125 22.5625 7.429688 22.292969 5.558594 24.027344 C 5.195312 24.28125 4.609375 24.671875 4.609375 24.671875 " fill-opacity="1" fill-rule="nonzero"/><path fill="#22894c" d="M 15.597656 18.367188 C 15.597656 18.367188 14.375 18.402344 13.789062 19.589844 C 13.203125 20.773438 12.753906 21.796875 10.425781 22.507812 C 10.425781 22.507812 9.121094 22.703125 8.800781 22.757812 C 8.476562 22.8125 11.433594 22.242188 12.417969 21.125 C 13.828125 19.511719 13.703125 18.722656 14.730469 18.367188 C 15.246094 18.183594 15.597656 18.367188 15.597656 18.367188 " fill-opacity="1" fill-rule="nonzero"/><path fill="#ba0e01" d="M 3.582031 19.421875 C 3.773438 19.257812 3.976562 19.109375 4.175781 18.953125 C 4.378906 18.796875 4.570312 18.628906 4.78125 18.480469 C 5.1875 18.195312 5.609375 17.933594 6.054688 17.726562 C 6.5 17.515625 6.96875 17.355469 7.4375 17.226562 C 7.914062 17.097656 8.394531 17 8.875 16.90625 C 9.222656 16.835938 9.550781 16.773438 9.894531 16.699219 C 9.941406 16.71875 9.988281 16.738281 10.035156 16.757812 C 9.945312 16.777344 9.871094 16.792969 9.78125 16.8125 C 9.542969 16.859375 9.304688 16.90625 9.0625 16.949219 C 8.585938 17.042969 8.109375 17.132812 7.636719 17.25 C 7.164062 17.367188 6.695312 17.507812 6.246094 17.699219 C 5.792969 17.894531 5.363281 18.144531 4.953125 18.421875 C 4.851562 18.492188 4.75 18.5625 4.648438 18.632812 C 4.542969 18.710938 4.433594 18.78125 4.328125 18.855469 C 4.125 19 3.933594 19.160156 3.738281 19.316406 C 3.6875 19.355469 3.640625 19.394531 3.589844 19.429688 L 3.582031 19.421875 " fill-opacity="1" fill-rule="nonzero"/><path fill="#ba0e01" d="M 4.21875 18.550781 C 4.851562 18.066406 5.546875 17.667969 6.265625 17.347656 C 6.625 17.1875 6.992188 17.042969 7.363281 16.925781 C 7.75 16.800781 8.144531 16.699219 8.542969 16.621094 C 8.78125 16.570312 9.019531 16.527344 9.261719 16.492188 C 9.3125 16.484375 9.3125 16.484375 9.363281 16.476562 C 9.410156 16.492188 9.441406 16.515625 9.484375 16.527344 C 9.488281 16.53125 9.398438 16.546875 9.316406 16.558594 C 9.101562 16.59375 8.890625 16.628906 8.679688 16.671875 C 8.277344 16.746094 7.882812 16.839844 7.488281 16.960938 C 7.121094 17.070312 6.757812 17.195312 6.402344 17.347656 C 6.042969 17.496094 5.691406 17.671875 5.34375 17.859375 C 4.957031 18.070312 4.585938 18.304688 4.222656 18.554688 L 4.21875 18.550781 " fill-opacity="1" fill-rule="nonzero"/><path fill="#ba0e01" d="M 4.511719 17.996094 C 4.632812 17.890625 4.765625 17.804688 4.894531 17.714844 C 5.027344 17.621094 5.167969 17.535156 5.304688 17.445312 C 5.578125 17.273438 5.863281 17.117188 6.15625 16.980469 C 6.453125 16.84375 6.757812 16.734375 7.074219 16.660156 C 7.40625 16.578125 7.742188 16.53125 8.082031 16.476562 C 8.269531 16.449219 8.457031 16.417969 8.648438 16.378906 C 8.738281 16.359375 8.832031 16.339844 8.925781 16.316406 C 8.96875 16.304688 8.925781 16.316406 8.96875 16.304688 C 8.988281 16.320312 9.035156 16.328125 9.054688 16.34375 C 9.003906 16.363281 9.011719 16.355469 8.960938 16.371094 C 8.878906 16.394531 8.796875 16.414062 8.71875 16.433594 C 8.546875 16.46875 8.378906 16.5 8.207031 16.523438 C 7.875 16.574219 7.539062 16.617188 7.207031 16.679688 C 7.046875 16.710938 6.890625 16.75 6.730469 16.796875 C 6.578125 16.84375 6.429688 16.902344 6.28125 16.960938 C 5.984375 17.074219 5.699219 17.230469 5.425781 17.398438 C 5.273438 17.492188 5.125 17.59375 4.976562 17.703125 C 4.828125 17.808594 4.683594 17.929688 4.53125 18.03125 C 4.511719 18.046875 4.492188 18.011719 4.511719 17.996094 " fill-opacity="1" fill-rule="nonzero"/><path fill="#dc5004" d="M 7.296875 22.128906 C 7.816406 21.734375 8.226562 21.203125 8.488281 20.585938 C 8.597656 20.328125 8.632812 20.269531 8.769531 20.089844 C 8.941406 20.0625 9.140625 20.023438 9.347656 19.988281 C 9.261719 20.140625 9.1875 20.300781 9.109375 20.457031 C 8.894531 20.890625 8.5625 21.347656 8.152344 21.582031 C 8.121094 21.597656 8.148438 21.65625 8.179688 21.640625 C 8.386719 21.527344 8.554688 21.375 8.710938 21.195312 C 8.867188 21.015625 8.984375 20.808594 9.136719 20.628906 C 9.296875 20.433594 9.40625 20.210938 9.546875 20 C 9.558594 19.980469 9.570312 19.964844 9.585938 19.945312 C 9.753906 19.917969 9.929688 19.890625 10.09375 19.871094 C 9.960938 20.0625 9.839844 20.261719 9.714844 20.457031 C 9.449219 20.875 9.191406 21.300781 8.753906 21.53125 C 8.710938 21.554688 8.746094 21.613281 8.785156 21.59375 C 9.214844 21.390625 9.566406 20.992188 9.851562 20.601562 C 10 20.402344 10.140625 20.191406 10.285156 19.984375 C 10.316406 19.941406 10.347656 19.894531 10.378906 19.851562 C 10.472656 19.847656 10.5625 19.847656 10.644531 19.859375 C 10.539062 19.980469 10.445312 20.121094 10.371094 20.253906 C 10.179688 20.605469 9.984375 20.980469 9.648438 21.195312 C 9.589844 21.230469 9.628906 21.320312 9.691406 21.292969 C 10.265625 21.058594 10.449219 20.316406 10.894531 19.917969 C 11.050781 19.984375 11.128906 20.109375 11.085938 20.324219 C 10.914062 21.132812 9.773438 21.980469 8.769531 21.988281 C 7.765625 21.996094 6.503906 22.847656 6.503906 22.847656 C 6.503906 22.847656 6.59375 22.660156 7.296875 22.128906 " fill-opacity="1" fill-rule="nonzero"/><path fill="#ff7133" d="M 19.394531 3.992188 C 19.433594 4.371094 19.488281 4.707031 19.59375 5.121094 C 19.6875 5.476562 19.785156 5.84375 19.894531 6.195312 C 20.109375 6.902344 20.355469 7.601562 20.5 8.328125 C 20.570312 8.679688 20.617188 9.039062 20.632812 9.398438 C 20.648438 9.773438 20.632812 10.152344 20.699219 10.519531 C 20.734375 10.707031 20.796875 10.886719 20.882812 11.054688 C 20.96875 11.222656 21.074219 11.378906 21.15625 11.546875 C 21.320312 11.886719 21.335938 12.257812 21.332031 12.632812 C 21.332031 12.828125 21.328125 13.027344 21.351562 13.222656 C 21.371094 13.414062 21.417969 13.597656 21.472656 13.777344 C 21.574219 14.113281 21.703125 14.449219 21.703125 14.804688 C 21.703125 14.894531 21.695312 14.976562 21.679688 15.0625 C 21.671875 15.101562 21.613281 15.09375 21.621094 15.054688 C 21.691406 14.691406 21.582031 14.328125 21.476562 13.984375 C 21.425781 13.816406 21.371094 13.644531 21.335938 13.46875 C 21.296875 13.289062 21.285156 13.101562 21.28125 12.917969 C 21.273438 12.53125 21.308594 12.132812 21.183594 11.761719 C 21.066406 11.414062 20.820312 11.136719 20.707031 10.789062 C 20.59375 10.429688 20.589844 10.046875 20.585938 9.671875 C 20.582031 9.28125 20.554688 8.898438 20.488281 8.519531 C 20.367188 7.796875 20.152344 7.09375 19.9375 6.394531 C 19.722656 5.699219 19.472656 4.984375 19.390625 4.25 C 19.382812 4.164062 19.371094 4.082031 19.367188 3.992188 C 19.363281 3.964844 19.390625 3.964844 19.394531 3.992188 " fill-opacity="1" fill-rule="nonzero"/><path fill="#ff7133" d="M 19.390625 3.703125 C 19.613281 4.378906 19.824219 5.058594 20.039062 5.738281 C 20.144531 6.078125 20.253906 6.417969 20.363281 6.761719 C 20.464844 7.082031 20.570312 7.40625 20.652344 7.734375 C 20.734375 8.070312 20.800781 8.40625 20.816406 8.75 C 20.835938 9.089844 20.78125 9.4375 20.839844 9.777344 C 20.9375 10.347656 21.367188 10.773438 21.554688 11.308594 C 21.757812 11.875 21.664062 12.503906 21.867188 13.070312 C 21.890625 13.136719 21.921875 13.203125 21.953125 13.265625 C 21.976562 13.304688 21.917969 13.339844 21.898438 13.300781 C 21.597656 12.78125 21.699219 12.144531 21.578125 11.570312 C 21.519531 11.28125 21.386719 11.027344 21.246094 10.777344 C 21.109375 10.535156 20.960938 10.296875 20.867188 10.03125 C 20.761719 9.722656 20.765625 9.40625 20.769531 9.085938 C 20.777344 8.734375 20.742188 8.390625 20.675781 8.046875 C 20.609375 7.707031 20.511719 7.378906 20.410156 7.050781 C 20.304688 6.710938 20.199219 6.371094 20.089844 6.03125 C 19.871094 5.34375 19.648438 4.660156 19.4375 3.972656 C 19.410156 3.886719 19.386719 3.800781 19.359375 3.71875 C 19.351562 3.695312 19.382812 3.683594 19.390625 3.703125 " fill-opacity="1" fill-rule="nonzero"/><path fill="#ff7133" d="M 19.664062 4.007812 C 19.859375 4.464844 20.042969 4.925781 20.226562 5.386719 C 20.40625 5.84375 20.578125 6.304688 20.734375 6.773438 C 20.890625 7.246094 21.027344 7.726562 21.152344 8.207031 C 21.21875 8.453125 21.269531 8.699219 21.3125 8.945312 C 21.359375 9.195312 21.398438 9.441406 21.464844 9.683594 C 21.496094 9.796875 21.535156 9.914062 21.585938 10.023438 C 21.628906 10.121094 21.679688 10.214844 21.730469 10.3125 C 21.828125 10.5 21.929688 10.703125 21.9375 10.925781 C 21.9375 10.949219 21.9375 10.976562 21.933594 11 C 21.929688 11.039062 21.917969 11.070312 21.90625 11.105469 C 21.890625 11.144531 21.824219 11.132812 21.824219 11.089844 C 21.824219 10.976562 21.828125 10.871094 21.800781 10.761719 C 21.773438 10.65625 21.726562 10.554688 21.679688 10.460938 C 21.582031 10.257812 21.472656 10.066406 21.402344 9.851562 C 21.328125 9.609375 21.296875 9.363281 21.257812 9.113281 C 21.21875 8.871094 21.171875 8.632812 21.125 8.394531 C 21.035156 7.90625 20.898438 7.425781 20.746094 6.957031 C 20.59375 6.484375 20.421875 6.019531 20.246094 5.558594 C 20.066406 5.101562 19.871094 4.648438 19.6875 4.195312 C 19.664062 4.140625 19.644531 4.085938 19.621094 4.03125 C 19.609375 4 19.648438 3.976562 19.664062 4.007812 " fill-opacity="1" fill-rule="nonzero"/><path fill="#43a054" d="M 19.023438 19.246094 C 19.066406 19.234375 19.113281 19.226562 19.160156 19.222656 C 18.960938 18.960938 18.699219 18.691406 18.445312 18.496094 C 18.175781 18.285156 17.878906 18.117188 17.574219 17.960938 C 17.277344 17.808594 16.96875 17.675781 16.660156 17.546875 C 16.304688 17.398438 15.945312 17.261719 15.582031 17.140625 C 15.214844 17.011719 14.84375 16.886719 14.464844 16.800781 C 14.460938 16.800781 14.460938 16.800781 14.460938 16.800781 C 14.449219 16.800781 14.445312 16.820312 14.457031 16.824219 C 14.863281 16.964844 15.273438 17.089844 15.675781 17.238281 C 16.039062 17.371094 16.398438 17.515625 16.757812 17.667969 C 17.050781 17.796875 17.347656 17.929688 17.625 18.089844 C 18.128906 18.382812 18.648438 18.777344 19.023438 19.246094 " fill-opacity="1" fill-rule="nonzero"/><path fill="#43a054" d="M 19.257812 19.199219 C 19.300781 19.199219 19.34375 19.1875 19.382812 19.175781 C 19.335938 19.070312 19.25 18.972656 19.179688 18.890625 C 19.078125 18.777344 18.964844 18.675781 18.851562 18.578125 C 18.414062 18.214844 17.941406 17.902344 17.4375 17.65625 C 17.175781 17.527344 16.90625 17.417969 16.632812 17.324219 C 16.503906 17.277344 16.367188 17.238281 16.234375 17.199219 C 16.105469 17.164062 15.976562 17.125 15.84375 17.105469 C 15.84375 17.105469 15.839844 17.105469 15.839844 17.105469 C 15.816406 17.105469 15.8125 17.140625 15.835938 17.148438 C 15.980469 17.195312 16.125 17.226562 16.269531 17.273438 C 16.417969 17.324219 16.566406 17.378906 16.710938 17.4375 C 17.222656 17.640625 17.710938 17.902344 18.171875 18.214844 C 18.398438 18.371094 18.621094 18.539062 18.832031 18.71875 C 18.933594 18.804688 19.03125 18.894531 19.117188 18.996094 C 19.164062 19.050781 19.21875 19.140625 19.257812 19.199219 " fill-opacity="1" fill-rule="nonzero"/><g clip-path="url(#01f8945e72)"><path fill="#006363" d="M 12.511719 25.59375 C 12.503906 25.578125 12.5 25.558594 12.503906 25.535156 C 12.5625 24.933594 12.640625 24.332031 12.726562 23.734375 C 12.792969 23.253906 12.890625 22.78125 13.214844 22.417969 C 13.5 22.097656 13.878906 21.898438 14.214844 21.644531 C 14.398438 21.503906 14.558594 21.335938 14.734375 21.183594 C 14.917969 21.023438 15.117188 20.902344 15.34375 20.816406 C 15.816406 20.636719 16.3125 20.5 16.800781 20.367188 C 17.347656 20.21875 17.898438 20.09375 18.453125 19.988281 C 18.976562 19.890625 19.5 19.808594 20.023438 19.722656 C 20.542969 19.636719 21.058594 19.515625 21.582031 19.453125 C 22.164062 19.378906 22.75 19.363281 23.328125 19.300781 C 23.921875 19.234375 24.515625 19.160156 25.105469 19.105469 C 25.136719 19.101562 25.132812 19.148438 25.105469 19.152344 C 24.59375 19.207031 24.082031 19.246094 23.570312 19.304688 C 23.308594 19.332031 23.039062 19.347656 22.777344 19.394531 C 22.511719 19.441406 22.25 19.496094 21.984375 19.535156 C 21.476562 19.613281 20.964844 19.671875 20.453125 19.730469 C 19.945312 19.785156 19.4375 19.898438 18.9375 20.007812 C 17.914062 20.238281 16.878906 20.488281 15.882812 20.835938 C 15.648438 20.917969 15.40625 20.996094 15.1875 21.121094 C 14.976562 21.238281 14.808594 21.414062 14.632812 21.582031 C 14.320312 21.882812 13.953125 22.085938 13.621094 22.355469 C 13.433594 22.503906 13.269531 22.683594 13.164062 22.90625 C 13.042969 23.15625 12.996094 23.441406 12.957031 23.71875 C 12.878906 24.25 12.808594 24.785156 12.71875 25.316406 C 12.703125 25.597656 12.691406 25.894531 12.683594 26.171875 C 12.910156 25.527344 13.019531 24.832031 13.207031 24.164062 C 13.347656 23.675781 13.542969 23.183594 13.839844 22.777344 C 14.164062 22.332031 14.613281 22 15.074219 21.722656 C 16.101562 21.101562 17.171875 20.582031 18.324219 20.277344 C 19.546875 19.953125 20.816406 19.824219 22.0625 19.660156 C 22.792969 19.5625 23.519531 19.46875 24.25 19.382812 C 24.972656 19.296875 27.0625 19.058594 27.789062 19 C 27.859375 18.996094 27.859375 19.042969 27.789062 19.058594 C 27.160156 19.175781 25.171875 19.429688 24.539062 19.527344 C 23.886719 19.625 23.238281 19.71875 22.589844 19.808594 C 21.351562 19.976562 20.097656 20.097656 18.871094 20.355469 C 18.300781 20.476562 17.738281 20.644531 17.183594 20.839844 C 16.632812 21.039062 16.074219 21.265625 15.558594 21.558594 C 15.085938 21.828125 14.597656 22.121094 14.199219 22.511719 C 13.816406 22.890625 13.570312 23.363281 13.417969 23.886719 C 13.164062 24.742188 13.089844 25.703125 12.734375 26.523438 C 12.714844 26.585938 12.699219 26.652344 12.679688 26.714844 C 12.683594 26.914062 12.691406 27.082031 12.710938 27.199219 C 12.710938 27.199219 11.382812 32.300781 10.929688 35.523438 L 10.773438 35.148438 L 12.511719 25.59375 " fill-opacity="1" fill-rule="nonzero"/></g><path fill="#71b75a" d="M 13.894531 24.699219 C 14.285156 23.246094 15.566406 22.476562 16.484375 22.066406 C 17.519531 21.597656 18.675781 21.585938 19.78125 21.542969 C 20.367188 21.519531 20.949219 21.46875 21.527344 21.351562 C 22.132812 21.230469 22.730469 21.046875 23.328125 20.878906 C 24.546875 20.535156 25.761719 20.191406 26.976562 19.839844 C 27.269531 19.75 27.746094 19.589844 28.03125 19.472656 C 28.300781 19.363281 28.570312 19.269531 28.859375 19.214844 C 29.222656 19.148438 29.769531 19.074219 30.140625 19.039062 C 30.085938 19.074219 29.324219 19.234375 29.160156 19.269531 C 28.863281 19.328125 28.578125 19.398438 28.296875 19.503906 C 28.03125 19.605469 27.777344 19.730469 27.503906 19.8125 C 26.316406 20.175781 25.113281 20.484375 23.925781 20.851562 C 22.785156 21.207031 21.648438 21.566406 20.453125 21.652344 C 19.324219 21.730469 18.15625 21.679688 17.054688 22.023438 C 15.945312 22.375 15.085938 23.054688 14.507812 24.148438 C 14.464844 24.234375 14.402344 24.285156 14.363281 24.320312 C 14.296875 24.378906 14.144531 24.453125 13.894531 24.699219 " fill-opacity="1" fill-rule="nonzero"/><path fill="#97cbf7" d="M 12.765625 7.527344 C 12.765625 7.515625 12.777344 7.511719 12.78125 7.519531 C 12.972656 8.042969 13.070312 8.585938 13.097656 9.15625 C 13.113281 9.457031 13.109375 9.761719 13.085938 10.066406 C 13.066406 10.34375 13.046875 10.640625 12.96875 10.902344 C 12.957031 10.949219 12.894531 10.945312 12.898438 10.890625 C 12.90625 10.585938 12.964844 10.277344 12.988281 9.972656 C 13.007812 9.6875 13.015625 9.402344 13.003906 9.121094 C 12.988281 8.582031 12.914062 8.035156 12.765625 7.527344 " fill-opacity="1" fill-rule="nonzero"/><path fill="#25567f" d="M 10.296875 34.21875 C 10.359375 34.347656 10.65625 34.964844 10.65625 34.964844 C 10.65625 34.964844 11.566406 28.121094 12.671875 24.113281 C 12.671875 24.113281 11.230469 28.542969 10.296875 34.21875 " fill-opacity="1" fill-rule="nonzero"/><path fill="#84395e" d="M 20.027344 19.105469 C 19.871094 19.132812 19.667969 19.167969 19.667969 19.167969 C 19.667969 19.167969 19.503906 14.667969 18.832031 13.40625 C 18.257812 12.117188 14.480469 8.609375 14.480469 8.609375 C 14.480469 8.609375 17.128906 10.710938 18.371094 12.253906 C 19.957031 13.710938 20.027344 19.105469 20.027344 19.105469 " fill-opacity="1" fill-rule="nonzero"/><path fill="#ee611c" d="M 16.75 14 C 16.761719 14 16.773438 13.984375 16.765625 13.96875 C 16.144531 13.140625 14.851562 11.605469 12.9375 11.332031 C 14.914062 12.164062 16.203125 13.40625 16.738281 13.996094 C 16.742188 14 16.746094 14 16.75 14 " fill-opacity="1" fill-rule="nonzero"/><path fill="#84395e" d="M 22.054688 18.859375 L 22.597656 18.839844 L 22.398438 13.273438 C 22.398438 13.273438 22.566406 18.925781 22.054688 18.859375 " fill-opacity="1" fill-rule="nonzero"/><path fill="#84395e" d="M 22.417969 14.304688 C 22.222656 11.601562 22.003906 8.828125 21.695312 8.21875 L 22.152344 9.117188 C 22.152344 9.117188 22.460938 13.753906 22.417969 14.304688 " fill-opacity="1" fill-rule="nonzero"/><path fill="#e55334" d="M 21.230469 15.261719 C 21.398438 15.25 21.042969 12.953125 20.757812 12.335938 C 20.746094 12.3125 20.730469 12.304688 20.710938 12.304688 C 20.683594 12.304688 20.65625 12.328125 20.660156 12.363281 C 20.679688 12.683594 20.664062 13.414062 20.738281 13.867188 C 20.808594 14.320312 21.082031 15.261719 21.230469 15.261719 " fill-opacity="1" fill-rule="nonzero"/><g clip-path="url(#d2e1f51af8)"><path fill="#e9d000" d="M 7.789062 15.6875 L 7.449219 15.488281 C 7.449219 15.488281 5.320312 15.4375 4.386719 15.210938 C 3.488281 14.96875 3.238281 14.882812 2.625 14.613281 C 2.289062 14.46875 2.039062 14.351562 1.851562 14.273438 C 1.691406 14.210938 1.574219 14.171875 1.476562 14.160156 C 1.265625 14.136719 0.3125 13.945312 0.101562 13.945312 C -0.0742188 13.917969 1.371094 14.160156 1.621094 14.25 C 1.960938 14.371094 2.828125 14.804688 3.238281 14.984375 C 3.644531 15.160156 4.804688 15.316406 5.566406 15.46875 C 6.464844 15.644531 7.835938 15.722656 7.789062 15.6875 " fill-opacity="1" fill-rule="nonzero"/></g><path fill="#f75e78" d="M 8.8125 16.246094 C 8.726562 16.179688 7.308594 16.160156 6.183594 16.539062 C 4.710938 17.105469 4.027344 18.277344 3.226562 19.222656 C 3.226562 19.222656 4.132812 18.140625 4.703125 17.65625 C 4.757812 17.609375 4.8125 17.5625 4.867188 17.515625 C 6.371094 16.144531 8.8125 16.191406 8.8125 16.246094 " fill-opacity="1" fill-rule="nonzero"/><path fill="#568700" d="M 23.339844 20.003906 C 23.695312 19.953125 24.046875 19.902344 24.394531 19.851562 C 25.53125 19.683594 26.625 19.507812 27.59375 19.351562 C 27.546875 19.355469 25.976562 19.558594 24.242188 19.835938 C 23.941406 19.890625 23.640625 19.945312 23.339844 20.003906 " fill-opacity="1" fill-rule="nonzero"/><path fill="#a7ae24" d="M 18.15625 21.316406 C 18.25 21.316406 18.347656 21.308594 18.417969 21.292969 C 19.164062 21.128906 19.996094 21.152344 20.898438 20.988281 C 22.039062 20.777344 27.59375 19.351562 27.59375 19.351562 C 26.625 19.507812 25.53125 19.683594 24.394531 19.851562 C 24.046875 19.902344 23.695312 19.953125 23.339844 20.003906 C 21.863281 20.285156 20.488281 20.5625 19.84375 20.734375 C 19.757812 20.757812 19.671875 20.785156 19.582031 20.8125 C 19.578125 20.8125 19.578125 20.8125 19.578125 20.8125 C 19.21875 20.941406 18.617188 21.050781 17.921875 21.234375 C 17.871094 21.261719 17.886719 21.289062 18 21.308594 C 18.042969 21.316406 18.097656 21.316406 18.15625 21.316406 " fill-opacity="1" fill-rule="nonzero"/><path fill="#328834" d="M 17.921875 21.234375 C 18.617188 21.050781 19.21875 20.941406 19.578125 20.8125 C 19.578125 20.8125 19.578125 20.8125 19.582031 20.8125 C 19.429688 20.855469 19.269531 20.902344 19.117188 20.941406 C 18.628906 21.066406 18.054688 21.164062 17.921875 21.234375 M 19.84375 20.734375 C 20.488281 20.5625 21.863281 20.285156 23.339844 20.003906 C 23.640625 19.945312 23.941406 19.890625 24.242188 19.835938 C 22.871094 20.050781 21.398438 20.316406 20.496094 20.570312 C 20.363281 20.582031 20.125 20.648438 19.84375 20.734375 " fill-opacity="1" fill-rule="nonzero"/><g fill="#32620e" fill-opacity="1"><g transform="translate(5.569429, 41.061005)"><g><path d="M 0.265625 0 L 0.265625 -0.609375 L 0.59375 -0.609375 C 0.863281 -0.609375 1 -0.835938 1 -1.296875 L 1 -3.765625 L 0.28125 -3.765625 L 0.28125 -4.390625 L 2.859375 -4.390625 C 3.359375 -4.390625 3.726562 -4.273438 3.96875 -4.046875 C 4.21875 -3.828125 4.34375 -3.472656 4.34375 -2.984375 L 4.34375 0 L 3.6875 0 L 3.6875 -2.84375 C 3.6875 -3.195312 3.609375 -3.4375 3.453125 -3.5625 C 3.296875 -3.695312 3.082031 -3.765625 2.8125 -3.765625 L 1.671875 -3.765625 L 1.671875 -1.328125 C 1.671875 -0.890625 1.582031 -0.554688 1.40625 -0.328125 C 1.238281 -0.109375 0.957031 0 0.5625 0 Z M 0.265625 0 "/></g></g></g><g fill="#32620e" fill-opacity="1"><g transform="translate(10.127931, 41.061005)"><g><path d="M 0.625 0 L 0.625 -4.390625 L 1.296875 -4.390625 L 1.296875 0 Z M 0.625 0 "/></g></g></g><g fill="#32620e" fill-opacity="1"><g transform="translate(11.674568, 41.061005)"><g><path d="M 0.21875 0 L 0.21875 -0.609375 L 1.6875 -0.609375 L 1.6875 -3.296875 C 1.6875 -3.472656 1.648438 -3.59375 1.578125 -3.65625 C 1.503906 -3.726562 1.394531 -3.765625 1.25 -3.765625 L 0.46875 -3.765625 L 0.46875 -4.390625 L 1.4375 -4.390625 C 1.707031 -4.390625 1.925781 -4.3125 2.09375 -4.15625 C 2.257812 -4 2.34375 -3.738281 2.34375 -3.375 L 2.34375 0 Z M 0.21875 0 "/></g></g></g><g fill="#32620e" fill-opacity="1"><g transform="translate(14.235026, 41.061005)"><g><path d="M 0.5625 -1.578125 L 0.5625 -4.390625 L 1.21875 -4.390625 L 1.21875 -2.25 L 0.890625 -1.578125 Z M 0.5625 -1.578125 "/></g></g></g><g fill="#32620e" fill-opacity="1"><g transform="translate(15.596658, 41.061005)"><g><path d="M 0.109375 0.078125 L 0.109375 -0.640625 C 0.304688 -0.703125 0.484375 -0.785156 0.640625 -0.890625 C 0.796875 -1.003906 0.929688 -1.128906 1.046875 -1.265625 C 1.367188 -1.640625 1.53125 -2.0625 1.53125 -2.53125 L 1.53125 -3.296875 C 1.53125 -3.472656 1.492188 -3.59375 1.421875 -3.65625 C 1.347656 -3.726562 1.242188 -3.765625 1.109375 -3.765625 L 0.390625 -3.765625 L 0.390625 -4.390625 L 1.296875 -4.390625 C 1.554688 -4.390625 1.769531 -4.3125 1.9375 -4.15625 C 2.101562 -4 2.1875 -3.738281 2.1875 -3.375 L 2.1875 -1.328125 L 2.34375 0 L 1.796875 0 L 1.59375 -1.21875 L 1.5625 -1.21875 C 1.425781 -0.976562 1.269531 -0.769531 1.09375 -0.59375 C 0.925781 -0.425781 0.753906 -0.285156 0.578125 -0.171875 C 0.410156 -0.0664062 0.253906 0.015625 0.109375 0.078125 Z M 0.109375 0.078125 "/></g></g></g><g fill="#32620e" fill-opacity="1"><g transform="translate(17.787107, 41.061005)"><g/></g></g><g fill="#32620e" fill-opacity="1"><g transform="translate(19.022935, 41.061005)"><g><path d="M 0.265625 0 L 0.265625 -0.609375 L 0.59375 -0.609375 C 0.863281 -0.609375 1 -0.835938 1 -1.296875 L 1 -3.765625 L 0.28125 -3.765625 L 0.28125 -4.390625 L 2.859375 -4.390625 C 3.359375 -4.390625 3.726562 -4.273438 3.96875 -4.046875 C 4.21875 -3.828125 4.34375 -3.472656 4.34375 -2.984375 L 4.34375 0 L 3.6875 0 L 3.6875 -2.84375 C 3.6875 -3.195312 3.609375 -3.4375 3.453125 -3.5625 C 3.296875 -3.695312 3.082031 -3.765625 2.8125 -3.765625 L 1.671875 -3.765625 L 1.671875 -1.328125 C 1.671875 -0.890625 1.582031 -0.554688 1.40625 -0.328125 C 1.238281 -0.109375 0.957031 0 0.5625 0 Z M 0.265625 0 "/></g></g></g><g fill="#32620e" fill-opacity="1"><g transform="translate(23.581438, 41.061005)"><g><path d="M 2.3125 0 L 3.703125 -3.765625 L 0.59375 -3.765625 L 0.59375 -4.390625 L 4.40625 -4.390625 L 4.40625 -3.875 L 3.015625 0 Z M 0.59375 1.78125 L 0.59375 -2.6875 L 1.265625 -2.6875 L 1.265625 1.78125 Z M 0.59375 1.78125 "/></g></g></g><g fill="#32620e" fill-opacity="1"><g transform="translate(27.866132, 41.061005)"><g><path d="M 0.625 0 L 0.625 -4.390625 L 1.296875 -4.390625 L 1.296875 0 Z M 0.625 0 "/></g></g></g><g fill="#32620e" fill-opacity="1"><g transform="translate(29.412768, 41.061005)"><g><path d="M 0.734375 0 L 0.734375 -2.578125 C 0.734375 -2.816406 0.765625 -3.015625 0.828125 -3.171875 C 0.890625 -3.328125 0.960938 -3.453125 1.046875 -3.546875 C 1.140625 -3.640625 1.222656 -3.707031 1.296875 -3.75 L 1.296875 -3.765625 L 0.1875 -3.765625 L 0.1875 -4.390625 L 2.03125 -4.390625 L 2.03125 -3.828125 C 1.988281 -3.796875 1.914062 -3.738281 1.8125 -3.65625 C 1.707031 -3.570312 1.613281 -3.445312 1.53125 -3.28125 C 1.445312 -3.125 1.40625 -2.921875 1.40625 -2.671875 L 1.40625 0 Z M 0.734375 0 "/></g></g></g><g fill="#32620e" fill-opacity="1"><g transform="translate(31.255409, 41.061005)"><g><path d="M 2.890625 -4.390625 C 3.398438 -4.390625 3.773438 -4.273438 4.015625 -4.046875 C 4.265625 -3.828125 4.390625 -3.472656 4.390625 -2.984375 L 4.390625 0 L 3.71875 0 L 3.71875 -2.84375 C 3.71875 -3.195312 3.640625 -3.4375 3.484375 -3.5625 C 3.335938 -3.695312 3.125 -3.765625 2.84375 -3.765625 L 1.296875 -3.765625 L 1.296875 0 L 0.625 0 L 0.625 -4.390625 Z M 2.890625 -4.390625 "/></g></g></g><g fill="#32620e" fill-opacity="1"><g transform="translate(35.850912, 41.061005)"><g><path d="M 0.265625 0 L 0.265625 -0.609375 L 0.59375 -0.609375 C 0.863281 -0.609375 1 -0.835938 1 -1.296875 L 1 -3.765625 L 0.28125 -3.765625 L 0.28125 -4.390625 L 2.859375 -4.390625 C 3.359375 -4.390625 3.726562 -4.273438 3.96875 -4.046875 C 4.21875 -3.828125 4.34375 -3.472656 4.34375 -2.984375 L 4.34375 0 L 3.6875 0 L 3.6875 -2.84375 C 3.6875 -3.195312 3.609375 -3.4375 3.453125 -3.5625 C 3.296875 -3.695312 3.082031 -3.765625 2.8125 -3.765625 L 1.671875 -3.765625 L 1.671875 -1.328125 C 1.671875 -0.890625 1.582031 -0.554688 1.40625 -0.328125 C 1.238281 -0.109375 0.957031 0 0.5625 0 Z M 0.265625 0 "/></g></g></g><g fill="#32620e" fill-opacity="1"><g transform="translate(40.409413, 41.061005)"><g><path d="M 0.625 0 L 0.625 -4.390625 L 1.296875 -4.390625 L 1.296875 0 Z M 0.625 0 "/></g></g></g><g fill="#32620e" fill-opacity="1"><g transform="translate(41.956049, 41.061005)"><g/></g></g><g fill="#32620e" fill-opacity="1"><g transform="translate(43.191876, 41.061005)"><g><path d="M 2.890625 -4.390625 C 3.398438 -4.390625 3.773438 -4.273438 4.015625 -4.046875 C 4.265625 -3.828125 4.390625 -3.472656 4.390625 -2.984375 L 4.390625 0 L 3.71875 0 L 3.71875 -2.84375 C 3.71875 -3.195312 3.640625 -3.4375 3.484375 -3.5625 C 3.335938 -3.695312 3.125 -3.765625 2.84375 -3.765625 L 1.296875 -3.765625 L 1.296875 0 L 0.625 0 L 0.625 -4.390625 Z M 2.890625 -4.390625 "/></g></g></g><g fill="#32620e" fill-opacity="1"><g transform="translate(47.787379, 41.061005)"><g><path d="M 0.625 0 L 0.625 -4.390625 L 1.296875 -4.390625 L 1.296875 0 Z M 0.625 0 "/></g></g></g><g fill="#32620e" fill-opacity="1"><g transform="translate(49.334014, 41.061005)"><g><path d="M 0.265625 0 L 0.265625 -0.609375 L 0.59375 -0.609375 C 0.863281 -0.609375 1 -0.835938 1 -1.296875 L 1 -3.765625 L 0.28125 -3.765625 L 0.28125 -4.390625 L 2.859375 -4.390625 C 3.359375 -4.390625 3.726562 -4.273438 3.96875 -4.046875 C 4.21875 -3.828125 4.34375 -3.472656 4.34375 -2.984375 L 4.34375 0 L 3.6875 0 L 3.6875 -2.84375 C 3.6875 -3.195312 3.609375 -3.4375 3.453125 -3.5625 C 3.296875 -3.695312 3.082031 -3.765625 2.8125 -3.765625 L 1.671875 -3.765625 L 1.671875 -1.328125 C 1.671875 -0.890625 1.582031 -0.554688 1.40625 -0.328125 C 1.238281 -0.109375 0.957031 0 0.5625 0 Z M 0.265625 0 "/></g></g></g><g fill="#32620e" fill-opacity="1"><g transform="translate(53.892515, 41.061005)"><g><path d="M 0.5625 -1.578125 L 0.5625 -4.390625 L 1.21875 -4.390625 L 1.21875 -2.25 L 0.890625 -1.578125 Z M 0.5625 -1.578125 "/></g></g></g><g fill="#32620e" fill-opacity="1"><g transform="translate(55.254147, 41.061005)"><g><path d="M 0.375 0 L 0.375 -0.609375 L 2.109375 -0.609375 C 2.554688 -0.609375 2.882812 -0.753906 3.09375 -1.046875 C 3.300781 -1.347656 3.40625 -1.726562 3.40625 -2.1875 C 3.40625 -2.707031 3.28125 -3.097656 3.03125 -3.359375 C 2.789062 -3.628906 2.421875 -3.765625 1.921875 -3.765625 L 1.03125 -3.765625 L 1.03125 -3.203125 C 1.03125 -2.910156 1.09375 -2.691406 1.21875 -2.546875 C 1.34375 -2.410156 1.507812 -2.34375 1.71875 -2.34375 C 1.757812 -2.34375 1.800781 -2.34375 1.84375 -2.34375 C 1.882812 -2.351562 1.925781 -2.359375 1.96875 -2.359375 L 1.96875 -1.75 C 1.863281 -1.726562 1.753906 -1.71875 1.640625 -1.71875 C 1.203125 -1.71875 0.878906 -1.847656 0.671875 -2.109375 C 0.472656 -2.367188 0.375 -2.710938 0.375 -3.140625 L 0.375 -4.390625 L 2 -4.390625 C 2.457031 -4.390625 2.84375 -4.296875 3.15625 -4.109375 C 3.46875 -3.929688 3.703125 -3.675781 3.859375 -3.34375 C 4.015625 -3.019531 4.09375 -2.644531 4.09375 -2.21875 C 4.09375 -1.789062 4.015625 -1.410156 3.859375 -1.078125 C 3.710938 -0.742188 3.488281 -0.476562 3.1875 -0.28125 C 2.894531 -0.09375 2.535156 0 2.109375 0 Z M 0.375 0 "/></g></g></g><g fill="#32620e" fill-opacity="1"><g transform="translate(59.339038, 41.061005)"><g/></g></g><g fill="#32620e" fill-opacity="1"><g transform="translate(60.574865, 41.061005)"><g><path d="M 0.640625 1.171875 L 0.59375 1.078125 C 0.769531 0.972656 0.898438 0.847656 0.984375 0.703125 C 1.066406 0.554688 1.125 0.375 1.15625 0.15625 L 0.921875 0.046875 C 0.773438 -0.015625 0.660156 -0.101562 0.578125 -0.21875 C 0.503906 -0.332031 0.46875 -0.445312 0.46875 -0.5625 C 0.46875 -0.726562 0.523438 -0.867188 0.640625 -0.984375 C 0.753906 -1.097656 0.90625 -1.15625 1.09375 -1.15625 C 1.28125 -1.15625 1.429688 -1.085938 1.546875 -0.953125 C 1.660156 -0.828125 1.71875 -0.644531 1.71875 -0.40625 C 1.71875 -0.132812 1.660156 0.109375 1.546875 0.328125 C 1.441406 0.546875 1.304688 0.726562 1.140625 0.875 C 0.972656 1.019531 0.804688 1.117188 0.640625 1.171875 Z M 0.640625 1.171875 "/></g></g></g><g fill="#32620e" fill-opacity="1"><g transform="translate(62.417505, 41.061005)"><g><path d="M 3.5625 0 L 3.5625 -2.84375 C 3.5625 -3.195312 3.484375 -3.4375 3.328125 -3.5625 C 3.179688 -3.695312 2.972656 -3.765625 2.703125 -3.765625 L 0.625 -3.765625 L 0.625 -4.390625 L 2.75 -4.390625 C 3.25 -4.390625 3.617188 -4.273438 3.859375 -4.046875 C 4.109375 -3.828125 4.234375 -3.472656 4.234375 -2.984375 L 4.234375 0 Z M 0.625 0 L 0.625 -2.625 L 1.296875 -2.625 L 1.296875 0 Z M 0.625 0 "/></g></g></g><g fill="#32620e" fill-opacity="1"><g transform="translate(66.865009, 41.061005)"><g><path d="M 2.59375 -4.46875 C 3.101562 -4.46875 3.492188 -4.328125 3.765625 -4.046875 C 4.046875 -3.773438 4.1875 -3.414062 4.1875 -2.96875 L 4.1875 0 L 2.265625 0 L 2.265625 -0.609375 L 3.515625 -0.609375 L 3.515625 -2.859375 C 3.515625 -3.171875 3.4375 -3.421875 3.28125 -3.609375 C 3.125 -3.796875 2.878906 -3.890625 2.546875 -3.890625 C 2.160156 -3.890625 1.867188 -3.753906 1.671875 -3.484375 C 1.472656 -3.222656 1.347656 -2.867188 1.296875 -2.421875 L 1.03125 0 L 0.375 0 L 0.703125 -3.03125 L 0.40625 -4.390625 L 1.078125 -4.390625 L 1.203125 -3.765625 L 1.21875 -3.765625 C 1.300781 -3.890625 1.398438 -4.003906 1.515625 -4.109375 C 1.640625 -4.210938 1.785156 -4.296875 1.953125 -4.359375 C 2.128906 -4.429688 2.34375 -4.46875 2.59375 -4.46875 Z M 2.59375 -4.46875 "/></g></g></g><g fill="#32620e" fill-opacity="1"><g transform="translate(71.260711, 41.061005)"><g><path d="M 2.3125 0 L 3.703125 -3.765625 L 0.59375 -3.765625 L 0.59375 -4.390625 L 4.40625 -4.390625 L 4.40625 -3.875 L 3.015625 0 Z M 0.59375 1.78125 L 0.59375 -2.6875 L 1.265625 -2.6875 L 1.265625 1.78125 Z M 0.59375 1.78125 "/></g></g></g><g fill="#32620e" fill-opacity="1"><g transform="translate(75.545409, 41.061005)"><g><path d="M 3.5625 0 L 3.5625 -2.84375 C 3.5625 -3.195312 3.484375 -3.4375 3.328125 -3.5625 C 3.179688 -3.695312 2.972656 -3.765625 2.703125 -3.765625 L 0.625 -3.765625 L 0.625 -4.390625 L 2.75 -4.390625 C 3.25 -4.390625 3.617188 -4.273438 3.859375 -4.046875 C 4.109375 -3.828125 4.234375 -3.472656 4.234375 -2.984375 L 4.234375 0 Z M 0.625 0 L 0.625 -2.625 L 1.296875 -2.625 L 1.296875 0 Z M 0.625 0 "/></g></g></g><g fill="#32620e" fill-opacity="1"><g transform="translate(79.992913, 41.061005)"><g/></g></g><g fill="#32620e" fill-opacity="1"><g transform="translate(81.228744, 41.061005)"><g><path d="M 0.640625 1.171875 L 0.59375 1.078125 C 0.769531 0.972656 0.898438 0.847656 0.984375 0.703125 C 1.066406 0.554688 1.125 0.375 1.15625 0.15625 L 0.921875 0.046875 C 0.773438 -0.015625 0.660156 -0.101562 0.578125 -0.21875 C 0.503906 -0.332031 0.46875 -0.445312 0.46875 -0.5625 C 0.46875 -0.726562 0.523438 -0.867188 0.640625 -0.984375 C 0.753906 -1.097656 0.90625 -1.15625 1.09375 -1.15625 C 1.28125 -1.15625 1.429688 -1.085938 1.546875 -0.953125 C 1.660156 -0.828125 1.71875 -0.644531 1.71875 -0.40625 C 1.71875 -0.132812 1.660156 0.109375 1.546875 0.328125 C 1.441406 0.546875 1.304688 0.726562 1.140625 0.875 C 0.972656 1.019531 0.804688 1.117188 0.640625 1.171875 Z M 0.640625 1.171875 "/></g></g></g><g fill="#32620e" fill-opacity="1"><g transform="translate(83.071385, 41.061005)"><g><path d="M 0.921875 1.78125 L 0.921875 -3.296875 C 0.921875 -3.472656 0.882812 -3.59375 0.8125 -3.65625 C 0.738281 -3.726562 0.628906 -3.765625 0.484375 -3.765625 L 0.140625 -3.765625 L 0.140625 -4.390625 L 0.6875 -4.390625 C 0.9375 -4.390625 1.144531 -4.3125 1.3125 -4.15625 C 1.488281 -4 1.578125 -3.738281 1.578125 -3.375 L 1.578125 1.78125 Z M 0.921875 1.78125 "/></g></g></g><g fill="#32620e" fill-opacity="1"><g transform="translate(84.869629, 41.061005)"><g><path d="M 0.625 0 L 0.625 -4.390625 L 1.296875 -4.390625 L 1.296875 0 Z M 0.625 0 "/></g></g></g><g fill="#32620e" fill-opacity="1"><g transform="translate(86.416265, 41.061005)"><g><path d="M 0.21875 0 L 0.21875 -0.609375 L 1.6875 -0.609375 L 1.6875 -3.296875 C 1.6875 -3.472656 1.648438 -3.59375 1.578125 -3.65625 C 1.503906 -3.726562 1.394531 -3.765625 1.25 -3.765625 L 0.46875 -3.765625 L 0.46875 -4.390625 L 1.4375 -4.390625 C 1.707031 -4.390625 1.925781 -4.3125 2.09375 -4.15625 C 2.257812 -4 2.34375 -3.738281 2.34375 -3.375 L 2.34375 0 Z M 0.21875 0 "/></g></g></g><g fill="#32620e" fill-opacity="1"><g transform="translate(88.976722, 41.061005)"><g><path d="M 0.21875 0 L 0.21875 -0.609375 L 1.640625 -0.609375 C 2.085938 -0.609375 2.414062 -0.753906 2.625 -1.046875 C 2.832031 -1.347656 2.9375 -1.726562 2.9375 -2.1875 C 2.9375 -2.707031 2.8125 -3.097656 2.5625 -3.359375 C 2.320312 -3.628906 1.953125 -3.765625 1.453125 -3.765625 L 0.21875 -3.765625 L 0.21875 -4.390625 L 1.53125 -4.390625 C 1.988281 -4.390625 2.375 -4.296875 2.6875 -4.109375 C 3 -3.929688 3.234375 -3.675781 3.390625 -3.34375 C 3.546875 -3.019531 3.625 -2.644531 3.625 -2.21875 C 3.625 -1.789062 3.546875 -1.410156 3.390625 -1.078125 C 3.242188 -0.742188 3.023438 -0.476562 2.734375 -0.28125 C 2.441406 -0.09375 2.078125 0 1.640625 0 Z M 0.21875 0 "/></g></g></g><g fill="#32620e" fill-opacity="1"><g transform="translate(92.595405, 41.061005)"><g><path d="M 0.265625 0 L 0.265625 -0.609375 L 0.59375 -0.609375 C 0.863281 -0.609375 1 -0.835938 1 -1.296875 L 1 -3.765625 L 0.28125 -3.765625 L 0.28125 -4.390625 L 2.859375 -4.390625 C 3.359375 -4.390625 3.726562 -4.273438 3.96875 -4.046875 C 4.21875 -3.828125 4.34375 -3.472656 4.34375 -2.984375 L 4.34375 0 L 3.6875 0 L 3.6875 -2.84375 C 3.6875 -3.195312 3.609375 -3.4375 3.453125 -3.5625 C 3.296875 -3.695312 3.082031 -3.765625 2.8125 -3.765625 L 1.671875 -3.765625 L 1.671875 -1.328125 C 1.671875 -0.890625 1.582031 -0.554688 1.40625 -0.328125 C 1.238281 -0.109375 0.957031 0 0.5625 0 Z M 0.265625 0 "/></g></g></g></svg>