<svg xmlns="http://www.w3.org/2000/svg" xmlns:xlink="http://www.w3.org/1999/xlink" width="250" zoomAndPan="magnify" viewBox="0 0 187.5 89.999999" height="120" preserveAspectRatio="xMidYMid meet" version="1.0"><defs><g/><clipPath id="07dd79f8a2"><path d="M 55 3.851562 L 60 3.851562 L 60 28 L 55 28 Z M 55 3.851562 " clip-rule="nonzero"/></clipPath><clipPath id="3e8fa77f9d"><path d="M 23.359375 20.582031 L 36.675781 20.582031 L 36.675781 25.101562 L 23.359375 25.101562 Z M 23.359375 20.582031 " clip-rule="nonzero"/></clipPath><clipPath id="318396424a"><path d="M 23.359375 20.582031 L 36.5625 20.582031 L 36.5625 24.3125 L 23.359375 24.3125 Z M 23.359375 20.582031 " clip-rule="nonzero"/></clipPath><clipPath id="f2e3c03155"><path d="M 23.359375 20.582031 L 34.296875 20.582031 L 34.296875 25.214844 L 23.359375 25.214844 Z M 23.359375 20.582031 " clip-rule="nonzero"/></clipPath><clipPath id="fc52e77d91"><path d="M 38.039062 25.554688 L 72.734375 25.554688 L 72.734375 51.851562 L 38.039062 51.851562 Z M 38.039062 25.554688 " clip-rule="nonzero"/></clipPath><clipPath id="8caf5acfd5"><path d="M 44 25 L 72.734375 25 L 72.734375 36 L 44 36 Z M 44 25 " clip-rule="nonzero"/></clipPath><clipPath id="e303c1a785"><path d="M 38.039062 34.484375 L 41.894531 34.484375 L 41.894531 51.851562 L 38.039062 51.851562 Z M 38.039062 34.484375 " clip-rule="nonzero"/></clipPath><clipPath id="96fdca109e"><path d="M 55 3.851562 L 60 3.851562 L 60 26 L 55 26 Z M 55 3.851562 " clip-rule="nonzero"/></clipPath><clipPath id="5a0e8cfeda"><path d="M 55 3.851562 L 60 3.851562 L 60 16 L 55 16 Z M 55 3.851562 " clip-rule="nonzero"/></clipPath><clipPath id="a76f928627"><path d="M 38.71875 27.929688 L 63.550781 27.929688 L 63.550781 51.851562 L 38.71875 51.851562 Z M 38.71875 27.929688 " clip-rule="nonzero"/></clipPath><clipPath id="44cc2b23dc"><path d="M 38 35 L 42 35 L 42 51.851562 L 38 51.851562 Z M 38 35 " clip-rule="nonzero"/></clipPath><clipPath id="d2475ea813"><path d="M 23.359375 20.582031 L 34.523438 20.582031 L 34.523438 23.179688 L 23.359375 23.179688 Z M 23.359375 20.582031 " clip-rule="nonzero"/></clipPath></defs><g fill="#32620e" fill-opacity="1"><g transform="translate(84.518008, 39.659114)"><g><path d="M 4.3125 8.359375 L 4.3125 -15.484375 C 4.3125 -16.296875 4.132812 -16.867188 3.78125 -17.203125 C 3.4375 -17.546875 2.941406 -17.71875 2.296875 -17.71875 L 0.703125 -17.71875 L 0.703125 -20.609375 L 3.203125 -20.609375 C 4.410156 -20.609375 5.421875 -20.25 6.234375 -19.53125 C 7.046875 -18.8125 7.453125 -17.59375 7.453125 -15.875 L 7.453125 8.359375 Z M 4.3125 8.359375 "/></g></g></g><g fill="#32620e" fill-opacity="1"><g transform="translate(92.974399, 39.659114)"><g><path d="M 11.03125 0 L 11.03125 -17.71875 L 0.34375 -17.71875 L 0.34375 -20.609375 L 17.34375 -20.609375 L 17.34375 -17.71875 L 14.171875 -17.71875 L 14.171875 0 Z M 11.03125 0 "/></g></g></g><g fill="#32620e" fill-opacity="1"><g transform="translate(109.400316, 39.659114)"><g><path d="M 0.875 0 L 0.875 -2.890625 L 6.515625 -2.890625 L 2.40625 -20.609375 L 5.53125 -20.609375 L 9.53125 -3.0625 C 11.53125 -3.4375 13.082031 -4.351562 14.1875 -5.8125 C 15.289062 -7.269531 15.96875 -9.453125 16.21875 -12.359375 L 16.984375 -20.609375 L 20.125 -20.609375 L 19.359375 -12.359375 C 19.265625 -11.316406 19.097656 -10.222656 18.859375 -9.078125 C 18.628906 -7.941406 18.257812 -6.832031 17.75 -5.75 C 17.238281 -4.675781 16.535156 -3.703125 15.640625 -2.828125 C 14.753906 -1.960938 13.617188 -1.273438 12.234375 -0.765625 C 10.859375 -0.253906 9.171875 0 7.171875 0 Z M 0.875 0 "/></g></g></g><g fill="#32620e" fill-opacity="1"><g transform="translate(128.784351, 39.659114)"><g/></g></g><g fill="#32620e" fill-opacity="1"><g transform="translate(134.595832, 39.659114)"><g><path d="M 2.609375 -7.421875 L 2.609375 -20.609375 L 5.75 -20.609375 L 5.75 -10.546875 L 4.171875 -7.421875 Z M 2.609375 -7.421875 "/></g></g></g><g fill="#32620e" fill-opacity="1"><g transform="translate(140.998937, 39.659114)"><g><path d="M 1.046875 0 L 1.046875 -2.890625 L 7.90625 -2.890625 L 7.90625 -15.484375 C 7.90625 -16.296875 7.734375 -16.867188 7.390625 -17.203125 C 7.054688 -17.546875 6.554688 -17.71875 5.890625 -17.71875 L 2.1875 -17.71875 L 2.1875 -20.609375 L 6.78125 -20.609375 C 8.019531 -20.609375 9.035156 -20.25 9.828125 -19.53125 C 10.628906 -18.8125 11.03125 -17.59375 11.03125 -15.875 L 11.03125 0 Z M 1.046875 0 "/></g></g></g><g fill="#32620e" fill-opacity="1"><g transform="translate(153.039875, 39.659114)"><g><path d="M 0.515625 0.34375 L 0.515625 -3 C 1.421875 -3.320312 2.242188 -3.734375 2.984375 -4.234375 C 3.734375 -4.734375 4.382812 -5.304688 4.9375 -5.953125 C 6.445312 -7.710938 7.203125 -9.695312 7.203125 -11.90625 L 7.203125 -15.484375 C 7.203125 -16.296875 7.035156 -16.867188 6.703125 -17.203125 C 6.367188 -17.546875 5.863281 -17.71875 5.1875 -17.71875 L 1.84375 -17.71875 L 1.84375 -20.609375 L 6.09375 -20.609375 C 7.320312 -20.609375 8.328125 -20.25 9.109375 -19.53125 C 9.898438 -18.8125 10.296875 -17.59375 10.296875 -15.875 L 10.296875 -6.234375 L 11.03125 0 L 8.453125 0 L 7.484375 -5.703125 L 7.34375 -5.703125 C 6.71875 -4.566406 6 -3.597656 5.1875 -2.796875 C 4.375 -1.992188 3.5625 -1.335938 2.75 -0.828125 C 1.9375 -0.316406 1.191406 0.0703125 0.515625 0.34375 Z M 0.515625 0.34375 "/></g></g></g><path fill="#3985dd" d="M 56.0625 27.96875 C 56.0625 27.96875 58.964844 27.011719 62.523438 22.472656 C 64.851562 19.808594 65.75 18.363281 65.546875 18.167969 C 63.585938 18.617188 59.960938 20.453125 57.476562 24.675781 C 55.867188 27.40625 56.0625 27.96875 56.0625 27.96875 " fill-opacity="1" fill-rule="nonzero"/><path fill="#deeaee" d="M 58.359375 23.332031 C 58.625 22.96875 58.894531 22.632812 59.171875 22.3125 C 58.839844 22.691406 58.582031 23.019531 58.359375 23.332031 M 60.0625 21.378906 C 61.457031 20.027344 62.914062 19.152344 64.125 18.640625 C 61.960938 19.53125 60.609375 20.835938 60.0625 21.378906 " fill-opacity="1" fill-rule="nonzero"/><path fill="#79acdd" d="M 56.53125 27.011719 C 57.105469 26.496094 58.800781 25.148438 60.285156 23.894531 C 61.441406 22.925781 63.453125 20.722656 63.839844 20.226562 C 63.972656 20.054688 65.359375 18.308594 65.117188 18.28125 C 64.769531 18.390625 64.4375 18.511719 64.125 18.640625 C 62.914062 19.152344 61.457031 20.027344 60.0625 21.378906 C 59.996094 21.445312 59.941406 21.5 59.894531 21.539062 C 59.621094 21.820312 59.382812 22.078125 59.171875 22.3125 C 58.894531 22.632812 58.625 22.96875 58.359375 23.332031 C 58.125 23.65625 57.929688 23.960938 57.722656 24.28125 C 57.71875 24.292969 57.714844 24.300781 57.707031 24.308594 C 57.679688 24.382812 57.648438 24.457031 57.621094 24.53125 C 57.609375 24.566406 57.59375 24.605469 57.574219 24.648438 C 57.714844 24.484375 57.863281 24.324219 58.023438 24.179688 C 58.335938 23.902344 58.648438 23.621094 58.941406 23.320312 C 59.222656 23.03125 59.398438 22.804688 59.71875 22.5625 C 59.734375 22.550781 59.75 22.542969 59.765625 22.542969 C 59.792969 22.542969 59.804688 22.574219 59.761719 22.648438 C 59.558594 22.996094 59.195312 23.261719 58.917969 23.546875 C 58.589844 23.875 58.304688 24.210938 57.96875 24.527344 C 57.703125 24.78125 57.441406 25.210938 57.230469 25.484375 C 57.179688 25.601562 57.152344 25.664062 57.117188 25.738281 C 57.085938 25.8125 57.054688 25.882812 57.023438 25.949219 C 57.023438 25.949219 57.023438 25.953125 57.023438 25.953125 C 57.164062 25.824219 57.242188 25.742188 57.375 25.605469 C 57.800781 25.164062 58.214844 24.71875 58.664062 24.304688 C 59.125 23.875 59.574219 23.429688 60.050781 23.015625 C 60.496094 22.628906 60.964844 22.253906 61.507812 22.03125 C 61.515625 22.027344 61.523438 22.027344 61.527344 22.027344 C 61.585938 22.027344 61.617188 22.125 61.558594 22.15625 C 60.445312 22.722656 59.601562 23.859375 58.675781 24.707031 C 58.050781 25.28125 57.4375 26.046875 56.742188 26.566406 C 56.742188 26.566406 56.742188 26.570312 56.742188 26.570312 C 56.707031 26.648438 56.679688 26.703125 56.652344 26.757812 C 56.609375 26.851562 56.570312 26.933594 56.53125 27.011719 " fill-opacity="1" fill-rule="nonzero"/><path fill="#dc5004" d="M 55.082031 13.175781 C 55.082031 13.175781 53.222656 9.6875 52.382812 7.285156 C 51.546875 4.882812 50.648438 4.421875 50.648438 4.421875 C 50.648438 4.421875 52.496094 14.082031 52.726562 15.613281 C 52.921875 16.914062 52.921875 16.914062 53.019531 17.875 C 53.105469 18.742188 52.785156 19.984375 53.527344 21.761719 C 54.347656 23.730469 54.902344 25.808594 55.191406 27.9375 C 55.207031 28.039062 55.21875 28.144531 55.234375 28.253906 L 56.011719 28.253906 C 56.011719 28.253906 56.214844 18.542969 55.742188 14.527344 L 55.082031 13.175781 " fill-opacity="1" fill-rule="nonzero"/><path fill="#d43f35" d="M 55.300781 13.625 L 55.300781 17.246094 C 55.300781 17.246094 53.507812 12.617188 53.144531 11.167969 C 52.785156 9.71875 51.855469 7.546875 51.734375 6.824219 C 51.609375 6.097656 51.082031 4.882812 50.648438 4.421875 C 50.648438 4.421875 51.277344 5.0625 52.035156 6.386719 C 52.734375 8.414062 53.882812 11.148438 55.300781 13.625 " fill-opacity="1" fill-rule="nonzero"/><path fill="#dc5004" d="M 52.292969 28.417969 C 52.292969 28.417969 51.546875 20.824219 50.347656 18.871094 C 48.753906 16.269531 40.453125 10.28125 39.523438 9.554688 C 38.78125 8.976562 37.308594 7.8125 36.742188 7.363281 C 36.703125 7.332031 36.65625 7.386719 36.683594 7.425781 C 37.433594 8.5 40.175781 12.320312 43.644531 14.722656 C 45.320312 16.335938 46.339844 17.292969 46.960938 18.707031 C 47.296875 19.476562 47.480469 20.816406 47.796875 21.503906 C 48.757812 23.578125 51.734375 28.582031 51.734375 28.582031 L 52.292969 28.417969 " fill-opacity="1" fill-rule="nonzero"/><path fill="#d22c38" d="M 46.664062 27.011719 C 46.664062 27.011719 44.328125 26.605469 43.242188 28.582031 C 42.15625 30.558594 40.175781 32.695312 38.089844 33.058594 C 36.53125 33.328125 34.351562 33.523438 33.386719 33.980469 C 32.6875 34.308594 32.457031 34.960938 31.03125 35.824219 C 30.75 35.996094 30.285156 36.046875 29.90625 36.144531 C 29.800781 36.171875 29.746094 36.019531 29.84375 35.964844 L 29.855469 35.957031 C 30.621094 35.539062 31.3125 34.972656 31.875 34.28125 C 32.601562 33.378906 33.28125 33.0625 33.761719 32.828125 C 34.960938 32.238281 35.214844 30.753906 35.679688 29.898438 C 36.144531 29.042969 37.386719 26.574219 39.277344 26.277344 C 41.167969 25.980469 46.664062 27.011719 46.664062 27.011719 " fill-opacity="1" fill-rule="nonzero"/><g clip-path="url(#07dd79f8a2)"><path fill="#ffd008" d="M 56.195312 27.683594 C 56.195312 27.683594 61.402344 17.917969 59.140625 11.792969 C 57.652344 4.585938 56.195312 3.894531 56.195312 3.894531 C 56.195312 3.894531 56.597656 7.777344 55.574219 11.859375 C 54.554688 15.941406 56.164062 23.722656 55.949219 27.699219 L 56.195312 27.683594 " fill-opacity="1" fill-rule="nonzero"/></g><path fill="#ba0e01" d="M 45.5625 25.730469 C 45.5625 25.730469 37.199219 23.675781 36.300781 22.789062 C 35.402344 21.898438 34.757812 20.054688 32.738281 19.132812 C 30.566406 18.148438 28.335938 17.96875 27.3125 17.585938 C 27.625 17.289062 28.363281 17.023438 30.796875 17.421875 C 33.152344 17.804688 33.851562 18.3125 37.601562 19.957031 C 39.214844 20.664062 45.5625 25.730469 45.5625 25.730469 " fill-opacity="1" fill-rule="nonzero"/><path fill="#ff7133" d="M 51.539062 28.253906 C 52.292969 29.292969 50.277344 28.484375 50.277344 28.484375 C 50.277344 28.484375 47.828125 22.082031 47.347656 19.984375 C 46.867188 17.882812 45.855469 16.867188 44.75 15.796875 C 43.644531 14.722656 39.882812 11.96875 38.230469 9.484375 C 36.800781 7.65625 36.683594 7.425781 36.683594 7.425781 C 36.683594 7.425781 40.984375 11.582031 43.113281 13.273438 C 45.148438 14.886719 47.324219 17.375 48.839844 20.339844 C 50.648438 23.875 50.785156 27.210938 51.539062 28.253906 " fill-opacity="1" fill-rule="nonzero"/><g clip-path="url(#3e8fa77f9d)"><path fill="#f44c20" d="M 36.675781 23.511719 C 36.675781 23.511719 34.84375 22.984375 32.335938 22.820312 C 29.824219 22.65625 27.808594 22.0625 27.3125 21.800781 C 26.816406 21.539062 24.585938 20.683594 23.378906 20.617188 C 23.378906 20.617188 25.765625 21.667969 26.539062 22.394531 C 27.3125 23.117188 27.777344 24.566406 30.660156 25.027344 C 33.542969 25.488281 36.675781 23.511719 36.675781 23.511719 " fill-opacity="1" fill-rule="nonzero"/></g><g clip-path="url(#318396424a)"><path fill="#ff7133" d="M 23.378906 20.617188 C 23.59375 20.617188 24.75 20.875 25.289062 20.914062 C 25.828125 20.957031 27.3125 21.800781 28.839844 22.292969 C 30.367188 22.785156 34.261719 22.855469 34.261719 22.855469 L 35.648438 23.347656 L 36.5625 24.171875 C 36.5625 24.171875 36.070312 24.066406 35.351562 23.917969 C 35.179688 23.910156 35.003906 23.894531 34.832031 23.894531 C 34.628906 23.890625 34.429688 23.902344 34.230469 23.917969 C 33.835938 23.949219 33.445312 24.011719 33.054688 24.078125 C 32.320312 24.199219 31.574219 24.316406 30.824219 24.269531 C 30.429688 24.246094 30.003906 24.183594 29.648438 23.988281 C 29.621094 23.972656 29.636719 23.933594 29.664062 23.941406 C 30.015625 24.054688 30.359375 24.152344 30.722656 24.183594 C 31.085938 24.214844 31.445312 24.195312 31.804688 24.15625 C 31.992188 24.136719 32.179688 24.101562 32.363281 24.066406 C 32.550781 24.035156 32.742188 24.003906 32.929688 23.96875 C 33.320312 23.894531 33.714844 23.828125 34.109375 23.789062 C 34.269531 23.773438 34.429688 23.765625 34.589844 23.761719 C 34.464844 23.734375 34.335938 23.710938 34.207031 23.683594 C 34.085938 23.691406 33.964844 23.707031 33.84375 23.722656 C 33.355469 23.785156 32.867188 23.867188 32.371094 23.867188 C 31.878906 23.871094 31.382812 23.820312 30.898438 23.71875 C 30.40625 23.617188 29.914062 23.484375 29.433594 23.335938 C 28.886719 23.164062 28.339844 22.996094 27.8125 22.773438 C 27.785156 22.765625 27.796875 22.714844 27.824219 22.722656 C 28.3125 22.867188 28.789062 23.054688 29.273438 23.207031 C 29.757812 23.359375 30.25 23.488281 30.746094 23.578125 C 31.238281 23.667969 31.738281 23.726562 32.238281 23.726562 C 32.488281 23.730469 32.742188 23.71875 32.988281 23.691406 C 33.234375 23.660156 33.476562 23.625 33.722656 23.589844 L 33.738281 23.585938 C 32.800781 23.398438 31.808594 23.203125 31.0625 23.066406 C 29.140625 22.722656 28.058594 22.855469 26.539062 21.734375 C 25.988281 21.328125 23.160156 20.617188 23.378906 20.617188 " fill-opacity="1" fill-rule="nonzero"/></g><g clip-path="url(#f2e3c03155)"><path fill="#dc5004" d="M 34.261719 24.617188 C 34.261719 24.617188 31.511719 25.65625 29.792969 24.839844 C 28.070312 24.023438 27.898438 24.207031 26.78125 22.648438 C 26.78125 22.648438 25.847656 21.679688 23.378906 20.617188 C 23.378906 20.617188 26.40625 21.835938 27.769531 23.066406 C 29.132812 24.300781 30.167969 24.582031 31.59375 24.523438 C 33.015625 24.46875 34.261719 24.617188 34.261719 24.617188 " fill-opacity="1" fill-rule="nonzero"/></g><path fill="#d22c38" d="M 46.664062 27.011719 C 46.664062 27.011719 41.03125 25.640625 36.113281 26.9375 C 31.667969 28.105469 31.933594 27.527344 30.027344 28.84375 C 28.121094 30.160156 26.761719 31.015625 25.765625 31.378906 C 24.867188 31.710938 24.867188 31.710938 24.277344 31.609375 C 23.6875 31.511719 25.796875 31.578125 27.902344 28.417969 C 30.011719 25.257812 31.0625 23.875 35.464844 23.875 C 39.863281 23.875 46.664062 27.011719 46.664062 27.011719 " fill-opacity="1" fill-rule="nonzero"/><path fill="#037c7e" d="M 45.90625 26.898438 C 45.90625 26.898438 43.914062 27 42.960938 29.0625 C 41.757812 31.667969 39.835938 32.261719 39.207031 32.699219 C 38.582031 33.132812 41.539062 30.65625 42.1875 28.785156 C 42.96875 26.535156 37.140625 27.625 36.441406 28.582031 C 36.441406 28.582031 37.472656 26.875 38.636719 26.355469 C 39.800781 25.835938 45.90625 26.898438 45.90625 26.898438 " fill-opacity="1" fill-rule="nonzero"/><path fill="#8e0300" d="M 43.347656 26.222656 C 43.347656 26.222656 32.777344 26.375 30.871094 28.253906 C 28.964844 30.128906 25.042969 32.125 24.277344 31.609375 C 24.277344 31.609375 25.71875 31.480469 28.320312 29.40625 C 30.164062 27.9375 32.207031 26.46875 34.460938 25.960938 C 38.25 25.105469 41.203125 25.082031 41.757812 25.152344 C 42.546875 25.257812 43.347656 26.222656 43.347656 26.222656 " fill-opacity="1" fill-rule="nonzero"/><path fill="#84395e" d="M 49.039062 29.066406 C 49.039062 29.066406 49.1875 28.269531 48.289062 27.769531 C 47.390625 27.273438 39.226562 25.289062 38.140625 24.816406 C 36.4375 24.078125 33.761719 22.753906 32.953125 22.261719 C 32.148438 21.769531 25.941406 19.660156 25.289062 19.726562 C 25.972656 19.550781 28.664062 19.851562 32.613281 21.109375 C 36.457031 22.332031 39.308594 24.113281 41.414062 24.570312 C 43.519531 25.027344 49.222656 26.769531 50.027344 27.398438 C 50.835938 28.023438 50.957031 28.582031 50.957031 28.582031 L 49.039062 29.066406 " fill-opacity="1" fill-rule="nonzero"/><path fill="#006363" d="M 45.609375 26.96875 C 45.609375 26.96875 40.882812 25.734375 35.9375 27.011719 C 33.101562 27.746094 31.550781 28.007812 30.691406 28.410156 C 31.054688 27.890625 33.199219 26.53125 39.253906 25.96875 C 45.3125 25.40625 45.609375 26.96875 45.609375 26.96875 " fill-opacity="1" fill-rule="nonzero"/><path fill="#b7302c" d="M 52.230469 28.089844 L 51.125 28.351562 C 51.125 28.351562 50.453125 21.1875 49.648438 19.707031 C 47.519531 15.796875 38.488281 8.742188 38.488281 8.742188 C 38.488281 8.742188 45.90625 13.53125 49.832031 18.167969 C 51.195312 19.785156 50.960938 20.566406 51.472656 22.648438 C 51.980469 24.730469 52.230469 28.089844 52.230469 28.089844 " fill-opacity="1" fill-rule="nonzero"/><path fill="#51ad97" d="M 41.085938 9.296875 C 41.777344 9.957031 43.867188 12.417969 44.125 18.210938 C 44.128906 18.257812 44.085938 18.292969 44.042969 18.277344 L 41.328125 17.246094 C 41.296875 17.234375 41.277344 17.191406 41.292969 17.15625 C 41.503906 16.664062 42.753906 13.382812 40.988281 9.375 C 40.960938 9.308594 41.035156 9.25 41.085938 9.296875 " fill-opacity="1" fill-rule="nonzero"/><path fill="#e23b50" d="M 36.960938 24.355469 L 35.929688 23.921875 C 35.886719 23.941406 31.640625 23.511719 29.792969 25.867188 C 28.203125 27.726562 26.371094 30.722656 24.175781 31.578125 C 25.289062 31.414062 26.300781 30.628906 29.171875 27.4375 C 32.113281 24.167969 36.960938 24.355469 36.960938 24.355469 " fill-opacity="1" fill-rule="nonzero"/><path fill="#d36c71" d="M 36.675781 16.015625 C 36.675781 16.015625 34.441406 14.496094 32.75 11.734375 C 32.75 11.734375 32.378906 11.664062 33.050781 12.863281 C 33.722656 14.0625 34.199219 15.738281 34.171875 16.171875 C 34.144531 16.609375 36.675781 16.015625 36.675781 16.015625 " fill-opacity="1" fill-rule="nonzero"/><path fill="#e9d000" d="M 51.554688 28.582031 C 51.554688 28.582031 48.054688 20.089844 45.296875 18.148438 C 42.539062 16.203125 38.074219 16.3125 36.890625 16.140625 C 35.550781 15.941406 33.753906 15.472656 32.992188 15.109375 C 32.078125 14.671875 31.21875 14.257812 30.699219 14.019531 C 30.636719 13.992188 30.589844 14.078125 30.640625 14.125 C 31.5 14.910156 34.085938 17.269531 34.574219 17.816406 C 35.160156 18.476562 36.886719 21.371094 37.960938 22.328125 C 39.035156 23.28125 40.679688 24.53125 42.628906 24.894531 C 44.582031 25.257812 50.253906 27.496094 50.78125 28.582031 C 51.308594 29.667969 51.554688 28.582031 51.554688 28.582031 " fill-opacity="1" fill-rule="nonzero"/><path fill="#97cbf7" d="M 56.347656 27.078125 C 56.671875 26.382812 57.335938 25.402344 57.824219 24.824219 C 58.066406 24.539062 58.34375 24.285156 58.644531 24.070312 C 58.964844 23.84375 59.316406 23.660156 59.558594 23.328125 C 59.789062 23.011719 59.917969 22.621094 60.167969 22.316406 C 60.410156 22.023438 60.753906 21.871094 61.097656 21.761719 C 61.449219 21.652344 61.832031 21.589844 62.160156 21.410156 C 62.488281 21.230469 62.765625 20.957031 63.007812 20.660156 C 63.253906 20.355469 63.46875 20.023438 63.699219 19.699219 C 63.824219 19.523438 63.925781 19.324219 64.042969 19.140625 C 64.148438 18.980469 64.277344 18.839844 64.414062 18.707031 C 64.519531 18.605469 64.664062 18.785156 64.558594 18.878906 C 64.4375 18.980469 64.328125 19.097656 64.214844 19.210938 C 64.074219 19.347656 63.910156 19.496094 63.792969 19.65625 C 63.589844 19.9375 63.414062 20.242188 63.214844 20.523438 C 62.800781 21.105469 62.3125 21.539062 61.65625 21.765625 C 61.304688 21.886719 60.925781 21.96875 60.609375 22.183594 C 60.25 22.421875 60.074219 22.8125 59.863281 23.183594 C 59.683594 23.492188 59.480469 23.742188 59.199219 23.949219 C 58.890625 24.183594 58.574219 24.394531 58.296875 24.675781 C 57.695312 25.289062 57.289062 26.28125 56.625 27.304688 C 56.527344 27.453125 55.808594 28.222656 56.347656 27.078125 " fill-opacity="1" fill-rule="nonzero"/><path fill="#f69a1d" d="M 48.28125 25.628906 C 47.808594 25.179688 47.304688 24.742188 46.816406 24.386719 C 42.292969 22.929688 39.699219 22.015625 37.480469 19.417969 C 36.347656 18.109375 34.8125 16.449219 33.570312 15.859375 C 33.554688 15.851562 33.535156 15.851562 33.523438 15.851562 C 33.425781 15.851562 33.363281 15.992188 33.453125 16.066406 C 34.640625 17.054688 35.605469 18.398438 36.003906 18.992188 C 36.375 19.53125 38.105469 21.90625 40.292969 22.824219 C 41.941406 23.519531 45.5 24.261719 48.28125 25.628906 M 45.566406 25.496094 C 45.222656 25.359375 44.863281 25.226562 44.484375 25.097656 C 44.484375 25.097656 44.484375 25.097656 44.480469 25.097656 C 44.847656 25.230469 45.207031 25.363281 45.5625 25.496094 C 45.5625 25.496094 45.566406 25.496094 45.566406 25.496094 M 48.914062 25.378906 C 48.632812 25.167969 48.320312 24.957031 47.972656 24.761719 C 48.300781 24.96875 48.613281 25.171875 48.914062 25.378906 " fill-opacity="1" fill-rule="nonzero"/><path fill="#6b2e4e" d="M 48.957031 28.9375 L 50.339844 28.71875 C 50.339844 28.71875 49.1875 27.925781 47.972656 27.195312 C 46.15625 26.097656 41.667969 25.378906 40.292969 24.972656 C 38.917969 24.5625 35.082031 23.367188 33.964844 22.816406 C 33.964844 22.816406 37.066406 24.761719 40.617188 25.59375 C 43.226562 26.199219 49.628906 27.839844 48.957031 28.9375 " fill-opacity="1" fill-rule="nonzero"/><path fill="#ffde3b" d="M 35.496094 15.835938 C 35.496094 15.835938 39.390625 16.332031 40.292969 16.417969 C 41.195312 16.507812 43.269531 17.445312 44.125 18.210938 C 44.984375 18.980469 45.601562 19.964844 45.007812 20.484375 C 44.414062 21.003906 39.71875 18.382812 39.070312 18.148438 C 38.425781 17.917969 35.765625 16.859375 35.429688 16.5625 C 35.09375 16.269531 33.824219 15.503906 34.660156 15.667969 C 35.496094 15.835938 35.496094 15.835938 35.496094 15.835938 " fill-opacity="1" fill-rule="nonzero"/><path fill="#79c662" d="M 40.292969 22.824219 C 41.941406 23.519531 45.5 24.261719 48.28125 25.628906 C 47.519531 24.90625 46.683594 24.21875 45.949219 23.84375 C 43.925781 22.8125 41.15625 20.089844 39.503906 19.519531 C 37.851562 18.949219 40.785156 19.257812 44.113281 22.066406 C 46.65625 24.214844 48.71875 24.9375 50.265625 26.492188 C 50.179688 26.3125 49.988281 26.164062 49.871094 26.019531 C 49.714844 25.835938 49.574219 25.632812 49.421875 25.441406 C 49.144531 25.082031 48.867188 24.722656 48.601562 24.351562 C 48.042969 23.558594 47.414062 22.878906 46.609375 22.375 C 45.855469 21.90625 45 21.691406 44.246094 21.230469 C 43.496094 20.773438 42.820312 20.195312 42.058594 19.75 C 41.195312 19.246094 40.394531 18.675781 39.449219 18.375 C 39.363281 18.347656 39.351562 18.265625 39.433594 18.285156 C 40.351562 18.523438 41.183594 18.992188 42.027344 19.441406 C 42.867188 19.890625 43.597656 20.515625 44.414062 21.003906 C 44.832031 21.25 45.285156 21.414062 45.71875 21.621094 C 46.128906 21.816406 46.53125 22.042969 46.914062 22.296875 C 47.679688 22.816406 48.265625 23.488281 48.804688 24.261719 C 49.128906 24.726562 49.429688 25.222656 49.84375 25.605469 C 49.886719 25.648438 49.933594 25.6875 49.984375 25.726562 C 49.476562 24.683594 48.851562 23.558594 48.230469 22.824219 C 46.792969 21.125 43.734375 19.226562 42.820312 18.730469 C 41.507812 18.015625 35.527344 16.863281 36.683594 16.953125 C 37.839844 17.039062 40.421875 17.425781 42.597656 18.25 C 44.625 19.019531 47.796875 21.472656 48.863281 22.617188 C 49.925781 23.761719 51.539062 28.222656 51.539062 28.222656 L 51.125 28.320312 C 51.125 28.320312 51.117188 28.296875 51.097656 28.25 L 50.648438 28.382812 C 50.648438 28.382812 48.558594 26.5 44.484375 25.097656 C 41.65625 24.351562 40.863281 24 40.109375 23.539062 C 39.753906 23.320312 39.390625 23.117188 39.027344 22.917969 C 38.464844 22.613281 36.824219 21 35.929688 18.882812 C 35.929688 18.882812 37.820312 21.785156 40.292969 22.824219 " fill-opacity="1" fill-rule="nonzero"/><g clip-path="url(#fc52e77d91)"><path fill="#568700" d="M 41.976562 34.140625 C 42.421875 33.070312 43.140625 32.550781 43.179688 32.476562 C 45.160156 28.914062 49.34375 28.621094 53.550781 27.914062 C 57.175781 27.238281 68.070312 28.378906 72.769531 25.597656 C 72.78125 25.589844 72.792969 25.589844 72.804688 25.597656 C 72.816406 25.605469 72.828125 25.613281 72.835938 25.625 C 72.851562 25.644531 72.851562 25.671875 72.832031 25.6875 C 72.5 25.957031 71.824219 26.378906 70.015625 27.253906 C 66.792969 28.8125 61.421875 30.347656 61.421875 30.347656 C 58.859375 30.867188 53.128906 33.875 49.230469 34.941406 C 48.304688 35.195312 47.347656 35.296875 46.390625 35.25 C 44.703125 35.175781 43.992188 35.304688 42.902344 36.648438 C 41.277344 38.640625 39.054688 51.855469 39.054688 51.855469 L 38.140625 49.96875 C 38.140625 49.96875 39.882812 39.621094 41.976562 34.140625 " fill-opacity="1" fill-rule="nonzero"/></g><g clip-path="url(#8caf5acfd5)"><path fill="#74cd81" d="M 72.832031 25.6875 C 69.722656 27.96875 55.019531 31.636719 51.207031 31.480469 C 47.394531 31.324219 44.617188 33.816406 44.125 35.570312 C 44.125 35.570312 44.507812 35.21875 46.957031 35.261719 C 47.898438 35.253906 48.46875 35.148438 49.195312 34.953125 C 52.664062 34.011719 57.257812 31.800781 58.777344 31.210938 C 58.910156 31.160156 59.042969 31.113281 59.179688 31.078125 C 61.300781 30.488281 69.210938 28.222656 72.832031 25.6875 " fill-opacity="1" fill-rule="nonzero"/></g><path fill="#be5661" d="M 57.675781 27.652344 C 57.675781 27.652344 50.640625 28.722656 48.773438 29.480469 C 47.890625 29.835938 44.941406 30.546875 43.160156 32.613281 C 43.136719 32.636719 43.101562 32.609375 43.117188 32.578125 C 43.535156 31.835938 45.023438 29.570312 47.945312 29.003906 C 48.035156 28.988281 48.121094 28.964844 48.207031 28.9375 C 52.667969 27.570312 57.675781 27.652344 57.675781 27.652344 " fill-opacity="1" fill-rule="nonzero"/><g clip-path="url(#e303c1a785)"><path fill="#037c7e" d="M 41.828125 34.542969 C 41.730469 35.234375 41.59375 37.429688 41.585938 39.898438 C 41.585938 39.898438 39.605469 47.476562 39.054688 51.855469 L 38.140625 49.96875 C 39.777344 40.605469 41.277344 36.257812 41.660156 35.015625 C 41.667969 34.984375 41.832031 34.511719 41.828125 34.542969 " fill-opacity="1" fill-rule="nonzero"/></g><path fill="#ccc034" d="M 68.46875 27.527344 C 68.46875 27.527344 59.9375 29.992188 59.132812 30.199219 C 58.628906 30.328125 56.417969 30.871094 54.621094 31.257812 C 53.488281 31.503906 52.332031 31.613281 51.175781 31.617188 C 46.636719 31.625 44.457031 34.339844 44.125 35.570312 C 44.125 35.570312 43.445312 35.980469 42.875 36.691406 C 42.824219 36.753906 42.777344 36.820312 42.734375 36.890625 C 42.3125 37.597656 42.796875 34.351562 45.351562 32.25 C 47.289062 30.65625 53.25 29.945312 58.550781 29.164062 C 63.835938 28.382812 68.46875 27.527344 68.46875 27.527344 " fill-opacity="1" fill-rule="nonzero"/><path fill="#cbdab0" d="M 45.582031 35.285156 C 45.761719 35.273438 46.003906 35.265625 46.320312 35.257812 C 46.039062 35.261719 45.796875 35.269531 45.582031 35.285156 M 46.851562 35.269531 C 47.117188 35.269531 47.386719 35.257812 47.675781 35.230469 C 47.460938 35.25 47.226562 35.257812 46.96875 35.261719 C 46.921875 35.261719 46.875 35.261719 46.828125 35.261719 C 46.730469 35.261719 46.632812 35.261719 46.535156 35.257812 C 46.476562 35.257812 46.421875 35.257812 46.367188 35.257812 C 46.394531 35.257812 46.425781 35.261719 46.457031 35.261719 C 46.589844 35.265625 46.71875 35.269531 46.851562 35.269531 M 49.300781 34.921875 C 50.035156 34.730469 50.9375 34.433594 52.128906 33.984375 C 51.160156 34.34375 50.195312 34.675781 49.300781 34.921875 M 53.476562 33.460938 C 53.535156 33.4375 53.59375 33.414062 53.65625 33.386719 C 56.898438 32.085938 58.007812 31.476562 59.097656 31.101562 C 59.054688 31.113281 59.007812 31.128906 58.964844 31.140625 C 58.726562 31.234375 58.484375 31.332031 58.234375 31.433594 C 57.160156 31.886719 55.382812 32.695312 53.476562 33.460938 " fill-opacity="1" fill-rule="nonzero"/><path fill="#568700" d="M 46.828125 35.261719 C 46.875 35.261719 46.921875 35.261719 46.96875 35.261719 C 46.964844 35.261719 46.960938 35.261719 46.957031 35.261719 C 46.816406 35.257812 46.683594 35.257812 46.554688 35.257812 C 46.546875 35.257812 46.542969 35.257812 46.535156 35.257812 C 46.632812 35.261719 46.730469 35.261719 46.828125 35.261719 M 58.234375 31.433594 C 58.484375 31.332031 58.726562 31.234375 58.964844 31.140625 C 58.902344 31.164062 58.839844 31.1875 58.777344 31.210938 C 58.625 31.269531 58.445312 31.34375 58.234375 31.433594 " fill-opacity="1" fill-rule="nonzero"/><path fill="#6bb759" d="M 45.007812 35.335938 C 45.011719 35.335938 45.066406 35.308594 45.582031 35.285156 C 45.796875 35.269531 46.039062 35.261719 46.320312 35.257812 C 46.328125 35.257812 46.335938 35.257812 46.34375 35.257812 C 46.347656 35.257812 46.351562 35.257812 46.351562 35.257812 C 46.355469 35.257812 46.359375 35.257812 46.367188 35.257812 C 46.421875 35.257812 46.476562 35.257812 46.535156 35.257812 C 46.542969 35.257812 46.546875 35.257812 46.554688 35.257812 C 46.683594 35.257812 46.816406 35.257812 46.957031 35.261719 C 46.960938 35.261719 46.964844 35.261719 46.96875 35.261719 C 47.226562 35.257812 47.460938 35.25 47.675781 35.230469 C 48.132812 35.1875 48.648438 35.09375 49.300781 34.921875 C 50.195312 34.675781 51.160156 34.34375 52.128906 33.984375 C 52.542969 33.828125 52.988281 33.652344 53.476562 33.460938 C 55.382812 32.695312 57.160156 31.886719 58.234375 31.433594 C 58.445312 31.34375 58.625 31.269531 58.777344 31.210938 C 58.839844 31.1875 58.902344 31.164062 58.964844 31.140625 C 59.007812 31.128906 59.054688 31.113281 59.097656 31.101562 C 59.277344 31.039062 59.457031 30.980469 59.644531 30.929688 C 59.9375 30.851562 60.28125 30.757812 60.605469 30.660156 C 61.269531 30.488281 61.441406 30.375 61.144531 30.375 C 60.515625 30.375 57.769531 30.886719 53.105469 32.433594 C 45.871094 33.320312 45.011719 35.328125 45.007812 35.335938 " fill-opacity="1" fill-rule="nonzero"/><path fill="#d43f35" d="M 55.949219 27.699219 L 55.160156 27.726562 C 55.160156 27.726562 54.566406 25.070312 53.992188 23.546875 C 53.417969 22.019531 53.09375 20.90625 53.066406 19.984375 C 53.027344 18.804688 52.835938 15.472656 52.464844 14.101562 C 52.464844 14.101562 53.085938 15.117188 54.207031 20.714844 C 55.328125 26.3125 56.195312 25.730469 56.195312 25.730469 L 55.949219 27.699219 " fill-opacity="1" fill-rule="nonzero"/><path fill="#ffde3b" d="M 57.691406 20.277344 C 57.71875 19.980469 57.824219 19.691406 57.917969 19.410156 C 58.097656 18.871094 58.28125 18.335938 58.378906 17.769531 C 58.472656 17.230469 58.503906 16.6875 58.492188 16.136719 C 58.480469 15.511719 58.414062 14.882812 58.320312 14.261719 C 58.21875 13.585938 58.054688 12.917969 57.964844 12.238281 C 57.886719 11.632812 58.765625 11.40625 58.949219 11.992188 C 59.148438 12.617188 59.261719 13.277344 59.371094 13.925781 C 59.464844 14.480469 59.535156 15.042969 59.574219 15.605469 C 59.644531 16.753906 59.566406 17.929688 59.21875 19.023438 C 59.117188 19.339844 59 19.648438 58.902344 19.964844 C 58.863281 20.085938 58.832031 20.207031 58.800781 20.328125 C 58.734375 20.570312 58.679688 20.898438 58.464844 21.042969 C 58.273438 21.171875 58.007812 21.144531 57.839844 20.980469 C 57.644531 20.792969 57.667969 20.527344 57.691406 20.277344 " fill-opacity="1" fill-rule="nonzero"/><g clip-path="url(#96fdca109e)"><path fill="#ffb666" d="M 55.574219 12.105469 C 56.378906 9.175781 56.140625 3.894531 56.140625 3.894531 C 56.140625 3.894531 57.410156 5.097656 58.34375 8.796875 C 60.019531 14.425781 59.660156 15.796875 59.660156 15.796875 C 59.660156 15.796875 59.382812 13.65625 58.839844 12.679688 C 58.859375 12.972656 58.871094 13.261719 58.867188 13.554688 C 58.859375 14.171875 58.824219 14.789062 58.753906 15.402344 C 58.679688 16.011719 58.578125 16.621094 58.464844 17.222656 C 58.40625 17.515625 58.347656 17.804688 58.28125 18.09375 C 58.214844 18.382812 58.164062 18.742188 57.992188 18.980469 C 57.910156 19.097656 57.761719 19.03125 57.753906 18.894531 C 57.734375 18.628906 57.855469 18.335938 57.917969 18.078125 C 57.992188 17.792969 58.058594 17.507812 58.113281 17.21875 C 58.234375 16.601562 58.304688 15.988281 58.351562 15.359375 C 58.394531 14.75 58.414062 14.140625 58.40625 13.53125 C 58.402344 13.238281 58.394531 12.941406 58.386719 12.648438 C 58.386719 12.515625 58.367188 12.363281 58.367188 12.214844 C 58.261719 12.191406 58.152344 12.214844 58.035156 12.296875 C 58.035156 12.359375 58.035156 12.417969 58.035156 12.472656 C 58.042969 12.796875 58.039062 13.117188 58.027344 13.4375 C 58.019531 13.757812 58.007812 14.078125 57.992188 14.398438 C 57.972656 14.710938 57.984375 15.050781 57.875 15.34375 C 57.84375 15.421875 57.710938 15.417969 57.691406 15.328125 C 57.628906 15.066406 57.671875 14.789062 57.683594 14.519531 C 57.699219 14.183594 57.710938 13.847656 57.714844 13.507812 C 57.71875 13.226562 57.71875 12.941406 57.71875 12.65625 C 56.375 14.75 56.050781 22.878906 56.195312 25.097656 C 56.34375 27.359375 54.769531 15.035156 55.574219 12.105469 " fill-opacity="1" fill-rule="nonzero"/></g><path fill="#79c662" d="M 56.054688 11.585938 C 56.0625 11.277344 56.050781 24.054688 56.046875 24.554688 C 56.046875 24.835938 56.195312 24.78125 56.222656 24.535156 C 56.277344 24.03125 57.152344 17.421875 57.417969 15.835938 C 57.429688 15.765625 57.53125 15.78125 57.527344 15.851562 C 57.527344 15.851562 56.738281 25.222656 56.761719 25.40625 C 56.78125 25.53125 56.835938 25.480469 56.886719 25.371094 C 56.96875 25.199219 59.027344 17.421875 59.027344 17.421875 C 59.050781 17.355469 59.097656 17.367188 59.089844 17.441406 L 58.152344 23.164062 C 58.082031 23.632812 56.589844 27.195312 56.195312 27.683594 C 56.054688 27.699219 55.949219 27.699219 55.949219 27.699219 C 55.949219 27.699219 55.792969 23.507812 55.53125 20.65625 C 55.300781 18.105469 56.046875 11.945312 56.054688 11.585938 " fill-opacity="1" fill-rule="nonzero"/><g clip-path="url(#5a0e8cfeda)"><path fill="#e58882" d="M 59.707031 15.511719 C 59.726562 15.296875 59.71875 15.027344 59.695312 14.734375 C 59.707031 14.992188 59.710938 15.25 59.707031 15.511719 M 55.300781 13.625 C 55.355469 12.984375 55.441406 12.390625 55.574219 11.859375 C 55.738281 11.210938 55.867188 10.5625 55.964844 9.9375 C 55.972656 9.851562 55.984375 9.761719 55.992188 9.675781 C 55.773438 11.394531 55.300781 12.355469 55.300781 13.625 M 58.605469 9.460938 C 58.351562 8.417969 58.085938 7.5625 57.832031 6.863281 C 58.078125 7.554688 58.339844 8.410156 58.605469 9.460938 M 56.089844 8.472656 C 56.203125 6.671875 56.171875 4.957031 56.152344 4.242188 C 56.160156 4.980469 56.171875 6.667969 56.09375 8.4375 C 56.09375 8.449219 56.09375 8.460938 56.089844 8.472656 M 56.203125 3.960938 C 56.199219 3.917969 56.195312 3.894531 56.195312 3.894531 C 56.195312 3.894531 56.195312 3.894531 56.199219 3.894531 C 56.164062 3.863281 56.144531 3.847656 56.144531 3.847656 C 56.144531 3.847656 56.144531 3.867188 56.144531 3.898438 C 56.15625 3.910156 56.175781 3.929688 56.203125 3.960938 " fill-opacity="1" fill-rule="nonzero"/><path fill="#e47624" d="M 59.660156 15.796875 C 59.683594 15.71875 59.699219 15.621094 59.707031 15.511719 C 59.710938 15.25 59.707031 14.992188 59.695312 14.734375 C 59.621094 13.804688 59.371094 12.628906 59.214844 12.078125 C 59.871094 14.992188 59.660156 15.796875 59.660156 15.796875 M 55.300781 13.625 C 55.300781 13.625 55.34375 13.398438 55.417969 13.035156 C 55.453125 12.667969 55.503906 12.351562 55.574219 12.105469 C 55.75 11.46875 55.875 10.71875 55.964844 9.9375 C 55.867188 10.5625 55.738281 11.210938 55.574219 11.859375 C 55.441406 12.390625 55.355469 12.984375 55.300781 13.625 M 58.917969 10.851562 C 58.816406 10.355469 58.710938 9.890625 58.605469 9.460938 C 58.339844 8.410156 58.078125 7.554688 57.832031 6.863281 C 57.078125 4.789062 56.394531 4.070312 56.199219 3.894531 C 56.195312 3.894531 56.195312 3.894531 56.195312 3.894531 C 56.195312 3.894531 56.199219 3.917969 56.203125 3.960938 C 56.46875 4.257812 57.535156 5.585938 58.34375 8.796875 C 58.570312 9.558594 58.761719 10.238281 58.917969 10.851562 " fill-opacity="1" fill-rule="nonzero"/><path fill="#e46c48" d="M 59.660156 15.796875 C 59.660156 15.796875 59.871094 14.992188 59.214844 12.078125 C 59.191406 11.992188 59.167969 11.917969 59.148438 11.867188 C 59.101562 11.742188 59.066406 11.613281 59.042969 11.480469 C 59 11.265625 58.960938 11.054688 58.917969 10.851562 C 58.761719 10.238281 58.570312 9.558594 58.34375 8.796875 C 57.535156 5.585938 56.46875 4.257812 56.203125 3.960938 C 56.175781 3.929688 56.15625 3.910156 56.144531 3.898438 C 56.148438 3.960938 56.148438 4.078125 56.152344 4.242188 C 56.171875 4.957031 56.203125 6.671875 56.089844 8.472656 C 56.074219 8.914062 56.039062 9.3125 55.992188 9.675781 C 55.984375 9.761719 55.972656 9.851562 55.964844 9.9375 C 55.875 10.71875 55.75 11.46875 55.574219 12.105469 C 55.503906 12.351562 55.453125 12.667969 55.417969 13.035156 C 55.644531 11.9375 56.164062 9.589844 56.699219 8.402344 C 56.785156 8.210938 56.804688 7.996094 56.75 7.792969 C 56.6875 7.570312 56.613281 7.292969 56.574219 7.128906 C 56.566406 7.085938 56.597656 7.0625 56.628906 7.0625 C 56.648438 7.0625 56.671875 7.074219 56.679688 7.097656 C 56.753906 7.25 56.859375 7.566406 56.921875 7.753906 C 56.941406 7.816406 56.996094 7.859375 57.054688 7.859375 C 57.058594 7.859375 57.0625 7.859375 57.066406 7.855469 C 57.074219 7.855469 57.078125 7.855469 57.082031 7.855469 C 57.132812 7.855469 57.183594 7.886719 57.207031 7.941406 C 57.320312 8.195312 57.421875 8.457031 57.507812 8.722656 C 57.597656 8.996094 57.671875 9.277344 57.734375 9.558594 C 57.765625 9.710938 57.792969 9.867188 57.816406 10.019531 C 57.828125 10.105469 57.839844 10.191406 57.851562 10.277344 C 57.859375 10.347656 57.863281 10.421875 57.886719 10.492188 C 57.890625 10.511719 57.910156 10.519531 57.925781 10.519531 C 57.945312 10.519531 57.964844 10.507812 57.96875 10.484375 C 57.972656 10.394531 57.957031 10.300781 57.941406 10.210938 C 57.929688 10.136719 57.917969 10.058594 57.90625 9.980469 C 57.875 9.820312 57.84375 9.660156 57.808594 9.5 C 57.6875 8.9375 57.511719 8.386719 57.273438 7.867188 C 57.230469 7.773438 57.183594 7.683594 57.136719 7.589844 C 56.980469 7.234375 56.804688 6.882812 56.703125 6.503906 C 56.699219 6.484375 56.710938 6.472656 56.722656 6.472656 C 56.730469 6.472656 56.738281 6.476562 56.742188 6.484375 C 56.878906 6.867188 57.074219 7.214844 57.246094 7.578125 C 57.273438 7.628906 57.3125 7.675781 57.363281 7.699219 C 57.398438 7.71875 57.4375 7.746094 57.472656 7.789062 C 57.507812 7.832031 57.660156 8.121094 57.695312 8.199219 C 57.875 8.59375 58.019531 9.007812 58.144531 9.429688 C 58.269531 9.847656 58.371094 10.277344 58.453125 10.710938 C 58.492188 10.929688 58.527344 11.148438 58.554688 11.367188 C 58.578125 11.589844 58.585938 11.816406 58.625 12.035156 C 58.628906 12.054688 58.644531 12.0625 58.660156 12.0625 C 58.675781 12.0625 58.695312 12.050781 58.695312 12.027344 C 58.699219 11.785156 58.65625 11.535156 58.621094 11.296875 C 58.585938 11.050781 58.542969 10.804688 58.496094 10.5625 C 58.410156 10.132812 58.300781 9.707031 58.167969 9.289062 C 58.082031 9.019531 57.984375 8.75 57.882812 8.484375 C 57.769531 8.082031 57.625 7.710938 57.4375 7.332031 C 57.25 6.953125 57.042969 6.542969 57.050781 6.101562 C 57.050781 6.070312 57.074219 6.054688 57.09375 6.054688 C 57.117188 6.054688 57.136719 6.070312 57.140625 6.097656 C 57.171875 6.542969 57.40625 6.945312 57.597656 7.328125 C 57.800781 7.742188 57.945312 8.148438 58.054688 8.597656 C 58.171875 9.066406 59.214844 12.078125 59.660156 15.796875 " fill-opacity="1" fill-rule="nonzero"/></g><path fill="#22894c" d="M 45.136719 35.144531 C 45.5625 34.542969 46.722656 34.03125 46.988281 33.898438 C 47.605469 33.589844 48.261719 33.445312 48.933594 33.367188 C 49.746094 33.269531 50.53125 33.113281 51.320312 32.875 C 52.042969 32.65625 52.78125 32.40625 53.535156 32.339844 C 53.574219 32.335938 53.582031 32.410156 53.542969 32.417969 C 52.816406 32.546875 52.121094 32.761719 51.417969 33 C 50.75 33.230469 50.085938 33.457031 49.386719 33.546875 C 48.699219 33.640625 48.027344 33.714844 47.378906 33.988281 C 47.09375 34.109375 46.820312 34.25 46.558594 34.417969 C 46.417969 34.507812 46.28125 34.605469 46.148438 34.707031 C 46.039062 34.792969 45.9375 34.882812 45.832031 34.976562 C 45.941406 34.953125 46.050781 34.933594 46.160156 34.917969 C 46.558594 34.5625 47.023438 34.316406 47.539062 34.210938 C 48.214844 34.074219 48.90625 34.195312 49.582031 34.097656 C 50.3125 33.996094 51.003906 33.644531 51.6875 33.378906 C 52.382812 33.105469 53.078125 32.835938 53.769531 32.546875 C 54.582031 32.203125 55.394531 31.851562 56.222656 31.550781 C 56.261719 31.539062 56.285156 31.605469 56.246094 31.625 C 54.894531 32.269531 53.488281 32.78125 52.125 33.394531 C 51.472656 33.683594 50.820312 34.011719 50.144531 34.222656 C 49.480469 34.429688 48.800781 34.375 48.117188 34.429688 C 47.59375 34.472656 47.09375 34.609375 46.628906 34.851562 C 46.90625 34.820312 47.175781 34.804688 47.425781 34.804688 C 48.574219 34.804688 51.78125 34.300781 54.058594 32.855469 C 56.335938 31.414062 66.339844 28.816406 65.382812 29.132812 C 64.425781 29.449219 56.308594 32.21875 55.382812 32.675781 C 54.457031 33.136719 50.230469 35.433594 47.5625 35.335938 C 44.894531 35.238281 43.910156 35.714844 43.910156 35.714844 C 44.289062 35.410156 44.589844 35.238281 45.136719 35.144531 " fill-opacity="1" fill-rule="nonzero"/><path fill="#22894c" d="M 42.457031 37.429688 C 42.457031 37.429688 41.921875 34.175781 45.289062 31.90625 C 48.652344 29.636719 59.800781 28.648438 61.285156 28.449219 C 62.765625 28.253906 64.84375 27.96875 64.84375 27.96875 C 64.84375 27.96875 53.160156 29.996094 51.578125 30.558594 C 49.996094 31.117188 45.285156 31.433594 43.101562 35.210938 C 43.101562 35.210938 42.722656 35.921875 42.734375 36.890625 L 42.457031 37.429688 " fill-opacity="1" fill-rule="nonzero"/><path fill="#b7302c" d="M 55.160156 27.726562 L 55.949219 27.699219 C 55.949219 27.699219 55.5625 15.074219 55.300781 13.625 C 55.039062 12.179688 55.160156 27.726562 55.160156 27.726562 " fill-opacity="1" fill-rule="nonzero"/><path fill="#70b8ab" d="M 42.816406 16.820312 C 42.808594 16.191406 42.734375 13.441406 42.054688 11.261719 C 41.640625 10.042969 41.199219 9.4375 41.105469 9.320312 C 41.097656 9.3125 41.09375 9.304688 41.085938 9.296875 C 42.722656 12.375 42.382812 15.933594 42.289062 16.6875 C 42.457031 16.722656 42.636719 16.769531 42.816406 16.820312 " fill-opacity="1" fill-rule="nonzero"/><path fill="#3985dd" d="M 43.746094 17.246094 L 42.816406 16.953125 C 42.816406 16.953125 42.835938 11.445312 41.085938 9.296875 C 41.085938 9.296875 43.386719 11.519531 43.746094 17.246094 " fill-opacity="1" fill-rule="nonzero"/><path fill="#dc5004" d="M 51.539062 28.253906 C 51.539062 28.253906 49.996094 23.324219 46.976562 19.699219 C 44.484375 16.5 41.367188 16.550781 40.292969 16.417969 C 39.21875 16.285156 35.300781 15.824219 33.796875 15.222656 C 32.292969 14.617188 30.699219 14.019531 30.699219 14.019531 C 30.699219 14.019531 33.429688 15.734375 34.832031 16.039062 C 36.238281 16.347656 40.183594 16.855469 41.828125 17.433594 C 43.46875 18.015625 45.617188 18.847656 47.765625 21.789062 C 49.914062 24.730469 51.539062 28.253906 51.539062 28.253906 " fill-opacity="1" fill-rule="nonzero"/><path fill="#8e0300" d="M 41.207031 24.523438 C 41.207031 24.523438 37.3125 23.65625 36.300781 22.789062 C 35.289062 21.921875 34.808594 20.175781 33.410156 19.503906 C 32.011719 18.832031 29.257812 17.949219 27.3125 17.585938 C 27.3125 17.585938 32.066406 18.191406 34.007812 19.332031 C 35.949219 20.472656 35.929688 21.832031 37.148438 22.648438 C 37.941406 23.175781 41.207031 24.523438 41.207031 24.523438 " fill-opacity="1" fill-rule="nonzero"/><path fill="#b7302c" d="M 29.90625 36.144531 C 30.949219 36.148438 32.648438 34.542969 33.386719 33.980469 C 34.039062 33.78125 34.265625 33.667969 35.421875 33.464844 C 37.164062 33.164062 39.535156 32.828125 40.5 31.953125 C 40.5 31.953125 41.828125 31.34375 42.75 29.484375 C 43.675781 27.628906 41.414062 27.054688 40.292969 27.230469 C 39.171875 27.40625 37.027344 27.558594 36.5625 28.351562 C 35.679688 29.898438 40.402344 27.296875 41.207031 28.785156 C 41.953125 30.160156 40.46875 31.425781 38.230469 32.257812 C 35.992188 33.09375 33.988281 32.699219 31.28125 35.210938 C 30.753906 35.578125 29.90625 36.144531 29.90625 36.144531 " fill-opacity="1" fill-rule="nonzero"/><path fill="#22894c" d="M 45.8125 27.011719 C 45.8125 27.011719 44.042969 27.066406 43.195312 28.785156 C 42.347656 30.5 41.695312 31.984375 38.328125 33.007812 C 38.328125 33.007812 36.441406 33.292969 35.972656 33.371094 C 35.507812 33.453125 39.789062 32.628906 41.207031 31.007812 C 43.25 28.675781 43.074219 27.53125 44.558594 27.011719 C 45.304688 26.753906 45.8125 27.011719 45.8125 27.011719 " fill-opacity="1" fill-rule="nonzero"/><path fill="#ba0e01" d="M 28.417969 28.542969 C 28.699219 28.308594 28.992188 28.089844 29.28125 27.867188 C 29.574219 27.640625 29.851562 27.394531 30.152344 27.183594 C 30.742188 26.769531 31.355469 26.390625 32 26.085938 C 32.644531 25.78125 33.320312 25.554688 34.003906 25.367188 C 34.691406 25.179688 35.386719 25.039062 36.082031 24.898438 C 36.585938 24.800781 37.058594 24.707031 37.558594 24.605469 C 37.625 24.632812 37.695312 24.660156 37.761719 24.6875 C 37.632812 24.714844 37.527344 24.738281 37.394531 24.765625 C 37.050781 24.835938 36.703125 24.898438 36.355469 24.964844 C 35.664062 25.097656 34.972656 25.230469 34.289062 25.398438 C 33.605469 25.566406 32.929688 25.773438 32.277344 26.050781 C 31.621094 26.332031 31 26.691406 30.402344 27.097656 C 30.253906 27.199219 30.109375 27.300781 29.964844 27.402344 C 29.808594 27.511719 29.652344 27.613281 29.5 27.722656 C 29.207031 27.933594 28.925781 28.164062 28.644531 28.390625 C 28.574219 28.445312 28.503906 28.503906 28.429688 28.558594 L 28.417969 28.542969 " fill-opacity="1" fill-rule="nonzero"/><path fill="#ba0e01" d="M 29.339844 27.28125 C 30.257812 26.578125 31.261719 26.007812 32.304688 25.542969 C 32.824219 25.308594 33.355469 25.101562 33.894531 24.925781 C 34.453125 24.746094 35.023438 24.605469 35.597656 24.488281 C 35.945312 24.417969 36.292969 24.355469 36.640625 24.300781 C 36.714844 24.289062 36.714844 24.289062 36.789062 24.277344 C 36.855469 24.300781 36.898438 24.335938 36.960938 24.355469 C 36.96875 24.355469 36.839844 24.378906 36.722656 24.398438 C 36.410156 24.449219 36.105469 24.503906 35.796875 24.5625 C 35.21875 24.671875 34.644531 24.808594 34.074219 24.976562 C 33.542969 25.140625 33.019531 25.324219 32.503906 25.539062 C 31.980469 25.757812 31.472656 26.011719 30.972656 26.28125 C 30.414062 26.585938 29.875 26.925781 29.34375 27.289062 L 29.339844 27.28125 " fill-opacity="1" fill-rule="nonzero"/><path fill="#ba0e01" d="M 29.765625 26.480469 C 29.9375 26.328125 30.132812 26.199219 30.320312 26.070312 C 30.515625 25.933594 30.714844 25.8125 30.914062 25.683594 C 31.3125 25.429688 31.722656 25.207031 32.144531 25.011719 C 32.574219 24.808594 33.019531 24.652344 33.476562 24.542969 C 33.957031 24.425781 34.445312 24.355469 34.929688 24.28125 C 35.207031 24.238281 35.480469 24.195312 35.75 24.136719 C 35.886719 24.109375 36.019531 24.082031 36.15625 24.046875 C 36.21875 24.03125 36.15625 24.046875 36.21875 24.03125 C 36.246094 24.054688 36.316406 24.066406 36.34375 24.085938 C 36.269531 24.113281 36.277344 24.105469 36.203125 24.128906 C 36.085938 24.160156 35.96875 24.191406 35.851562 24.214844 C 35.609375 24.269531 35.363281 24.3125 35.117188 24.347656 C 34.632812 24.421875 34.148438 24.480469 33.667969 24.574219 C 33.4375 24.621094 33.207031 24.675781 32.980469 24.746094 C 32.757812 24.8125 32.542969 24.898438 32.328125 24.980469 C 31.898438 25.144531 31.488281 25.371094 31.089844 25.613281 C 30.867188 25.75 30.652344 25.898438 30.4375 26.054688 C 30.222656 26.207031 30.015625 26.382812 29.792969 26.53125 C 29.765625 26.550781 29.738281 26.503906 29.765625 26.480469 " fill-opacity="1" fill-rule="nonzero"/><path fill="#dc5004" d="M 33.796875 32.460938 C 34.546875 31.894531 35.144531 31.125 35.519531 30.230469 C 35.679688 29.855469 35.734375 29.769531 35.929688 29.507812 C 36.179688 29.46875 36.46875 29.417969 36.769531 29.363281 C 36.640625 29.582031 36.53125 29.816406 36.421875 30.042969 C 36.109375 30.667969 35.628906 31.328125 35.035156 31.671875 C 34.992188 31.695312 35.03125 31.777344 35.074219 31.753906 C 35.375 31.59375 35.621094 31.367188 35.84375 31.109375 C 36.066406 30.851562 36.242188 30.550781 36.457031 30.292969 C 36.691406 30.011719 36.847656 29.683594 37.050781 29.378906 C 37.070312 29.351562 37.089844 29.328125 37.109375 29.300781 C 37.355469 29.257812 37.605469 29.222656 37.84375 29.195312 C 37.652344 29.46875 37.476562 29.761719 37.296875 30.042969 C 36.914062 30.644531 36.539062 31.261719 35.902344 31.597656 C 35.847656 31.628906 35.898438 31.714844 35.953125 31.6875 C 36.574219 31.390625 37.082031 30.8125 37.492188 30.253906 C 37.707031 29.960938 37.914062 29.660156 38.121094 29.359375 C 38.167969 29.292969 38.210938 29.230469 38.257812 29.164062 C 38.394531 29.160156 38.527344 29.160156 38.644531 29.175781 C 38.488281 29.351562 38.355469 29.554688 38.25 29.75 C 37.96875 30.253906 37.6875 30.800781 37.199219 31.109375 C 37.117188 31.164062 37.171875 31.289062 37.261719 31.253906 C 38.09375 30.914062 38.359375 29.839844 39.007812 29.257812 C 39.234375 29.359375 39.34375 29.542969 39.28125 29.851562 C 39.03125 31.019531 37.382812 32.246094 35.929688 32.257812 C 34.476562 32.269531 32.648438 33.5 32.648438 33.5 C 32.648438 33.5 32.777344 33.230469 33.796875 32.460938 " fill-opacity="1" fill-rule="nonzero"/><path fill="#ff7133" d="M 51.308594 6.207031 C 51.363281 6.757812 51.445312 7.242188 51.601562 7.839844 C 51.738281 8.355469 51.878906 8.886719 52.035156 9.398438 C 52.34375 10.421875 52.699219 11.429688 52.910156 12.480469 C 53.015625 12.992188 53.082031 13.511719 53.105469 14.03125 C 53.125 14.574219 53.105469 15.125 53.203125 15.65625 C 53.253906 15.929688 53.339844 16.1875 53.464844 16.429688 C 53.589844 16.671875 53.738281 16.898438 53.859375 17.144531 C 54.097656 17.632812 54.121094 18.171875 54.117188 18.710938 C 54.117188 19 54.113281 19.285156 54.140625 19.570312 C 54.171875 19.84375 54.242188 20.109375 54.320312 20.375 C 54.464844 20.855469 54.65625 21.347656 54.65625 21.859375 C 54.65625 21.988281 54.644531 22.109375 54.617188 22.234375 C 54.609375 22.289062 54.527344 22.277344 54.535156 22.222656 C 54.636719 21.691406 54.480469 21.171875 54.328125 20.671875 C 54.25 20.425781 54.175781 20.179688 54.121094 19.925781 C 54.066406 19.664062 54.046875 19.394531 54.042969 19.125 C 54.03125 18.570312 54.082031 17.988281 53.902344 17.453125 C 53.730469 16.953125 53.375 16.550781 53.210938 16.042969 C 53.046875 15.523438 53.042969 14.96875 53.035156 14.425781 C 53.03125 13.863281 52.992188 13.308594 52.894531 12.757812 C 52.71875 11.710938 52.40625 10.691406 52.09375 9.683594 C 51.785156 8.675781 51.421875 7.640625 51.304688 6.582031 C 51.289062 6.457031 51.273438 6.335938 51.269531 6.207031 C 51.265625 6.164062 51.304688 6.164062 51.308594 6.207031 " fill-opacity="1" fill-rule="nonzero"/><path fill="#ff7133" d="M 51.304688 5.789062 C 51.625 6.765625 51.929688 7.75 52.242188 8.734375 C 52.398438 9.226562 52.554688 9.71875 52.714844 10.210938 C 52.863281 10.679688 53.011719 11.148438 53.128906 11.625 C 53.25 12.109375 53.34375 12.597656 53.371094 13.097656 C 53.394531 13.589844 53.320312 14.089844 53.402344 14.578125 C 53.546875 15.40625 54.167969 16.023438 54.441406 16.796875 C 54.730469 17.617188 54.597656 18.53125 54.890625 19.351562 C 54.925781 19.445312 54.96875 19.539062 55.015625 19.628906 C 55.046875 19.683594 54.964844 19.738281 54.933594 19.679688 C 54.5 18.929688 54.644531 18.007812 54.472656 17.175781 C 54.382812 16.761719 54.199219 16.390625 53.992188 16.027344 C 53.792969 15.675781 53.578125 15.332031 53.445312 14.949219 C 53.289062 14.503906 53.296875 14.042969 53.304688 13.578125 C 53.3125 13.074219 53.261719 12.574219 53.164062 12.078125 C 53.066406 11.585938 52.929688 11.105469 52.78125 10.632812 C 52.628906 10.140625 52.472656 9.648438 52.316406 9.160156 C 52.003906 8.164062 51.675781 7.171875 51.371094 6.175781 C 51.335938 6.050781 51.296875 5.929688 51.261719 5.808594 C 51.25 5.777344 51.292969 5.757812 51.304688 5.789062 " fill-opacity="1" fill-rule="nonzero"/><path fill="#ff7133" d="M 51.699219 6.226562 C 51.980469 6.886719 52.25 7.554688 52.515625 8.222656 C 52.773438 8.886719 53.023438 9.554688 53.25 10.230469 C 53.480469 10.914062 53.671875 11.609375 53.855469 12.308594 C 53.949219 12.664062 54.027344 13.019531 54.089844 13.378906 C 54.152344 13.734375 54.210938 14.09375 54.308594 14.441406 C 54.355469 14.613281 54.410156 14.777344 54.480469 14.9375 C 54.546875 15.078125 54.621094 15.214844 54.691406 15.355469 C 54.835938 15.628906 54.980469 15.921875 54.992188 16.242188 C 54.992188 16.28125 54.992188 16.316406 54.988281 16.351562 C 54.984375 16.40625 54.964844 16.453125 54.945312 16.503906 C 54.921875 16.5625 54.828125 16.542969 54.828125 16.480469 C 54.828125 16.320312 54.832031 16.164062 54.792969 16.007812 C 54.753906 15.855469 54.6875 15.707031 54.621094 15.566406 C 54.476562 15.277344 54.316406 15 54.21875 14.6875 C 54.113281 14.339844 54.0625 13.980469 54.007812 13.621094 C 53.949219 13.269531 53.882812 12.925781 53.816406 12.578125 C 53.6875 11.871094 53.488281 11.179688 53.265625 10.496094 C 53.046875 9.8125 52.800781 9.140625 52.539062 8.472656 C 52.28125 7.808594 52.003906 7.160156 51.734375 6.5 C 51.703125 6.421875 51.671875 6.339844 51.640625 6.261719 C 51.621094 6.21875 51.679688 6.183594 51.699219 6.226562 " fill-opacity="1" fill-rule="nonzero"/><path fill="#43a054" d="M 50.773438 28.289062 C 50.835938 28.273438 50.90625 28.261719 50.96875 28.253906 C 50.683594 27.878906 50.304688 27.488281 49.9375 27.203125 C 49.542969 26.898438 49.113281 26.65625 48.675781 26.429688 C 48.246094 26.207031 47.800781 26.015625 47.351562 25.828125 C 46.835938 25.613281 46.316406 25.417969 45.792969 25.238281 C 45.257812 25.058594 44.722656 24.875 44.171875 24.75 C 44.171875 24.75 44.167969 24.75 44.167969 24.75 C 44.152344 24.75 44.148438 24.773438 44.164062 24.78125 C 44.75 24.988281 45.34375 25.164062 45.925781 25.382812 C 46.449219 25.578125 46.976562 25.785156 47.492188 26.007812 C 47.917969 26.1875 48.347656 26.382812 48.75 26.617188 C 49.480469 27.039062 50.230469 27.613281 50.773438 28.289062 " fill-opacity="1" fill-rule="nonzero"/><path fill="#43a054" d="M 51.113281 28.222656 C 51.171875 28.21875 51.234375 28.203125 51.292969 28.183594 C 51.226562 28.035156 51.097656 27.894531 50.996094 27.777344 C 50.851562 27.609375 50.691406 27.464844 50.523438 27.324219 C 49.894531 26.792969 49.207031 26.34375 48.476562 25.988281 C 48.097656 25.800781 47.710938 25.640625 47.316406 25.503906 C 47.125 25.4375 46.929688 25.382812 46.734375 25.328125 C 46.546875 25.273438 46.359375 25.21875 46.167969 25.191406 C 46.167969 25.1875 46.167969 25.1875 46.164062 25.1875 C 46.132812 25.1875 46.125 25.238281 46.160156 25.25 C 46.367188 25.324219 46.578125 25.367188 46.789062 25.433594 C 47.003906 25.503906 47.21875 25.585938 47.429688 25.671875 C 48.167969 25.960938 48.875 26.34375 49.539062 26.796875 C 49.871094 27.023438 50.191406 27.265625 50.5 27.527344 C 50.644531 27.648438 50.785156 27.78125 50.910156 27.925781 C 50.976562 28.007812 51.054688 28.132812 51.113281 28.222656 " fill-opacity="1" fill-rule="nonzero"/><g clip-path="url(#a76f928627)"><path fill="#006363" d="M 41.347656 37.476562 C 41.335938 37.453125 41.328125 37.425781 41.332031 37.394531 C 41.421875 36.519531 41.535156 35.652344 41.65625 34.785156 C 41.753906 34.089844 41.894531 33.40625 42.363281 32.878906 C 42.777344 32.417969 43.328125 32.128906 43.8125 31.757812 C 44.078125 31.554688 44.3125 31.316406 44.5625 31.097656 C 44.828125 30.863281 45.121094 30.6875 45.445312 30.5625 C 46.128906 30.300781 46.851562 30.105469 47.554688 29.914062 C 48.347656 29.699219 49.144531 29.519531 49.949219 29.363281 C 50.703125 29.21875 51.464844 29.101562 52.222656 28.976562 C 52.976562 28.851562 53.722656 28.679688 54.480469 28.585938 C 55.320312 28.484375 56.167969 28.457031 57.007812 28.367188 C 57.867188 28.269531 58.722656 28.167969 59.582031 28.082031 C 59.621094 28.078125 59.621094 28.144531 59.578125 28.148438 C 58.839844 28.230469 58.097656 28.289062 57.355469 28.371094 C 56.976562 28.414062 56.585938 28.4375 56.207031 28.503906 C 55.824219 28.574219 55.445312 28.652344 55.0625 28.707031 C 54.324219 28.820312 53.582031 28.90625 52.839844 28.988281 C 52.105469 29.066406 51.371094 29.230469 50.648438 29.394531 C 49.167969 29.726562 47.667969 30.085938 46.226562 30.589844 C 45.886719 30.707031 45.539062 30.820312 45.222656 31 C 44.917969 31.171875 44.667969 31.429688 44.414062 31.671875 C 43.964844 32.105469 43.433594 32.402344 42.953125 32.789062 C 42.683594 33.003906 42.441406 33.261719 42.289062 33.585938 C 42.113281 33.949219 42.050781 34.363281 41.992188 34.761719 C 41.878906 35.535156 41.773438 36.304688 41.644531 37.078125 C 41.625 37.484375 41.605469 37.914062 41.597656 38.316406 C 41.921875 37.378906 42.082031 36.375 42.355469 35.410156 C 42.554688 34.699219 42.835938 33.992188 43.269531 33.402344 C 43.742188 32.753906 44.390625 32.273438 45.054688 31.871094 C 46.542969 30.972656 48.09375 30.222656 49.757812 29.78125 C 51.53125 29.3125 53.367188 29.128906 55.175781 28.886719 C 56.230469 28.75 57.285156 28.613281 58.339844 28.488281 C 59.386719 28.359375 62.410156 28.015625 63.460938 27.933594 C 63.566406 27.925781 63.566406 27.996094 63.460938 28.015625 C 62.550781 28.1875 59.671875 28.554688 58.753906 28.695312 C 57.816406 28.835938 56.875 28.972656 55.933594 29.101562 C 54.144531 29.347656 52.328125 29.519531 50.554688 29.898438 C 49.726562 30.074219 48.910156 30.3125 48.109375 30.597656 C 47.3125 30.882812 46.503906 31.210938 45.757812 31.632812 C 45.070312 32.023438 44.367188 32.453125 43.792969 33.019531 C 43.234375 33.5625 42.882812 34.246094 42.65625 35.007812 C 42.292969 36.246094 42.183594 37.636719 41.667969 38.824219 C 41.644531 38.914062 41.617188 39.007812 41.589844 39.101562 C 41.59375 39.390625 41.609375 39.636719 41.632812 39.800781 C 41.632812 39.800781 39.710938 47.1875 39.054688 51.855469 L 38.828125 51.3125 L 41.347656 37.476562 " fill-opacity="1" fill-rule="nonzero"/></g><path fill="#71b75a" d="M 43.347656 36.183594 C 43.910156 34.078125 45.769531 32.96875 47.09375 32.371094 C 48.597656 31.695312 50.269531 31.675781 51.871094 31.613281 C 52.71875 31.578125 53.5625 31.503906 54.398438 31.339844 C 55.277344 31.160156 56.140625 30.894531 57.003906 30.652344 C 58.765625 30.15625 60.527344 29.660156 62.285156 29.144531 C 62.710938 29.019531 63.402344 28.785156 63.816406 28.617188 C 64.207031 28.460938 64.597656 28.320312 65.011719 28.246094 C 65.542969 28.144531 66.328125 28.042969 66.867188 27.988281 C 66.789062 28.039062 65.683594 28.273438 65.445312 28.320312 C 65.019531 28.410156 64.609375 28.507812 64.195312 28.664062 C 63.8125 28.8125 63.445312 28.992188 63.050781 29.109375 C 61.332031 29.636719 59.589844 30.082031 57.871094 30.617188 C 56.21875 31.128906 54.570312 31.648438 52.847656 31.769531 C 51.207031 31.882812 49.515625 31.8125 47.925781 32.3125 C 46.320312 32.816406 45.070312 33.804688 44.238281 35.386719 C 44.171875 35.511719 44.085938 35.585938 44.027344 35.632812 C 43.933594 35.71875 43.710938 35.828125 43.347656 36.183594 " fill-opacity="1" fill-rule="nonzero"/><path fill="#97cbf7" d="M 41.714844 11.324219 C 41.710938 11.308594 41.730469 11.296875 41.734375 11.3125 C 42.011719 12.070312 42.15625 12.859375 42.199219 13.679688 C 42.21875 14.121094 42.210938 14.558594 42.179688 14.996094 C 42.148438 15.398438 42.121094 15.828125 42.007812 16.210938 C 41.988281 16.273438 41.902344 16.269531 41.902344 16.195312 C 41.917969 15.75 42.003906 15.308594 42.035156 14.863281 C 42.0625 14.453125 42.074219 14.039062 42.0625 13.628906 C 42.035156 12.851562 41.925781 12.0625 41.714844 11.324219 " fill-opacity="1" fill-rule="nonzero"/><g clip-path="url(#44cc2b23dc)"><path fill="#25567f" d="M 38.140625 49.96875 C 38.230469 50.152344 38.660156 51.042969 38.660156 51.042969 C 38.660156 51.042969 39.980469 41.136719 41.578125 35.335938 C 41.578125 35.335938 39.492188 41.75 38.140625 49.96875 " fill-opacity="1" fill-rule="nonzero"/></g><path fill="#84395e" d="M 52.230469 28.089844 C 52 28.125 51.707031 28.175781 51.707031 28.175781 C 51.707031 28.175781 51.46875 21.660156 50.492188 19.835938 C 49.664062 17.96875 44.195312 12.890625 44.195312 12.890625 C 44.195312 12.890625 48.03125 15.929688 49.832031 18.167969 C 52.125 20.277344 52.230469 28.089844 52.230469 28.089844 " fill-opacity="1" fill-rule="nonzero"/><path fill="#ee611c" d="M 47.480469 20.695312 C 47.5 20.695312 47.519531 20.671875 47.503906 20.648438 C 46.609375 19.453125 44.734375 17.226562 41.960938 16.828125 C 44.824219 18.039062 46.6875 19.835938 47.460938 20.6875 C 47.46875 20.691406 47.476562 20.695312 47.480469 20.695312 " fill-opacity="1" fill-rule="nonzero"/><path fill="#84395e" d="M 55.160156 27.726562 L 55.949219 27.699219 L 55.660156 19.640625 C 55.660156 19.640625 55.90625 27.828125 55.160156 27.726562 " fill-opacity="1" fill-rule="nonzero"/><path fill="#84395e" d="M 55.691406 21.136719 C 55.40625 17.222656 55.089844 13.207031 54.640625 12.328125 L 55.300781 13.625 C 55.300781 13.625 55.75 20.335938 55.691406 21.136719 " fill-opacity="1" fill-rule="nonzero"/><path fill="#e55334" d="M 53.96875 22.519531 C 53.96875 22.519531 53.96875 22.519531 53.972656 22.519531 C 54.214844 22.5 53.699219 19.179688 53.28125 18.285156 C 53.269531 18.253906 53.242188 18.238281 53.214844 18.238281 C 53.175781 18.238281 53.136719 18.273438 53.140625 18.324219 C 53.171875 18.789062 53.148438 19.84375 53.253906 20.5 C 53.359375 21.15625 53.753906 22.519531 53.96875 22.519531 " fill-opacity="1" fill-rule="nonzero"/><g clip-path="url(#d2475ea813)"><path fill="#e9d000" d="M 34.511719 23.136719 L 34.019531 22.851562 C 34.019531 22.851562 30.933594 22.773438 29.585938 22.449219 C 28.28125 22.097656 27.921875 21.972656 27.03125 21.582031 C 26.546875 21.371094 26.1875 21.207031 25.910156 21.09375 C 25.679688 21 25.511719 20.941406 25.371094 20.925781 C 25.066406 20.890625 23.683594 20.613281 23.378906 20.617188 C 23.125 20.574219 25.21875 20.925781 25.578125 21.054688 C 26.074219 21.234375 27.328125 21.859375 27.921875 22.117188 C 28.511719 22.375 30.191406 22.601562 31.292969 22.816406 C 32.589844 23.074219 34.578125 23.1875 34.511719 23.136719 " fill-opacity="1" fill-rule="nonzero"/></g><path fill="#f75e78" d="M 35.992188 23.949219 C 35.867188 23.851562 33.8125 23.824219 32.183594 24.371094 C 30.054688 25.191406 29.0625 26.886719 27.90625 28.253906 C 27.90625 28.253906 29.21875 26.6875 30.039062 25.988281 C 30.121094 25.921875 30.199219 25.851562 30.277344 25.78125 C 32.457031 23.800781 35.992188 23.867188 35.992188 23.949219 " fill-opacity="1" fill-rule="nonzero"/><path fill="#568700" d="M 57.023438 29.386719 C 57.539062 29.3125 58.046875 29.238281 58.550781 29.164062 C 60.199219 28.921875 61.78125 28.671875 63.179688 28.441406 C 63.113281 28.449219 60.839844 28.742188 58.328125 29.140625 C 57.890625 29.222656 57.457031 29.304688 57.023438 29.386719 " fill-opacity="1" fill-rule="nonzero"/><path fill="#a7ae24" d="M 49.519531 31.289062 C 49.652344 31.289062 49.796875 31.277344 49.898438 31.253906 C 50.976562 31.015625 52.183594 31.050781 53.488281 30.808594 C 55.136719 30.503906 63.179688 28.441406 63.179688 28.441406 C 61.78125 28.671875 60.199219 28.921875 58.550781 29.164062 C 58.046875 29.238281 57.539062 29.3125 57.023438 29.386719 C 54.882812 29.792969 52.894531 30.195312 51.960938 30.441406 C 51.839844 30.480469 51.710938 30.519531 51.578125 30.554688 C 51.578125 30.554688 51.578125 30.554688 51.578125 30.558594 C 51.054688 30.742188 50.183594 30.902344 49.179688 31.167969 C 49.105469 31.210938 49.128906 31.242188 49.289062 31.273438 C 49.355469 31.285156 49.433594 31.289062 49.519531 31.289062 " fill-opacity="1" fill-rule="nonzero"/><path fill="#328834" d="M 49.179688 31.167969 C 50.183594 30.902344 51.054688 30.742188 51.578125 30.558594 C 51.578125 30.554688 51.578125 30.554688 51.578125 30.554688 C 51.359375 30.621094 51.132812 30.6875 50.90625 30.742188 C 50.203125 30.921875 49.367188 31.066406 49.179688 31.167969 M 51.960938 30.441406 C 52.894531 30.195312 54.882812 29.792969 57.023438 29.386719 C 57.457031 29.304688 57.890625 29.222656 58.328125 29.140625 C 56.34375 29.457031 54.210938 29.839844 52.902344 30.207031 C 52.710938 30.21875 52.367188 30.320312 51.960938 30.441406 " fill-opacity="1" fill-rule="nonzero"/><g fill="#32620e" fill-opacity="1"><g transform="translate(31.296218, 59.870117)"><g><path d="M 0.375 0 L 0.375 -0.890625 L 0.875 -0.890625 C 1.257812 -0.890625 1.453125 -1.21875 1.453125 -1.875 L 1.453125 -5.453125 L 0.421875 -5.453125 L 0.421875 -6.34375 L 4.140625 -6.34375 C 4.867188 -6.34375 5.410156 -6.179688 5.765625 -5.859375 C 6.117188 -5.535156 6.296875 -5.019531 6.296875 -4.3125 L 6.296875 0 L 5.328125 0 L 5.328125 -4.125 C 5.328125 -4.625 5.210938 -4.96875 4.984375 -5.15625 C 4.765625 -5.351562 4.460938 -5.453125 4.078125 -5.453125 L 2.421875 -5.453125 L 2.421875 -1.921875 C 2.421875 -1.285156 2.296875 -0.804688 2.046875 -0.484375 C 1.796875 -0.160156 1.382812 0 0.8125 0 Z M 0.375 0 "/></g></g></g><g fill="#32620e" fill-opacity="1"><g transform="translate(37.895523, 59.870117)"><g><path d="M 0.90625 0 L 0.90625 -6.34375 L 1.875 -6.34375 L 1.875 0 Z M 0.90625 0 "/></g></g></g><g fill="#32620e" fill-opacity="1"><g transform="translate(40.134575, 59.870117)"><g><path d="M 0.328125 0 L 0.328125 -0.890625 L 2.4375 -0.890625 L 2.4375 -4.765625 C 2.4375 -5.015625 2.382812 -5.191406 2.28125 -5.296875 C 2.175781 -5.398438 2.019531 -5.453125 1.8125 -5.453125 L 0.671875 -5.453125 L 0.671875 -6.34375 L 2.09375 -6.34375 C 2.46875 -6.34375 2.773438 -6.234375 3.015625 -6.015625 C 3.265625 -5.796875 3.390625 -5.421875 3.390625 -4.890625 L 3.390625 0 Z M 0.328125 0 "/></g></g></g><g fill="#32620e" fill-opacity="1"><g transform="translate(43.841329, 59.870117)"><g><path d="M 0.796875 -2.28125 L 0.796875 -6.34375 L 1.765625 -6.34375 L 1.765625 -3.25 L 1.28125 -2.28125 Z M 0.796875 -2.28125 "/></g></g></g><g fill="#32620e" fill-opacity="1"><g transform="translate(45.812552, 59.870117)"><g><path d="M 0.15625 0.109375 L 0.15625 -0.921875 C 0.4375 -1.023438 0.691406 -1.148438 0.921875 -1.296875 C 1.148438 -1.453125 1.347656 -1.628906 1.515625 -1.828125 C 1.984375 -2.367188 2.21875 -2.984375 2.21875 -3.671875 L 2.21875 -4.765625 C 2.21875 -5.015625 2.164062 -5.191406 2.0625 -5.296875 C 1.957031 -5.398438 1.800781 -5.453125 1.59375 -5.453125 L 0.5625 -5.453125 L 0.5625 -6.34375 L 1.875 -6.34375 C 2.25 -6.34375 2.554688 -6.234375 2.796875 -6.015625 C 3.046875 -5.796875 3.171875 -5.421875 3.171875 -4.890625 L 3.171875 -1.921875 L 3.390625 0 L 2.609375 0 L 2.296875 -1.765625 L 2.265625 -1.765625 C 2.066406 -1.410156 1.84375 -1.109375 1.59375 -0.859375 C 1.34375 -0.617188 1.09375 -0.414062 0.84375 -0.25 C 0.59375 -0.09375 0.363281 0.0234375 0.15625 0.109375 Z M 0.15625 0.109375 "/></g></g></g><g fill="#32620e" fill-opacity="1"><g transform="translate(48.983647, 59.870117)"><g/></g></g><g fill="#32620e" fill-opacity="1"><g transform="translate(50.772744, 59.870117)"><g><path d="M 0.375 0 L 0.375 -0.890625 L 0.875 -0.890625 C 1.257812 -0.890625 1.453125 -1.21875 1.453125 -1.875 L 1.453125 -5.453125 L 0.421875 -5.453125 L 0.421875 -6.34375 L 4.140625 -6.34375 C 4.867188 -6.34375 5.410156 -6.179688 5.765625 -5.859375 C 6.117188 -5.535156 6.296875 -5.019531 6.296875 -4.3125 L 6.296875 0 L 5.328125 0 L 5.328125 -4.125 C 5.328125 -4.625 5.210938 -4.96875 4.984375 -5.15625 C 4.765625 -5.351562 4.460938 -5.453125 4.078125 -5.453125 L 2.421875 -5.453125 L 2.421875 -1.921875 C 2.421875 -1.285156 2.296875 -0.804688 2.046875 -0.484375 C 1.796875 -0.160156 1.382812 0 0.8125 0 Z M 0.375 0 "/></g></g></g><g fill="#32620e" fill-opacity="1"><g transform="translate(57.37205, 59.870117)"><g><path d="M 3.359375 0 L 5.375 -5.453125 L 0.859375 -5.453125 L 0.859375 -6.34375 L 6.375 -6.34375 L 6.375 -5.609375 L 4.375 0 Z M 0.859375 2.578125 L 0.859375 -3.875 L 1.828125 -3.875 L 1.828125 2.578125 Z M 0.859375 2.578125 "/></g></g></g><g fill="#32620e" fill-opacity="1"><g transform="translate(63.574966, 59.870117)"><g><path d="M 0.90625 0 L 0.90625 -6.34375 L 1.875 -6.34375 L 1.875 0 Z M 0.90625 0 "/></g></g></g><g fill="#32620e" fill-opacity="1"><g transform="translate(65.814017, 59.870117)"><g><path d="M 1.0625 0 L 1.0625 -3.734375 C 1.0625 -4.078125 1.109375 -4.363281 1.203125 -4.59375 C 1.296875 -4.820312 1.40625 -5 1.53125 -5.125 C 1.65625 -5.257812 1.769531 -5.359375 1.875 -5.421875 L 1.875 -5.453125 L 0.265625 -5.453125 L 0.265625 -6.34375 L 2.953125 -6.34375 L 2.953125 -5.53125 C 2.878906 -5.488281 2.769531 -5.40625 2.625 -5.28125 C 2.476562 -5.164062 2.34375 -4.992188 2.21875 -4.765625 C 2.09375 -4.535156 2.03125 -4.234375 2.03125 -3.859375 L 2.03125 0 Z M 1.0625 0 "/></g></g></g><g fill="#32620e" fill-opacity="1"><g transform="translate(68.481594, 59.870117)"><g><path d="M 4.1875 -6.34375 C 4.914062 -6.34375 5.457031 -6.179688 5.8125 -5.859375 C 6.164062 -5.535156 6.34375 -5.019531 6.34375 -4.3125 L 6.34375 0 L 5.375 0 L 5.375 -4.125 C 5.375 -4.625 5.265625 -4.96875 5.046875 -5.15625 C 4.828125 -5.351562 4.519531 -5.453125 4.125 -5.453125 L 1.875 -5.453125 L 1.875 0 L 0.90625 0 L 0.90625 -6.34375 Z M 4.1875 -6.34375 "/></g></g></g><g fill="#32620e" fill-opacity="1"><g transform="translate(75.134464, 59.870117)"><g><path d="M 0.375 0 L 0.375 -0.890625 L 0.875 -0.890625 C 1.257812 -0.890625 1.453125 -1.21875 1.453125 -1.875 L 1.453125 -5.453125 L 0.421875 -5.453125 L 0.421875 -6.34375 L 4.140625 -6.34375 C 4.867188 -6.34375 5.410156 -6.179688 5.765625 -5.859375 C 6.117188 -5.535156 6.296875 -5.019531 6.296875 -4.3125 L 6.296875 0 L 5.328125 0 L 5.328125 -4.125 C 5.328125 -4.625 5.210938 -4.96875 4.984375 -5.15625 C 4.765625 -5.351562 4.460938 -5.453125 4.078125 -5.453125 L 2.421875 -5.453125 L 2.421875 -1.921875 C 2.421875 -1.285156 2.296875 -0.804688 2.046875 -0.484375 C 1.796875 -0.160156 1.382812 0 0.8125 0 Z M 0.375 0 "/></g></g></g><g fill="#32620e" fill-opacity="1"><g transform="translate(81.733767, 59.870117)"><g><path d="M 0.90625 0 L 0.90625 -6.34375 L 1.875 -6.34375 L 1.875 0 Z M 0.90625 0 "/></g></g></g><g fill="#32620e" fill-opacity="1"><g transform="translate(83.972818, 59.870117)"><g/></g></g><g fill="#32620e" fill-opacity="1"><g transform="translate(85.761915, 59.870117)"><g><path d="M 4.1875 -6.34375 C 4.914062 -6.34375 5.457031 -6.179688 5.8125 -5.859375 C 6.164062 -5.535156 6.34375 -5.019531 6.34375 -4.3125 L 6.34375 0 L 5.375 0 L 5.375 -4.125 C 5.375 -4.625 5.265625 -4.96875 5.046875 -5.15625 C 4.828125 -5.351562 4.519531 -5.453125 4.125 -5.453125 L 1.875 -5.453125 L 1.875 0 L 0.90625 0 L 0.90625 -6.34375 Z M 4.1875 -6.34375 "/></g></g></g><g fill="#32620e" fill-opacity="1"><g transform="translate(92.414785, 59.870117)"><g><path d="M 0.90625 0 L 0.90625 -6.34375 L 1.875 -6.34375 L 1.875 0 Z M 0.90625 0 "/></g></g></g><g fill="#32620e" fill-opacity="1"><g transform="translate(94.653837, 59.870117)"><g><path d="M 0.375 0 L 0.375 -0.890625 L 0.875 -0.890625 C 1.257812 -0.890625 1.453125 -1.21875 1.453125 -1.875 L 1.453125 -5.453125 L 0.421875 -5.453125 L 0.421875 -6.34375 L 4.140625 -6.34375 C 4.867188 -6.34375 5.410156 -6.179688 5.765625 -5.859375 C 6.117188 -5.535156 6.296875 -5.019531 6.296875 -4.3125 L 6.296875 0 L 5.328125 0 L 5.328125 -4.125 C 5.328125 -4.625 5.210938 -4.96875 4.984375 -5.15625 C 4.765625 -5.351562 4.460938 -5.453125 4.078125 -5.453125 L 2.421875 -5.453125 L 2.421875 -1.921875 C 2.421875 -1.285156 2.296875 -0.804688 2.046875 -0.484375 C 1.796875 -0.160156 1.382812 0 0.8125 0 Z M 0.375 0 "/></g></g></g><g fill="#32620e" fill-opacity="1"><g transform="translate(101.25314, 59.870117)"><g><path d="M 0.796875 -2.28125 L 0.796875 -6.34375 L 1.765625 -6.34375 L 1.765625 -3.25 L 1.28125 -2.28125 Z M 0.796875 -2.28125 "/></g></g></g><g fill="#32620e" fill-opacity="1"><g transform="translate(103.224362, 59.870117)"><g><path d="M 0.53125 0 L 0.53125 -0.890625 L 3.0625 -0.890625 C 3.707031 -0.890625 4.179688 -1.101562 4.484375 -1.53125 C 4.785156 -1.957031 4.9375 -2.503906 4.9375 -3.171875 C 4.9375 -3.910156 4.753906 -4.472656 4.390625 -4.859375 C 4.035156 -5.253906 3.5 -5.453125 2.78125 -5.453125 L 1.5 -5.453125 L 1.5 -4.625 C 1.5 -4.207031 1.585938 -3.894531 1.765625 -3.6875 C 1.941406 -3.488281 2.1875 -3.390625 2.5 -3.390625 C 2.550781 -3.390625 2.609375 -3.390625 2.671875 -3.390625 C 2.734375 -3.398438 2.789062 -3.410156 2.84375 -3.421875 L 2.84375 -2.53125 C 2.6875 -2.507812 2.53125 -2.5 2.375 -2.5 C 1.738281 -2.5 1.269531 -2.6875 0.96875 -3.0625 C 0.675781 -3.4375 0.53125 -3.929688 0.53125 -4.546875 L 0.53125 -6.34375 L 2.890625 -6.34375 C 3.546875 -6.34375 4.097656 -6.207031 4.546875 -5.9375 C 5.003906 -5.675781 5.347656 -5.3125 5.578125 -4.84375 C 5.804688 -4.375 5.921875 -3.828125 5.921875 -3.203125 C 5.921875 -2.597656 5.8125 -2.050781 5.59375 -1.5625 C 5.382812 -1.082031 5.0625 -0.703125 4.625 -0.421875 C 4.195312 -0.140625 3.675781 0 3.0625 0 Z M 0.53125 0 "/></g></g></g><g fill="#32620e" fill-opacity="1"><g transform="translate(109.138024, 59.870117)"><g/></g></g><g fill="#32620e" fill-opacity="1"><g transform="translate(110.927121, 59.870117)"><g><path d="M 0.9375 1.703125 L 0.875 1.546875 C 1.113281 1.398438 1.296875 1.222656 1.421875 1.015625 C 1.546875 0.804688 1.632812 0.539062 1.6875 0.21875 L 1.328125 0.078125 C 1.117188 -0.0234375 0.957031 -0.15625 0.84375 -0.3125 C 0.738281 -0.476562 0.6875 -0.640625 0.6875 -0.796875 C 0.6875 -1.046875 0.765625 -1.253906 0.921875 -1.421875 C 1.085938 -1.597656 1.304688 -1.6875 1.578125 -1.6875 C 1.847656 -1.6875 2.066406 -1.585938 2.234375 -1.390625 C 2.398438 -1.203125 2.484375 -0.929688 2.484375 -0.578125 C 2.484375 -0.179688 2.398438 0.164062 2.234375 0.46875 C 2.078125 0.78125 1.878906 1.039062 1.640625 1.25 C 1.410156 1.46875 1.175781 1.617188 0.9375 1.703125 Z M 0.9375 1.703125 "/></g></g></g><g fill="#32620e" fill-opacity="1"><g transform="translate(113.594695, 59.870117)"><g><path d="M 5.171875 0 L 5.171875 -4.125 C 5.171875 -4.625 5.054688 -4.96875 4.828125 -5.15625 C 4.609375 -5.351562 4.300781 -5.453125 3.90625 -5.453125 L 0.90625 -5.453125 L 0.90625 -6.34375 L 3.984375 -6.34375 C 4.703125 -6.34375 5.238281 -6.179688 5.59375 -5.859375 C 5.945312 -5.535156 6.125 -5.019531 6.125 -4.3125 L 6.125 0 Z M 0.90625 0 L 0.90625 -3.796875 L 1.875 -3.796875 L 1.875 0 Z M 0.90625 0 "/></g></g></g><g fill="#32620e" fill-opacity="1"><g transform="translate(120.033308, 59.870117)"><g><path d="M 3.75 -6.46875 C 4.488281 -6.46875 5.054688 -6.265625 5.453125 -5.859375 C 5.859375 -5.460938 6.0625 -4.941406 6.0625 -4.296875 L 6.0625 0 L 3.265625 0 L 3.265625 -0.890625 L 5.09375 -0.890625 L 5.09375 -4.140625 C 5.09375 -4.585938 4.976562 -4.945312 4.75 -5.21875 C 4.53125 -5.488281 4.175781 -5.625 3.6875 -5.625 C 3.125 -5.625 2.695312 -5.429688 2.40625 -5.046875 C 2.125 -4.671875 1.945312 -4.15625 1.875 -3.5 L 1.5 0 L 0.53125 0 L 1.015625 -4.390625 L 0.59375 -6.34375 L 1.546875 -6.34375 L 1.734375 -5.4375 L 1.765625 -5.4375 C 1.890625 -5.625 2.035156 -5.796875 2.203125 -5.953125 C 2.378906 -6.109375 2.585938 -6.234375 2.828125 -6.328125 C 3.078125 -6.421875 3.382812 -6.46875 3.75 -6.46875 Z M 3.75 -6.46875 "/></g></g></g><g fill="#32620e" fill-opacity="1"><g transform="translate(126.396929, 59.870117)"><g><path d="M 3.359375 0 L 5.375 -5.453125 L 0.859375 -5.453125 L 0.859375 -6.34375 L 6.375 -6.34375 L 6.375 -5.609375 L 4.375 0 Z M 0.859375 2.578125 L 0.859375 -3.875 L 1.828125 -3.875 L 1.828125 2.578125 Z M 0.859375 2.578125 "/></g></g></g><g fill="#32620e" fill-opacity="1"><g transform="translate(132.59985, 59.870117)"><g><path d="M 5.171875 0 L 5.171875 -4.125 C 5.171875 -4.625 5.054688 -4.96875 4.828125 -5.15625 C 4.609375 -5.351562 4.300781 -5.453125 3.90625 -5.453125 L 0.90625 -5.453125 L 0.90625 -6.34375 L 3.984375 -6.34375 C 4.703125 -6.34375 5.238281 -6.179688 5.59375 -5.859375 C 5.945312 -5.535156 6.125 -5.019531 6.125 -4.3125 L 6.125 0 Z M 0.90625 0 L 0.90625 -3.796875 L 1.875 -3.796875 L 1.875 0 Z M 0.90625 0 "/></g></g></g><g fill="#32620e" fill-opacity="1"><g transform="translate(139.038465, 59.870117)"><g/></g></g><g fill="#32620e" fill-opacity="1"><g transform="translate(140.827566, 59.870117)"><g><path d="M 0.9375 1.703125 L 0.875 1.546875 C 1.113281 1.398438 1.296875 1.222656 1.421875 1.015625 C 1.546875 0.804688 1.632812 0.539062 1.6875 0.21875 L 1.328125 0.078125 C 1.117188 -0.0234375 0.957031 -0.15625 0.84375 -0.3125 C 0.738281 -0.476562 0.6875 -0.640625 0.6875 -0.796875 C 0.6875 -1.046875 0.765625 -1.253906 0.921875 -1.421875 C 1.085938 -1.597656 1.304688 -1.6875 1.578125 -1.6875 C 1.847656 -1.6875 2.066406 -1.585938 2.234375 -1.390625 C 2.398438 -1.203125 2.484375 -0.929688 2.484375 -0.578125 C 2.484375 -0.179688 2.398438 0.164062 2.234375 0.46875 C 2.078125 0.78125 1.878906 1.039062 1.640625 1.25 C 1.410156 1.46875 1.175781 1.617188 0.9375 1.703125 Z M 0.9375 1.703125 "/></g></g></g><g fill="#32620e" fill-opacity="1"><g transform="translate(143.495142, 59.870117)"><g><path d="M 1.328125 2.578125 L 1.328125 -4.765625 C 1.328125 -5.015625 1.269531 -5.191406 1.15625 -5.296875 C 1.050781 -5.398438 0.898438 -5.453125 0.703125 -5.453125 L 0.21875 -5.453125 L 0.21875 -6.34375 L 0.984375 -6.34375 C 1.359375 -6.34375 1.671875 -6.234375 1.921875 -6.015625 C 2.171875 -5.796875 2.296875 -5.421875 2.296875 -4.890625 L 2.296875 2.578125 Z M 1.328125 2.578125 "/></g></g></g><g fill="#32620e" fill-opacity="1"><g transform="translate(146.098444, 59.870117)"><g><path d="M 0.90625 0 L 0.90625 -6.34375 L 1.875 -6.34375 L 1.875 0 Z M 0.90625 0 "/></g></g></g><g fill="#32620e" fill-opacity="1"><g transform="translate(148.337496, 59.870117)"><g><path d="M 0.328125 0 L 0.328125 -0.890625 L 2.4375 -0.890625 L 2.4375 -4.765625 C 2.4375 -5.015625 2.382812 -5.191406 2.28125 -5.296875 C 2.175781 -5.398438 2.019531 -5.453125 1.8125 -5.453125 L 0.671875 -5.453125 L 0.671875 -6.34375 L 2.09375 -6.34375 C 2.46875 -6.34375 2.773438 -6.234375 3.015625 -6.015625 C 3.265625 -5.796875 3.390625 -5.421875 3.390625 -4.890625 L 3.390625 0 Z M 0.328125 0 "/></g></g></g><g fill="#32620e" fill-opacity="1"><g transform="translate(152.044248, 59.870117)"><g><path d="M 0.328125 0 L 0.328125 -0.890625 L 2.375 -0.890625 C 3.03125 -0.890625 3.503906 -1.101562 3.796875 -1.53125 C 4.097656 -1.957031 4.25 -2.503906 4.25 -3.171875 C 4.25 -3.910156 4.070312 -4.472656 3.71875 -4.859375 C 3.363281 -5.253906 2.828125 -5.453125 2.109375 -5.453125 L 0.328125 -5.453125 L 0.328125 -6.34375 L 2.21875 -6.34375 C 2.882812 -6.34375 3.441406 -6.207031 3.890625 -5.9375 C 4.335938 -5.675781 4.675781 -5.3125 4.90625 -4.84375 C 5.132812 -4.375 5.25 -3.828125 5.25 -3.203125 C 5.25 -2.597656 5.140625 -2.050781 4.921875 -1.5625 C 4.703125 -1.082031 4.378906 -0.703125 3.953125 -0.421875 C 3.535156 -0.140625 3.007812 0 2.375 0 Z M 0.328125 0 "/></g></g></g><g fill="#32620e" fill-opacity="1"><g transform="translate(157.282985, 59.870117)"><g><path d="M 0.375 0 L 0.375 -0.890625 L 0.875 -0.890625 C 1.257812 -0.890625 1.453125 -1.21875 1.453125 -1.875 L 1.453125 -5.453125 L 0.421875 -5.453125 L 0.421875 -6.34375 L 4.140625 -6.34375 C 4.867188 -6.34375 5.410156 -6.179688 5.765625 -5.859375 C 6.117188 -5.535156 6.296875 -5.019531 6.296875 -4.3125 L 6.296875 0 L 5.328125 0 L 5.328125 -4.125 C 5.328125 -4.625 5.210938 -4.96875 4.984375 -5.15625 C 4.765625 -5.351562 4.460938 -5.453125 4.078125 -5.453125 L 2.421875 -5.453125 L 2.421875 -1.921875 C 2.421875 -1.285156 2.296875 -0.804688 2.046875 -0.484375 C 1.796875 -0.160156 1.382812 0 0.8125 0 Z M 0.375 0 "/></g></g></g><g fill="#32620e" fill-opacity="1"><g transform="translate(51.951661, 82.059505)"><g><path d="M 4.25 0.25 C 3.570312 0.25 2.9375 0.0546875 2.34375 -0.328125 C 1.75 -0.710938 1.269531 -1.316406 0.90625 -2.140625 C 0.550781 -2.960938 0.375 -4.035156 0.375 -5.359375 C 0.375 -6.691406 0.550781 -7.769531 0.90625 -8.59375 C 1.269531 -9.425781 1.75 -10.035156 2.34375 -10.421875 C 2.9375 -10.804688 3.570312 -11 4.25 -11 C 4.925781 -11 5.5625 -10.804688 6.15625 -10.421875 C 6.75 -10.035156 7.226562 -9.425781 7.59375 -8.59375 C 7.96875 -7.769531 8.15625 -6.691406 8.15625 -5.359375 C 8.15625 -4.035156 7.96875 -2.960938 7.59375 -2.140625 C 7.226562 -1.316406 6.75 -0.710938 6.15625 -0.328125 C 5.5625 0.0546875 4.925781 0.25 4.25 0.25 Z M 4.25 -0.078125 C 4.53125 -0.078125 4.769531 -0.148438 4.96875 -0.296875 C 5.164062 -0.453125 5.328125 -0.71875 5.453125 -1.09375 C 5.578125 -1.476562 5.664062 -2.015625 5.71875 -2.703125 C 5.78125 -3.390625 5.8125 -4.273438 5.8125 -5.359375 C 5.8125 -6.441406 5.78125 -7.328125 5.71875 -8.015625 C 5.664062 -8.710938 5.578125 -9.253906 5.453125 -9.640625 C 5.328125 -10.023438 5.164062 -10.289062 4.96875 -10.4375 C 4.769531 -10.582031 4.53125 -10.65625 4.25 -10.65625 C 3.96875 -10.65625 3.726562 -10.582031 3.53125 -10.4375 C 3.332031 -10.289062 3.171875 -10.03125 3.046875 -9.65625 C 2.921875 -9.28125 2.832031 -8.742188 2.78125 -8.046875 C 2.726562 -7.347656 2.703125 -6.453125 2.703125 -5.359375 C 2.703125 -4.273438 2.726562 -3.382812 2.78125 -2.6875 C 2.832031 -2 2.921875 -1.46875 3.046875 -1.09375 C 3.171875 -0.71875 3.332031 -0.453125 3.53125 -0.296875 C 3.726562 -0.148438 3.96875 -0.078125 4.25 -0.078125 Z M 4.25 -0.078125 "/></g></g></g><g fill="#32620e" fill-opacity="1"><g transform="translate(59.600002, 82.059505)"><g><path d="M 4.140625 0.25 C 3.484375 0.25 2.894531 0.1875 2.375 0.0625 C 1.863281 -0.0507812 1.410156 -0.242188 1.015625 -0.515625 L 1.140625 -2.640625 L 1.3125 -2.640625 L 2.078125 -1.25 C 2.304688 -0.84375 2.582031 -0.546875 2.90625 -0.359375 C 3.238281 -0.171875 3.601562 -0.078125 4 -0.078125 C 5.300781 -0.078125 5.953125 -1.066406 5.953125 -3.046875 C 5.953125 -3.941406 5.78125 -4.617188 5.4375 -5.078125 C 5.09375 -5.546875 4.582031 -5.78125 3.90625 -5.78125 C 3.582031 -5.78125 3.265625 -5.738281 2.953125 -5.65625 C 2.640625 -5.570312 2.359375 -5.460938 2.109375 -5.328125 L 1.796875 -5.515625 L 2.171875 -10.75 L 8.109375 -10.75 L 8.109375 -8.8125 L 2.515625 -8.8125 L 2.265625 -5.875 C 2.523438 -6.070312 2.875 -6.253906 3.3125 -6.421875 C 3.757812 -6.585938 4.226562 -6.671875 4.71875 -6.671875 C 5.445312 -6.671875 6.097656 -6.539062 6.671875 -6.28125 C 7.242188 -6.03125 7.691406 -5.648438 8.015625 -5.140625 C 8.335938 -4.640625 8.5 -4.019531 8.5 -3.28125 C 8.5 -2.53125 8.304688 -1.890625 7.921875 -1.359375 C 7.546875 -0.828125 7.03125 -0.425781 6.375 -0.15625 C 5.71875 0.113281 4.972656 0.25 4.140625 0.25 Z M 4.140625 0.25 "/></g></g></g><g fill="#32620e" fill-opacity="1"><g transform="translate(67.75711, 82.059505)"><g><path d="M 1.171875 -7.90625 L 1.28125 -10.3125 C 1.625 -10.5 2.046875 -10.660156 2.546875 -10.796875 C 3.054688 -10.929688 3.625 -11 4.25 -11 C 5.15625 -11 5.882812 -10.867188 6.4375 -10.609375 C 6.988281 -10.359375 7.394531 -10.015625 7.65625 -9.578125 C 7.914062 -9.140625 8.046875 -8.644531 8.046875 -8.09375 C 8.046875 -7.3125 7.664062 -6.550781 6.90625 -5.8125 C 6.15625 -5.070312 5.125 -4.253906 3.8125 -3.359375 C 3.5625 -3.171875 3.265625 -2.945312 2.921875 -2.6875 C 2.585938 -2.4375 2.273438 -2.1875 1.984375 -1.9375 L 8.34375 -1.9375 L 8.34375 0 L 0.875 0 L 0.875 -1.421875 C 1.28125 -1.816406 1.675781 -2.207031 2.0625 -2.59375 C 2.457031 -2.988281 2.832031 -3.363281 3.1875 -3.71875 C 4 -4.550781 4.601562 -5.289062 5 -5.9375 C 5.40625 -6.59375 5.609375 -7.289062 5.609375 -8.03125 C 5.609375 -8.8125 5.46875 -9.441406 5.1875 -9.921875 C 4.90625 -10.398438 4.484375 -10.640625 3.921875 -10.640625 C 3.566406 -10.640625 3.238281 -10.550781 2.9375 -10.375 C 2.632812 -10.207031 2.375 -9.910156 2.15625 -9.484375 L 1.34375 -7.90625 Z M 1.171875 -7.90625 "/></g></g></g><g fill="#32620e" fill-opacity="1"><g transform="translate(75.914219, 82.059505)"><g/></g></g><g fill="#32620e" fill-opacity="1"><g transform="translate(78.746202, 82.059505)"><g><path d="M 0.671875 -4.0625 L 0.671875 -4.53125 L 4.953125 -4.53125 L 4.953125 -4.0625 Z M 0.671875 -4.0625 "/></g></g></g><g fill="#32620e" fill-opacity="1"><g transform="translate(83.511514, 82.059505)"><g/></g></g><g fill="#32620e" fill-opacity="1"><g transform="translate(86.343497, 82.059505)"><g><path d="M 1.171875 -7.90625 L 1.28125 -10.3125 C 1.625 -10.5 2.046875 -10.660156 2.546875 -10.796875 C 3.054688 -10.929688 3.625 -11 4.25 -11 C 5.15625 -11 5.882812 -10.867188 6.4375 -10.609375 C 6.988281 -10.359375 7.394531 -10.015625 7.65625 -9.578125 C 7.914062 -9.140625 8.046875 -8.644531 8.046875 -8.09375 C 8.046875 -7.3125 7.664062 -6.550781 6.90625 -5.8125 C 6.15625 -5.070312 5.125 -4.253906 3.8125 -3.359375 C 3.5625 -3.171875 3.265625 -2.945312 2.921875 -2.6875 C 2.585938 -2.4375 2.273438 -2.1875 1.984375 -1.9375 L 8.34375 -1.9375 L 8.34375 0 L 0.875 0 L 0.875 -1.421875 C 1.28125 -1.816406 1.675781 -2.207031 2.0625 -2.59375 C 2.457031 -2.988281 2.832031 -3.363281 3.1875 -3.71875 C 4 -4.550781 4.601562 -5.289062 5 -5.9375 C 5.40625 -6.59375 5.609375 -7.289062 5.609375 -8.03125 C 5.609375 -8.8125 5.46875 -9.441406 5.1875 -9.921875 C 4.90625 -10.398438 4.484375 -10.640625 3.921875 -10.640625 C 3.566406 -10.640625 3.238281 -10.550781 2.9375 -10.375 C 2.632812 -10.207031 2.375 -9.910156 2.15625 -9.484375 L 1.34375 -7.90625 Z M 1.171875 -7.90625 "/></g></g></g><g fill="#32620e" fill-opacity="1"><g transform="translate(94.500605, 82.059505)"><g><path d="M 4.859375 0 L 4.859375 -2.75 L 0.40625 -2.75 L 0.40625 -3.71875 L 5.375 -10.890625 L 7.03125 -10.890625 L 7.03125 -4 L 8.640625 -4 L 8.640625 -2.75 L 7.03125 -2.75 L 7.03125 0 Z M 1.15625 -4 L 4.859375 -4 L 4.859375 -9.34375 Z M 1.15625 -4 "/></g></g></g><g fill="#32620e" fill-opacity="1"><g transform="translate(102.759469, 82.059505)"><g><path d="M 4.140625 0.25 C 3.484375 0.25 2.894531 0.1875 2.375 0.0625 C 1.863281 -0.0507812 1.410156 -0.242188 1.015625 -0.515625 L 1.140625 -2.640625 L 1.3125 -2.640625 L 2.078125 -1.25 C 2.304688 -0.84375 2.582031 -0.546875 2.90625 -0.359375 C 3.238281 -0.171875 3.601562 -0.078125 4 -0.078125 C 5.300781 -0.078125 5.953125 -1.066406 5.953125 -3.046875 C 5.953125 -3.941406 5.78125 -4.617188 5.4375 -5.078125 C 5.09375 -5.546875 4.582031 -5.78125 3.90625 -5.78125 C 3.582031 -5.78125 3.265625 -5.738281 2.953125 -5.65625 C 2.640625 -5.570312 2.359375 -5.460938 2.109375 -5.328125 L 1.796875 -5.515625 L 2.171875 -10.75 L 8.109375 -10.75 L 8.109375 -8.8125 L 2.515625 -8.8125 L 2.265625 -5.875 C 2.523438 -6.070312 2.875 -6.253906 3.3125 -6.421875 C 3.757812 -6.585938 4.226562 -6.671875 4.71875 -6.671875 C 5.445312 -6.671875 6.097656 -6.539062 6.671875 -6.28125 C 7.242188 -6.03125 7.691406 -5.648438 8.015625 -5.140625 C 8.335938 -4.640625 8.5 -4.019531 8.5 -3.28125 C 8.5 -2.53125 8.304688 -1.890625 7.921875 -1.359375 C 7.546875 -0.828125 7.03125 -0.425781 6.375 -0.15625 C 5.71875 0.113281 4.972656 0.25 4.140625 0.25 Z M 4.140625 0.25 "/></g></g></g><g fill="#32620e" fill-opacity="1"><g transform="translate(110.91658, 82.059505)"><g><path d="M 4.859375 0 L 4.859375 -2.75 L 0.40625 -2.75 L 0.40625 -3.71875 L 5.375 -10.890625 L 7.03125 -10.890625 L 7.03125 -4 L 8.640625 -4 L 8.640625 -2.75 L 7.03125 -2.75 L 7.03125 0 Z M 1.15625 -4 L 4.859375 -4 L 4.859375 -9.34375 Z M 1.15625 -4 "/></g></g></g><g fill="#32620e" fill-opacity="1"><g transform="translate(119.175445, 82.059505)"><g><path d="M 1.671875 0 L 1.515625 -0.171875 L 7.375 -8.984375 L 0.453125 -8.984375 L 0.453125 -10.75 L 7.921875 -10.75 L 7.921875 -9.640625 L 3.921875 0 Z M 1.671875 0 "/></g></g></g><g fill="#32620e" fill-opacity="1"><g transform="translate(126.603314, 82.059505)"><g><path d="M 8.484375 -6.453125 C 8.484375 -5.316406 8.21875 -4.28125 7.6875 -3.34375 C 7.15625 -2.414062 6.375 -1.632812 5.34375 -1 C 4.320312 -0.363281 3.070312 0.0820312 1.59375 0.34375 L 1.53125 0.03125 C 2.53125 -0.175781 3.332031 -0.484375 3.9375 -0.890625 C 4.550781 -1.304688 5.015625 -1.820312 5.328125 -2.4375 C 5.640625 -3.0625 5.84375 -3.804688 5.9375 -4.671875 C 5.695312 -4.515625 5.398438 -4.390625 5.046875 -4.296875 C 4.703125 -4.203125 4.304688 -4.15625 3.859375 -4.15625 C 3.234375 -4.15625 2.664062 -4.28125 2.15625 -4.53125 C 1.65625 -4.789062 1.257812 -5.160156 0.96875 -5.640625 C 0.675781 -6.128906 0.53125 -6.71875 0.53125 -7.40625 C 0.53125 -8.144531 0.707031 -8.78125 1.0625 -9.3125 C 1.425781 -9.851562 1.90625 -10.269531 2.5 -10.5625 C 3.09375 -10.851562 3.742188 -11 4.453125 -11 C 5.742188 -11 6.738281 -10.59375 7.4375 -9.78125 C 8.132812 -8.976562 8.484375 -7.867188 8.484375 -6.453125 Z M 2.921875 -7.625 C 2.921875 -6.601562 3.0625 -5.863281 3.34375 -5.40625 C 3.625 -4.945312 4.085938 -4.71875 4.734375 -4.71875 C 5.203125 -4.71875 5.613281 -4.816406 5.96875 -5.015625 C 5.988281 -5.265625 6.003906 -5.515625 6.015625 -5.765625 C 6.023438 -6.023438 6.03125 -6.296875 6.03125 -6.578125 C 6.03125 -7.617188 5.976562 -8.4375 5.875 -9.03125 C 5.78125 -9.625 5.617188 -10.039062 5.390625 -10.28125 C 5.160156 -10.53125 4.851562 -10.65625 4.46875 -10.65625 C 3.957031 -10.65625 3.570312 -10.414062 3.3125 -9.9375 C 3.050781 -9.46875 2.921875 -8.695312 2.921875 -7.625 Z M 2.921875 -7.625 "/></g></g></g><g fill="#32620e" fill-opacity="1"><g transform="translate(134.76042, 82.059505)"><g><path d="M 4.3125 0.25 C 3.550781 0.25 2.929688 0.164062 2.453125 0 C 1.972656 -0.164062 1.5 -0.363281 1.03125 -0.59375 L 1.21875 -2.796875 L 1.390625 -2.796875 L 2.140625 -1.421875 C 2.628906 -0.523438 3.316406 -0.078125 4.203125 -0.078125 C 4.722656 -0.078125 5.144531 -0.296875 5.46875 -0.734375 C 5.789062 -1.171875 5.953125 -1.90625 5.953125 -2.9375 C 5.953125 -3.820312 5.816406 -4.457031 5.546875 -4.84375 C 5.273438 -5.238281 4.8125 -5.4375 4.15625 -5.4375 L 3.140625 -5.4375 L 3.140625 -5.78125 L 4.03125 -5.78125 C 4.632812 -5.78125 5.066406 -5.957031 5.328125 -6.3125 C 5.597656 -6.675781 5.734375 -7.304688 5.734375 -8.203125 C 5.734375 -9.078125 5.601562 -9.695312 5.34375 -10.0625 C 5.082031 -10.425781 4.738281 -10.609375 4.3125 -10.609375 C 3.875 -10.609375 3.507812 -10.484375 3.21875 -10.234375 C 2.9375 -9.984375 2.707031 -9.691406 2.53125 -9.359375 L 1.765625 -7.9375 L 1.59375 -7.953125 L 1.765625 -10.4375 C 2.128906 -10.601562 2.53125 -10.738281 2.96875 -10.84375 C 3.414062 -10.945312 3.914062 -11 4.46875 -11 C 5.65625 -11 6.554688 -10.738281 7.171875 -10.21875 C 7.796875 -9.707031 8.109375 -9.070312 8.109375 -8.3125 C 8.109375 -7.75 7.867188 -7.21875 7.390625 -6.71875 C 6.910156 -6.21875 6.164062 -5.867188 5.15625 -5.671875 C 6.3125 -5.578125 7.144531 -5.269531 7.65625 -4.75 C 8.175781 -4.226562 8.4375 -3.597656 8.4375 -2.859375 C 8.4375 -2.273438 8.269531 -1.742188 7.9375 -1.265625 C 7.601562 -0.796875 7.128906 -0.425781 6.515625 -0.15625 C 5.898438 0.113281 5.164062 0.25 4.3125 0.25 Z M 4.3125 0.25 "/></g></g></g></svg>