<svg xmlns="http://www.w3.org/2000/svg" xmlns:xlink="http://www.w3.org/1999/xlink" width="150" zoomAndPan="magnify" viewBox="0 0 112.5 44.999999" height="60" preserveAspectRatio="xMidYMid meet" version="1.0"><defs><g/><clipPath id="648ac92cc6"><path d="M 15 0.0976562 L 20 0.0976562 L 20 19 L 15 19 Z M 15 0.0976562 " clip-rule="nonzero"/></clipPath><clipPath id="0966917845"><path d="M 15 0.0976562 L 20 0.0976562 L 20 11 L 15 11 Z M 15 0.0976562 " clip-rule="nonzero"/></clipPath><clipPath id="f8fc5fa575"><path d="M 12 0.0976562 L 16 0.0976562 L 16 19 L 12 19 Z M 12 0.0976562 " clip-rule="nonzero"/></clipPath><clipPath id="78f9c4e2eb"><path d="M 30.078125 12.910156 L 40.367188 12.910156 L 40.367188 16.371094 L 30.078125 16.371094 Z M 30.078125 12.910156 " clip-rule="nonzero"/></clipPath><clipPath id="5bd3a9ad25"><path d="M 30.164062 12.910156 L 40.367188 12.910156 L 40.367188 15.765625 L 30.164062 15.765625 Z M 30.164062 12.910156 " clip-rule="nonzero"/></clipPath><clipPath id="0a10c37e57"><path d="M 31.917969 12.910156 L 40.367188 12.910156 L 40.367188 16.457031 L 31.917969 16.457031 Z M 31.917969 12.910156 " clip-rule="nonzero"/></clipPath><clipPath id="be6af48698"><path d="M 2.136719 16.71875 L 29 16.71875 L 29 36.847656 L 2.136719 36.847656 Z M 2.136719 16.71875 " clip-rule="nonzero"/></clipPath><clipPath id="de7da2b831"><path d="M 2.128906 16 L 25 16 L 25 25 L 2.128906 25 Z M 2.128906 16 " clip-rule="nonzero"/></clipPath><clipPath id="7f340f1e0c"><path d="M 26.046875 23.554688 L 29 23.554688 L 29 36.847656 L 26.046875 36.847656 Z M 26.046875 23.554688 " clip-rule="nonzero"/></clipPath><clipPath id="e702f121b2"><path d="M 12 0.0976562 L 16 0.0976562 L 16 17 L 12 17 Z M 12 0.0976562 " clip-rule="nonzero"/></clipPath><clipPath id="c04c1ae21b"><path d="M 12 0.0976562 L 16 0.0976562 L 16 10 L 12 10 Z M 12 0.0976562 " clip-rule="nonzero"/></clipPath><clipPath id="54dc95e2a0"><path d="M 9.320312 18.535156 L 28.5 18.535156 L 28.5 36.847656 L 9.320312 36.847656 Z M 9.320312 18.535156 " clip-rule="nonzero"/></clipPath><clipPath id="54aa09378e"><path d="M 26 24 L 29 24 L 29 36.847656 L 26 36.847656 Z M 26 24 " clip-rule="nonzero"/></clipPath><clipPath id="ab85a32a75"><path d="M 31.742188 12.910156 L 40.367188 12.910156 L 40.367188 14.898438 L 31.742188 14.898438 Z M 31.742188 12.910156 " clip-rule="nonzero"/></clipPath><clipPath id="493a7ee40e"><path d="M 28 38 L 34 38 L 34 44.898438 L 28 44.898438 Z M 28 38 " clip-rule="nonzero"/></clipPath><clipPath id="9a60827d7c"><path d="M 69 41 L 72 41 L 72 44.898438 L 69 44.898438 Z M 69 41 " clip-rule="nonzero"/></clipPath><clipPath id="13d1451621"><path d="M 81 38 L 87 38 L 87 44.898438 L 81 44.898438 Z M 81 38 " clip-rule="nonzero"/></clipPath><clipPath id="1279b1d7f1"><path d="M 92 41 L 95 41 L 95 44.898438 L 92 44.898438 Z M 92 41 " clip-rule="nonzero"/></clipPath><clipPath id="7a12b42d46"><path d="M 94 38 L 97 38 L 97 44.898438 L 94 44.898438 Z M 94 38 " clip-rule="nonzero"/></clipPath></defs><g fill="#32620e" fill-opacity="1"><g transform="translate(50.053234, 26.562652)"><g><path d="M 3.21875 6.21875 L 3.21875 -11.546875 C 3.21875 -12.148438 3.085938 -12.578125 2.828125 -12.828125 C 2.566406 -13.078125 2.195312 -13.203125 1.71875 -13.203125 L 0.515625 -13.203125 L 0.515625 -15.359375 L 2.390625 -15.359375 C 3.285156 -15.359375 4.035156 -15.085938 4.640625 -14.546875 C 5.242188 -14.015625 5.546875 -13.109375 5.546875 -11.828125 L 5.546875 6.21875 Z M 3.21875 6.21875 "/></g></g></g><g fill="#32620e" fill-opacity="1"><g transform="translate(56.356035, 26.562652)"><g><path d="M 8.21875 0 L 8.21875 -13.203125 L 0.265625 -13.203125 L 0.265625 -15.359375 L 12.921875 -15.359375 L 12.921875 -13.203125 L 10.5625 -13.203125 L 10.5625 0 Z M 8.21875 0 "/></g></g></g><g fill="#32620e" fill-opacity="1"><g transform="translate(68.598936, 26.562652)"><g><path d="M 0.65625 0 L 0.65625 -2.15625 L 4.84375 -2.15625 L 1.796875 -15.359375 L 4.125 -15.359375 L 7.109375 -2.28125 C 8.597656 -2.5625 9.75 -3.242188 10.5625 -4.328125 C 11.382812 -5.421875 11.894531 -7.046875 12.09375 -9.203125 L 12.65625 -15.359375 L 14.984375 -15.359375 L 14.421875 -9.203125 C 14.347656 -8.429688 14.222656 -7.617188 14.046875 -6.765625 C 13.878906 -5.921875 13.601562 -5.097656 13.21875 -4.296875 C 12.84375 -3.492188 12.320312 -2.765625 11.65625 -2.109375 C 10.988281 -1.460938 10.140625 -0.945312 9.109375 -0.5625 C 8.085938 -0.1875 6.832031 0 5.34375 0 Z M 0.65625 0 "/></g></g></g><g fill="#32620e" fill-opacity="1"><g transform="translate(83.046681, 26.562652)"><g/></g></g><g fill="#32620e" fill-opacity="1"><g transform="translate(87.378101, 26.562652)"><g><path d="M 1.953125 -5.53125 L 1.953125 -15.359375 L 4.28125 -15.359375 L 4.28125 -7.859375 L 3.109375 -5.53125 Z M 1.953125 -5.53125 "/></g></g></g><g fill="#32620e" fill-opacity="1"><g transform="translate(92.150484, 26.562652)"><g><path d="M 0.78125 0 L 0.78125 -2.15625 L 5.890625 -2.15625 L 5.890625 -11.546875 C 5.890625 -12.148438 5.765625 -12.578125 5.515625 -12.828125 C 5.265625 -13.078125 4.890625 -13.203125 4.390625 -13.203125 L 1.640625 -13.203125 L 1.640625 -15.359375 L 5.0625 -15.359375 C 5.976562 -15.359375 6.734375 -15.085938 7.328125 -14.546875 C 7.921875 -14.015625 8.21875 -13.109375 8.21875 -11.828125 L 8.21875 0 Z M 0.78125 0 "/></g></g></g><g fill="#32620e" fill-opacity="1"><g transform="translate(101.125038, 26.562652)"><g><path d="M 0.390625 0.265625 L 0.390625 -2.234375 C 1.066406 -2.472656 1.679688 -2.773438 2.234375 -3.140625 C 2.785156 -3.515625 3.269531 -3.945312 3.6875 -4.4375 C 4.8125 -5.75 5.375 -7.226562 5.375 -8.875 L 5.375 -11.546875 C 5.375 -12.148438 5.242188 -12.578125 4.984375 -12.828125 C 4.734375 -13.078125 4.359375 -13.203125 3.859375 -13.203125 L 1.375 -13.203125 L 1.375 -15.359375 L 4.546875 -15.359375 C 5.453125 -15.359375 6.195312 -15.085938 6.78125 -14.546875 C 7.375 -14.015625 7.671875 -13.109375 7.671875 -11.828125 L 7.671875 -4.640625 L 8.21875 0 L 6.296875 0 L 5.578125 -4.25 L 5.46875 -4.25 C 5 -3.40625 4.460938 -2.679688 3.859375 -2.078125 C 3.253906 -1.484375 2.648438 -0.992188 2.046875 -0.609375 C 1.441406 -0.234375 0.890625 0.0546875 0.390625 0.265625 Z M 0.390625 0.265625 "/></g></g></g><path fill="#3985dd" d="M 15.101562 18.5625 C 15.101562 18.5625 12.859375 17.835938 10.109375 14.355469 C 8.3125 12.320312 7.617188 11.210938 7.777344 11.0625 C 9.289062 11.40625 12.089844 12.808594 14.011719 16.042969 C 15.253906 18.136719 15.101562 18.5625 15.101562 18.5625 " fill-opacity="1" fill-rule="nonzero"/><path fill="#deeaee" d="M 13.328125 15.015625 C 13.125 14.738281 12.914062 14.480469 12.699219 14.234375 C 12.957031 14.523438 13.15625 14.777344 13.328125 15.015625 M 12.011719 13.519531 C 10.933594 12.484375 9.808594 11.816406 8.875 11.425781 C 10.542969 12.105469 11.589844 13.105469 12.011719 13.519531 " fill-opacity="1" fill-rule="nonzero"/><path fill="#79acdd" d="M 14.742188 17.835938 C 14.296875 17.4375 12.988281 16.40625 11.839844 15.449219 C 10.949219 14.703125 9.390625 13.015625 9.09375 12.636719 C 8.992188 12.507812 7.921875 11.167969 8.109375 11.148438 C 8.375 11.230469 8.632812 11.324219 8.875 11.425781 C 9.808594 11.816406 10.933594 12.484375 12.011719 13.519531 C 12.066406 13.570312 12.109375 13.613281 12.140625 13.644531 C 12.355469 13.859375 12.539062 14.054688 12.699219 14.234375 C 12.914062 14.480469 13.125 14.738281 13.328125 15.015625 C 13.507812 15.265625 13.660156 15.496094 13.820312 15.742188 C 13.824219 15.75 13.828125 15.757812 13.832031 15.761719 C 13.851562 15.820312 13.875 15.878906 13.898438 15.933594 C 13.90625 15.960938 13.917969 15.988281 13.9375 16.023438 C 13.824219 15.898438 13.710938 15.777344 13.585938 15.664062 C 13.347656 15.449219 13.105469 15.238281 12.878906 15.003906 C 12.660156 14.785156 12.523438 14.613281 12.28125 14.425781 C 12.265625 14.417969 12.253906 14.410156 12.242188 14.410156 C 12.21875 14.410156 12.210938 14.4375 12.242188 14.492188 C 12.402344 14.757812 12.683594 14.960938 12.898438 15.179688 C 13.148438 15.433594 13.371094 15.6875 13.628906 15.929688 C 13.835938 16.125 14.039062 16.453125 14.199219 16.664062 C 14.238281 16.753906 14.261719 16.800781 14.289062 16.859375 C 14.3125 16.914062 14.335938 16.96875 14.359375 17.019531 C 14.25 16.921875 14.191406 16.863281 14.085938 16.753906 C 13.757812 16.417969 13.4375 16.078125 13.09375 15.757812 C 12.738281 15.429688 12.390625 15.089844 12.019531 14.773438 C 11.675781 14.476562 11.3125 14.1875 10.894531 14.019531 C 10.890625 14.019531 10.886719 14.015625 10.878906 14.015625 C 10.835938 14.015625 10.8125 14.089844 10.855469 14.113281 C 11.71875 14.550781 12.371094 15.421875 13.085938 16.070312 C 13.566406 16.507812 14.039062 17.09375 14.578125 17.492188 C 14.605469 17.554688 14.625 17.597656 14.648438 17.640625 C 14.679688 17.707031 14.710938 17.773438 14.742188 17.835938 " fill-opacity="1" fill-rule="nonzero"/><g clip-path="url(#648ac92cc6)"><path fill="#dc5004" d="M 15.859375 7.238281 C 15.859375 7.238281 17.296875 4.570312 17.945312 2.730469 C 18.589844 0.890625 19.285156 0.535156 19.285156 0.535156 C 19.285156 0.535156 17.859375 7.933594 17.679688 9.105469 C 17.527344 10.101562 17.527344 10.101562 17.453125 10.835938 C 17.386719 11.5 17.632812 12.453125 17.0625 13.8125 C 16.429688 15.320312 16 16.910156 15.777344 18.539062 C 15.765625 18.621094 15.753906 18.699219 15.742188 18.78125 L 15.144531 18.78125 C 15.144531 18.78125 14.984375 11.347656 15.351562 8.273438 L 15.859375 7.238281 " fill-opacity="1" fill-rule="nonzero"/></g><g clip-path="url(#0966917845)"><path fill="#d43f35" d="M 15.691406 7.585938 L 15.691406 10.355469 C 15.691406 10.355469 17.078125 6.8125 17.355469 5.703125 C 17.632812 4.59375 18.351562 2.929688 18.445312 2.375 C 18.542969 1.820312 18.949219 0.890625 19.285156 0.535156 C 19.285156 0.535156 18.796875 1.027344 18.214844 2.042969 C 17.675781 3.59375 16.785156 5.6875 15.691406 7.585938 " fill-opacity="1" fill-rule="nonzero"/></g><path fill="#dc5004" d="M 18.015625 18.910156 C 18.015625 18.910156 18.589844 13.09375 19.515625 11.601562 C 20.75 9.609375 27.160156 5.023438 27.878906 4.46875 C 28.453125 4.023438 29.589844 3.132812 30.027344 2.789062 C 30.054688 2.765625 30.09375 2.808594 30.070312 2.839844 C 29.492188 3.660156 27.375 6.585938 24.695312 8.425781 C 23.402344 9.660156 22.613281 10.390625 22.132812 11.472656 C 21.871094 12.0625 21.734375 13.089844 21.488281 13.617188 C 20.746094 15.203125 18.445312 19.035156 18.445312 19.035156 L 18.015625 18.910156 " fill-opacity="1" fill-rule="nonzero"/><path fill="#d22c38" d="M 22.363281 17.835938 C 22.363281 17.835938 24.167969 17.523438 25.003906 19.035156 C 25.84375 20.546875 27.375 22.183594 28.988281 22.460938 C 30.191406 22.667969 31.875 22.820312 32.617188 23.167969 C 33.160156 23.421875 33.335938 23.917969 34.4375 24.578125 C 34.65625 24.710938 35.015625 24.75 35.308594 24.828125 C 35.390625 24.847656 35.429688 24.726562 35.355469 24.6875 L 35.347656 24.683594 C 34.753906 24.359375 34.222656 23.929688 33.789062 23.398438 C 33.226562 22.707031 32.699219 22.464844 32.332031 22.285156 C 31.402344 21.835938 31.207031 20.699219 30.847656 20.042969 C 30.488281 19.386719 29.53125 17.496094 28.070312 17.269531 C 26.609375 17.042969 22.363281 17.835938 22.363281 17.835938 " fill-opacity="1" fill-rule="nonzero"/><g clip-path="url(#f8fc5fa575)"><path fill="#ffd008" d="M 15 18.347656 C 15 18.347656 10.976562 10.871094 12.726562 6.179688 C 13.875 0.664062 15 0.132812 15 0.132812 C 15 0.132812 14.6875 3.105469 15.476562 6.230469 C 16.269531 9.355469 15.023438 15.3125 15.191406 18.359375 L 15 18.347656 " fill-opacity="1" fill-rule="nonzero"/></g><path fill="#ba0e01" d="M 23.214844 16.851562 C 23.214844 16.851562 29.675781 15.28125 30.367188 14.597656 C 31.0625 13.917969 31.5625 12.503906 33.121094 11.800781 C 34.796875 11.046875 36.519531 10.910156 37.308594 10.617188 C 37.070312 10.390625 36.5 10.1875 34.621094 10.492188 C 32.800781 10.785156 32.257812 11.171875 29.363281 12.433594 C 28.117188 12.972656 23.214844 16.851562 23.214844 16.851562 " fill-opacity="1" fill-rule="nonzero"/><path fill="#ff7133" d="M 18.597656 18.78125 C 18.015625 19.582031 19.570312 18.960938 19.570312 18.960938 C 19.570312 18.960938 21.460938 14.058594 21.835938 12.453125 C 22.203125 10.84375 22.988281 10.066406 23.839844 9.246094 C 24.695312 8.425781 27.601562 6.316406 28.878906 4.414062 C 29.980469 3.015625 30.070312 2.839844 30.070312 2.839844 C 30.070312 2.839844 26.75 6.019531 25.105469 7.3125 C 23.535156 8.550781 21.851562 10.457031 20.679688 12.726562 C 19.285156 15.429688 19.179688 17.984375 18.597656 18.78125 " fill-opacity="1" fill-rule="nonzero"/><g clip-path="url(#78f9c4e2eb)"><path fill="#f44c20" d="M 30.078125 15.152344 C 30.078125 15.152344 31.492188 14.75 33.433594 14.625 C 35.371094 14.5 36.925781 14.042969 37.308594 13.84375 C 37.695312 13.640625 39.417969 12.988281 40.351562 12.9375 C 40.351562 12.9375 38.507812 13.742188 37.910156 14.296875 C 37.308594 14.851562 36.953125 15.960938 34.726562 16.3125 C 32.5 16.664062 30.078125 15.152344 30.078125 15.152344 " fill-opacity="1" fill-rule="nonzero"/></g><g clip-path="url(#5bd3a9ad25)"><path fill="#ff7133" d="M 40.351562 12.9375 C 40.183594 12.9375 39.292969 13.132812 38.875 13.164062 C 38.457031 13.195312 37.308594 13.84375 36.132812 14.222656 C 34.953125 14.597656 31.945312 14.652344 31.945312 14.652344 L 30.871094 15.027344 L 30.167969 15.660156 C 30.167969 15.660156 30.546875 15.578125 31.101562 15.464844 C 31.234375 15.460938 31.371094 15.445312 31.503906 15.445312 C 31.660156 15.441406 31.8125 15.449219 31.96875 15.460938 C 32.273438 15.488281 32.574219 15.539062 32.875 15.585938 C 33.445312 15.679688 34.019531 15.769531 34.597656 15.734375 C 34.902344 15.714844 35.230469 15.667969 35.507812 15.515625 C 35.527344 15.507812 35.515625 15.476562 35.492188 15.484375 C 35.226562 15.570312 34.957031 15.644531 34.675781 15.667969 C 34.398438 15.691406 34.117188 15.675781 33.839844 15.648438 C 33.695312 15.632812 33.554688 15.605469 33.410156 15.578125 C 33.265625 15.554688 33.117188 15.527344 32.972656 15.503906 C 32.671875 15.449219 32.367188 15.394531 32.0625 15.367188 C 31.9375 15.355469 31.8125 15.347656 31.691406 15.34375 C 31.785156 15.324219 31.886719 15.304688 31.984375 15.285156 C 32.078125 15.292969 32.171875 15.300781 32.265625 15.3125 C 32.644531 15.363281 33.019531 15.425781 33.402344 15.425781 C 33.785156 15.429688 34.167969 15.386719 34.539062 15.3125 C 34.921875 15.234375 35.300781 15.132812 35.675781 15.015625 C 36.09375 14.886719 36.519531 14.757812 36.925781 14.589844 C 36.945312 14.582031 36.9375 14.542969 36.914062 14.550781 C 36.539062 14.660156 36.171875 14.800781 35.796875 14.921875 C 35.421875 15.039062 35.042969 15.132812 34.660156 15.203125 C 34.28125 15.273438 33.890625 15.316406 33.507812 15.320312 C 33.3125 15.320312 33.117188 15.3125 32.925781 15.289062 C 32.738281 15.269531 32.550781 15.238281 32.359375 15.210938 L 32.347656 15.210938 C 33.074219 15.066406 33.839844 14.914062 34.414062 14.8125 C 35.898438 14.546875 36.734375 14.652344 37.910156 13.792969 C 38.335938 13.480469 40.519531 12.9375 40.351562 12.9375 " fill-opacity="1" fill-rule="nonzero"/></g><g clip-path="url(#0a10c37e57)"><path fill="#dc5004" d="M 31.945312 16 C 31.945312 16 34.066406 16.796875 35.394531 16.171875 C 36.726562 15.546875 36.859375 15.6875 37.722656 14.492188 C 37.722656 14.492188 38.445312 13.75 40.351562 12.9375 C 40.351562 12.9375 38.011719 13.871094 36.960938 14.8125 C 35.90625 15.757812 35.105469 15.972656 34.003906 15.929688 C 32.90625 15.882812 31.945312 16 31.945312 16 " fill-opacity="1" fill-rule="nonzero"/></g><path fill="#d22c38" d="M 22.363281 17.835938 C 22.363281 17.835938 26.714844 16.785156 30.511719 17.773438 C 33.949219 18.671875 33.742188 18.226562 35.214844 19.238281 C 36.6875 20.246094 37.738281 20.898438 38.507812 21.175781 C 39.203125 21.429688 39.203125 21.429688 39.65625 21.351562 C 40.113281 21.277344 38.484375 21.328125 36.855469 18.910156 C 35.226562 16.488281 34.414062 15.429688 31.015625 15.429688 C 27.617188 15.429688 22.363281 17.835938 22.363281 17.835938 " fill-opacity="1" fill-rule="nonzero"/><path fill="#037c7e" d="M 22.945312 17.746094 C 22.945312 17.746094 24.488281 17.824219 25.222656 19.40625 C 26.152344 21.398438 27.636719 21.851562 28.121094 22.1875 C 28.605469 22.519531 26.320312 20.621094 25.820312 19.191406 C 25.21875 17.46875 29.71875 18.300781 30.261719 19.035156 C 30.261719 19.035156 29.464844 17.726562 28.5625 17.328125 C 27.664062 16.929688 22.945312 17.746094 22.945312 17.746094 " fill-opacity="1" fill-rule="nonzero"/><path fill="#8e0300" d="M 24.925781 17.230469 C 24.925781 17.230469 33.089844 17.347656 34.5625 18.78125 C 36.035156 20.21875 39.066406 21.75 39.65625 21.351562 C 39.65625 21.351562 38.542969 21.253906 36.53125 19.667969 C 35.109375 18.542969 33.53125 17.417969 31.789062 17.027344 C 28.863281 16.375 26.582031 16.355469 26.152344 16.410156 C 25.542969 16.488281 24.925781 17.230469 24.925781 17.230469 " fill-opacity="1" fill-rule="nonzero"/><path fill="#84395e" d="M 20.53125 19.40625 C 20.53125 19.40625 20.414062 18.796875 21.105469 18.414062 C 21.800781 18.03125 28.109375 16.515625 28.949219 16.152344 C 30.261719 15.585938 32.332031 14.574219 32.953125 14.195312 C 33.578125 13.816406 38.371094 12.203125 38.875 12.253906 C 38.347656 12.121094 36.265625 12.351562 33.21875 13.3125 C 30.25 14.25 28.046875 15.613281 26.417969 15.964844 C 24.789062 16.3125 20.386719 17.648438 19.761719 18.128906 C 19.140625 18.605469 19.046875 19.035156 19.046875 19.035156 L 20.53125 19.40625 " fill-opacity="1" fill-rule="nonzero"/><path fill="#006363" d="M 23.179688 17.796875 C 23.179688 17.796875 26.828125 16.855469 30.648438 17.832031 C 32.839844 18.394531 34.039062 18.59375 34.699219 18.902344 C 34.421875 18.503906 32.765625 17.464844 28.085938 17.035156 C 23.40625 16.605469 23.179688 17.796875 23.179688 17.796875 " fill-opacity="1" fill-rule="nonzero"/><path fill="#b7302c" d="M 18.0625 18.65625 L 18.917969 18.859375 C 18.917969 18.859375 19.4375 13.371094 20.058594 12.238281 C 21.703125 9.246094 28.679688 3.847656 28.679688 3.847656 C 28.679688 3.847656 22.945312 7.511719 19.917969 11.0625 C 18.863281 12.300781 19.042969 12.898438 18.648438 14.492188 C 18.253906 16.085938 18.0625 18.65625 18.0625 18.65625 " fill-opacity="1" fill-rule="nonzero"/><path fill="#51ad97" d="M 26.671875 4.269531 C 26.136719 4.777344 24.523438 6.660156 24.324219 11.097656 C 24.320312 11.132812 24.355469 11.160156 24.386719 11.144531 L 26.484375 10.355469 C 26.511719 10.347656 26.523438 10.3125 26.511719 10.289062 C 26.351562 9.910156 25.382812 7.398438 26.746094 4.328125 C 26.769531 4.28125 26.710938 4.234375 26.671875 4.269531 " fill-opacity="1" fill-rule="nonzero"/><path fill="#e23b50" d="M 29.859375 15.796875 L 30.65625 15.46875 C 30.6875 15.484375 33.96875 15.152344 35.394531 16.957031 C 36.625 18.378906 38.039062 20.675781 39.734375 21.328125 C 38.875 21.203125 38.09375 20.601562 35.875 18.160156 C 33.601562 15.65625 29.859375 15.796875 29.859375 15.796875 " fill-opacity="1" fill-rule="nonzero"/><path fill="#d36c71" d="M 30.078125 9.414062 C 30.078125 9.414062 31.804688 8.25 33.113281 6.136719 C 33.113281 6.136719 33.398438 6.082031 32.878906 7 C 32.359375 7.917969 31.992188 9.203125 32.011719 9.535156 C 32.035156 9.867188 30.078125 9.414062 30.078125 9.414062 " fill-opacity="1" fill-rule="nonzero"/><path fill="#e9d000" d="M 18.585938 19.035156 C 18.585938 19.035156 21.289062 12.53125 23.421875 11.046875 C 25.550781 9.558594 29 9.640625 29.914062 9.507812 C 30.949219 9.355469 32.335938 9 32.925781 8.71875 C 33.628906 8.382812 34.292969 8.070312 34.695312 7.886719 C 34.742188 7.867188 34.78125 7.929688 34.742188 7.964844 C 34.074219 8.566406 32.082031 10.375 31.703125 10.792969 C 31.25 11.296875 29.914062 13.515625 29.085938 14.246094 C 28.257812 14.976562 26.988281 15.933594 25.480469 16.210938 C 23.972656 16.488281 19.589844 18.203125 19.183594 19.035156 C 18.777344 19.867188 18.585938 19.035156 18.585938 19.035156 " fill-opacity="1" fill-rule="nonzero"/><path fill="#97cbf7" d="M 14.882812 17.882812 C 14.632812 17.351562 14.117188 16.601562 13.742188 16.160156 C 13.554688 15.941406 13.339844 15.746094 13.109375 15.582031 C 12.859375 15.40625 12.589844 15.265625 12.402344 15.011719 C 12.222656 14.769531 12.125 14.46875 11.929688 14.238281 C 11.742188 14.011719 11.476562 13.894531 11.210938 13.8125 C 10.941406 13.730469 10.644531 13.679688 10.394531 13.542969 C 10.136719 13.40625 9.925781 13.199219 9.738281 12.96875 C 9.546875 12.738281 9.378906 12.480469 9.203125 12.234375 C 9.109375 12.097656 9.027344 11.949219 8.9375 11.808594 C 8.855469 11.683594 8.757812 11.574219 8.648438 11.472656 C 8.570312 11.398438 8.457031 11.535156 8.539062 11.605469 C 8.632812 11.683594 8.71875 11.773438 8.804688 11.859375 C 8.914062 11.964844 9.039062 12.078125 9.128906 12.203125 C 9.289062 12.417969 9.421875 12.648438 9.578125 12.867188 C 9.894531 13.308594 10.273438 13.640625 10.78125 13.816406 C 11.054688 13.910156 11.34375 13.972656 11.589844 14.136719 C 11.867188 14.320312 12.003906 14.617188 12.167969 14.902344 C 12.304688 15.140625 12.460938 15.328125 12.679688 15.488281 C 12.917969 15.667969 13.164062 15.828125 13.375 16.042969 C 13.84375 16.511719 14.15625 17.273438 14.667969 18.058594 C 14.742188 18.171875 15.296875 18.761719 14.882812 17.882812 " fill-opacity="1" fill-rule="nonzero"/><path fill="#f69a1d" d="M 21.113281 16.773438 C 21.480469 16.429688 21.867188 16.097656 22.246094 15.824219 C 25.742188 14.707031 27.742188 14.007812 29.457031 12.019531 C 30.332031 11.015625 31.519531 9.746094 32.476562 9.296875 C 32.492188 9.289062 32.503906 9.285156 32.515625 9.285156 C 32.589844 9.285156 32.636719 9.394531 32.566406 9.453125 C 31.652344 10.210938 30.90625 11.238281 30.597656 11.695312 C 30.3125 12.105469 28.972656 13.921875 27.285156 14.628906 C 26.011719 15.160156 23.261719 15.726562 21.113281 16.773438 M 23.210938 16.671875 C 23.476562 16.570312 23.753906 16.464844 24.046875 16.367188 C 23.765625 16.46875 23.488281 16.570312 23.214844 16.671875 C 23.210938 16.671875 23.210938 16.671875 23.210938 16.671875 M 20.625 16.582031 C 20.839844 16.421875 21.082031 16.261719 21.351562 16.109375 C 21.097656 16.269531 20.855469 16.421875 20.625 16.582031 " fill-opacity="1" fill-rule="nonzero"/><path fill="#6b2e4e" d="M 20.59375 19.308594 L 19.523438 19.140625 C 19.523438 19.140625 20.414062 18.53125 21.351562 17.972656 C 22.753906 17.132812 26.222656 16.585938 27.285156 16.269531 C 28.34375 15.957031 31.3125 15.042969 32.171875 14.621094 C 32.171875 14.621094 29.777344 16.113281 27.03125 16.746094 C 25.019531 17.210938 20.074219 18.46875 20.59375 19.308594 " fill-opacity="1" fill-rule="nonzero"/><path fill="#ffde3b" d="M 30.988281 9.277344 C 30.988281 9.277344 27.980469 9.65625 27.285156 9.722656 C 26.585938 9.792969 24.984375 10.507812 24.324219 11.097656 C 23.660156 11.683594 23.183594 12.4375 23.640625 12.835938 C 24.101562 13.230469 27.726562 11.226562 28.226562 11.046875 C 28.726562 10.871094 30.78125 10.058594 31.042969 9.832031 C 31.300781 9.609375 32.28125 9.019531 31.632812 9.148438 C 30.988281 9.277344 30.988281 9.277344 30.988281 9.277344 " fill-opacity="1" fill-rule="nonzero"/><path fill="#79c662" d="M 27.285156 14.628906 C 26.011719 15.160156 23.261719 15.726562 21.113281 16.773438 C 21.703125 16.21875 22.347656 15.695312 22.914062 15.40625 C 24.480469 14.617188 26.617188 12.535156 27.894531 12.097656 C 29.171875 11.660156 26.902344 11.898438 24.335938 14.046875 C 22.367188 15.691406 20.777344 16.246094 19.582031 17.433594 C 19.648438 17.296875 19.792969 17.183594 19.886719 17.074219 C 20.007812 16.933594 20.117188 16.777344 20.230469 16.628906 C 20.449219 16.355469 20.660156 16.078125 20.863281 15.792969 C 21.296875 15.1875 21.78125 14.667969 22.40625 14.285156 C 22.988281 13.925781 23.648438 13.757812 24.230469 13.40625 C 24.8125 13.054688 25.332031 12.613281 25.921875 12.273438 C 26.589844 11.886719 27.207031 11.453125 27.9375 11.21875 C 28.003906 11.199219 28.011719 11.136719 27.949219 11.152344 C 27.238281 11.332031 26.597656 11.691406 25.945312 12.035156 C 25.296875 12.378906 24.730469 12.859375 24.101562 13.230469 C 23.777344 13.421875 23.429688 13.546875 23.09375 13.707031 C 22.777344 13.855469 22.464844 14.027344 22.171875 14.222656 C 21.578125 14.621094 21.125 15.136719 20.707031 15.726562 C 20.457031 16.082031 20.226562 16.464844 19.90625 16.757812 C 19.871094 16.789062 19.835938 16.816406 19.796875 16.847656 C 20.191406 16.050781 20.671875 15.191406 21.152344 14.628906 C 22.261719 13.328125 24.628906 11.871094 25.332031 11.492188 C 26.347656 10.945312 30.964844 10.0625 30.070312 10.132812 C 29.179688 10.199219 27.183594 10.492188 25.503906 11.125 C 23.9375 11.714844 21.488281 13.59375 20.664062 14.46875 C 19.84375 15.34375 18.597656 18.757812 18.597656 18.757812 L 18.917969 18.835938 C 18.917969 18.835938 18.925781 18.816406 18.9375 18.78125 L 19.285156 18.882812 C 19.285156 18.882812 20.902344 17.441406 24.046875 16.367188 C 26.230469 15.796875 26.84375 15.527344 27.425781 15.175781 C 27.699219 15.007812 27.980469 14.851562 28.261719 14.699219 C 28.695312 14.464844 29.964844 13.230469 30.65625 11.609375 C 30.65625 11.609375 29.195312 13.832031 27.285156 14.628906 " fill-opacity="1" fill-rule="nonzero"/><g clip-path="url(#be6af48698)"><path fill="#568700" d="M 25.984375 23.292969 C 25.640625 22.472656 25.085938 22.074219 25.054688 22.015625 C 23.527344 19.289062 20.292969 19.066406 17.042969 18.523438 C 14.242188 18.007812 5.828125 18.882812 2.195312 16.75 C 2.1875 16.746094 2.175781 16.746094 2.167969 16.75 C 2.160156 16.757812 2.152344 16.761719 2.144531 16.769531 C 2.132812 16.785156 2.132812 16.808594 2.148438 16.820312 C 2.402344 17.023438 2.925781 17.351562 4.324219 18.019531 C 6.8125 19.210938 10.960938 20.386719 10.960938 20.386719 C 12.941406 20.785156 17.371094 23.085938 20.382812 23.90625 C 21.097656 24.097656 21.835938 24.175781 22.574219 24.140625 C 23.878906 24.082031 24.425781 24.183594 25.269531 25.210938 C 26.523438 26.738281 28.242188 36.851562 28.242188 36.851562 L 28.949219 35.40625 C 28.949219 35.40625 27.601562 27.488281 25.984375 23.292969 " fill-opacity="1" fill-rule="nonzero"/></g><g clip-path="url(#de7da2b831)"><path fill="#74cd81" d="M 2.148438 16.820312 C 4.550781 18.5625 15.910156 21.371094 18.855469 21.253906 C 21.796875 21.132812 23.945312 23.042969 24.324219 24.386719 C 24.324219 24.386719 24.027344 24.117188 22.136719 24.148438 C 21.410156 24.140625 20.96875 24.0625 20.40625 23.910156 C 17.726562 23.191406 14.179688 21.5 13.003906 21.046875 C 12.902344 21.007812 12.800781 20.972656 12.695312 20.945312 C 11.054688 20.496094 4.945312 18.761719 2.148438 16.820312 " fill-opacity="1" fill-rule="nonzero"/></g><path fill="#be5661" d="M 13.855469 18.324219 C 13.855469 18.324219 19.289062 19.144531 20.734375 19.722656 C 21.414062 19.996094 23.691406 20.539062 25.070312 22.121094 C 25.085938 22.140625 25.117188 22.117188 25.101562 22.09375 C 24.78125 21.527344 23.628906 19.792969 21.371094 19.359375 C 21.304688 19.34375 21.238281 19.328125 21.171875 19.308594 C 17.722656 18.257812 13.855469 18.324219 13.855469 18.324219 " fill-opacity="1" fill-rule="nonzero"/><g clip-path="url(#7f340f1e0c)"><path fill="#037c7e" d="M 26.101562 23.597656 C 26.171875 24.128906 26.277344 25.808594 26.285156 27.699219 C 26.285156 27.699219 27.816406 33.5 28.242188 36.851562 L 28.949219 35.40625 C 27.683594 28.238281 26.523438 24.910156 26.230469 23.960938 C 26.222656 23.9375 26.097656 23.574219 26.101562 23.597656 " fill-opacity="1" fill-rule="nonzero"/></g><path fill="#ccc034" d="M 5.519531 18.226562 C 5.519531 18.226562 12.109375 20.113281 12.730469 20.273438 C 13.121094 20.371094 14.828125 20.789062 16.214844 21.085938 C 17.089844 21.273438 17.984375 21.355469 18.875 21.359375 C 22.382812 21.363281 24.066406 23.445312 24.324219 24.386719 C 24.324219 24.386719 24.847656 24.699219 25.289062 25.242188 C 25.332031 25.289062 25.367188 25.34375 25.398438 25.398438 C 25.726562 25.9375 25.351562 23.453125 23.378906 21.84375 C 21.878906 20.621094 17.277344 20.078125 13.179688 19.480469 C 9.097656 18.882812 5.519531 18.226562 5.519531 18.226562 " fill-opacity="1" fill-rule="nonzero"/><path fill="#cbdab0" d="M 23.199219 24.167969 C 23.058594 24.160156 22.871094 24.152344 22.628906 24.148438 C 22.84375 24.148438 23.035156 24.15625 23.199219 24.167969 M 22.21875 24.15625 C 22.011719 24.15625 21.804688 24.148438 21.582031 24.125 C 21.746094 24.140625 21.925781 24.148438 22.128906 24.148438 C 22.164062 24.148438 22.199219 24.148438 22.234375 24.148438 C 22.3125 24.148438 22.386719 24.148438 22.460938 24.144531 C 22.507812 24.144531 22.550781 24.144531 22.59375 24.144531 C 22.570312 24.148438 22.546875 24.148438 22.523438 24.152344 C 22.421875 24.152344 22.320312 24.15625 22.21875 24.15625 M 20.324219 23.890625 C 19.761719 23.742188 19.0625 23.515625 18.140625 23.171875 C 18.886719 23.449219 19.632812 23.699219 20.324219 23.890625 M 17.101562 22.769531 C 17.054688 22.75 17.007812 22.734375 16.960938 22.714844 C 14.457031 21.71875 13.601562 21.253906 12.757812 20.964844 C 12.792969 20.972656 12.828125 20.984375 12.859375 20.996094 C 13.042969 21.066406 13.230469 21.140625 13.421875 21.21875 C 14.253906 21.566406 15.628906 22.183594 17.101562 22.769531 " fill-opacity="1" fill-rule="nonzero"/><path fill="#568700" d="M 22.234375 24.148438 C 22.199219 24.148438 22.164062 24.148438 22.128906 24.148438 C 22.128906 24.148438 22.132812 24.148438 22.136719 24.148438 C 22.246094 24.148438 22.347656 24.144531 22.445312 24.144531 C 22.453125 24.144531 22.457031 24.144531 22.460938 24.144531 C 22.386719 24.148438 22.3125 24.148438 22.234375 24.148438 M 13.421875 21.21875 C 13.230469 21.140625 13.042969 21.066406 12.859375 20.996094 C 12.910156 21.011719 12.957031 21.027344 13.003906 21.046875 C 13.121094 21.09375 13.261719 21.148438 13.421875 21.21875 " fill-opacity="1" fill-rule="nonzero"/><path fill="#6bb759" d="M 23.640625 24.207031 C 23.640625 24.207031 23.597656 24.1875 23.199219 24.167969 C 23.035156 24.15625 22.84375 24.148438 22.628906 24.148438 C 22.621094 24.148438 22.617188 24.144531 22.609375 24.144531 C 22.609375 24.144531 22.605469 24.144531 22.605469 24.144531 C 22.601562 24.144531 22.597656 24.144531 22.59375 24.144531 C 22.550781 24.144531 22.507812 24.144531 22.460938 24.144531 C 22.457031 24.144531 22.453125 24.144531 22.445312 24.144531 C 22.347656 24.144531 22.246094 24.148438 22.136719 24.148438 C 22.132812 24.148438 22.128906 24.148438 22.128906 24.148438 C 21.925781 24.148438 21.746094 24.140625 21.582031 24.125 C 21.226562 24.089844 20.828125 24.023438 20.324219 23.890625 C 19.632812 23.699219 18.886719 23.449219 18.140625 23.171875 C 17.824219 23.050781 17.476562 22.917969 17.101562 22.769531 C 15.628906 22.183594 14.253906 21.566406 13.421875 21.21875 C 13.261719 21.148438 13.121094 21.09375 13.003906 21.046875 C 12.957031 21.027344 12.910156 21.011719 12.859375 20.996094 C 12.828125 20.984375 12.792969 20.972656 12.757812 20.964844 C 12.617188 20.914062 12.480469 20.871094 12.335938 20.832031 C 12.109375 20.773438 11.84375 20.699219 11.59375 20.625 C 11.082031 20.496094 10.949219 20.410156 11.175781 20.410156 C 11.664062 20.410156 13.785156 20.800781 17.386719 21.984375 C 22.976562 22.664062 23.640625 24.199219 23.640625 24.207031 " fill-opacity="1" fill-rule="nonzero"/><path fill="#d43f35" d="M 15.191406 18.359375 L 15.796875 18.378906 C 15.796875 18.378906 16.257812 16.347656 16.703125 15.179688 C 17.144531 14.011719 17.394531 13.160156 17.417969 12.453125 C 17.449219 11.550781 17.59375 8.996094 17.882812 7.949219 C 17.882812 7.949219 17.402344 8.726562 16.535156 13.011719 C 15.667969 17.296875 15 16.851562 15 16.851562 L 15.191406 18.359375 " fill-opacity="1" fill-rule="nonzero"/><path fill="#ffde3b" d="M 13.84375 12.675781 C 13.824219 12.449219 13.742188 12.226562 13.671875 12.015625 C 13.53125 11.597656 13.386719 11.191406 13.3125 10.757812 C 13.242188 10.34375 13.214844 9.925781 13.226562 9.507812 C 13.234375 9.027344 13.285156 8.546875 13.359375 8.070312 C 13.4375 7.550781 13.5625 7.042969 13.632812 6.519531 C 13.691406 6.058594 13.015625 5.882812 12.871094 6.332031 C 12.71875 6.8125 12.628906 7.316406 12.546875 7.8125 C 12.476562 8.238281 12.417969 8.667969 12.390625 9.101562 C 12.335938 9.976562 12.394531 10.878906 12.664062 11.714844 C 12.742188 11.957031 12.835938 12.195312 12.910156 12.4375 C 12.9375 12.527344 12.960938 12.625 12.988281 12.71875 C 13.039062 12.902344 13.082031 13.152344 13.246094 13.261719 C 13.394531 13.359375 13.597656 13.339844 13.730469 13.214844 C 13.878906 13.070312 13.863281 12.867188 13.84375 12.675781 " fill-opacity="1" fill-rule="nonzero"/><g clip-path="url(#e702f121b2)"><path fill="#ffb666" d="M 15.480469 6.417969 C 14.859375 4.175781 15.042969 0.132812 15.042969 0.132812 C 15.042969 0.132812 14.0625 1.054688 13.339844 3.886719 C 12.046875 8.199219 12.324219 9.246094 12.324219 9.246094 C 12.324219 9.246094 12.539062 7.609375 12.957031 6.859375 C 12.941406 7.082031 12.933594 7.304688 12.9375 7.53125 C 12.941406 8.003906 12.96875 8.476562 13.023438 8.945312 C 13.082031 9.410156 13.160156 9.878906 13.25 10.335938 C 13.292969 10.5625 13.335938 10.785156 13.386719 11.007812 C 13.4375 11.226562 13.480469 11.5 13.613281 11.683594 C 13.675781 11.773438 13.789062 11.722656 13.796875 11.621094 C 13.808594 11.414062 13.71875 11.1875 13.667969 10.992188 C 13.613281 10.773438 13.5625 10.554688 13.515625 10.335938 C 13.425781 9.863281 13.371094 9.390625 13.335938 8.910156 C 13.300781 8.445312 13.285156 7.980469 13.292969 7.511719 C 13.296875 7.285156 13.300781 7.0625 13.304688 6.835938 C 13.308594 6.734375 13.320312 6.617188 13.324219 6.503906 C 13.402344 6.484375 13.488281 6.503906 13.578125 6.566406 C 13.578125 6.613281 13.578125 6.660156 13.578125 6.703125 C 13.570312 6.949219 13.578125 7.195312 13.582031 7.441406 C 13.589844 7.6875 13.597656 7.929688 13.613281 8.175781 C 13.625 8.414062 13.617188 8.675781 13.703125 8.898438 C 13.726562 8.960938 13.828125 8.957031 13.84375 8.890625 C 13.890625 8.6875 13.859375 8.472656 13.851562 8.269531 C 13.839844 8.011719 13.832031 7.753906 13.828125 7.496094 C 13.824219 7.277344 13.824219 7.058594 13.824219 6.84375 C 14.863281 8.445312 15.109375 14.667969 15 16.367188 C 14.886719 18.101562 16.101562 8.664062 15.480469 6.417969 " fill-opacity="1" fill-rule="nonzero"/></g><path fill="#79c662" d="M 15.109375 6.023438 C 15.101562 5.785156 15.113281 15.570312 15.113281 15.953125 C 15.117188 16.167969 15 16.125 14.976562 15.9375 C 14.933594 15.550781 14.257812 10.488281 14.054688 9.277344 C 14.046875 9.222656 13.96875 9.234375 13.972656 9.289062 C 13.972656 9.289062 14.578125 16.464844 14.5625 16.601562 C 14.546875 16.699219 14.507812 16.660156 14.46875 16.578125 C 14.402344 16.445312 12.8125 10.492188 12.8125 10.492188 C 12.792969 10.441406 12.757812 10.449219 12.765625 10.503906 L 13.488281 14.886719 C 13.542969 15.246094 14.695312 17.972656 15 18.347656 C 15.109375 18.359375 15.191406 18.359375 15.191406 18.359375 C 15.191406 18.359375 15.308594 15.152344 15.511719 12.96875 C 15.691406 11.015625 15.113281 6.296875 15.109375 6.023438 " fill-opacity="1" fill-rule="nonzero"/><g clip-path="url(#c04c1ae21b)"><path fill="#e58882" d="M 12.285156 9.027344 C 12.273438 8.863281 12.277344 8.65625 12.296875 8.433594 C 12.285156 8.628906 12.285156 8.828125 12.285156 9.027344 M 15.691406 7.585938 C 15.648438 7.09375 15.582031 6.640625 15.476562 6.230469 C 15.351562 5.734375 15.253906 5.238281 15.179688 4.761719 C 15.171875 4.695312 15.164062 4.625 15.15625 4.558594 C 15.328125 5.875 15.691406 6.613281 15.691406 7.585938 M 13.136719 4.394531 C 13.335938 3.597656 13.539062 2.941406 13.734375 2.40625 C 13.546875 2.9375 13.34375 3.589844 13.136719 4.394531 M 15.082031 3.636719 C 14.992188 2.261719 15.015625 0.945312 15.035156 0.398438 C 15.027344 0.964844 15.019531 2.257812 15.078125 3.613281 C 15.078125 3.621094 15.078125 3.628906 15.082031 3.636719 M 14.996094 0.183594 C 14.996094 0.148438 15 0.132812 15 0.132812 C 15 0.132812 15 0.132812 14.996094 0.132812 C 15.023438 0.109375 15.039062 0.0976562 15.039062 0.0976562 C 15.039062 0.0976562 15.039062 0.113281 15.039062 0.136719 C 15.03125 0.144531 15.015625 0.160156 14.996094 0.183594 " fill-opacity="1" fill-rule="nonzero"/><path fill="#e47624" d="M 12.324219 9.246094 C 12.304688 9.1875 12.292969 9.113281 12.285156 9.027344 C 12.285156 8.828125 12.285156 8.628906 12.296875 8.433594 C 12.355469 7.722656 12.546875 6.820312 12.667969 6.398438 C 12.160156 8.628906 12.324219 9.246094 12.324219 9.246094 M 15.691406 7.585938 C 15.691406 7.585938 15.65625 7.410156 15.601562 7.132812 C 15.570312 6.851562 15.53125 6.609375 15.480469 6.417969 C 15.34375 5.933594 15.246094 5.359375 15.179688 4.761719 C 15.253906 5.238281 15.351562 5.734375 15.476562 6.230469 C 15.582031 6.640625 15.648438 7.09375 15.691406 7.585938 M 12.898438 5.460938 C 12.976562 5.078125 13.054688 4.726562 13.136719 4.394531 C 13.34375 3.589844 13.546875 2.9375 13.734375 2.40625 C 14.320312 0.820312 14.847656 0.269531 14.996094 0.132812 C 15 0.132812 15 0.132812 15 0.132812 C 15 0.132812 14.996094 0.148438 14.996094 0.183594 C 14.789062 0.410156 13.964844 1.429688 13.339844 3.886719 C 13.164062 4.46875 13.019531 4.992188 12.898438 5.460938 " fill-opacity="1" fill-rule="nonzero"/><path fill="#e46c48" d="M 12.324219 9.246094 C 12.324219 9.246094 12.160156 8.628906 12.667969 6.398438 C 12.6875 6.332031 12.703125 6.277344 12.71875 6.238281 C 12.753906 6.140625 12.78125 6.042969 12.800781 5.941406 C 12.832031 5.777344 12.863281 5.617188 12.898438 5.460938 C 13.019531 4.992188 13.164062 4.46875 13.339844 3.886719 C 13.964844 1.429688 14.789062 0.410156 14.996094 0.183594 C 15.015625 0.160156 15.03125 0.144531 15.039062 0.136719 C 15.039062 0.183594 15.035156 0.273438 15.035156 0.398438 C 15.015625 0.945312 14.992188 2.261719 15.082031 3.636719 C 15.09375 3.976562 15.121094 4.28125 15.15625 4.558594 C 15.164062 4.625 15.171875 4.695312 15.179688 4.761719 C 15.246094 5.359375 15.34375 5.933594 15.480469 6.417969 C 15.53125 6.609375 15.570312 6.851562 15.601562 7.132812 C 15.425781 6.292969 15.023438 4.492188 14.609375 3.585938 C 14.542969 3.4375 14.53125 3.273438 14.574219 3.117188 C 14.621094 2.949219 14.679688 2.734375 14.707031 2.609375 C 14.714844 2.578125 14.691406 2.558594 14.667969 2.558594 C 14.648438 2.558594 14.632812 2.566406 14.625 2.585938 C 14.566406 2.703125 14.484375 2.945312 14.4375 3.089844 C 14.425781 3.136719 14.382812 3.167969 14.335938 3.167969 C 14.332031 3.167969 14.332031 3.167969 14.328125 3.167969 C 14.324219 3.167969 14.320312 3.167969 14.316406 3.167969 C 14.277344 3.167969 14.238281 3.1875 14.21875 3.230469 C 14.128906 3.425781 14.050781 3.625 13.984375 3.828125 C 13.917969 4.039062 13.859375 4.253906 13.8125 4.472656 C 13.785156 4.589844 13.765625 4.707031 13.75 4.824219 C 13.738281 4.890625 13.730469 4.953125 13.722656 5.019531 C 13.714844 5.074219 13.710938 5.132812 13.691406 5.183594 C 13.6875 5.199219 13.675781 5.207031 13.664062 5.207031 C 13.648438 5.207031 13.632812 5.195312 13.632812 5.175781 C 13.628906 5.109375 13.640625 5.039062 13.648438 4.972656 C 13.660156 4.910156 13.667969 4.851562 13.679688 4.792969 C 13.703125 4.671875 13.726562 4.546875 13.753906 4.425781 C 13.847656 3.996094 13.980469 3.574219 14.167969 3.175781 C 14.199219 3.105469 14.238281 3.035156 14.273438 2.964844 C 14.394531 2.691406 14.527344 2.421875 14.609375 2.128906 C 14.613281 2.117188 14.601562 2.105469 14.589844 2.105469 C 14.585938 2.105469 14.578125 2.109375 14.578125 2.117188 C 14.472656 2.410156 14.320312 2.675781 14.1875 2.953125 C 14.167969 2.996094 14.136719 3.03125 14.097656 3.046875 C 14.070312 3.0625 14.042969 3.082031 14.015625 3.117188 C 13.984375 3.148438 13.871094 3.367188 13.839844 3.429688 C 13.703125 3.730469 13.589844 4.050781 13.496094 4.371094 C 13.398438 4.691406 13.316406 5.019531 13.257812 5.351562 C 13.226562 5.519531 13.199219 5.6875 13.179688 5.855469 C 13.160156 6.023438 13.152344 6.199219 13.125 6.363281 C 13.121094 6.382812 13.109375 6.390625 13.097656 6.390625 C 13.082031 6.390625 13.070312 6.378906 13.070312 6.359375 C 13.066406 6.175781 13.101562 5.984375 13.125 5.800781 C 13.152344 5.613281 13.1875 5.425781 13.222656 5.238281 C 13.289062 4.910156 13.375 4.585938 13.476562 4.265625 C 13.542969 4.058594 13.617188 3.851562 13.695312 3.648438 C 13.785156 3.339844 13.894531 3.054688 14.039062 2.765625 C 14.1875 2.476562 14.347656 2.160156 14.339844 1.824219 C 14.339844 1.800781 14.320312 1.785156 14.304688 1.785156 C 14.289062 1.785156 14.273438 1.796875 14.269531 1.820312 C 14.246094 2.160156 14.066406 2.46875 13.917969 2.761719 C 13.761719 3.078125 13.648438 3.390625 13.5625 3.734375 C 13.472656 4.09375 12.667969 6.402344 12.324219 9.246094 " fill-opacity="1" fill-rule="nonzero"/></g><path fill="#22894c" d="M 23.542969 24.058594 C 23.214844 23.597656 22.316406 23.207031 22.113281 23.105469 C 21.636719 22.867188 21.128906 22.757812 20.609375 22.699219 C 19.980469 22.625 19.375 22.503906 18.765625 22.324219 C 18.207031 22.15625 17.636719 21.960938 17.054688 21.914062 C 17.023438 21.910156 17.019531 21.964844 17.050781 21.972656 C 17.609375 22.070312 18.148438 22.234375 18.6875 22.417969 C 19.207031 22.59375 19.71875 22.765625 20.261719 22.835938 C 20.792969 22.90625 21.308594 22.964844 21.8125 23.175781 C 22.03125 23.265625 22.242188 23.375 22.445312 23.503906 C 22.554688 23.574219 22.65625 23.648438 22.761719 23.726562 C 22.84375 23.789062 22.925781 23.859375 23.003906 23.929688 C 22.921875 23.914062 22.835938 23.898438 22.753906 23.886719 C 22.445312 23.613281 22.085938 23.425781 21.6875 23.347656 C 21.164062 23.238281 20.632812 23.332031 20.109375 23.257812 C 19.542969 23.179688 19.011719 22.910156 18.480469 22.707031 C 17.945312 22.5 17.40625 22.292969 16.875 22.070312 C 16.246094 21.804688 15.621094 21.539062 14.976562 21.308594 C 14.949219 21.296875 14.929688 21.351562 14.960938 21.363281 C 16.003906 21.855469 17.089844 22.25 18.144531 22.71875 C 18.648438 22.941406 19.152344 23.191406 19.675781 23.351562 C 20.1875 23.511719 20.710938 23.46875 21.238281 23.511719 C 21.644531 23.542969 22.03125 23.652344 22.390625 23.835938 C 22.175781 23.8125 21.964844 23.796875 21.773438 23.796875 C 20.886719 23.796875 18.410156 23.414062 16.652344 22.308594 C 14.890625 21.203125 7.164062 19.214844 7.902344 19.457031 C 8.640625 19.699219 14.910156 21.820312 15.625 22.171875 C 16.34375 22.519531 19.609375 24.28125 21.667969 24.207031 C 23.730469 24.132812 24.488281 24.496094 24.488281 24.496094 C 24.195312 24.261719 23.964844 24.132812 23.542969 24.058594 " fill-opacity="1" fill-rule="nonzero"/><path fill="#22894c" d="M 25.613281 25.808594 C 25.613281 25.808594 26.023438 23.320312 23.425781 21.582031 C 20.828125 19.839844 12.214844 19.085938 11.070312 18.933594 C 9.925781 18.78125 8.320312 18.5625 8.320312 18.5625 C 8.320312 18.5625 17.34375 20.117188 18.566406 20.546875 C 19.789062 20.976562 23.425781 21.21875 25.113281 24.109375 C 25.113281 24.109375 25.40625 24.652344 25.398438 25.398438 L 25.613281 25.808594 " fill-opacity="1" fill-rule="nonzero"/><path fill="#b7302c" d="M 15.796875 18.378906 L 15.191406 18.359375 C 15.191406 18.359375 15.488281 8.695312 15.691406 7.585938 C 15.894531 6.476562 15.796875 18.378906 15.796875 18.378906 " fill-opacity="1" fill-rule="nonzero"/><path fill="#70b8ab" d="M 25.335938 10.03125 C 25.339844 9.550781 25.398438 7.441406 25.925781 5.773438 C 26.242188 4.839844 26.585938 4.378906 26.65625 4.289062 C 26.660156 4.28125 26.667969 4.277344 26.671875 4.269531 C 25.40625 6.625 25.667969 9.351562 25.742188 9.925781 C 25.613281 9.957031 25.476562 9.992188 25.335938 10.03125 " fill-opacity="1" fill-rule="nonzero"/><path fill="#3985dd" d="M 24.617188 10.355469 L 25.335938 10.132812 C 25.335938 10.132812 25.320312 5.914062 26.671875 4.269531 C 26.671875 4.269531 24.894531 5.972656 24.617188 10.355469 " fill-opacity="1" fill-rule="nonzero"/><path fill="#dc5004" d="M 18.597656 18.78125 C 18.597656 18.78125 19.789062 15.011719 22.121094 12.234375 C 24.046875 9.785156 26.453125 9.824219 27.285156 9.722656 C 28.113281 9.621094 31.140625 9.265625 32.300781 8.804688 C 33.464844 8.34375 34.695312 7.886719 34.695312 7.886719 C 34.695312 7.886719 32.585938 9.199219 31.5 9.433594 C 30.417969 9.667969 27.371094 10.054688 26.101562 10.5 C 24.832031 10.945312 23.171875 11.582031 21.511719 13.835938 C 19.851562 16.085938 18.597656 18.78125 18.597656 18.78125 " fill-opacity="1" fill-rule="nonzero"/><path fill="#8e0300" d="M 26.578125 15.929688 C 26.578125 15.929688 29.585938 15.261719 30.367188 14.597656 C 31.152344 13.933594 31.523438 12.597656 32.601562 12.085938 C 33.679688 11.570312 35.808594 10.894531 37.308594 10.617188 C 37.308594 10.617188 33.640625 11.078125 32.140625 11.953125 C 30.640625 12.828125 30.65625 13.867188 29.714844 14.492188 C 29.101562 14.898438 26.578125 15.929688 26.578125 15.929688 " fill-opacity="1" fill-rule="nonzero"/><path fill="#b7302c" d="M 35.308594 24.828125 C 34.5 24.828125 33.191406 23.597656 32.617188 23.167969 C 32.117188 23.015625 31.941406 22.929688 31.046875 22.773438 C 29.703125 22.542969 27.867188 22.285156 27.125 21.613281 C 27.125 21.613281 26.101562 21.148438 25.386719 19.726562 C 24.671875 18.304688 26.417969 17.867188 27.285156 18 C 28.148438 18.136719 29.808594 18.25 30.167969 18.859375 C 30.847656 20.042969 27.199219 18.050781 26.578125 19.191406 C 26.003906 20.242188 27.148438 21.210938 28.878906 21.851562 C 30.609375 22.488281 32.15625 22.1875 34.246094 24.109375 C 34.652344 24.390625 35.308594 24.828125 35.308594 24.828125 " fill-opacity="1" fill-rule="nonzero"/><path fill="#22894c" d="M 23.019531 17.835938 C 23.019531 17.835938 24.386719 17.875 25.042969 19.191406 C 25.695312 20.503906 26.199219 21.640625 28.804688 22.425781 C 28.804688 22.425781 30.261719 22.640625 30.621094 22.703125 C 30.980469 22.761719 27.675781 22.132812 26.578125 20.890625 C 25 19.105469 25.136719 18.230469 23.988281 17.835938 C 23.414062 17.636719 23.019531 17.835938 23.019531 17.835938 " fill-opacity="1" fill-rule="nonzero"/><path fill="#ba0e01" d="M 36.457031 19.003906 C 36.242188 18.824219 36.015625 18.65625 35.792969 18.488281 C 35.566406 18.3125 35.351562 18.125 35.117188 17.964844 C 34.664062 17.648438 34.1875 17.359375 33.691406 17.125 C 33.191406 16.890625 32.671875 16.714844 32.144531 16.574219 C 31.613281 16.429688 31.074219 16.320312 30.535156 16.214844 C 30.148438 16.140625 29.785156 16.070312 29.398438 15.988281 C 29.34375 16.011719 29.292969 16.03125 29.238281 16.050781 C 29.339844 16.074219 29.421875 16.09375 29.523438 16.113281 C 29.789062 16.167969 30.058594 16.214844 30.324219 16.265625 C 30.859375 16.367188 31.394531 16.46875 31.921875 16.597656 C 32.453125 16.726562 32.972656 16.886719 33.476562 17.097656 C 33.984375 17.3125 34.464844 17.589844 34.925781 17.898438 C 35.039062 17.976562 35.152344 18.054688 35.261719 18.132812 C 35.382812 18.214844 35.503906 18.292969 35.621094 18.375 C 35.847656 18.539062 36.066406 18.714844 36.28125 18.886719 C 36.339844 18.929688 36.394531 18.972656 36.449219 19.015625 L 36.457031 19.003906 " fill-opacity="1" fill-rule="nonzero"/><path fill="#ba0e01" d="M 35.746094 18.039062 C 35.035156 17.5 34.261719 17.0625 33.457031 16.707031 C 33.054688 16.53125 32.644531 16.371094 32.226562 16.238281 C 31.792969 16.097656 31.355469 15.988281 30.910156 15.898438 C 30.644531 15.84375 30.375 15.800781 30.105469 15.757812 C 30.046875 15.75 30.046875 15.75 29.992188 15.738281 C 29.941406 15.757812 29.90625 15.78125 29.859375 15.796875 C 29.855469 15.800781 29.953125 15.816406 30.042969 15.832031 C 30.28125 15.871094 30.519531 15.910156 30.757812 15.957031 C 31.207031 16.039062 31.648438 16.144531 32.085938 16.277344 C 32.5 16.398438 32.90625 16.539062 33.304688 16.703125 C 33.707031 16.875 34.097656 17.066406 34.484375 17.273438 C 34.917969 17.507812 35.332031 17.769531 35.742188 18.042969 L 35.746094 18.039062 " fill-opacity="1" fill-rule="nonzero"/><path fill="#ba0e01" d="M 35.417969 17.425781 C 35.285156 17.308594 35.132812 17.210938 34.988281 17.113281 C 34.839844 17.007812 34.683594 16.914062 34.53125 16.816406 C 34.222656 16.621094 33.90625 16.453125 33.578125 16.300781 C 33.246094 16.148438 32.902344 16.027344 32.550781 15.941406 C 32.179688 15.851562 31.800781 15.800781 31.425781 15.742188 C 31.214844 15.710938 31.003906 15.675781 30.792969 15.632812 C 30.6875 15.609375 30.585938 15.589844 30.480469 15.5625 C 30.429688 15.550781 30.480469 15.5625 30.429688 15.550781 C 30.410156 15.570312 30.359375 15.578125 30.335938 15.59375 C 30.394531 15.613281 30.386719 15.609375 30.445312 15.625 C 30.535156 15.648438 30.625 15.671875 30.714844 15.691406 C 30.902344 15.734375 31.09375 15.765625 31.285156 15.792969 C 31.65625 15.851562 32.03125 15.894531 32.402344 15.96875 C 32.582031 16.003906 32.757812 16.042969 32.933594 16.097656 C 33.105469 16.148438 33.269531 16.214844 33.4375 16.277344 C 33.769531 16.40625 34.085938 16.578125 34.394531 16.761719 C 34.566406 16.867188 34.730469 16.980469 34.898438 17.097656 C 35.0625 17.21875 35.222656 17.351562 35.394531 17.464844 C 35.417969 17.480469 35.4375 17.445312 35.417969 17.425781 " fill-opacity="1" fill-rule="nonzero"/><path fill="#dc5004" d="M 32.304688 22.003906 C 31.722656 21.570312 31.261719 20.980469 30.96875 20.296875 C 30.847656 20.011719 30.808594 19.945312 30.65625 19.742188 C 30.460938 19.714844 30.238281 19.675781 30.007812 19.632812 C 30.105469 19.800781 30.1875 19.980469 30.277344 20.152344 C 30.515625 20.632812 30.886719 21.136719 31.34375 21.398438 C 31.378906 21.417969 31.347656 21.480469 31.316406 21.460938 C 31.085938 21.339844 30.894531 21.167969 30.722656 20.96875 C 30.546875 20.773438 30.414062 20.542969 30.246094 20.34375 C 30.066406 20.128906 29.945312 19.878906 29.789062 19.644531 C 29.773438 19.625 29.757812 19.605469 29.746094 19.585938 C 29.550781 19.554688 29.359375 19.523438 29.175781 19.503906 C 29.324219 19.714844 29.457031 19.9375 29.597656 20.152344 C 29.894531 20.617188 30.183594 21.085938 30.675781 21.34375 C 30.71875 21.367188 30.679688 21.433594 30.636719 21.414062 C 30.15625 21.1875 29.765625 20.746094 29.445312 20.316406 C 29.28125 20.089844 29.121094 19.859375 28.960938 19.628906 C 28.925781 19.582031 28.890625 19.53125 28.855469 19.480469 C 28.75 19.476562 28.648438 19.480469 28.558594 19.488281 C 28.679688 19.625 28.78125 19.78125 28.863281 19.929688 C 29.078125 20.316406 29.296875 20.734375 29.675781 20.972656 C 29.738281 21.011719 29.695312 21.109375 29.625 21.082031 C 28.980469 20.820312 28.777344 19.996094 28.277344 19.554688 C 28.105469 19.628906 28.015625 19.769531 28.066406 20.003906 C 28.257812 20.902344 29.535156 21.839844 30.65625 21.851562 C 31.777344 21.859375 33.191406 22.800781 33.191406 22.800781 C 33.191406 22.800781 33.089844 22.59375 32.304688 22.003906 " fill-opacity="1" fill-rule="nonzero"/><path fill="#ff7133" d="M 18.773438 1.902344 C 18.730469 2.324219 18.667969 2.695312 18.546875 3.152344 C 18.445312 3.550781 18.335938 3.953125 18.214844 4.347656 C 17.976562 5.128906 17.699219 5.902344 17.535156 6.707031 C 17.457031 7.097656 17.402344 7.496094 17.386719 7.894531 C 17.371094 8.308594 17.386719 8.730469 17.3125 9.140625 C 17.273438 9.347656 17.207031 9.546875 17.109375 9.730469 C 17.011719 9.917969 16.898438 10.089844 16.804688 10.277344 C 16.621094 10.652344 16.605469 11.0625 16.605469 11.480469 C 16.605469 11.699219 16.609375 11.917969 16.585938 12.132812 C 16.5625 12.34375 16.507812 12.550781 16.449219 12.75 C 16.335938 13.121094 16.191406 13.496094 16.191406 13.890625 C 16.191406 13.984375 16.199219 14.082031 16.21875 14.175781 C 16.226562 14.21875 16.289062 14.207031 16.28125 14.164062 C 16.203125 13.761719 16.324219 13.359375 16.441406 12.980469 C 16.5 12.792969 16.5625 12.601562 16.601562 12.410156 C 16.644531 12.207031 16.660156 12 16.664062 11.796875 C 16.671875 11.367188 16.632812 10.925781 16.773438 10.515625 C 16.902344 10.132812 17.179688 9.824219 17.304688 9.4375 C 17.433594 9.039062 17.433594 8.613281 17.441406 8.195312 C 17.445312 7.765625 17.476562 7.34375 17.546875 6.917969 C 17.6875 6.117188 17.929688 5.339844 18.167969 4.566406 C 18.40625 3.792969 18.6875 3.003906 18.777344 2.191406 C 18.789062 2.09375 18.800781 2.003906 18.804688 1.90625 C 18.808594 1.871094 18.777344 1.871094 18.773438 1.902344 " fill-opacity="1" fill-rule="nonzero"/><path fill="#ff7133" d="M 18.777344 1.585938 C 18.527344 2.332031 18.292969 3.085938 18.054688 3.839844 C 17.933594 4.214844 17.8125 4.59375 17.691406 4.972656 C 17.574219 5.328125 17.460938 5.6875 17.367188 6.050781 C 17.273438 6.421875 17.203125 6.796875 17.183594 7.179688 C 17.164062 7.554688 17.222656 7.941406 17.15625 8.3125 C 17.046875 8.949219 16.566406 9.421875 16.355469 10.011719 C 16.132812 10.640625 16.234375 11.339844 16.007812 11.964844 C 15.980469 12.039062 15.949219 12.113281 15.910156 12.179688 C 15.886719 12.222656 15.949219 12.261719 15.972656 12.21875 C 16.308594 11.644531 16.199219 10.9375 16.332031 10.304688 C 16.398438 9.984375 16.542969 9.699219 16.703125 9.421875 C 16.855469 9.15625 17.023438 8.890625 17.125 8.597656 C 17.246094 8.257812 17.238281 7.90625 17.234375 7.546875 C 17.226562 7.160156 17.265625 6.777344 17.34375 6.398438 C 17.417969 6.023438 17.523438 5.65625 17.636719 5.292969 C 17.753906 4.914062 17.875 4.539062 17.996094 4.164062 C 18.238281 3.402344 18.492188 2.644531 18.726562 1.878906 C 18.753906 1.785156 18.785156 1.691406 18.8125 1.597656 C 18.820312 1.574219 18.785156 1.5625 18.777344 1.585938 " fill-opacity="1" fill-rule="nonzero"/><path fill="#ff7133" d="M 18.472656 1.917969 C 18.253906 2.425781 18.046875 2.9375 17.84375 3.449219 C 17.640625 3.957031 17.449219 4.46875 17.273438 4.984375 C 17.097656 5.507812 16.949219 6.039062 16.808594 6.574219 C 16.734375 6.847656 16.675781 7.117188 16.625 7.394531 C 16.578125 7.667969 16.535156 7.941406 16.457031 8.210938 C 16.421875 8.339844 16.378906 8.464844 16.324219 8.589844 C 16.273438 8.699219 16.214844 8.800781 16.160156 8.90625 C 16.050781 9.117188 15.9375 9.34375 15.929688 9.589844 C 15.929688 9.617188 15.929688 9.644531 15.933594 9.671875 C 15.9375 9.714844 15.953125 9.75 15.964844 9.785156 C 15.984375 9.832031 16.054688 9.820312 16.054688 9.769531 C 16.054688 9.648438 16.050781 9.527344 16.082031 9.40625 C 16.113281 9.289062 16.164062 9.179688 16.21875 9.070312 C 16.328125 8.847656 16.449219 8.636719 16.527344 8.398438 C 16.609375 8.132812 16.648438 7.855469 16.691406 7.578125 C 16.734375 7.3125 16.785156 7.046875 16.835938 6.785156 C 16.9375 6.242188 17.09375 5.710938 17.261719 5.1875 C 17.433594 4.664062 17.621094 4.148438 17.824219 3.636719 C 18.023438 3.132812 18.238281 2.632812 18.445312 2.128906 C 18.46875 2.066406 18.496094 2.007812 18.519531 1.945312 C 18.53125 1.914062 18.488281 1.886719 18.472656 1.917969 " fill-opacity="1" fill-rule="nonzero"/><path fill="#43a054" d="M 19.1875 18.8125 C 19.140625 18.796875 19.085938 18.789062 19.035156 18.78125 C 19.257812 18.496094 19.550781 18.199219 19.832031 17.980469 C 20.136719 17.746094 20.46875 17.5625 20.808594 17.386719 C 21.140625 17.21875 21.484375 17.070312 21.832031 16.925781 C 22.230469 16.761719 22.628906 16.613281 23.035156 16.476562 C 23.449219 16.335938 23.863281 16.195312 24.289062 16.101562 C 24.304688 16.101562 24.308594 16.121094 24.292969 16.125 C 23.839844 16.28125 23.382812 16.417969 22.933594 16.585938 C 22.527344 16.734375 22.121094 16.894531 21.722656 17.0625 C 21.394531 17.203125 21.0625 17.351562 20.75 17.53125 C 20.1875 17.855469 19.609375 18.292969 19.1875 18.8125 " fill-opacity="1" fill-rule="nonzero"/><path fill="#43a054" d="M 18.925781 18.761719 C 18.878906 18.757812 18.832031 18.746094 18.789062 18.730469 C 18.839844 18.617188 18.9375 18.507812 19.015625 18.417969 C 19.125 18.289062 19.253906 18.179688 19.382812 18.070312 C 19.867188 17.664062 20.398438 17.324219 20.960938 17.046875 C 21.253906 16.90625 21.554688 16.785156 21.859375 16.679688 C 22.007812 16.628906 22.15625 16.585938 22.308594 16.542969 C 22.453125 16.5 22.597656 16.457031 22.746094 16.4375 C 22.746094 16.4375 22.746094 16.4375 22.75 16.4375 C 22.773438 16.4375 22.777344 16.476562 22.753906 16.484375 C 22.59375 16.539062 22.429688 16.574219 22.269531 16.625 C 22.101562 16.679688 21.9375 16.742188 21.773438 16.804688 C 21.203125 17.03125 20.65625 17.324219 20.144531 17.667969 C 19.886719 17.839844 19.636719 18.027344 19.402344 18.226562 C 19.289062 18.320312 19.179688 18.421875 19.085938 18.53125 C 19.03125 18.59375 18.96875 18.691406 18.925781 18.761719 " fill-opacity="1" fill-rule="nonzero"/><g clip-path="url(#54dc95e2a0)"><path fill="#006363" d="M 26.46875 25.84375 C 26.480469 25.828125 26.484375 25.804688 26.480469 25.78125 C 26.410156 25.113281 26.324219 24.449219 26.230469 23.785156 C 26.15625 23.253906 26.046875 22.726562 25.683594 22.328125 C 25.363281 21.972656 24.941406 21.75 24.566406 21.46875 C 24.359375 21.3125 24.179688 21.128906 23.984375 20.960938 C 23.78125 20.78125 23.554688 20.648438 23.304688 20.550781 C 22.777344 20.351562 22.21875 20.199219 21.675781 20.054688 C 21.0625 19.890625 20.445312 19.75 19.824219 19.632812 C 19.242188 19.523438 18.65625 19.433594 18.070312 19.335938 C 17.488281 19.242188 16.910156 19.109375 16.324219 19.039062 C 15.675781 18.960938 15.023438 18.941406 14.371094 18.871094 C 13.710938 18.796875 13.046875 18.71875 12.386719 18.652344 C 12.351562 18.648438 12.355469 18.699219 12.386719 18.703125 C 12.957031 18.765625 13.53125 18.8125 14.101562 18.875 C 14.398438 18.90625 14.699219 18.925781 14.988281 18.976562 C 15.285156 19.027344 15.578125 19.085938 15.875 19.132812 C 16.445312 19.21875 17.015625 19.285156 17.589844 19.34375 C 18.160156 19.40625 18.726562 19.53125 19.285156 19.65625 C 20.429688 19.910156 21.585938 20.1875 22.699219 20.570312 C 22.960938 20.664062 23.234375 20.75 23.476562 20.886719 C 23.714844 21.019531 23.902344 21.214844 24.097656 21.402344 C 24.445312 21.734375 24.859375 21.960938 25.230469 22.257812 C 25.4375 22.421875 25.625 22.617188 25.742188 22.867188 C 25.878906 23.144531 25.929688 23.460938 25.972656 23.765625 C 26.058594 24.359375 26.140625 24.949219 26.242188 25.539062 C 26.257812 25.851562 26.269531 26.179688 26.277344 26.488281 C 26.023438 25.769531 25.902344 25.003906 25.691406 24.261719 C 25.539062 23.71875 25.320312 23.175781 24.984375 22.726562 C 24.621094 22.230469 24.121094 21.863281 23.605469 21.554688 C 22.457031 20.867188 21.257812 20.292969 19.972656 19.953125 C 18.605469 19.597656 17.183594 19.453125 15.789062 19.269531 C 14.972656 19.164062 14.160156 19.058594 13.34375 18.960938 C 12.535156 18.863281 10.199219 18.601562 9.386719 18.539062 C 9.304688 18.53125 9.304688 18.585938 9.386719 18.601562 C 10.089844 18.734375 12.316406 19.011719 13.023438 19.121094 C 13.746094 19.230469 14.472656 19.335938 15.199219 19.433594 C 16.585938 19.621094 17.988281 19.753906 19.355469 20.042969 C 19.996094 20.175781 20.628906 20.359375 21.246094 20.578125 C 21.863281 20.796875 22.488281 21.046875 23.0625 21.371094 C 23.59375 21.671875 24.136719 22 24.582031 22.429688 C 25.011719 22.847656 25.285156 23.371094 25.457031 23.957031 C 25.738281 24.902344 25.824219 25.96875 26.222656 26.875 C 26.242188 26.945312 26.261719 27.019531 26.28125 27.089844 C 26.277344 27.308594 26.269531 27.496094 26.25 27.625 C 26.25 27.625 27.734375 33.28125 28.242188 36.851562 L 28.417969 36.4375 L 26.46875 25.84375 " fill-opacity="1" fill-rule="nonzero"/></g><path fill="#71b75a" d="M 24.925781 24.855469 C 24.488281 23.242188 23.054688 22.390625 22.03125 21.933594 C 20.871094 21.417969 19.578125 21.402344 18.339844 21.355469 C 17.6875 21.328125 17.035156 21.273438 16.390625 21.144531 C 15.707031 21.011719 15.042969 20.804688 14.375 20.617188 C 13.011719 20.238281 11.652344 19.859375 10.296875 19.464844 C 9.964844 19.371094 9.433594 19.191406 9.113281 19.0625 C 8.8125 18.941406 8.511719 18.835938 8.191406 18.777344 C 7.78125 18.699219 7.171875 18.621094 6.757812 18.582031 C 6.816406 18.617188 7.667969 18.796875 7.851562 18.835938 C 8.183594 18.902344 8.5 18.976562 8.820312 19.097656 C 9.113281 19.210938 9.402344 19.347656 9.703125 19.4375 C 11.03125 19.839844 12.378906 20.183594 13.707031 20.59375 C 14.980469 20.984375 16.253906 21.382812 17.585938 21.476562 C 18.851562 21.5625 20.160156 21.507812 21.386719 21.890625 C 22.628906 22.277344 23.59375 23.035156 24.238281 24.246094 C 24.289062 24.339844 24.355469 24.398438 24.398438 24.433594 C 24.472656 24.5 24.644531 24.582031 24.925781 24.855469 " fill-opacity="1" fill-rule="nonzero"/><path fill="#97cbf7" d="M 26.183594 5.820312 C 26.1875 5.808594 26.175781 5.800781 26.171875 5.8125 C 25.957031 6.390625 25.84375 6.996094 25.8125 7.625 C 25.796875 7.960938 25.804688 8.296875 25.828125 8.632812 C 25.851562 8.941406 25.871094 9.269531 25.960938 9.5625 C 25.972656 9.613281 26.042969 9.609375 26.039062 9.550781 C 26.027344 9.210938 25.960938 8.871094 25.9375 8.53125 C 25.917969 8.21875 25.910156 7.902344 25.917969 7.585938 C 25.9375 6.992188 26.023438 6.386719 26.183594 5.820312 " fill-opacity="1" fill-rule="nonzero"/><g clip-path="url(#54aa09378e)"><path fill="#25567f" d="M 28.949219 35.40625 C 28.878906 35.550781 28.546875 36.230469 28.546875 36.230469 C 28.546875 36.230469 27.527344 28.648438 26.289062 24.207031 C 26.289062 24.207031 27.902344 29.117188 28.949219 35.40625 " fill-opacity="1" fill-rule="nonzero"/></g><path fill="#84395e" d="M 18.0625 18.65625 C 18.238281 18.6875 18.46875 18.722656 18.46875 18.722656 C 18.46875 18.722656 18.652344 13.738281 19.402344 12.339844 C 20.042969 10.910156 24.269531 7.019531 24.269531 7.019531 C 24.269531 7.019531 21.308594 9.347656 19.917969 11.0625 C 18.144531 12.675781 18.0625 18.65625 18.0625 18.65625 " fill-opacity="1" fill-rule="nonzero"/><path fill="#ee611c" d="M 21.730469 12.996094 C 21.714844 12.996094 21.703125 12.976562 21.714844 12.960938 C 22.40625 12.042969 23.851562 10.339844 25.996094 10.039062 C 23.785156 10.960938 22.34375 12.339844 21.746094 12.992188 C 21.742188 12.996094 21.734375 12.996094 21.730469 12.996094 " fill-opacity="1" fill-rule="nonzero"/><path fill="#84395e" d="M 15.796875 18.378906 L 15.191406 18.359375 L 15.414062 12.1875 C 15.414062 12.1875 15.222656 18.457031 15.796875 18.378906 " fill-opacity="1" fill-rule="nonzero"/><path fill="#84395e" d="M 15.390625 13.335938 C 15.609375 10.335938 15.855469 7.265625 16.203125 6.589844 L 15.691406 7.585938 C 15.691406 7.585938 15.34375 12.722656 15.390625 13.335938 " fill-opacity="1" fill-rule="nonzero"/><path fill="#e55334" d="M 16.722656 14.390625 C 16.71875 14.390625 16.71875 14.390625 16.71875 14.390625 C 16.53125 14.378906 16.929688 11.835938 17.25 11.152344 C 17.261719 11.128906 17.28125 11.117188 17.300781 11.117188 C 17.332031 11.117188 17.363281 11.140625 17.359375 11.179688 C 17.335938 11.539062 17.355469 12.34375 17.273438 12.847656 C 17.191406 13.347656 16.886719 14.390625 16.722656 14.390625 " fill-opacity="1" fill-rule="nonzero"/><g clip-path="url(#ab85a32a75)"><path fill="#e9d000" d="M 31.75 14.867188 L 32.132812 14.648438 C 32.132812 14.648438 34.515625 14.589844 35.554688 14.339844 C 36.5625 14.070312 36.84375 13.972656 37.527344 13.675781 C 37.902344 13.515625 38.179688 13.386719 38.394531 13.300781 C 38.570312 13.230469 38.703125 13.1875 38.8125 13.171875 C 39.046875 13.148438 40.113281 12.933594 40.351562 12.9375 C 40.546875 12.90625 38.929688 13.175781 38.652344 13.273438 C 38.269531 13.410156 37.300781 13.886719 36.84375 14.085938 C 36.386719 14.28125 35.085938 14.457031 34.234375 14.621094 C 33.234375 14.816406 31.699219 14.90625 31.75 14.867188 " fill-opacity="1" fill-rule="nonzero"/></g><path fill="#f75e78" d="M 30.609375 15.488281 C 30.703125 15.414062 32.292969 15.390625 33.550781 15.8125 C 35.191406 16.4375 35.957031 17.734375 36.855469 18.78125 C 36.855469 18.78125 35.839844 17.582031 35.203125 17.050781 C 35.144531 16.996094 35.082031 16.945312 35.019531 16.890625 C 33.339844 15.375 30.609375 15.425781 30.609375 15.488281 " fill-opacity="1" fill-rule="nonzero"/><path fill="#568700" d="M 14.359375 19.648438 C 13.964844 19.59375 13.570312 19.539062 13.179688 19.480469 C 11.910156 19.292969 10.683594 19.101562 9.605469 18.925781 C 9.65625 18.933594 11.414062 19.15625 13.351562 19.460938 C 13.6875 19.523438 14.027344 19.585938 14.359375 19.648438 " fill-opacity="1" fill-rule="nonzero"/><path fill="#a7ae24" d="M 20.15625 21.105469 C 20.054688 21.105469 19.945312 21.097656 19.863281 21.082031 C 19.03125 20.898438 18.097656 20.925781 17.089844 20.738281 C 15.816406 20.507812 9.601562 18.925781 9.601562 18.925781 C 9.601562 18.925781 9.605469 18.925781 9.605469 18.925781 C 10.683594 19.101562 11.910156 19.292969 13.179688 19.480469 C 13.570312 19.539062 13.964844 19.59375 14.359375 19.648438 C 16.015625 19.960938 17.550781 20.269531 18.273438 20.460938 C 18.367188 20.488281 18.464844 20.515625 18.566406 20.546875 C 18.972656 20.6875 19.644531 20.8125 20.421875 21.015625 C 20.476562 21.046875 20.460938 21.074219 20.335938 21.09375 C 20.285156 21.105469 20.222656 21.105469 20.15625 21.105469 " fill-opacity="1" fill-rule="nonzero"/><path fill="#328834" d="M 20.421875 21.015625 C 19.644531 20.8125 18.972656 20.6875 18.566406 20.546875 C 18.734375 20.597656 18.910156 20.644531 19.085938 20.691406 C 19.628906 20.828125 20.273438 20.9375 20.421875 21.015625 M 18.273438 20.460938 C 17.550781 20.269531 16.015625 19.960938 14.359375 19.648438 C 14.027344 19.585938 13.6875 19.523438 13.351562 19.460938 C 14.886719 19.703125 16.535156 20 17.542969 20.277344 C 17.691406 20.289062 17.957031 20.367188 18.273438 20.460938 " fill-opacity="1" fill-rule="nonzero"/><g fill="#32620e" fill-opacity="1"><g transform="translate(8.316387, 43.095348)"><g><path d="M 0.28125 0 L 0.28125 -0.6875 L 0.671875 -0.6875 C 0.972656 -0.6875 1.125 -0.9375 1.125 -1.4375 L 1.125 -4.1875 L 0.328125 -4.1875 L 0.328125 -4.859375 L 3.171875 -4.859375 C 3.734375 -4.859375 4.148438 -4.734375 4.421875 -4.484375 C 4.691406 -4.242188 4.828125 -3.851562 4.828125 -3.3125 L 4.828125 0 L 4.078125 0 L 4.078125 -3.171875 C 4.078125 -3.546875 3.992188 -3.804688 3.828125 -3.953125 C 3.660156 -4.109375 3.425781 -4.1875 3.125 -4.1875 L 1.859375 -4.1875 L 1.859375 -1.484375 C 1.859375 -0.984375 1.757812 -0.609375 1.5625 -0.359375 C 1.375 -0.117188 1.0625 0 0.625 0 Z M 0.28125 0 "/></g></g></g><g fill="#32620e" fill-opacity="1"><g transform="translate(13.381389, 43.095348)"><g><path d="M 0.703125 0 L 0.703125 -4.859375 L 1.4375 -4.859375 L 1.4375 0 Z M 0.703125 0 "/></g></g></g><g fill="#32620e" fill-opacity="1"><g transform="translate(15.099874, 43.095348)"><g><path d="M 0.25 0 L 0.25 -0.6875 L 1.859375 -0.6875 L 1.859375 -3.65625 C 1.859375 -3.84375 1.816406 -3.976562 1.734375 -4.0625 C 1.660156 -4.144531 1.546875 -4.1875 1.390625 -4.1875 L 0.515625 -4.1875 L 0.515625 -4.859375 L 1.609375 -4.859375 C 1.890625 -4.859375 2.125 -4.773438 2.3125 -4.609375 C 2.507812 -4.441406 2.609375 -4.15625 2.609375 -3.75 L 2.609375 0 Z M 0.25 0 "/></g></g></g><g fill="#32620e" fill-opacity="1"><g transform="translate(17.944827, 43.095348)"><g><path d="M 0.609375 -1.75 L 0.609375 -4.859375 L 1.359375 -4.859375 L 1.359375 -2.484375 L 0.984375 -1.75 Z M 0.609375 -1.75 "/></g></g></g><g fill="#32620e" fill-opacity="1"><g transform="translate(19.457752, 43.095348)"><g><path d="M 0.125 0.078125 L 0.125 -0.703125 C 0.332031 -0.785156 0.523438 -0.882812 0.703125 -1 C 0.878906 -1.113281 1.035156 -1.25 1.171875 -1.40625 C 1.523438 -1.820312 1.703125 -2.289062 1.703125 -2.8125 L 1.703125 -3.65625 C 1.703125 -3.84375 1.660156 -3.976562 1.578125 -4.0625 C 1.503906 -4.144531 1.382812 -4.1875 1.21875 -4.1875 L 0.4375 -4.1875 L 0.4375 -4.859375 L 1.4375 -4.859375 C 1.726562 -4.859375 1.96875 -4.773438 2.15625 -4.609375 C 2.34375 -4.441406 2.4375 -4.15625 2.4375 -3.75 L 2.4375 -1.46875 L 2.609375 0 L 2 0 L 1.765625 -1.34375 L 1.734375 -1.34375 C 1.585938 -1.070312 1.414062 -0.84375 1.21875 -0.65625 C 1.03125 -0.46875 0.835938 -0.3125 0.640625 -0.1875 C 0.453125 -0.0703125 0.28125 0.015625 0.125 0.078125 Z M 0.125 0.078125 "/></g></g></g><g fill="#32620e" fill-opacity="1"><g transform="translate(21.891584, 43.095348)"><g/></g></g><g fill="#32620e" fill-opacity="1"><g transform="translate(23.264727, 43.095348)"><g><path d="M 0.28125 0 L 0.28125 -0.6875 L 0.671875 -0.6875 C 0.972656 -0.6875 1.125 -0.9375 1.125 -1.4375 L 1.125 -4.1875 L 0.328125 -4.1875 L 0.328125 -4.859375 L 3.171875 -4.859375 C 3.734375 -4.859375 4.148438 -4.734375 4.421875 -4.484375 C 4.691406 -4.242188 4.828125 -3.851562 4.828125 -3.3125 L 4.828125 0 L 4.078125 0 L 4.078125 -3.171875 C 4.078125 -3.546875 3.992188 -3.804688 3.828125 -3.953125 C 3.660156 -4.109375 3.425781 -4.1875 3.125 -4.1875 L 1.859375 -4.1875 L 1.859375 -1.484375 C 1.859375 -0.984375 1.757812 -0.609375 1.5625 -0.359375 C 1.375 -0.117188 1.0625 0 0.625 0 Z M 0.28125 0 "/></g></g></g><g clip-path="url(#493a7ee40e)"><g fill="#32620e" fill-opacity="1"><g transform="translate(28.32973, 43.095348)"><g><path d="M 2.578125 0 L 4.125 -4.1875 L 0.65625 -4.1875 L 0.65625 -4.859375 L 4.890625 -4.859375 L 4.890625 -4.3125 L 3.359375 0 Z M 0.65625 1.984375 L 0.65625 -2.96875 L 1.390625 -2.96875 L 1.390625 1.984375 Z M 0.65625 1.984375 "/></g></g></g></g><g fill="#32620e" fill-opacity="1"><g transform="translate(33.090501, 43.095348)"><g><path d="M 0.703125 0 L 0.703125 -4.859375 L 1.4375 -4.859375 L 1.4375 0 Z M 0.703125 0 "/></g></g></g><g fill="#32620e" fill-opacity="1"><g transform="translate(34.808985, 43.095348)"><g><path d="M 0.8125 0 L 0.8125 -2.875 C 0.8125 -3.132812 0.847656 -3.347656 0.921875 -3.515625 C 0.992188 -3.691406 1.078125 -3.828125 1.171875 -3.921875 C 1.273438 -4.023438 1.363281 -4.101562 1.4375 -4.15625 L 1.4375 -4.1875 L 0.203125 -4.1875 L 0.203125 -4.859375 L 2.265625 -4.859375 L 2.265625 -4.234375 C 2.210938 -4.203125 2.128906 -4.140625 2.015625 -4.046875 C 1.898438 -3.953125 1.789062 -3.816406 1.6875 -3.640625 C 1.59375 -3.472656 1.546875 -3.242188 1.546875 -2.953125 L 1.546875 0 Z M 0.8125 0 "/></g></g></g><g fill="#32620e" fill-opacity="1"><g transform="translate(36.856365, 43.095348)"><g><path d="M 3.21875 -4.859375 C 3.769531 -4.859375 4.179688 -4.734375 4.453125 -4.484375 C 4.722656 -4.242188 4.859375 -3.851562 4.859375 -3.3125 L 4.859375 0 L 4.125 0 L 4.125 -3.171875 C 4.125 -3.546875 4.035156 -3.804688 3.859375 -3.953125 C 3.691406 -4.109375 3.460938 -4.1875 3.171875 -4.1875 L 1.4375 -4.1875 L 1.4375 0 L 0.703125 0 L 0.703125 -4.859375 Z M 3.21875 -4.859375 "/></g></g></g><g fill="#32620e" fill-opacity="1"><g transform="translate(41.962479, 43.095348)"><g><path d="M 0.28125 0 L 0.28125 -0.6875 L 0.671875 -0.6875 C 0.972656 -0.6875 1.125 -0.9375 1.125 -1.4375 L 1.125 -4.1875 L 0.328125 -4.1875 L 0.328125 -4.859375 L 3.171875 -4.859375 C 3.734375 -4.859375 4.148438 -4.734375 4.421875 -4.484375 C 4.691406 -4.242188 4.828125 -3.851562 4.828125 -3.3125 L 4.828125 0 L 4.078125 0 L 4.078125 -3.171875 C 4.078125 -3.546875 3.992188 -3.804688 3.828125 -3.953125 C 3.660156 -4.109375 3.425781 -4.1875 3.125 -4.1875 L 1.859375 -4.1875 L 1.859375 -1.484375 C 1.859375 -0.984375 1.757812 -0.609375 1.5625 -0.359375 C 1.375 -0.117188 1.0625 0 0.625 0 Z M 0.28125 0 "/></g></g></g><g fill="#32620e" fill-opacity="1"><g transform="translate(47.02748, 43.095348)"><g><path d="M 0.703125 0 L 0.703125 -4.859375 L 1.4375 -4.859375 L 1.4375 0 Z M 0.703125 0 "/></g></g></g><g fill="#32620e" fill-opacity="1"><g transform="translate(48.745964, 43.095348)"><g/></g></g><g fill="#32620e" fill-opacity="1"><g transform="translate(50.119105, 43.095348)"><g><path d="M 3.21875 -4.859375 C 3.769531 -4.859375 4.179688 -4.734375 4.453125 -4.484375 C 4.722656 -4.242188 4.859375 -3.851562 4.859375 -3.3125 L 4.859375 0 L 4.125 0 L 4.125 -3.171875 C 4.125 -3.546875 4.035156 -3.804688 3.859375 -3.953125 C 3.691406 -4.109375 3.460938 -4.1875 3.171875 -4.1875 L 1.4375 -4.1875 L 1.4375 0 L 0.703125 0 L 0.703125 -4.859375 Z M 3.21875 -4.859375 "/></g></g></g><g fill="#32620e" fill-opacity="1"><g transform="translate(55.225219, 43.095348)"><g><path d="M 0.703125 0 L 0.703125 -4.859375 L 1.4375 -4.859375 L 1.4375 0 Z M 0.703125 0 "/></g></g></g><g fill="#32620e" fill-opacity="1"><g transform="translate(56.943704, 43.095348)"><g><path d="M 0.28125 0 L 0.28125 -0.6875 L 0.671875 -0.6875 C 0.972656 -0.6875 1.125 -0.9375 1.125 -1.4375 L 1.125 -4.1875 L 0.328125 -4.1875 L 0.328125 -4.859375 L 3.171875 -4.859375 C 3.734375 -4.859375 4.148438 -4.734375 4.421875 -4.484375 C 4.691406 -4.242188 4.828125 -3.851562 4.828125 -3.3125 L 4.828125 0 L 4.078125 0 L 4.078125 -3.171875 C 4.078125 -3.546875 3.992188 -3.804688 3.828125 -3.953125 C 3.660156 -4.109375 3.425781 -4.1875 3.125 -4.1875 L 1.859375 -4.1875 L 1.859375 -1.484375 C 1.859375 -0.984375 1.757812 -0.609375 1.5625 -0.359375 C 1.375 -0.117188 1.0625 0 0.625 0 Z M 0.28125 0 "/></g></g></g><g fill="#32620e" fill-opacity="1"><g transform="translate(62.008705, 43.095348)"><g><path d="M 0.609375 -1.75 L 0.609375 -4.859375 L 1.359375 -4.859375 L 1.359375 -2.484375 L 0.984375 -1.75 Z M 0.609375 -1.75 "/></g></g></g><g fill="#32620e" fill-opacity="1"><g transform="translate(63.521628, 43.095348)"><g><path d="M 0.40625 0 L 0.40625 -0.6875 L 2.34375 -0.6875 C 2.84375 -0.6875 3.207031 -0.847656 3.4375 -1.171875 C 3.664062 -1.492188 3.78125 -1.914062 3.78125 -2.4375 C 3.78125 -3 3.640625 -3.429688 3.359375 -3.734375 C 3.085938 -4.035156 2.679688 -4.1875 2.140625 -4.1875 L 1.15625 -4.1875 L 1.15625 -3.546875 C 1.15625 -3.222656 1.21875 -2.984375 1.34375 -2.828125 C 1.476562 -2.679688 1.671875 -2.609375 1.921875 -2.609375 C 1.953125 -2.609375 1.992188 -2.609375 2.046875 -2.609375 C 2.097656 -2.609375 2.144531 -2.613281 2.1875 -2.625 L 2.1875 -1.9375 C 2.0625 -1.925781 1.9375 -1.921875 1.8125 -1.921875 C 1.320312 -1.921875 0.960938 -2.0625 0.734375 -2.34375 C 0.515625 -2.632812 0.40625 -3.015625 0.40625 -3.484375 L 0.40625 -4.859375 L 2.21875 -4.859375 C 2.71875 -4.859375 3.140625 -4.753906 3.484375 -4.546875 C 3.835938 -4.347656 4.101562 -4.066406 4.28125 -3.703125 C 4.457031 -3.347656 4.546875 -2.929688 4.546875 -2.453125 C 4.546875 -1.992188 4.460938 -1.578125 4.296875 -1.203125 C 4.128906 -0.835938 3.878906 -0.546875 3.546875 -0.328125 C 3.222656 -0.109375 2.820312 0 2.34375 0 Z M 0.40625 0 "/></g></g></g><g fill="#32620e" fill-opacity="1"><g transform="translate(68.060396, 43.095348)"><g/></g></g><g clip-path="url(#9a60827d7c)"><g fill="#32620e" fill-opacity="1"><g transform="translate(69.433538, 43.095348)"><g><path d="M 0.71875 1.3125 L 0.671875 1.1875 C 0.847656 1.070312 0.984375 0.929688 1.078125 0.765625 C 1.179688 0.609375 1.253906 0.410156 1.296875 0.171875 L 1.015625 0.0625 C 0.859375 -0.0195312 0.738281 -0.117188 0.65625 -0.234375 C 0.570312 -0.359375 0.53125 -0.484375 0.53125 -0.609375 C 0.53125 -0.804688 0.59375 -0.96875 0.71875 -1.09375 C 0.84375 -1.226562 1.003906 -1.296875 1.203125 -1.296875 C 1.410156 -1.296875 1.578125 -1.222656 1.703125 -1.078125 C 1.835938 -0.929688 1.90625 -0.71875 1.90625 -0.4375 C 1.90625 -0.132812 1.84375 0.128906 1.71875 0.359375 C 1.59375 0.597656 1.441406 0.796875 1.265625 0.953125 C 1.085938 1.117188 0.90625 1.238281 0.71875 1.3125 Z M 0.71875 1.3125 "/></g></g></g></g><g fill="#32620e" fill-opacity="1"><g transform="translate(71.480916, 43.095348)"><g><path d="M 3.96875 0 L 3.96875 -3.171875 C 3.96875 -3.546875 3.878906 -3.804688 3.703125 -3.953125 C 3.535156 -4.109375 3.300781 -4.1875 3 -4.1875 L 0.703125 -4.1875 L 0.703125 -4.859375 L 3.046875 -4.859375 C 3.609375 -4.859375 4.023438 -4.734375 4.296875 -4.484375 C 4.566406 -4.242188 4.703125 -3.851562 4.703125 -3.3125 L 4.703125 0 Z M 0.703125 0 L 0.703125 -2.90625 L 1.4375 -2.90625 L 1.4375 0 Z M 0.703125 0 "/></g></g></g><g fill="#32620e" fill-opacity="1"><g transform="translate(76.422586, 43.095348)"><g><path d="M 2.875 -4.96875 C 3.445312 -4.96875 3.882812 -4.8125 4.1875 -4.5 C 4.488281 -4.1875 4.640625 -3.785156 4.640625 -3.296875 L 4.640625 0 L 2.5 0 L 2.5 -0.6875 L 3.90625 -0.6875 L 3.90625 -3.1875 C 3.90625 -3.519531 3.816406 -3.789062 3.640625 -4 C 3.472656 -4.207031 3.203125 -4.3125 2.828125 -4.3125 C 2.390625 -4.3125 2.0625 -4.164062 1.84375 -3.875 C 1.625 -3.582031 1.488281 -3.1875 1.4375 -2.6875 L 1.15625 0 L 0.40625 0 L 0.78125 -3.375 L 0.453125 -4.859375 L 1.1875 -4.859375 L 1.328125 -4.171875 L 1.359375 -4.171875 C 1.453125 -4.304688 1.5625 -4.4375 1.6875 -4.5625 C 1.820312 -4.6875 1.984375 -4.785156 2.171875 -4.859375 C 2.359375 -4.929688 2.59375 -4.96875 2.875 -4.96875 Z M 2.875 -4.96875 "/></g></g></g><g clip-path="url(#13d1451621)"><g fill="#32620e" fill-opacity="1"><g transform="translate(81.3067, 43.095348)"><g><path d="M 2.578125 0 L 4.125 -4.1875 L 0.65625 -4.1875 L 0.65625 -4.859375 L 4.890625 -4.859375 L 4.890625 -4.3125 L 3.359375 0 Z M 0.65625 1.984375 L 0.65625 -2.96875 L 1.390625 -2.96875 L 1.390625 1.984375 Z M 0.65625 1.984375 "/></g></g></g></g><g fill="#32620e" fill-opacity="1"><g transform="translate(86.067475, 43.095348)"><g><path d="M 3.96875 0 L 3.96875 -3.171875 C 3.96875 -3.546875 3.878906 -3.804688 3.703125 -3.953125 C 3.535156 -4.109375 3.300781 -4.1875 3 -4.1875 L 0.703125 -4.1875 L 0.703125 -4.859375 L 3.046875 -4.859375 C 3.609375 -4.859375 4.023438 -4.734375 4.296875 -4.484375 C 4.566406 -4.242188 4.703125 -3.851562 4.703125 -3.3125 L 4.703125 0 Z M 0.703125 0 L 0.703125 -2.90625 L 1.4375 -2.90625 L 1.4375 0 Z M 0.703125 0 "/></g></g></g><g fill="#32620e" fill-opacity="1"><g transform="translate(91.009147, 43.095348)"><g/></g></g><g clip-path="url(#1279b1d7f1)"><g fill="#32620e" fill-opacity="1"><g transform="translate(92.382292, 43.095348)"><g><path d="M 0.71875 1.3125 L 0.671875 1.1875 C 0.847656 1.070312 0.984375 0.929688 1.078125 0.765625 C 1.179688 0.609375 1.253906 0.410156 1.296875 0.171875 L 1.015625 0.0625 C 0.859375 -0.0195312 0.738281 -0.117188 0.65625 -0.234375 C 0.570312 -0.359375 0.53125 -0.484375 0.53125 -0.609375 C 0.53125 -0.804688 0.59375 -0.96875 0.71875 -1.09375 C 0.84375 -1.226562 1.003906 -1.296875 1.203125 -1.296875 C 1.410156 -1.296875 1.578125 -1.222656 1.703125 -1.078125 C 1.835938 -0.929688 1.90625 -0.71875 1.90625 -0.4375 C 1.90625 -0.132812 1.84375 0.128906 1.71875 0.359375 C 1.59375 0.597656 1.441406 0.796875 1.265625 0.953125 C 1.085938 1.117188 0.90625 1.238281 0.71875 1.3125 Z M 0.71875 1.3125 "/></g></g></g></g><g clip-path="url(#7a12b42d46)"><g fill="#32620e" fill-opacity="1"><g transform="translate(94.429671, 43.095348)"><g><path d="M 1.015625 1.96875 L 1.015625 -3.65625 C 1.015625 -3.84375 0.972656 -3.976562 0.890625 -4.0625 C 0.804688 -4.144531 0.691406 -4.1875 0.546875 -4.1875 L 0.171875 -4.1875 L 0.171875 -4.859375 L 0.75 -4.859375 C 1.039062 -4.859375 1.28125 -4.773438 1.46875 -4.609375 C 1.664062 -4.441406 1.765625 -4.15625 1.765625 -3.75 L 1.765625 1.96875 Z M 1.015625 1.96875 "/></g></g></g></g><g fill="#32620e" fill-opacity="1"><g transform="translate(96.42772, 43.095348)"><g><path d="M 0.703125 0 L 0.703125 -4.859375 L 1.4375 -4.859375 L 1.4375 0 Z M 0.703125 0 "/></g></g></g><g fill="#32620e" fill-opacity="1"><g transform="translate(98.146204, 43.095348)"><g><path d="M 0.25 0 L 0.25 -0.6875 L 1.859375 -0.6875 L 1.859375 -3.65625 C 1.859375 -3.84375 1.816406 -3.976562 1.734375 -4.0625 C 1.660156 -4.144531 1.546875 -4.1875 1.390625 -4.1875 L 0.515625 -4.1875 L 0.515625 -4.859375 L 1.609375 -4.859375 C 1.890625 -4.859375 2.125 -4.773438 2.3125 -4.609375 C 2.507812 -4.441406 2.609375 -4.15625 2.609375 -3.75 L 2.609375 0 Z M 0.25 0 "/></g></g></g><g fill="#32620e" fill-opacity="1"><g transform="translate(100.991156, 43.095348)"><g><path d="M 0.25 0 L 0.25 -0.6875 L 1.828125 -0.6875 C 2.328125 -0.6875 2.691406 -0.847656 2.921875 -1.171875 C 3.148438 -1.492188 3.265625 -1.914062 3.265625 -2.4375 C 3.265625 -3 3.125 -3.429688 2.84375 -3.734375 C 2.570312 -4.035156 2.164062 -4.1875 1.625 -4.1875 L 0.25 -4.1875 L 0.25 -4.859375 L 1.703125 -4.859375 C 2.210938 -4.859375 2.640625 -4.753906 2.984375 -4.546875 C 3.328125 -4.347656 3.585938 -4.066406 3.765625 -3.703125 C 3.941406 -3.347656 4.03125 -2.929688 4.03125 -2.453125 C 4.03125 -1.992188 3.945312 -1.578125 3.78125 -1.203125 C 3.613281 -0.835938 3.363281 -0.546875 3.03125 -0.328125 C 2.707031 -0.109375 2.304688 0 1.828125 0 Z M 0.25 0 "/></g></g></g><g fill="#32620e" fill-opacity="1"><g transform="translate(105.011915, 43.095348)"><g><path d="M 0.28125 0 L 0.28125 -0.6875 L 0.671875 -0.6875 C 0.972656 -0.6875 1.125 -0.9375 1.125 -1.4375 L 1.125 -4.1875 L 0.328125 -4.1875 L 0.328125 -4.859375 L 3.171875 -4.859375 C 3.734375 -4.859375 4.148438 -4.734375 4.421875 -4.484375 C 4.691406 -4.242188 4.828125 -3.851562 4.828125 -3.3125 L 4.828125 0 L 4.078125 0 L 4.078125 -3.171875 C 4.078125 -3.546875 3.992188 -3.804688 3.828125 -3.953125 C 3.660156 -4.109375 3.425781 -4.1875 3.125 -4.1875 L 1.859375 -4.1875 L 1.859375 -1.484375 C 1.859375 -0.984375 1.757812 -0.609375 1.5625 -0.359375 C 1.375 -0.117188 1.0625 0 0.625 0 Z M 0.28125 0 "/></g></g></g></svg>