<svg xmlns="http://www.w3.org/2000/svg" xmlns:xlink="http://www.w3.org/1999/xlink" width="500" zoomAndPan="magnify" viewBox="0 0 375 374.999991" height="500" preserveAspectRatio="xMidYMid meet" version="1.0"><defs><g/><clipPath id="9a2bebbc8b"><path d="M 42 110.710938 L 57 110.710938 L 57 188 L 42 188 Z M 42 110.710938 " clip-rule="nonzero"/></clipPath><clipPath id="d3d387b2da"><path d="M 115.644531 164.28125 L 158.222656 164.28125 L 158.222656 178.761719 L 115.644531 178.761719 Z M 115.644531 164.28125 " clip-rule="nonzero"/></clipPath><clipPath id="6b6c10e73c"><path d="M 116.007812 164.28125 L 158.222656 164.28125 L 158.222656 176.226562 L 116.007812 176.226562 Z M 116.007812 164.28125 " clip-rule="nonzero"/></clipPath><clipPath id="de905d9838"><path d="M 123.257812 164.28125 L 158.222656 164.28125 L 158.222656 179 L 123.257812 179 Z M 123.257812 164.28125 " clip-rule="nonzero"/></clipPath><clipPath id="1cfaef7e32"><path d="M 0.0195312 180.207031 L 111 180.207031 L 111 264.402344 L 0.0195312 264.402344 Z M 0.0195312 180.207031 " clip-rule="nonzero"/></clipPath><clipPath id="9aef248802"><path d="M 99 208.804688 L 111 208.804688 L 111 264.402344 L 99 264.402344 Z M 99 208.804688 " clip-rule="nonzero"/></clipPath><clipPath id="3c84d6a271"><path d="M 42 110.710938 L 56 110.710938 L 56 180 L 42 180 Z M 42 110.710938 " clip-rule="nonzero"/></clipPath><clipPath id="8e26a1a473"><path d="M 41 110.710938 L 57 110.710938 L 57 149 L 41 149 Z M 41 110.710938 " clip-rule="nonzero"/></clipPath><clipPath id="98a63790bc"><path d="M 42 110.710938 L 57 110.710938 L 57 149 L 42 149 Z M 42 110.710938 " clip-rule="nonzero"/></clipPath><clipPath id="575172ee40"><path d="M 42 110.710938 L 56 110.710938 L 56 149 L 42 149 Z M 42 110.710938 " clip-rule="nonzero"/></clipPath><clipPath id="fbf5110ec6"><path d="M 29.738281 187.808594 L 109 187.808594 L 109 264.402344 L 29.738281 264.402344 Z M 29.738281 187.808594 " clip-rule="nonzero"/></clipPath><clipPath id="58a06bf815"><path d="M 122.53125 164.28125 L 158.222656 164.28125 L 158.222656 172.609375 L 122.53125 172.609375 Z M 122.53125 164.28125 " clip-rule="nonzero"/></clipPath></defs><g fill="#32620e" fill-opacity="1"><g transform="translate(181.122137, 212.227095)"><g><path d="M 9.140625 17.6875 L 9.140625 -32.796875 C 9.140625 -34.515625 8.769531 -35.726562 8.03125 -36.4375 C 7.289062 -37.15625 6.234375 -37.515625 4.859375 -37.515625 L 1.46875 -37.515625 L 1.46875 -43.625 L 6.78125 -43.625 C 9.332031 -43.625 11.46875 -42.863281 13.1875 -41.34375 C 14.90625 -39.820312 15.765625 -37.242188 15.765625 -33.609375 L 15.765625 17.6875 Z M 9.140625 17.6875 "/></g></g></g><g fill="#32620e" fill-opacity="1"><g transform="translate(199.029027, 212.227095)"><g><path d="M 23.359375 0 L 23.359375 -37.515625 L 0.734375 -37.515625 L 0.734375 -43.625 L 36.703125 -43.625 L 36.703125 -37.515625 L 30 -37.515625 L 30 0 Z M 23.359375 0 "/></g></g></g><g fill="#32620e" fill-opacity="1"><g transform="translate(233.811839, 212.227095)"><g><path d="M 1.84375 0 L 1.84375 -6.125 L 13.78125 -6.125 L 5.078125 -43.625 L 11.71875 -43.625 L 20.1875 -6.484375 C 24.414062 -7.273438 27.695312 -9.21875 30.03125 -12.3125 C 32.363281 -15.40625 33.800781 -20.023438 34.34375 -26.171875 L 35.96875 -43.625 L 42.59375 -43.625 L 40.984375 -26.171875 C 40.785156 -23.953125 40.4375 -21.640625 39.9375 -19.234375 C 39.445312 -16.828125 38.660156 -14.476562 37.578125 -12.1875 C 36.503906 -9.90625 35.019531 -7.84375 33.125 -6 C 31.238281 -4.164062 28.832031 -2.707031 25.90625 -1.625 C 22.976562 -0.539062 19.40625 0 15.1875 0 Z M 1.84375 0 "/></g></g></g><g fill="#32620e" fill-opacity="1"><g transform="translate(274.858635, 212.227095)"><g/></g></g><g fill="#32620e" fill-opacity="1"><g transform="translate(287.164775, 212.227095)"><g><path d="M 5.53125 -15.703125 L 5.53125 -43.625 L 12.15625 -43.625 L 12.15625 -22.328125 L 8.84375 -15.703125 Z M 5.53125 -15.703125 "/></g></g></g><g fill="#32620e" fill-opacity="1"><g transform="translate(300.723716, 212.227095)"><g><path d="M 2.21875 0 L 2.21875 -6.125 L 16.734375 -6.125 L 16.734375 -32.796875 C 16.734375 -34.515625 16.375 -35.726562 15.65625 -36.4375 C 14.945312 -37.15625 13.878906 -37.515625 12.453125 -37.515625 L 4.640625 -37.515625 L 4.640625 -43.625 L 14.375 -43.625 C 16.976562 -43.625 19.125 -42.863281 20.8125 -41.34375 C 22.507812 -39.820312 23.359375 -37.242188 23.359375 -33.609375 L 23.359375 0 Z M 2.21875 0 "/></g></g></g><g fill="#32620e" fill-opacity="1"><g transform="translate(326.221086, 212.227095)"><g><path d="M 1.109375 0.734375 L 1.109375 -6.34375 C 3.023438 -7.03125 4.769531 -7.898438 6.34375 -8.953125 C 7.914062 -10.015625 9.289062 -11.234375 10.46875 -12.609375 C 13.65625 -16.335938 15.25 -20.535156 15.25 -25.203125 L 15.25 -32.796875 C 15.25 -34.515625 14.894531 -35.726562 14.1875 -36.4375 C 13.476562 -37.15625 12.410156 -37.515625 10.984375 -37.515625 L 3.90625 -37.515625 L 3.90625 -43.625 L 12.890625 -43.625 C 15.492188 -43.625 17.628906 -42.863281 19.296875 -41.34375 C 20.972656 -39.820312 21.8125 -37.242188 21.8125 -33.609375 L 21.8125 -13.1875 L 23.359375 0 L 17.90625 0 L 15.84375 -12.09375 L 15.546875 -12.09375 C 14.222656 -9.675781 12.703125 -7.617188 10.984375 -5.921875 C 9.265625 -4.234375 7.546875 -2.847656 5.828125 -1.765625 C 4.109375 -0.679688 2.535156 0.148438 1.109375 0.734375 Z M 1.109375 0.734375 "/></g></g></g><path fill="#3985dd" d="M 53.675781 187.929688 C 53.675781 187.929688 44.398438 184.878906 33.015625 170.335938 C 25.582031 161.8125 22.703125 157.183594 23.351562 156.558594 C 29.625 157.992188 41.207031 163.871094 49.15625 177.390625 C 54.300781 186.140625 53.675781 187.929688 53.675781 187.929688 " fill-opacity="1" fill-rule="nonzero"/><path fill="#deeaee" d="M 46.328125 173.085938 C 45.484375 171.933594 44.617188 170.851562 43.730469 169.832031 C 44.792969 171.035156 45.617188 172.089844 46.328125 173.085938 M 40.886719 166.832031 C 36.425781 162.515625 31.773438 159.710938 27.902344 158.070312 C 34.8125 160.925781 39.136719 165.101562 40.886719 166.832031 " fill-opacity="1" fill-rule="nonzero"/><path fill="#79acdd" d="M 52.175781 184.878906 C 50.339844 183.21875 44.925781 178.902344 40.171875 174.898438 C 36.484375 171.792969 30.042969 164.734375 28.8125 163.140625 C 28.390625 162.601562 23.960938 157.003906 24.726562 156.921875 C 25.839844 157.269531 26.898438 157.65625 27.902344 158.070312 C 31.773438 159.710938 36.425781 162.515625 40.886719 166.832031 C 41.101562 167.046875 41.28125 167.222656 41.417969 167.355469 C 42.304688 168.253906 43.066406 169.074219 43.730469 169.832031 C 44.617188 170.851562 45.484375 171.933594 46.328125 173.085938 C 47.078125 174.128906 47.707031 175.109375 48.363281 176.136719 C 48.378906 176.164062 48.394531 176.191406 48.410156 176.21875 C 48.503906 176.457031 48.597656 176.695312 48.691406 176.925781 C 48.730469 177.039062 48.777344 177.164062 48.84375 177.308594 C 48.390625 176.78125 47.921875 176.273438 47.40625 175.808594 C 46.40625 174.910156 45.410156 174.015625 44.46875 173.050781 C 43.566406 172.128906 43.003906 171.402344 41.992188 170.625 C 41.9375 170.585938 41.882812 170.5625 41.839844 170.5625 C 41.746094 170.5625 41.707031 170.667969 41.84375 170.902344 C 42.503906 172.015625 43.660156 172.871094 44.550781 173.773438 C 45.59375 174.832031 46.511719 175.898438 47.582031 176.921875 C 48.429688 177.730469 49.265625 179.101562 49.9375 179.984375 C 50.101562 180.359375 50.191406 180.550781 50.304688 180.796875 C 50.40625 181.027344 50.503906 181.253906 50.601562 181.476562 C 50.152344 181.066406 49.90625 180.8125 49.476562 180.363281 C 48.117188 178.957031 46.789062 177.53125 45.363281 176.199219 C 43.882812 174.824219 42.445312 173.40625 40.921875 172.082031 C 39.496094 170.84375 37.996094 169.636719 36.265625 168.925781 C 36.242188 168.917969 36.222656 168.914062 36.199219 168.914062 C 36.019531 168.914062 35.914062 169.226562 36.101562 169.324219 C 39.667969 171.144531 42.363281 174.78125 45.320312 177.5 C 47.320312 179.332031 49.28125 181.78125 51.5 183.449219 C 51.5 183.453125 51.5 183.453125 51.503906 183.457031 C 51.609375 183.710938 51.699219 183.886719 51.789062 184.0625 C 51.925781 184.355469 52.054688 184.625 52.175781 184.878906 " fill-opacity="1" fill-rule="nonzero"/><path fill="#dc5004" d="M 56.8125 140.574219 C 56.8125 140.574219 62.757812 129.402344 65.433594 121.707031 C 68.105469 114.015625 70.980469 112.539062 70.980469 112.539062 C 70.980469 112.539062 65.082031 143.472656 64.34375 148.375 C 63.714844 152.542969 63.714844 152.542969 63.40625 155.617188 C 63.128906 158.390625 64.144531 162.371094 61.777344 168.0625 C 59.160156 174.363281 57.378906 181.015625 56.460938 187.832031 C 56.414062 188.167969 56.367188 188.503906 56.324219 188.847656 L 53.839844 188.847656 C 53.839844 188.847656 53.183594 157.753906 54.699219 144.894531 L 56.8125 140.574219 " fill-opacity="1" fill-rule="nonzero"/><path fill="#d43f35" d="M 56.109375 142.015625 L 56.109375 153.609375 C 56.109375 153.609375 61.847656 138.78125 62.996094 134.144531 C 64.144531 129.507812 67.117188 122.550781 67.511719 120.230469 C 67.910156 117.914062 69.59375 114.015625 70.980469 112.539062 C 70.980469 112.539062 68.964844 114.597656 66.554688 118.835938 C 64.320312 125.324219 60.640625 134.078125 56.109375 142.015625 " fill-opacity="1" fill-rule="nonzero"/><path fill="#dc5004" d="M 65.730469 189.371094 C 65.730469 189.371094 68.105469 165.0625 71.9375 158.808594 C 77.042969 150.476562 103.574219 131.300781 106.546875 128.980469 C 108.917969 127.128906 113.628906 123.394531 115.433594 121.964844 C 115.554688 121.867188 115.714844 122.035156 115.621094 122.167969 C 113.226562 125.601562 104.464844 137.832031 93.371094 145.527344 C 88.019531 150.691406 84.75 153.75 82.769531 158.28125 C 81.691406 160.746094 81.113281 165.035156 80.09375 167.238281 C 77.023438 173.878906 67.511719 189.898438 67.511719 189.898438 L 65.730469 189.371094 " fill-opacity="1" fill-rule="nonzero"/><path fill="#d22c38" d="M 83.714844 184.878906 C 83.714844 184.878906 91.191406 183.578125 94.65625 189.898438 C 98.125 196.222656 104.464844 203.074219 111.128906 204.234375 C 116.113281 205.101562 123.082031 205.726562 126.160156 207.183594 C 128.394531 208.242188 129.132812 210.320312 133.6875 213.085938 C 134.597656 213.636719 136.074219 213.804688 137.289062 214.121094 C 137.625 214.207031 137.800781 213.707031 137.492188 213.539062 L 137.449219 213.515625 C 135 212.175781 132.796875 210.363281 131.003906 208.144531 C 128.675781 205.265625 126.496094 204.246094 124.972656 203.496094 C 121.128906 201.609375 120.316406 196.855469 118.828125 194.117188 C 117.34375 191.375 113.378906 183.472656 107.335938 182.523438 C 101.292969 181.574219 83.714844 184.878906 83.714844 184.878906 " fill-opacity="1" fill-rule="nonzero"/><g clip-path="url(#9a2bebbc8b)"><path fill="#ffd008" d="M 53.246094 187.019531 C 53.246094 187.019531 36.605469 155.75 43.835938 136.148438 C 48.589844 113.066406 53.246094 110.851562 53.246094 110.851562 C 53.246094 110.851562 51.960938 123.289062 55.230469 136.359375 C 58.5 149.429688 53.34375 174.339844 54.039062 187.074219 L 53.246094 187.019531 " fill-opacity="1" fill-rule="nonzero"/></g><path fill="#ba0e01" d="M 87.238281 180.769531 C 87.238281 180.769531 113.976562 174.195312 116.847656 171.347656 C 119.71875 168.503906 121.785156 162.59375 128.238281 159.652344 C 135.175781 156.488281 142.308594 155.917969 145.578125 154.699219 C 144.585938 153.746094 142.21875 152.898438 134.441406 154.167969 C 126.914062 155.398438 124.671875 157.015625 112.6875 162.285156 C 107.527344 164.554688 87.238281 180.769531 87.238281 180.769531 " fill-opacity="1" fill-rule="nonzero"/><path fill="#ff7133" d="M 68.136719 188.847656 C 65.730469 192.183594 72.167969 189.582031 72.167969 189.582031 C 72.167969 189.582031 79.996094 169.09375 81.53125 162.371094 C 83.066406 155.644531 86.300781 152.398438 89.835938 148.960938 C 93.371094 145.527344 105.394531 136.710938 110.683594 128.753906 C 115.246094 122.902344 115.621094 122.167969 115.621094 122.167969 C 115.621094 122.167969 101.878906 135.46875 95.070312 140.882812 C 88.5625 146.050781 81.609375 154.023438 76.757812 163.515625 C 70.980469 174.828125 70.539062 185.507812 68.136719 188.847656 " fill-opacity="1" fill-rule="nonzero"/><g clip-path="url(#d3d387b2da)"><path fill="#f44c20" d="M 115.648438 173.667969 C 115.648438 173.667969 121.503906 171.984375 129.527344 171.457031 C 137.550781 170.929688 143.992188 169.03125 145.578125 168.1875 C 147.164062 167.34375 154.296875 164.605469 158.15625 164.394531 C 158.15625 164.394531 150.53125 167.765625 148.054688 170.085938 C 145.578125 172.402344 144.089844 177.042969 134.878906 178.515625 C 125.664062 179.992188 115.648438 173.667969 115.648438 173.667969 " fill-opacity="1" fill-rule="nonzero"/></g><g clip-path="url(#6b6c10e73c)"><path fill="#ff7133" d="M 158.15625 164.394531 C 157.464844 164.394531 153.773438 165.21875 152.050781 165.351562 C 150.324219 165.484375 145.578125 168.1875 140.699219 169.765625 C 135.820312 171.34375 123.367188 171.566406 123.367188 171.566406 L 118.925781 173.140625 L 116.015625 175.78125 C 116.015625 175.78125 117.585938 175.445312 119.878906 174.96875 C 120.4375 174.945312 120.992188 174.894531 121.546875 174.886719 C 122.191406 174.878906 122.832031 174.910156 123.46875 174.960938 C 124.730469 175.0625 125.976562 175.273438 127.222656 175.476562 C 129.574219 175.867188 131.960938 176.238281 134.351562 176.09375 C 135.617188 176.015625 136.976562 175.8125 138.113281 175.1875 C 138.199219 175.144531 138.148438 175.015625 138.058594 175.042969 C 136.945312 175.410156 135.84375 175.714844 134.675781 175.816406 C 133.523438 175.917969 132.367188 175.859375 131.21875 175.730469 C 130.617188 175.664062 130.027344 175.550781 129.433594 175.449219 C 128.832031 175.34375 128.226562 175.234375 127.625 175.128906 C 126.375 174.898438 125.121094 174.679688 123.855469 174.554688 C 123.34375 174.507812 122.832031 174.472656 122.316406 174.464844 C 122.71875 174.382812 123.125 174.300781 123.542969 174.214844 C 123.929688 174.242188 124.3125 174.289062 124.699219 174.335938 C 126.269531 174.542969 127.820312 174.804688 129.40625 174.808594 C 130.988281 174.816406 132.5625 174.648438 134.113281 174.332031 C 135.695312 174.007812 137.261719 173.582031 138.808594 173.097656 C 140.546875 172.554688 142.304688 172.019531 143.988281 171.304688 C 144.070312 171.273438 144.03125 171.117188 143.941406 171.144531 C 142.382812 171.597656 140.859375 172.199219 139.308594 172.695312 C 137.765625 173.183594 136.195312 173.589844 134.605469 173.878906 C 133.035156 174.167969 131.429688 174.347656 129.835938 174.359375 C 129.03125 174.363281 128.230469 174.328125 127.429688 174.238281 C 126.648438 174.148438 125.871094 174.023438 125.089844 173.914062 L 125.042969 173.910156 C 128.039062 173.300781 131.210938 172.675781 133.589844 172.246094 C 139.730469 171.136719 143.199219 171.566406 148.054688 167.976562 C 149.8125 166.675781 158.851562 164.394531 158.15625 164.394531 " fill-opacity="1" fill-rule="nonzero"/></g><g clip-path="url(#de905d9838)"><path fill="#dc5004" d="M 123.367188 177.203125 C 123.367188 177.203125 132.152344 180.535156 137.652344 177.921875 C 143.152344 175.308594 143.707031 175.894531 147.285156 170.902344 C 147.285156 170.902344 150.265625 167.800781 158.15625 164.394531 C 158.15625 164.394531 148.484375 168.300781 144.125 172.246094 C 139.765625 176.1875 136.449219 177.089844 131.898438 176.90625 C 127.347656 176.726562 123.367188 177.203125 123.367188 177.203125 " fill-opacity="1" fill-rule="nonzero"/></g><path fill="#d22c38" d="M 83.714844 184.878906 C 83.714844 184.878906 101.722656 180.484375 117.441406 184.628906 C 131.660156 188.378906 130.808594 186.527344 136.902344 190.742188 C 143 194.957031 147.34375 197.691406 150.53125 198.859375 C 153.402344 199.914062 153.402344 199.914062 155.285156 199.597656 C 157.167969 199.28125 150.429688 199.492188 143.695312 189.371094 C 136.957031 179.253906 133.589844 174.828125 119.523438 174.828125 C 105.457031 174.828125 83.714844 184.878906 83.714844 184.878906 " fill-opacity="1" fill-rule="nonzero"/><path fill="#037c7e" d="M 86.136719 184.507812 C 86.136719 184.507812 92.507812 184.832031 95.558594 191.445312 C 99.398438 199.78125 105.546875 201.683594 107.554688 203.078125 C 109.558594 204.476562 100.097656 196.539062 98.023438 190.546875 C 95.53125 183.347656 114.164062 186.832031 116.398438 189.898438 C 116.398438 189.898438 113.101562 184.433594 109.378906 182.769531 C 105.652344 181.105469 86.136719 184.507812 86.136719 184.507812 " fill-opacity="1" fill-rule="nonzero"/><path fill="#8e0300" d="M 94.328125 182.351562 C 94.328125 182.351562 128.117188 182.839844 134.207031 188.847656 C 140.292969 194.855469 152.839844 201.246094 155.285156 199.597656 C 155.285156 199.597656 150.675781 199.175781 142.359375 192.539062 C 136.464844 187.835938 129.929688 183.132812 122.726562 181.507812 C 110.617188 178.769531 101.171875 178.6875 99.398438 178.921875 C 96.878906 179.253906 94.328125 182.351562 94.328125 182.351562 " fill-opacity="1" fill-rule="nonzero"/><path fill="#84395e" d="M 76.132812 191.445312 C 76.132812 191.445312 75.648438 188.90625 78.519531 187.304688 C 81.394531 185.703125 107.496094 179.359375 110.96875 177.847656 C 116.410156 175.480469 124.972656 171.246094 127.546875 169.664062 C 130.125 168.082031 149.96875 161.335938 152.050781 161.546875 C 149.871094 160.980469 141.257812 161.945312 128.636719 165.976562 C 116.351562 169.894531 107.238281 175.597656 100.503906 177.058594 C 93.765625 178.515625 75.539062 184.101562 72.960938 186.105469 C 70.386719 188.109375 69.988281 189.898438 69.988281 189.898438 L 76.132812 191.445312 " fill-opacity="1" fill-rule="nonzero"/><path fill="#006363" d="M 87.09375 184.730469 C 87.09375 184.730469 102.195312 180.78125 118.007812 184.875 C 127.074219 187.226562 132.039062 188.0625 134.777344 189.351562 C 133.625 187.6875 126.761719 183.335938 107.402344 181.535156 C 88.042969 179.734375 87.09375 184.730469 87.09375 184.730469 " fill-opacity="1" fill-rule="nonzero"/><path fill="#b7302c" d="M 65.929688 188.320312 L 69.457031 189.160156 C 69.457031 189.160156 71.605469 166.21875 74.183594 161.480469 C 80.984375 148.964844 109.855469 126.378906 109.855469 126.378906 C 109.855469 126.378906 86.136719 141.710938 73.597656 156.558594 C 69.230469 161.730469 69.984375 164.234375 68.351562 170.902344 C 66.71875 177.566406 65.929688 188.320312 65.929688 188.320312 " fill-opacity="1" fill-rule="nonzero"/><path fill="#51ad97" d="M 101.546875 128.15625 C 99.339844 130.269531 92.664062 138.148438 91.832031 156.699219 C 91.824219 156.851562 91.964844 156.960938 92.097656 156.910156 L 100.773438 153.601562 C 100.882812 153.5625 100.933594 153.429688 100.886719 153.320312 C 100.21875 151.734375 96.21875 141.234375 101.859375 128.402344 C 101.949219 128.195312 101.707031 128 101.546875 128.15625 " fill-opacity="1" fill-rule="nonzero"/><path fill="#e23b50" d="M 114.738281 176.363281 L 118.035156 174.980469 C 118.164062 175.042969 131.75 173.664062 137.652344 181.203125 C 142.738281 187.164062 148.59375 196.753906 155.605469 199.492188 C 152.050781 198.964844 148.808594 196.457031 139.632812 186.234375 C 130.230469 175.765625 114.738281 176.363281 114.738281 176.363281 " fill-opacity="1" fill-rule="nonzero"/><path fill="#d36c71" d="M 115.648438 149.664062 C 115.648438 149.664062 122.792969 144.800781 128.203125 135.953125 C 128.203125 135.953125 129.382812 135.734375 127.234375 139.570312 C 125.089844 143.410156 123.570312 148.777344 123.65625 150.171875 C 123.742188 151.5625 115.648438 149.664062 115.648438 149.664062 " fill-opacity="1" fill-rule="nonzero"/><path fill="#e9d000" d="M 68.082031 189.898438 C 68.082031 189.898438 79.277344 162.707031 88.09375 156.488281 C 96.910156 150.269531 111.179688 150.621094 114.964844 150.058594 C 119.246094 149.425781 124.992188 147.925781 127.421875 146.761719 C 130.347656 145.359375 133.09375 144.039062 134.757812 143.277344 C 134.949219 143.191406 135.105469 143.460938 134.945312 143.605469 C 132.1875 146.121094 123.933594 153.683594 122.371094 155.4375 C 120.488281 157.542969 114.972656 166.816406 111.539062 169.875 C 108.105469 172.929688 102.855469 176.9375 96.613281 178.09375 C 90.375 179.253906 72.242188 186.421875 70.558594 189.898438 C 68.875 193.378906 68.082031 189.898438 68.082031 189.898438 " fill-opacity="1" fill-rule="nonzero"/><path fill="#97cbf7" d="M 52.761719 185.082031 C 51.722656 182.859375 49.597656 179.71875 48.039062 177.871094 C 47.261719 176.957031 46.386719 176.144531 45.425781 175.457031 C 44.398438 174.722656 43.273438 174.140625 42.5 173.082031 C 41.757812 172.0625 41.351562 170.8125 40.546875 169.835938 C 39.773438 168.894531 38.675781 168.410156 37.574219 168.0625 C 36.453125 167.710938 35.230469 167.507812 34.1875 166.9375 C 33.128906 166.363281 32.246094 165.488281 31.476562 164.539062 C 30.683594 163.558594 29.996094 162.492188 29.265625 161.460938 C 28.863281 160.890625 28.539062 160.261719 28.160156 159.675781 C 27.820312 159.152344 27.410156 158.707031 26.96875 158.277344 C 26.644531 157.960938 26.171875 158.53125 26.519531 158.828125 C 26.902344 159.160156 27.253906 159.53125 27.617188 159.890625 C 28.066406 160.335938 28.585938 160.804688 28.960938 161.324219 C 29.613281 162.222656 30.167969 163.199219 30.8125 164.105469 C 32.128906 165.957031 33.691406 167.34375 35.789062 168.074219 C 36.921875 168.46875 38.121094 168.730469 39.140625 169.417969 C 40.28125 170.183594 40.847656 171.429688 41.527344 172.617188 C 42.097656 173.605469 42.746094 174.402344 43.644531 175.070312 C 44.640625 175.816406 45.644531 176.496094 46.53125 177.394531 C 48.457031 179.351562 49.753906 182.535156 51.882812 185.8125 C 52.1875 186.285156 54.480469 188.75 52.761719 185.082031 " fill-opacity="1" fill-rule="nonzero"/><path fill="#f69a1d" d="M 78.546875 180.445312 C 80.066406 179.003906 81.667969 177.613281 83.230469 176.472656 C 97.699219 171.800781 105.980469 168.878906 113.082031 160.5625 C 116.691406 156.363281 121.609375 151.058594 125.574219 149.171875 C 125.628906 149.144531 125.683594 149.132812 125.734375 149.132812 C 126.042969 149.132812 126.238281 149.589844 125.945312 149.832031 C 122.15625 152.992188 119.074219 157.292969 117.800781 159.199219 C 116.609375 160.917969 111.074219 168.523438 104.082031 171.46875 C 98.816406 173.6875 87.441406 176.070312 78.546875 180.445312 M 87.230469 180.023438 C 88.328125 179.585938 89.480469 179.15625 90.691406 178.738281 C 90.691406 178.738281 90.691406 178.738281 90.695312 178.738281 C 89.523438 179.167969 88.371094 179.59375 87.238281 180.019531 C 87.234375 180.019531 87.234375 180.023438 87.230469 180.023438 M 76.53125 179.648438 C 77.421875 178.964844 78.417969 178.296875 79.535156 177.664062 C 78.488281 178.328125 77.488281 178.980469 76.53125 179.648438 " fill-opacity="1" fill-rule="nonzero"/><path fill="#6b2e4e" d="M 76.394531 191.042969 L 71.972656 190.339844 C 71.972656 190.339844 75.65625 187.792969 79.53125 185.457031 C 85.34375 181.949219 99.6875 179.648438 104.082031 178.339844 C 108.476562 177.023438 120.75 173.203125 124.316406 171.445312 C 124.316406 171.445312 114.40625 177.671875 103.042969 180.328125 C 94.714844 182.273438 74.246094 187.527344 76.394531 191.042969 " fill-opacity="1" fill-rule="nonzero"/><path fill="#ffde3b" d="M 119.417969 149.089844 C 119.417969 149.089844 106.96875 150.671875 104.082031 150.957031 C 101.199219 151.242188 94.566406 154.242188 91.832031 156.699219 C 89.09375 159.15625 87.109375 162.3125 89.007812 163.972656 C 90.910156 165.632812 105.921875 157.246094 107.988281 156.496094 C 110.058594 155.75 118.5625 152.363281 119.636719 151.421875 C 120.710938 150.480469 124.761719 148.023438 122.089844 148.558594 C 119.417969 149.089844 119.417969 149.089844 119.417969 149.089844 " fill-opacity="1" fill-rule="nonzero"/><path fill="#79c662" d="M 104.082031 171.46875 C 98.816406 173.6875 87.441406 176.070312 78.546875 180.445312 C 80.988281 178.128906 83.652344 175.929688 86.003906 174.730469 C 92.476562 171.425781 101.328125 162.714844 106.609375 160.886719 C 111.894531 159.0625 102.507812 160.046875 91.878906 169.039062 C 83.742188 175.917969 77.148438 178.234375 72.210938 183.210938 C 72.484375 182.632812 73.085938 182.160156 73.46875 181.703125 C 73.96875 181.105469 74.421875 180.464844 74.902344 179.84375 C 75.792969 178.699219 76.675781 177.539062 77.519531 176.351562 C 79.3125 173.8125 81.316406 171.644531 83.894531 170.03125 C 86.300781 168.53125 89.039062 167.835938 91.453125 166.359375 C 93.851562 164.894531 96.011719 163.046875 98.441406 161.625 C 101.203125 160.003906 103.761719 158.1875 106.785156 157.214844 C 107.058594 157.125 107.09375 156.867188 106.828125 156.933594 C 103.898438 157.695312 101.246094 159.195312 98.546875 160.632812 C 95.863281 162.066406 93.523438 164.078125 90.910156 165.632812 C 89.574219 166.425781 88.128906 166.953125 86.738281 167.617188 C 85.425781 168.242188 84.136719 168.960938 82.925781 169.78125 C 80.472656 171.445312 78.597656 173.589844 76.875 176.066406 C 75.839844 177.554688 74.878906 179.148438 73.554688 180.371094 C 73.414062 180.5 73.261719 180.628906 73.101562 180.761719 C 74.730469 177.421875 76.726562 173.820312 78.710938 171.46875 C 83.304688 166.03125 93.089844 159.949219 96.011719 158.359375 C 100.207031 156.074219 119.320312 152.382812 115.621094 152.664062 C 111.921875 152.945312 103.671875 154.175781 96.714844 156.824219 C 90.234375 159.289062 80.09375 167.140625 76.691406 170.800781 C 73.289062 174.464844 68.136719 188.746094 68.136719 188.746094 L 69.457031 189.0625 C 69.457031 189.0625 69.488281 188.980469 69.546875 188.832031 L 70.980469 189.269531 C 70.980469 189.269531 77.667969 183.230469 90.691406 178.738281 C 99.726562 176.355469 102.269531 175.230469 104.671875 173.753906 C 105.808594 173.058594 106.964844 172.402344 108.132812 171.765625 C 109.929688 170.785156 115.175781 165.621094 118.035156 158.847656 C 118.035156 158.847656 111.988281 168.136719 104.082031 171.46875 " fill-opacity="1" fill-rule="nonzero"/><g clip-path="url(#1cfaef7e32)"><path fill="#568700" d="M 98.703125 207.703125 C 97.277344 204.269531 94.980469 202.601562 94.855469 202.371094 C 88.53125 190.964844 75.152344 190.027344 61.703125 187.757812 C 50.117188 185.601562 15.289062 189.257812 0.265625 180.339844 C 0.230469 180.320312 0.183594 180.324219 0.148438 180.347656 C 0.113281 180.371094 0.0820312 180.402344 0.0546875 180.433594 C 0 180.488281 0.0078125 180.585938 0.0703125 180.636719 C 1.125 181.492188 3.289062 182.851562 9.0625 185.648438 C 19.367188 190.636719 36.539062 195.558594 36.539062 195.558594 C 44.734375 197.214844 63.054688 206.84375 75.519531 210.265625 C 78.476562 211.078125 81.535156 211.394531 84.589844 211.253906 C 89.992188 211.007812 92.253906 211.425781 95.746094 215.722656 C 100.941406 222.113281 108.046875 264.414062 108.046875 264.414062 L 110.96875 258.371094 C 110.96875 258.371094 105.402344 225.246094 98.703125 207.703125 " fill-opacity="1" fill-rule="nonzero"/></g><path fill="#74cd81" d="M 0.0703125 180.636719 C 10.011719 187.929688 57.011719 199.675781 69.195312 199.175781 C 81.382812 198.675781 90.265625 206.65625 91.832031 212.277344 C 91.832031 212.277344 90.613281 211.148438 82.777344 211.285156 C 79.773438 211.257812 77.945312 210.925781 75.621094 210.292969 C 64.539062 207.28125 49.855469 200.207031 44.992188 198.3125 C 44.570312 198.148438 44.144531 198.007812 43.714844 197.890625 C 36.929688 196.007812 11.640625 188.75 0.0703125 180.636719 " fill-opacity="1" fill-rule="nonzero"/><path fill="#be5661" d="M 48.511719 186.925781 C 48.511719 186.925781 71.003906 190.355469 76.980469 192.777344 C 79.796875 193.914062 89.222656 196.191406 94.917969 202.804688 C 94.988281 202.886719 95.109375 202.789062 95.058594 202.695312 C 93.726562 200.324219 88.960938 193.066406 79.621094 191.25 C 79.339844 191.199219 79.0625 191.128906 78.785156 191.046875 C 64.523438 186.65625 48.511719 186.925781 48.511719 186.925781 " fill-opacity="1" fill-rule="nonzero"/><g clip-path="url(#9aef248802)"><path fill="#037c7e" d="M 99.183594 208.988281 C 99.484375 211.207031 99.925781 218.230469 99.949219 226.132812 C 99.949219 226.132812 106.28125 250.398438 108.046875 264.414062 L 110.96875 258.371094 C 105.730469 228.394531 100.9375 214.476562 99.71875 210.496094 C 99.6875 210.398438 99.171875 208.886719 99.183594 208.988281 " fill-opacity="1" fill-rule="nonzero"/></g><path fill="#ccc034" d="M 14.019531 186.523438 C 14.019531 186.523438 41.285156 194.410156 43.859375 195.074219 C 45.472656 195.492188 52.53125 197.230469 58.28125 198.472656 C 61.90625 199.257812 65.597656 199.613281 69.292969 199.617188 C 83.804688 199.640625 90.773438 208.339844 91.832031 212.277344 C 91.832031 212.277344 94.007812 213.59375 95.835938 215.859375 C 96 216.0625 96.144531 216.285156 96.28125 216.507812 C 97.632812 218.765625 96.085938 208.371094 87.921875 201.648438 C 81.71875 196.539062 62.667969 194.265625 45.71875 191.761719 C 28.824219 189.261719 14.019531 186.523438 14.019531 186.523438 " fill-opacity="1" fill-rule="nonzero"/><path fill="#cbdab0" d="M 87.183594 211.359375 C 86.597656 211.332031 85.828125 211.300781 84.820312 211.277344 C 85.714844 211.289062 86.496094 211.316406 87.183594 211.359375 M 83.117188 211.3125 C 82.269531 211.3125 81.410156 211.28125 80.484375 211.191406 C 81.171875 211.246094 81.914062 211.277344 82.75 211.285156 C 82.894531 211.285156 83.042969 211.285156 83.191406 211.285156 C 83.503906 211.285156 83.820312 211.28125 84.132812 211.273438 C 84.316406 211.273438 84.496094 211.273438 84.675781 211.273438 C 84.578125 211.277344 84.480469 211.289062 84.382812 211.292969 C 83.957031 211.304688 83.539062 211.3125 83.117188 211.3125 M 75.289062 210.203125 C 72.949219 209.582031 70.058594 208.632812 66.25 207.195312 C 69.339844 208.355469 72.429688 209.410156 75.289062 210.203125 M 61.945312 205.519531 C 61.757812 205.441406 61.5625 205.367188 61.371094 205.289062 C 51.003906 201.117188 47.457031 199.171875 43.96875 197.964844 C 44.113281 198.003906 44.257812 198.050781 44.398438 198.097656 C 45.152344 198.390625 45.929688 198.703125 46.726562 199.023438 C 50.164062 200.480469 55.847656 203.066406 61.945312 205.519531 " fill-opacity="1" fill-rule="nonzero"/><path fill="#568700" d="M 83.191406 211.285156 C 83.042969 211.285156 82.894531 211.285156 82.75 211.285156 C 82.757812 211.285156 82.769531 211.285156 82.777344 211.285156 C 83.230469 211.277344 83.65625 211.273438 84.066406 211.273438 C 84.089844 211.273438 84.109375 211.273438 84.132812 211.273438 C 83.820312 211.28125 83.503906 211.285156 83.191406 211.285156 M 46.726562 199.023438 C 45.929688 198.703125 45.152344 198.390625 44.398438 198.097656 C 44.597656 198.164062 44.792969 198.238281 44.992188 198.3125 C 45.476562 198.503906 46.058594 198.742188 46.726562 199.023438 " fill-opacity="1" fill-rule="nonzero"/><path fill="#6bb759" d="M 89.007812 211.527344 C 89.003906 211.527344 88.828125 211.441406 87.183594 211.359375 C 86.496094 211.316406 85.714844 211.289062 84.820312 211.277344 C 84.792969 211.277344 84.769531 211.273438 84.742188 211.273438 C 84.730469 211.273438 84.722656 211.273438 84.714844 211.273438 C 84.699219 211.273438 84.6875 211.273438 84.675781 211.273438 C 84.496094 211.273438 84.316406 211.273438 84.132812 211.273438 C 84.109375 211.273438 84.089844 211.273438 84.066406 211.273438 C 83.65625 211.273438 83.230469 211.277344 82.777344 211.285156 C 82.769531 211.285156 82.757812 211.285156 82.75 211.285156 C 81.914062 211.277344 81.171875 211.246094 80.484375 211.191406 C 79.019531 211.046875 77.371094 210.753906 75.289062 210.203125 C 72.429688 209.410156 69.339844 208.355469 66.25 207.195312 C 64.929688 206.695312 63.5 206.140625 61.945312 205.519531 C 55.847656 203.066406 50.164062 200.480469 46.726562 199.023438 C 46.058594 198.742188 45.476562 198.503906 44.992188 198.3125 C 44.792969 198.238281 44.597656 198.164062 44.398438 198.097656 C 44.257812 198.050781 44.113281 198.003906 43.96875 197.964844 C 43.394531 197.765625 42.820312 197.585938 42.21875 197.417969 C 41.292969 197.164062 40.183594 196.863281 39.148438 196.558594 C 37.035156 196.007812 36.484375 195.644531 37.429688 195.644531 C 39.4375 195.644531 48.21875 197.28125 63.128906 202.230469 C 86.257812 205.070312 89 211.503906 89.007812 211.527344 " fill-opacity="1" fill-rule="nonzero"/><path fill="#d43f35" d="M 54.039062 187.074219 L 56.554688 187.164062 C 56.554688 187.164062 58.453125 178.660156 60.292969 173.773438 C 62.132812 168.886719 63.160156 165.328125 63.257812 162.371094 C 63.382812 158.597656 63.988281 147.921875 65.175781 143.542969 C 65.175781 143.542969 63.195312 146.792969 59.605469 164.710938 C 56.019531 182.628906 53.246094 180.769531 53.246094 180.769531 L 54.039062 187.074219 " fill-opacity="1" fill-rule="nonzero"/><path fill="#ffde3b" d="M 48.46875 163.304688 C 48.378906 162.355469 48.046875 161.429688 47.746094 160.539062 C 47.164062 158.804688 46.582031 157.097656 46.265625 155.28125 C 45.96875 153.554688 45.871094 151.808594 45.90625 150.058594 C 45.945312 148.046875 46.15625 146.039062 46.453125 144.054688 C 46.78125 141.878906 47.308594 139.746094 47.589844 137.566406 C 47.839844 135.625 45.035156 134.902344 44.441406 136.777344 C 43.808594 138.78125 43.445312 140.894531 43.097656 142.972656 C 42.800781 144.753906 42.566406 146.546875 42.453125 148.351562 C 42.21875 152.023438 42.476562 155.789062 43.589844 159.292969 C 43.910156 160.300781 44.289062 161.289062 44.601562 162.304688 C 44.722656 162.691406 44.820312 163.085938 44.925781 163.476562 C 45.132812 164.25 45.304688 165.300781 45.992188 165.757812 C 46.613281 166.171875 47.449219 166.089844 47.988281 165.566406 C 48.609375 164.960938 48.539062 164.113281 48.46875 163.304688 " fill-opacity="1" fill-rule="nonzero"/><g clip-path="url(#3c84d6a271)"><path fill="#ffb666" d="M 55.234375 137.144531 C 52.664062 127.765625 53.429688 110.851562 53.429688 110.851562 C 53.429688 110.851562 49.363281 114.707031 46.375 126.558594 C 41.027344 144.578125 42.175781 148.960938 42.175781 148.960938 C 42.175781 148.960938 43.058594 142.113281 44.792969 138.984375 C 44.726562 139.921875 44.699219 140.851562 44.710938 141.789062 C 44.734375 143.765625 44.84375 145.742188 45.074219 147.703125 C 45.304688 149.648438 45.628906 151.605469 46 153.527344 C 46.179688 154.460938 46.367188 155.394531 46.578125 156.324219 C 46.789062 157.242188 46.957031 158.394531 47.503906 159.160156 C 47.769531 159.535156 48.242188 159.324219 48.269531 158.886719 C 48.324219 158.03125 47.949219 157.089844 47.738281 156.269531 C 47.507812 155.359375 47.292969 154.441406 47.113281 153.515625 C 46.734375 151.539062 46.5 149.574219 46.363281 147.5625 C 46.226562 145.617188 46.15625 143.664062 46.1875 141.710938 C 46.199219 140.769531 46.21875 139.824219 46.238281 138.882812 C 46.25 138.464844 46.300781 137.976562 46.308594 137.492188 C 46.644531 137.414062 46.996094 137.492188 47.367188 137.757812 C 47.367188 137.953125 47.371094 138.140625 47.367188 138.324219 C 47.339844 139.355469 47.359375 140.382812 47.386719 141.414062 C 47.417969 142.4375 47.453125 143.460938 47.507812 144.488281 C 47.5625 145.484375 47.523438 146.570312 47.882812 147.507812 C 47.984375 147.769531 48.40625 147.75 48.472656 147.46875 C 48.664062 146.625 48.535156 145.734375 48.492188 144.875 C 48.445312 143.796875 48.410156 142.71875 48.394531 141.640625 C 48.378906 140.730469 48.382812 139.820312 48.378906 138.910156 C 52.679688 145.609375 53.707031 171.644531 53.246094 178.738281 C 52.777344 185.992188 57.808594 146.523438 55.234375 137.144531 " fill-opacity="1" fill-rule="nonzero"/></g><path fill="#79c662" d="M 53.699219 135.480469 C 53.675781 134.492188 53.714844 175.40625 53.722656 177.007812 C 53.726562 177.902344 53.246094 177.726562 53.160156 176.941406 C 52.980469 175.335938 50.183594 154.167969 49.335938 149.097656 C 49.296875 148.863281 48.976562 148.910156 48.996094 149.144531 C 48.996094 149.144531 51.507812 179.148438 51.433594 179.726562 C 51.382812 180.136719 51.207031 179.964844 51.046875 179.625 C 50.785156 179.0625 44.199219 154.171875 44.199219 154.171875 C 44.121094 153.957031 43.96875 153.996094 43.996094 154.222656 L 46.996094 172.558594 C 47.222656 174.050781 51.992188 185.457031 53.246094 187.019531 C 53.699219 187.074219 54.039062 187.074219 54.039062 187.074219 C 54.039062 187.074219 54.53125 173.65625 55.367188 164.527344 C 56.117188 156.359375 53.722656 136.628906 53.699219 135.480469 " fill-opacity="1" fill-rule="nonzero"/><g clip-path="url(#8e26a1a473)"><path fill="#e58882" d="M 42.019531 148.054688 C 41.960938 147.363281 41.980469 146.5 42.058594 145.558594 C 42.023438 146.382812 42.007812 147.214844 42.019531 148.054688 M 56.109375 142.015625 C 55.9375 139.964844 55.652344 138.058594 55.230469 136.359375 C 54.707031 134.273438 54.300781 132.207031 53.988281 130.203125 C 53.957031 129.925781 53.925781 129.644531 53.898438 129.363281 C 54.601562 134.871094 56.109375 137.949219 56.109375 142.015625 M 45.542969 128.679688 C 46.359375 125.34375 47.203125 122.601562 48.019531 120.355469 C 47.234375 122.578125 46.398438 125.316406 45.542969 128.679688 M 53.582031 125.507812 C 53.21875 119.746094 53.320312 114.25 53.390625 111.964844 C 53.355469 114.332031 53.324219 119.738281 53.578125 125.402344 C 53.578125 125.4375 53.578125 125.472656 53.582031 125.507812 M 53.226562 111.0625 C 53.238281 110.925781 53.246094 110.851562 53.246094 110.851562 C 53.246094 110.851562 53.242188 110.855469 53.234375 110.859375 C 53.351562 110.753906 53.414062 110.710938 53.414062 110.710938 C 53.414062 110.710938 53.410156 110.765625 53.410156 110.871094 C 53.378906 110.902344 53.316406 110.964844 53.226562 111.0625 " fill-opacity="1" fill-rule="nonzero"/></g><g clip-path="url(#98a63790bc)"><path fill="#e47624" d="M 42.175781 148.960938 C 42.097656 148.710938 42.046875 148.40625 42.019531 148.054688 C 42.007812 147.214844 42.023438 146.382812 42.058594 145.558594 C 42.304688 142.585938 43.097656 138.820312 43.597656 137.0625 C 41.5 146.386719 42.175781 148.960938 42.175781 148.960938 M 56.109375 142.015625 C 56.109375 142.015625 55.972656 141.289062 55.734375 140.125 C 55.617188 138.945312 55.453125 137.9375 55.234375 137.144531 C 54.675781 135.101562 54.273438 132.707031 53.988281 130.203125 C 54.300781 132.207031 54.707031 134.273438 55.230469 136.359375 C 55.652344 138.058594 55.9375 139.964844 56.109375 142.015625 M 44.546875 133.132812 C 44.871094 131.539062 45.203125 130.058594 45.542969 128.679688 C 46.398438 125.316406 47.234375 122.578125 48.019531 120.355469 C 50.429688 113.71875 52.609375 111.417969 53.234375 110.859375 C 53.242188 110.855469 53.246094 110.851562 53.246094 110.851562 C 53.246094 110.851562 53.238281 110.925781 53.226562 111.0625 C 52.371094 112.011719 48.96875 116.277344 46.375 126.558594 C 45.652344 128.988281 45.050781 131.171875 44.546875 133.132812 " fill-opacity="1" fill-rule="nonzero"/></g><g clip-path="url(#575172ee40)"><path fill="#e46c48" d="M 42.175781 148.960938 C 42.175781 148.960938 41.5 146.386719 43.597656 137.0625 C 43.675781 136.777344 43.746094 136.550781 43.808594 136.382812 C 43.957031 135.980469 44.070312 135.566406 44.148438 135.144531 C 44.28125 134.457031 44.410156 133.785156 44.546875 133.132812 C 45.050781 131.171875 45.652344 128.988281 46.375 126.558594 C 48.96875 116.277344 52.371094 112.011719 53.226562 111.0625 C 53.316406 110.964844 53.378906 110.902344 53.410156 110.871094 C 53.402344 111.070312 53.398438 111.445312 53.390625 111.964844 C 53.320312 114.25 53.21875 119.746094 53.582031 125.507812 C 53.636719 126.921875 53.75 128.195312 53.898438 129.363281 C 53.925781 129.644531 53.957031 129.925781 53.988281 130.203125 C 54.273438 132.707031 54.675781 135.101562 55.234375 137.144531 C 55.453125 137.9375 55.617188 138.945312 55.734375 140.125 C 55.015625 136.609375 53.355469 129.085938 51.632812 125.285156 C 51.359375 124.679688 51.308594 123.984375 51.484375 123.339844 C 51.675781 122.628906 51.917969 121.730469 52.035156 121.210938 C 52.066406 121.078125 51.96875 121.003906 51.871094 121.003906 C 51.800781 121.003906 51.730469 121.035156 51.699219 121.109375 C 51.460938 121.597656 51.125 122.609375 50.925781 123.21875 C 50.867188 123.414062 50.695312 123.546875 50.503906 123.546875 C 50.492188 123.546875 50.476562 123.546875 50.460938 123.542969 C 50.445312 123.542969 50.429688 123.539062 50.414062 123.539062 C 50.253906 123.539062 50.09375 123.632812 50.015625 123.808594 C 49.648438 124.621094 49.328125 125.460938 49.054688 126.3125 C 48.765625 127.191406 48.527344 128.085938 48.332031 128.996094 C 48.226562 129.484375 48.144531 129.976562 48.070312 130.472656 C 48.03125 130.742188 47.996094 131.015625 47.960938 131.289062 C 47.929688 131.519531 47.910156 131.757812 47.84375 131.980469 C 47.824219 132.042969 47.773438 132.070312 47.71875 132.070312 C 47.652344 132.070312 47.589844 132.027344 47.585938 131.949219 C 47.570312 131.664062 47.621094 131.371094 47.664062 131.085938 C 47.699219 130.839844 47.742188 130.589844 47.785156 130.339844 C 47.875 129.828125 47.976562 129.316406 48.089844 128.804688 C 48.476562 127.003906 49.035156 125.242188 49.804688 123.582031 C 49.941406 123.277344 50.089844 122.984375 50.246094 122.691406 C 50.746094 121.546875 51.300781 120.425781 51.625 119.203125 C 51.640625 119.148438 51.597656 119.109375 51.558594 119.109375 C 51.535156 119.109375 51.511719 119.121094 51.5 119.152344 C 51.070312 120.378906 50.4375 121.492188 49.890625 122.648438 C 49.808594 122.816406 49.683594 122.964844 49.515625 123.042969 C 49.398438 123.09375 49.28125 123.1875 49.171875 123.324219 C 49.050781 123.464844 48.570312 124.382812 48.457031 124.636719 C 47.875 125.902344 47.417969 127.230469 47.019531 128.574219 C 46.621094 129.921875 46.289062 131.292969 46.03125 132.683594 C 45.902344 133.378906 45.800781 134.082031 45.714844 134.785156 C 45.628906 135.492188 45.605469 136.214844 45.488281 136.914062 C 45.476562 136.980469 45.425781 137.015625 45.375 137.015625 C 45.320312 137.015625 45.261719 136.972656 45.261719 136.898438 C 45.25 136.121094 45.386719 135.324219 45.496094 134.558594 C 45.609375 133.769531 45.746094 132.984375 45.898438 132.203125 C 46.171875 130.824219 46.523438 129.464844 46.945312 128.132812 C 47.21875 127.261719 47.527344 126.40625 47.851562 125.558594 C 48.21875 124.265625 48.679688 123.070312 49.273438 121.867188 C 49.878906 120.648438 50.542969 119.335938 50.519531 117.921875 C 50.515625 117.820312 50.445312 117.769531 50.371094 117.769531 C 50.304688 117.769531 50.238281 117.816406 50.230469 117.910156 C 50.132812 119.335938 49.378906 120.621094 48.769531 121.851562 C 48.121094 123.167969 47.660156 124.476562 47.300781 125.914062 C 46.925781 127.410156 43.59375 137.0625 42.175781 148.960938 " fill-opacity="1" fill-rule="nonzero"/></g><path fill="#22894c" d="M 88.605469 210.910156 C 87.238281 208.984375 83.535156 207.351562 82.679688 206.921875 C 80.710938 205.933594 78.613281 205.472656 76.460938 205.222656 C 73.863281 204.914062 71.351562 204.414062 68.835938 203.652344 C 66.519531 202.953125 64.167969 202.140625 61.753906 201.933594 C 61.625 201.921875 61.605469 202.15625 61.734375 202.179688 C 64.054688 202.59375 66.277344 203.285156 68.515625 204.050781 C 70.652344 204.785156 72.785156 205.503906 75.019531 205.800781 C 77.214844 206.09375 79.363281 206.335938 81.4375 207.214844 C 82.34375 207.597656 83.222656 208.054688 84.058594 208.589844 C 84.507812 208.878906 84.941406 209.191406 85.363281 209.515625 C 85.714844 209.78125 86.042969 210.078125 86.375 210.375 C 86.027344 210.304688 85.679688 210.242188 85.332031 210.183594 C 84.058594 209.046875 82.566406 208.265625 80.917969 207.929688 C 78.765625 207.484375 76.558594 207.871094 74.390625 207.5625 C 72.058594 207.234375 69.851562 206.113281 67.660156 205.257812 C 65.433594 204.390625 63.210938 203.523438 61.007812 202.589844 C 58.402344 201.488281 55.8125 200.371094 53.160156 199.410156 C 53.035156 199.367188 52.964844 199.585938 53.082031 199.644531 C 57.410156 201.703125 61.902344 203.339844 66.265625 205.304688 C 68.34375 206.238281 70.429688 207.28125 72.59375 207.957031 C 74.71875 208.621094 76.886719 208.449219 79.070312 208.621094 C 80.742188 208.753906 82.347656 209.203125 83.832031 209.976562 C 82.945312 209.875 82.078125 209.820312 81.28125 209.820312 C 77.617188 209.820312 67.363281 208.207031 60.082031 203.585938 C 52.804688 198.96875 20.824219 190.65625 23.878906 191.667969 C 26.9375 192.679688 52.882812 201.539062 55.84375 203.011719 C 58.804688 204.480469 72.320312 211.84375 80.851562 211.527344 C 89.378906 211.214844 92.519531 212.742188 92.519531 212.742188 C 91.308594 211.761719 90.34375 211.21875 88.605469 210.910156 " fill-opacity="1" fill-rule="nonzero"/><path fill="#22894c" d="M 97.171875 218.226562 C 97.171875 218.226562 98.871094 207.816406 88.117188 200.546875 C 77.363281 193.273438 41.71875 190.109375 36.984375 189.476562 C 32.246094 188.847656 25.609375 187.929688 25.609375 187.929688 C 25.609375 187.929688 62.957031 194.433594 68.007812 196.222656 C 73.0625 198.015625 88.125 199.035156 95.105469 211.121094 C 95.105469 211.121094 96.320312 213.398438 96.28125 216.507812 L 97.171875 218.226562 " fill-opacity="1" fill-rule="nonzero"/><path fill="#b7302c" d="M 56.554688 187.164062 L 54.039062 187.074219 C 54.039062 187.074219 55.273438 146.652344 56.109375 142.015625 C 56.945312 137.378906 56.554688 187.164062 56.554688 187.164062 " fill-opacity="1" fill-rule="nonzero"/><path fill="#70b8ab" d="M 96.019531 152.242188 C 96.046875 150.234375 96.277344 141.425781 98.460938 134.449219 C 99.777344 130.535156 101.191406 128.609375 101.492188 128.226562 C 101.507812 128.203125 101.527344 128.179688 101.546875 128.15625 C 96.3125 138.007812 97.402344 149.398438 97.710938 151.8125 C 97.164062 151.933594 96.597656 152.078125 96.019531 152.242188 " fill-opacity="1" fill-rule="nonzero"/><path fill="#3985dd" d="M 93.046875 153.609375 L 96.019531 152.664062 C 96.019531 152.664062 95.957031 135.035156 101.546875 128.15625 C 101.546875 128.15625 94.195312 135.269531 93.046875 153.609375 " fill-opacity="1" fill-rule="nonzero"/><path fill="#dc5004" d="M 68.136719 188.847656 C 68.136719 188.847656 73.0625 173.070312 82.726562 161.453125 C 90.691406 151.21875 100.648438 151.382812 104.082031 150.957031 C 107.515625 150.53125 120.046875 149.050781 124.851562 147.121094 C 129.65625 145.191406 134.757812 143.277344 134.757812 143.277344 C 134.757812 143.277344 126.027344 148.757812 121.539062 149.742188 C 117.046875 150.726562 104.4375 152.347656 99.183594 154.207031 C 93.929688 156.066406 87.0625 158.738281 80.191406 168.152344 C 73.324219 177.566406 68.136719 188.847656 68.136719 188.847656 " fill-opacity="1" fill-rule="nonzero"/><path fill="#8e0300" d="M 101.160156 176.90625 C 101.160156 176.90625 113.609375 174.125 116.847656 171.347656 C 120.085938 168.574219 121.625 162.980469 126.089844 160.835938 C 130.558594 158.6875 139.367188 155.855469 145.578125 154.699219 C 145.578125 154.699219 130.386719 156.628906 124.179688 160.28125 C 117.96875 163.9375 118.035156 168.292969 114.140625 170.902344 C 111.609375 172.59375 101.160156 176.90625 101.160156 176.90625 " fill-opacity="1" fill-rule="nonzero"/><path fill="#b7302c" d="M 137.289062 214.121094 C 133.953125 214.128906 128.527344 208.984375 126.160156 207.183594 C 124.078125 206.542969 123.355469 206.183594 119.660156 205.539062 C 114.09375 204.566406 106.503906 203.5 103.429688 200.6875 C 103.429688 200.6875 99.183594 198.742188 96.226562 192.792969 C 93.269531 186.84375 100.5 185.015625 104.082031 185.578125 C 107.667969 186.140625 114.527344 186.621094 116.015625 189.160156 C 118.828125 194.117188 103.738281 185.785156 101.160156 190.546875 C 98.78125 194.949219 103.527344 199.003906 110.683594 201.671875 C 117.839844 204.34375 124.238281 203.078125 132.898438 211.121094 C 134.578125 212.300781 137.289062 214.121094 137.289062 214.121094 " fill-opacity="1" fill-rule="nonzero"/><path fill="#22894c" d="M 86.4375 184.878906 C 86.4375 184.878906 92.097656 185.042969 94.8125 190.546875 C 97.515625 196.039062 99.601562 200.792969 110.371094 204.078125 C 110.371094 204.078125 116.40625 204.980469 117.894531 205.234375 C 119.386719 205.492188 105.699219 202.851562 101.160156 197.664062 C 94.632812 190.199219 95.195312 186.535156 90.453125 184.878906 C 88.0625 184.042969 86.4375 184.878906 86.4375 184.878906 " fill-opacity="1" fill-rule="nonzero"/><path fill="#ba0e01" d="M 142.042969 189.777344 C 141.148438 189.023438 140.210938 188.324219 139.289062 187.609375 C 138.355469 186.882812 137.464844 186.101562 136.496094 185.417969 C 134.617188 184.09375 132.65625 182.886719 130.59375 181.910156 C 128.53125 180.9375 126.375 180.203125 124.195312 179.609375 C 121.996094 179.011719 119.769531 178.550781 117.542969 178.109375 C 115.941406 177.792969 114.429688 177.5 112.832031 177.164062 C 112.617188 177.253906 112.390625 177.339844 112.175781 177.425781 C 112.59375 177.519531 112.929688 177.59375 113.347656 177.679688 C 114.457031 177.902344 115.5625 178.113281 116.671875 178.324219 C 118.882812 178.742188 121.097656 179.164062 123.285156 179.707031 C 125.46875 180.25 127.628906 180.910156 129.710938 181.796875 C 131.8125 182.691406 133.800781 183.851562 135.703125 185.152344 C 136.175781 185.46875 136.640625 185.800781 137.105469 186.128906 C 137.597656 186.472656 138.097656 186.800781 138.585938 187.148438 C 139.523438 187.820312 140.421875 188.554688 141.324219 189.28125 C 141.550781 189.464844 141.777344 189.644531 142.011719 189.820312 L 142.042969 189.777344 " fill-opacity="1" fill-rule="nonzero"/><path fill="#ba0e01" d="M 139.101562 185.734375 C 136.167969 183.484375 132.953125 181.652344 129.625 180.167969 C 127.960938 179.425781 126.261719 178.757812 124.539062 178.199219 C 122.75 177.621094 120.925781 177.164062 119.09375 176.789062 C 117.988281 176.5625 116.878906 176.367188 115.765625 176.191406 C 115.523438 176.15625 115.523438 176.15625 115.285156 176.121094 C 115.078125 176.199219 114.9375 176.300781 114.738281 176.363281 C 114.71875 176.371094 115.125 176.445312 115.503906 176.507812 C 116.492188 176.667969 117.476562 176.839844 118.460938 177.027344 C 120.3125 177.378906 122.148438 177.8125 123.960938 178.363281 C 125.664062 178.878906 127.34375 179.464844 128.992188 180.15625 C 130.664062 180.859375 132.285156 181.667969 133.882812 182.539062 C 135.671875 183.511719 137.394531 184.601562 139.082031 185.757812 L 139.101562 185.734375 " fill-opacity="1" fill-rule="nonzero"/><path fill="#ba0e01" d="M 137.742188 183.171875 C 137.191406 182.6875 136.570312 182.273438 135.972656 181.859375 C 135.347656 181.425781 134.703125 181.027344 134.070312 180.621094 C 132.800781 179.8125 131.488281 179.097656 130.128906 178.464844 C 128.753906 177.824219 127.339844 177.324219 125.875 176.96875 C 124.339844 176.59375 122.78125 176.371094 121.226562 176.132812 C 120.351562 175.996094 119.472656 175.855469 118.605469 175.671875 C 118.171875 175.578125 117.742188 175.488281 117.3125 175.378906 C 117.109375 175.328125 117.3125 175.386719 117.109375 175.328125 C 117.023438 175.402344 116.804688 175.445312 116.710938 175.511719 C 116.949219 175.59375 116.917969 175.570312 117.160156 175.636719 C 117.53125 175.742188 117.902344 175.839844 118.277344 175.921875 C 119.058594 176.09375 119.847656 176.222656 120.636719 176.347656 C 122.179688 176.582031 123.730469 176.769531 125.261719 177.070312 C 126.003906 177.21875 126.742188 177.394531 127.464844 177.617188 C 128.171875 177.835938 128.859375 178.101562 129.550781 178.367188 C 130.921875 178.898438 132.238281 179.621094 133.503906 180.394531 C 134.222656 180.828125 134.90625 181.308594 135.589844 181.800781 C 136.28125 182.300781 136.941406 182.855469 137.644531 183.328125 C 137.742188 183.394531 137.828125 183.25 137.742188 183.171875 " fill-opacity="1" fill-rule="nonzero"/><path fill="#dc5004" d="M 124.855469 202.324219 C 122.453125 200.503906 120.546875 198.035156 119.339844 195.175781 C 118.835938 193.980469 118.664062 193.707031 118.035156 192.863281 C 117.238281 192.746094 116.316406 192.570312 115.355469 192.398438 C 115.765625 193.101562 116.105469 193.851562 116.46875 194.582031 C 117.460938 196.578125 118.992188 198.695312 120.890625 199.789062 C 121.027344 199.871094 120.902344 200.128906 120.765625 200.054688 C 119.8125 199.542969 119.027344 198.824219 118.308594 197.992188 C 117.59375 197.167969 117.039062 196.210938 116.34375 195.371094 C 115.597656 194.472656 115.097656 193.429688 114.445312 192.457031 C 114.386719 192.371094 114.324219 192.285156 114.265625 192.203125 C 113.472656 192.070312 112.671875 191.945312 111.914062 191.863281 C 112.53125 192.742188 113.085938 193.671875 113.660156 194.578125 C 114.890625 196.511719 116.089844 198.480469 118.117188 199.558594 C 118.300781 199.65625 118.136719 199.933594 117.957031 199.847656 C 115.972656 198.898438 114.351562 197.046875 113.035156 195.25 C 112.347656 194.3125 111.683594 193.351562 111.027344 192.390625 C 110.882812 192.183594 110.738281 191.972656 110.59375 191.761719 C 110.148438 191.75 109.734375 191.757812 109.355469 191.796875 C 109.855469 192.363281 110.277344 193.015625 110.617188 193.636719 C 111.511719 195.253906 112.414062 197.007812 113.976562 197.996094 C 114.242188 198.164062 114.0625 198.574219 113.773438 198.457031 C 111.113281 197.371094 110.269531 193.925781 108.195312 192.070312 C 107.476562 192.386719 107.113281 192.972656 107.324219 193.960938 C 108.117188 197.707031 113.394531 201.636719 118.035156 201.671875 C 122.679688 201.710938 128.527344 205.648438 128.527344 205.648438 C 128.527344 205.648438 128.109375 204.785156 124.855469 202.324219 " fill-opacity="1" fill-rule="nonzero"/><path fill="#ff7133" d="M 68.871094 118.257812 C 68.691406 120.015625 68.429688 121.574219 67.933594 123.484375 C 67.503906 125.144531 67.050781 126.832031 66.554688 128.472656 C 65.5625 131.75 64.421875 134.980469 63.746094 138.351562 C 63.417969 139.984375 63.199219 141.644531 63.128906 143.316406 C 63.058594 145.050781 63.128906 146.808594 62.820312 148.519531 C 62.660156 149.386719 62.378906 150.21875 61.976562 150.996094 C 61.574219 151.765625 61.097656 152.492188 60.71875 153.277344 C 59.953125 154.847656 59.886719 156.566406 59.894531 158.300781 C 59.898438 159.214844 59.910156 160.132812 59.8125 161.042969 C 59.714844 161.925781 59.496094 162.777344 59.242188 163.621094 C 58.777344 165.164062 58.175781 166.734375 58.175781 168.382812 C 58.175781 168.78125 58.210938 169.179688 58.289062 169.574219 C 58.324219 169.753906 58.585938 169.714844 58.554688 169.535156 C 58.238281 167.84375 58.734375 166.171875 59.222656 164.578125 C 59.460938 163.789062 59.710938 163 59.878906 162.191406 C 60.058594 161.347656 60.121094 160.488281 60.136719 159.625 C 60.167969 157.839844 60.003906 155.984375 60.585938 154.273438 C 61.128906 152.664062 62.269531 151.378906 62.785156 149.757812 C 63.316406 148.089844 63.328125 146.316406 63.347656 144.574219 C 63.367188 142.777344 63.492188 141.003906 63.796875 139.230469 C 64.367188 135.886719 65.367188 132.625 66.359375 129.394531 C 67.355469 126.160156 68.503906 122.855469 68.882812 119.457031 C 68.929688 119.054688 68.980469 118.667969 69 118.261719 C 69.003906 118.125 68.882812 118.125 68.871094 118.257812 " fill-opacity="1" fill-rule="nonzero"/><path fill="#ff7133" d="M 68.882812 116.921875 C 67.855469 120.054688 66.878906 123.207031 65.886719 126.351562 C 65.386719 127.929688 64.882812 129.507812 64.382812 131.085938 C 63.90625 132.582031 63.429688 134.078125 63.050781 135.605469 C 62.664062 137.152344 62.363281 138.714844 62.28125 140.316406 C 62.199219 141.890625 62.445312 143.503906 62.175781 145.0625 C 61.71875 147.71875 59.734375 149.691406 58.863281 152.167969 C 57.9375 154.796875 58.363281 157.71875 57.417969 160.339844 C 57.308594 160.648438 57.175781 160.945312 57.019531 161.234375 C 56.925781 161.414062 57.175781 161.582031 57.28125 161.402344 C 58.667969 158.992188 58.207031 156.039062 58.761719 153.382812 C 59.039062 152.050781 59.636719 150.859375 60.296875 149.699219 C 60.929688 148.578125 61.621094 147.476562 62.046875 146.246094 C 62.539062 144.824219 62.519531 143.355469 62.492188 141.863281 C 62.464844 140.242188 62.628906 138.640625 62.941406 137.054688 C 63.25 135.484375 63.695312 133.949219 64.164062 132.425781 C 64.648438 130.851562 65.148438 129.28125 65.644531 127.710938 C 66.652344 124.527344 67.695312 121.351562 68.667969 118.15625 C 68.789062 117.765625 68.90625 117.375 69.027344 116.984375 C 69.054688 116.886719 68.917969 116.824219 68.882812 116.921875 " fill-opacity="1" fill-rule="nonzero"/><path fill="#ff7133" d="M 67.625 118.320312 C 66.722656 120.4375 65.863281 122.574219 65.019531 124.71875 C 64.183594 126.839844 63.386719 128.980469 62.664062 131.144531 C 61.933594 133.335938 61.3125 135.558594 60.726562 137.796875 C 60.429688 138.929688 60.183594 140.066406 59.980469 141.222656 C 59.777344 142.367188 59.597656 143.511719 59.289062 144.628906 C 59.136719 145.171875 58.953125 145.699219 58.726562 146.210938 C 58.523438 146.667969 58.285156 147.105469 58.054688 147.546875 C 57.597656 148.425781 57.132812 149.367188 57.101562 150.394531 C 57.097656 150.511719 57.097656 150.628906 57.109375 150.746094 C 57.125 150.914062 57.1875 151.070312 57.246094 151.226562 C 57.320312 151.414062 57.621094 151.359375 57.621094 151.152344 C 57.621094 150.636719 57.605469 150.140625 57.734375 149.640625 C 57.863281 149.148438 58.066406 148.683594 58.285156 148.230469 C 58.742188 147.304688 59.253906 146.417969 59.566406 145.414062 C 59.910156 144.300781 60.066406 143.144531 60.246094 141.992188 C 60.425781 140.878906 60.644531 139.773438 60.847656 138.664062 C 61.265625 136.394531 61.910156 134.175781 62.613281 131.992188 C 63.3125 129.804688 64.101562 127.648438 64.933594 125.511719 C 65.757812 123.390625 66.652344 121.304688 67.503906 119.195312 C 67.609375 118.941406 67.710938 118.6875 67.816406 118.429688 C 67.871094 118.296875 67.683594 118.1875 67.625 118.320312 " fill-opacity="1" fill-rule="nonzero"/><path fill="#43a054" d="M 70.578125 188.964844 C 70.386719 188.90625 70.160156 188.878906 69.957031 188.847656 C 70.871094 187.644531 72.074219 186.398438 73.253906 185.484375 C 74.511719 184.503906 75.886719 183.738281 77.285156 183.011719 C 78.667969 182.296875 80.089844 181.679688 81.519531 181.082031 C 83.164062 180.398438 84.824219 179.769531 86.503906 179.195312 C 88.214844 178.613281 89.929688 178.03125 91.683594 177.628906 C 91.6875 177.628906 91.691406 177.628906 91.695312 177.628906 C 91.75 177.628906 91.761719 177.710938 91.710938 177.730469 C 89.839844 178.390625 87.945312 178.960938 86.082031 179.652344 C 84.398438 180.28125 82.726562 180.945312 81.070312 181.652344 C 79.710938 182.238281 78.34375 182.855469 77.050781 183.605469 C 74.714844 184.964844 72.320312 186.792969 70.578125 188.964844 " fill-opacity="1" fill-rule="nonzero"/><path fill="#43a054" d="M 69.496094 188.75 C 69.308594 188.738281 69.105469 188.6875 68.921875 188.628906 C 69.136719 188.152344 69.542969 187.699219 69.867188 187.320312 C 70.328125 186.789062 70.847656 186.320312 71.382812 185.871094 C 73.398438 184.175781 75.589844 182.738281 77.921875 181.589844 C 79.132812 181 80.371094 180.484375 81.636719 180.046875 C 82.25 179.832031 82.871094 179.660156 83.492188 179.480469 C 84.089844 179.308594 84.6875 179.125 85.296875 179.039062 C 85.304688 179.039062 85.308594 179.039062 85.3125 179.039062 C 85.421875 179.039062 85.441406 179.199219 85.332031 179.234375 C 84.671875 179.464844 83.988281 179.605469 83.324219 179.824219 C 82.636719 180.046875 81.953125 180.308594 81.277344 180.578125 C 78.917969 181.515625 76.652344 182.738281 74.53125 184.183594 C 73.472656 184.90625 72.441406 185.683594 71.460938 186.523438 C 71 186.917969 70.546875 187.332031 70.152344 187.800781 C 69.933594 188.058594 69.675781 188.46875 69.496094 188.75 " fill-opacity="1" fill-rule="nonzero"/><g clip-path="url(#fbf5110ec6)"><path fill="#006363" d="M 100.71875 218.378906 C 100.753906 218.304688 100.773438 218.214844 100.761719 218.113281 C 100.472656 215.316406 100.117188 212.542969 99.726562 209.757812 C 99.414062 207.539062 98.96875 205.34375 97.46875 203.664062 C 96.140625 202.179688 94.386719 201.253906 92.835938 200.074219 C 91.984375 199.425781 91.238281 198.65625 90.433594 197.949219 C 89.585938 197.207031 88.652344 196.640625 87.617188 196.242188 C 85.429688 195.398438 83.121094 194.773438 80.867188 194.164062 C 78.335938 193.476562 75.789062 192.898438 73.21875 192.40625 C 70.804688 191.941406 68.375 191.5625 65.953125 191.164062 C 63.542969 190.769531 61.15625 190.21875 58.734375 189.917969 C 56.042969 189.585938 53.34375 189.503906 50.652344 189.207031 C 47.910156 188.902344 45.171875 188.570312 42.429688 188.304688 C 42.296875 188.289062 42.300781 188.503906 42.429688 188.519531 C 44.796875 188.773438 47.167969 188.96875 49.539062 189.226562 C 50.757812 189.359375 52 189.4375 53.207031 189.652344 C 54.429688 189.871094 55.640625 190.121094 56.871094 190.308594 C 59.234375 190.664062 61.597656 190.941406 63.972656 191.199219 C 66.324219 191.453125 68.667969 191.984375 70.980469 192.5 C 75.71875 193.5625 80.507812 194.722656 85.113281 196.324219 C 86.199219 196.707031 87.316406 197.066406 88.332031 197.644531 C 89.308594 198.199219 90.09375 199.015625 90.90625 199.796875 C 92.34375 201.183594 94.046875 202.128906 95.585938 203.371094 C 96.449219 204.0625 97.214844 204.886719 97.707031 205.921875 C 98.265625 207.089844 98.472656 208.40625 98.65625 209.6875 C 99.011719 212.164062 99.351562 214.632812 99.765625 217.097656 C 99.828125 218.402344 99.886719 219.78125 99.917969 221.070312 C 98.875 218.070312 98.363281 214.855469 97.496094 211.765625 C 96.855469 209.492188 95.949219 207.21875 94.574219 205.332031 C 93.0625 203.261719 90.992188 201.722656 88.867188 200.4375 C 84.109375 197.558594 79.152344 195.15625 73.828125 193.746094 C 68.160156 192.246094 62.292969 191.648438 56.511719 190.878906 C 53.140625 190.433594 49.769531 190.003906 46.394531 189.59375 C 43.050781 189.1875 33.378906 188.085938 30.023438 187.828125 C 29.683594 187.800781 29.6875 188.023438 30.023438 188.085938 C 32.933594 188.636719 42.136719 189.8125 45.066406 190.257812 C 48.066406 190.714844 51.070312 191.15625 54.082031 191.566406 C 59.8125 192.351562 65.613281 192.902344 71.28125 194.109375 C 73.925781 194.671875 76.535156 195.433594 79.09375 196.355469 C 81.648438 197.273438 84.234375 198.316406 86.617188 199.675781 C 88.8125 200.925781 91.066406 202.292969 92.902344 204.105469 C 94.675781 205.851562 95.8125 208.042969 96.527344 210.480469 C 97.695312 214.445312 98.042969 218.890625 99.695312 222.691406 C 99.769531 222.988281 99.851562 223.285156 99.933594 223.578125 C 99.921875 224.507812 99.882812 225.289062 99.800781 225.820312 C 99.800781 225.820312 105.949219 249.472656 108.046875 264.414062 L 108.769531 262.683594 L 100.71875 218.378906 " fill-opacity="1" fill-rule="nonzero"/></g><path fill="#71b75a" d="M 94.328125 214.238281 C 92.519531 207.5 86.585938 203.941406 82.339844 202.027344 C 77.542969 199.871094 72.195312 199.808594 67.074219 199.601562 C 64.367188 199.492188 61.664062 199.261719 59 198.726562 C 56.183594 198.160156 53.425781 197.304688 50.660156 196.523438 C 45.027344 194.941406 39.398438 193.351562 33.78125 191.707031 C 32.417969 191.304688 30.210938 190.558594 28.890625 190.019531 C 27.640625 189.507812 26.394531 189.070312 25.066406 188.820312 C 23.371094 188.503906 20.851562 188.171875 19.132812 188 C 19.378906 188.15625 22.914062 188.910156 23.675781 189.070312 C 25.042969 189.351562 26.359375 189.664062 27.671875 190.164062 C 28.894531 190.632812 30.078125 191.210938 31.328125 191.589844 C 36.828125 193.273438 42.398438 194.699219 47.890625 196.414062 C 53.171875 198.058594 58.441406 199.722656 63.957031 200.109375 C 69.195312 200.472656 74.605469 200.246094 79.683594 201.84375 C 84.820312 203.460938 88.8125 206.625 91.472656 211.6875 C 91.683594 212.089844 91.964844 212.324219 92.144531 212.480469 C 92.449219 212.75 93.152344 213.105469 94.328125 214.238281 " fill-opacity="1" fill-rule="nonzero"/><path fill="#97cbf7" d="M 99.535156 134.636719 C 99.550781 134.589844 99.492188 134.5625 99.476562 134.609375 C 98.585938 137.027344 98.125 139.554688 97.996094 142.1875 C 97.929688 143.59375 97.957031 145 98.058594 146.40625 C 98.152344 147.6875 98.234375 149.070312 98.601562 150.292969 C 98.660156 150.496094 98.945312 150.480469 98.9375 150.238281 C 98.886719 148.816406 98.613281 147.394531 98.515625 145.972656 C 98.425781 144.664062 98.394531 143.339844 98.433594 142.023438 C 98.511719 139.53125 98.863281 137.003906 99.535156 134.636719 " fill-opacity="1" fill-rule="nonzero"/><path fill="#25567f" d="M 110.96875 258.371094 C 110.683594 258.964844 109.304688 261.816406 109.304688 261.816406 C 109.304688 261.816406 105.085938 230.101562 99.972656 211.527344 C 99.972656 211.527344 106.644531 232.058594 110.96875 258.371094 " fill-opacity="1" fill-rule="nonzero"/><path fill="#84395e" d="M 65.929688 188.320312 C 66.65625 188.441406 67.597656 188.601562 67.597656 188.601562 C 67.597656 188.601562 68.359375 167.742188 71.476562 161.898438 C 74.125 155.917969 91.609375 139.65625 91.609375 139.65625 C 91.609375 139.65625 79.351562 149.394531 73.597656 156.558594 C 66.257812 163.304688 65.929688 188.320312 65.929688 188.320312 " fill-opacity="1" fill-rule="nonzero"/><path fill="#ee611c" d="M 81.105469 164.648438 C 81.042969 164.648438 80.988281 164.570312 81.039062 164.5 C 83.898438 160.667969 89.882812 153.539062 98.75 152.269531 C 89.605469 156.140625 83.640625 161.898438 81.164062 164.621094 C 81.148438 164.640625 81.125 164.648438 81.105469 164.648438 " fill-opacity="1" fill-rule="nonzero"/><path fill="#84395e" d="M 56.554688 187.164062 L 54.039062 187.074219 L 54.960938 161.269531 C 54.960938 161.269531 54.179688 187.480469 56.554688 187.164062 " fill-opacity="1" fill-rule="nonzero"/><path fill="#84395e" d="M 54.867188 166.0625 C 55.769531 153.527344 56.789062 140.671875 58.222656 137.851562 L 56.109375 142.015625 C 56.109375 142.015625 54.679688 163.503906 54.867188 166.0625 " fill-opacity="1" fill-rule="nonzero"/><path fill="#e55334" d="M 60.371094 170.484375 C 60.367188 170.484375 60.363281 170.484375 60.359375 170.484375 C 59.585938 170.433594 61.234375 159.792969 62.5625 156.929688 C 62.609375 156.832031 62.691406 156.789062 62.773438 156.789062 C 62.898438 156.789062 63.023438 156.890625 63.015625 157.054688 C 62.914062 158.550781 62.992188 161.925781 62.652344 164.023438 C 62.316406 166.121094 61.058594 170.484375 60.371094 170.484375 " fill-opacity="1" fill-rule="nonzero"/><g clip-path="url(#58a06bf815)"><path fill="#e9d000" d="M 122.570312 172.464844 L 124.148438 171.546875 C 124.148438 171.546875 134.007812 171.304688 138.3125 170.261719 C 142.480469 169.140625 143.636719 168.738281 146.480469 167.492188 C 148.03125 166.8125 149.179688 166.28125 150.058594 165.921875 C 150.796875 165.621094 151.34375 165.4375 151.785156 165.386719 C 152.757812 165.273438 157.179688 164.386719 158.15625 164.394531 C 158.960938 164.265625 152.269531 165.390625 151.125 165.800781 C 149.546875 166.371094 145.53125 168.375 143.640625 169.203125 C 141.746094 170.027344 136.378906 170.75 132.851562 171.445312 C 128.710938 172.261719 122.351562 172.628906 122.570312 172.464844 " fill-opacity="1" fill-rule="nonzero"/></g><path fill="#f75e78" d="M 117.839844 175.066406 C 118.230469 174.75 124.804688 174.667969 130.011719 176.421875 C 136.816406 179.042969 139.980469 184.46875 143.6875 188.847656 C 143.6875 188.847656 139.492188 183.828125 136.859375 181.59375 C 136.605469 181.378906 136.347656 181.160156 136.101562 180.9375 C 129.140625 174.59375 117.839844 174.800781 117.839844 175.066406 " fill-opacity="1" fill-rule="nonzero"/><path fill="#568700" d="M 50.597656 192.472656 C 48.960938 192.238281 47.328125 192 45.71875 191.761719 C 40.457031 190.984375 35.394531 190.183594 30.921875 189.449219 C 31.132812 189.472656 38.40625 190.40625 46.433594 191.6875 C 47.824219 191.949219 49.222656 192.210938 50.597656 192.472656 " fill-opacity="1" fill-rule="nonzero"/><path fill="#a7ae24" d="M 74.589844 198.566406 C 74.164062 198.566406 73.707031 198.527344 73.382812 198.453125 C 69.933594 197.695312 66.070312 197.804688 61.898438 197.03125 C 56.632812 196.058594 30.917969 189.445312 30.917969 189.445312 C 30.917969 189.445312 30.917969 189.445312 30.921875 189.449219 C 35.394531 190.183594 40.457031 190.984375 45.71875 191.761719 C 47.328125 192 48.960938 192.238281 50.597656 192.472656 C 57.445312 193.777344 63.804688 195.058594 66.789062 195.859375 C 67.179688 195.976562 67.585938 196.097656 68.003906 196.222656 C 68.007812 196.222656 68.007812 196.222656 68.007812 196.222656 C 69.683594 196.816406 72.460938 197.328125 75.679688 198.183594 C 75.914062 198.3125 75.84375 198.421875 75.324219 198.515625 C 75.117188 198.550781 74.859375 198.566406 74.589844 198.566406 " fill-opacity="1" fill-rule="nonzero"/><path fill="#328834" d="M 75.679688 198.183594 C 72.460938 197.328125 69.683594 196.816406 68.007812 196.222656 C 68.007812 196.222656 68.007812 196.222656 68.003906 196.222656 C 68.707031 196.429688 69.433594 196.636719 70.152344 196.820312 C 72.410156 197.394531 75.074219 197.851562 75.679688 198.183594 M 66.789062 195.859375 C 63.804688 195.058594 57.445312 193.777344 50.597656 192.472656 C 49.222656 192.210938 47.824219 191.949219 46.433594 191.6875 C 52.78125 192.699219 59.597656 193.929688 63.773438 195.101562 C 64.386719 195.148438 65.488281 195.46875 66.789062 195.859375 " fill-opacity="1" fill-rule="nonzero"/></svg>